<svg xmlns="http://www.w3.org/2000/svg" width="100" height="100"><path d="M.5 63.671h40.856v32.713H12.831V84.191H4.595v12.192H.5V63.671zm4.095-4.049V27.047H21.02v32.575H4.595zm0 20.475h8.236V71.86H4.595v8.237zm12.33 0h8.144V71.86h-8.144v8.237zm0 4.094v8.144h8.144v-8.144h-8.144zm8.144-24.569V2.616h40.764V39.24h-4.095v-4.049h-8.144v61.193H45.45V59.622H25.069zm4.095-40.718h8.144V10.76h-8.144v8.144zm0 12.192h8.144v-8.144h-8.144v8.144zm0 12.239h8.144v-8.144h-8.144v8.144zm0 12.192h8.144v-8.144h-8.144v8.144zm0 24.57h8.144V71.86h-8.144v8.237zm0 4.094v8.144h8.144v-8.144h-8.144zm12.192-65.287H49.5V10.76h-8.144v8.144zm0 12.192H49.5v-8.144h-8.144v8.144zm0 12.239H49.5v-8.144h-8.144v8.144zm0 12.192H49.5v-8.144h-8.144v8.144zm12.239-36.623h8.144V10.76h-8.144v8.144zm0 12.192h8.144v-8.144h-8.144v8.144zm4.049 65.288V43.335H98.5v53.049H82.121V84.191h-8.19v12.192H57.644zm4.094-40.857h8.144v-8.144h-8.144v8.144zm0 12.239h8.144v-8.144h-8.144v8.144zm0 12.331h8.144V71.86h-8.144v8.237zm0 4.094v8.144h8.144v-8.144h-8.144zm8.144-44.951V18.904h20.429V39.24H69.882zm4.049 16.287h8.19v-8.144h-8.19v8.144zm0 12.239h8.19v-8.144h-8.19v8.144zm0 12.331h8.19V71.86h-8.19v8.237zm12.285-24.57h8.189v-8.144h-8.189v8.144zm0 12.239h8.189v-8.144h-8.189v8.144zm0 12.331h8.189V71.86h-8.189v8.237zm0 4.094v8.144h8.189v-8.144h-8.189z" fill=""/></svg>