<?xml version="1.0" encoding="UTF-8"?><!DOCTYPE svg PUBLIC "-//W3C//DTD SVG 1.1//EN" "http://www.w3.org/Graphics/SVG/1.1/DTD/svg11.dtd"><svg xmlns="http://www.w3.org/2000/svg"><symbol id="arrow-down" viewBox="0 0 50 50"><path d="M45.812 19.256l-3.118-4.41a1.59 1.59 0 0 0-2.202-.39l-15.51 10.772L9.475 14.455a1.59 1.59 0 0 0-2.204.39l-3.11 4.41a1.554 1.554 0 0 0 .386 2.19l19.526 13.43c.198.134.415.125.63.125h.556c.222 0 .438.01.637-.125l19.523-13.498c.724-.498.895-1.408.394-2.12z"/></symbol><symbol id="arrow-downwards" viewBox="0 0 50 50"><path fill-rule="evenodd" clip-rule="evenodd" d="M4.5 25.12l20.23 21.506L44.96 25.12h-9.282V2.832H13.782v22.285H4.5z"/></symbol><symbol id="arrow-left" viewBox="0 0 50 50"><path d="M24.462 24.486L35.906 8.01c.526-.76.344-1.81-.413-2.335l-4.686-3.313a1.652 1.652 0 0 0-2.318.412L14.08 23.52a1.662 1.662 0 0 0-.28.672v.018l-.016.13-.005.056v.19l.004.047.017.14v.007c.043.236.135.464.28.675l14.41 20.747a1.652 1.652 0 0 0 2.318.414l4.686-3.31a1.692 1.692 0 0 0 .413-2.34l-11.445-16.48z"/></symbol><symbol id="arrow-right" viewBox="0 0 50 50"><path d="M25.52 24.49L14.077 40.962c-.524.762-.344 1.812.414 2.336l4.686 3.313a1.653 1.653 0 0 0 2.318-.412l14.41-20.747a1.65 1.65 0 0 0 .278-.67v-.02l.018-.13.005-.055v-.19l-.005-.047-.018-.138v-.008a1.688 1.688 0 0 0-.28-.675L21.493 2.774a1.652 1.652 0 0 0-2.317-.413L14.49 5.67a1.692 1.692 0 0 0-.415 2.34L25.52 24.49z"/></symbol><symbol id="arrow-up-down" viewBox="0 0 50 50"><path d="M41.945 32.21l-2.533-3.585a1.29 1.29 0 0 0-1.79-.316l-12.6 8.752-12.6-8.753a1.293 1.293 0 0 0-1.79.315L8.103 32.21a1.262 1.262 0 0 0 .312 1.776L24.28 44.898c.164.11.34.102.515.102h.45c.18 0 .356.008.518-.102l15.86-10.967c.59-.403.73-1.14.322-1.72zM10.632 20.38c.413.58 1.212.72 1.79.315l12.6-8.752 12.602 8.752a1.29 1.29 0 0 0 1.79-.316l2.526-3.585c.413-.58.273-1.37-.314-1.773L25.764 4.106c-.16-.114-.338-.106-.518-.106H24.8c-.18 0-.356-.008-.518.106l-15.86 10.97c-.59.403-.73 1.168-.326 1.747l2.536 3.556z"/></symbol><symbol id="arrow-up" viewBox="0 0 50 50"><path d="M4.156 29.916l3.118 4.41a1.59 1.59 0 0 0 2.202.39l15.51-10.772 15.508 10.773a1.59 1.59 0 0 0 2.204-.39l3.11-4.41a1.554 1.554 0 0 0-.385-2.19L25.897 14.212a1.138 1.138 0 0 0-.63-.21h-.556a1.14 1.14 0 0 0-.636.21L4.55 27.753a1.53 1.53 0 0 0-.394 2.164z"/></symbol><symbol id="arrow-upwards" viewBox="0 0 50 50"><path fill-rule="evenodd" clip-rule="evenodd" d="M44.96 24.34L24.73 2.834 4.5 24.34h9.282v22.286h21.896V24.34h9.28z"/></symbol><symbol id="cross" viewBox="0 0 77 77"><path d="M77 61.62L53.886 38.495l23.1-23.1L61.6.014 38.486 23.102 15.374 0 0 15.394l23.096 23.1L0 61.62 15.374 77l23.113-23.1L61.6 77z"/></symbol><symbol id="hamburger" viewBox="0 0 100 100"><path d="M1.5 20.14v-4.93c0-1.35.478-2.503 1.433-3.458S5.04 10.32 6.39 10.32h88.22c1.324 0 2.47.477 3.438 1.432S99.5 13.86 99.5 15.21v4.93c0 1.323-.484 2.47-1.452 3.437s-2.114 1.45-3.438 1.45H6.39c-1.35 0-2.502-.482-3.457-1.45C1.978 22.61 1.5 21.463 1.5 20.14zm0 31.824v-4.89c0-1.376.478-2.547 1.433-3.502.955-.95 2.108-1.426 3.458-1.426h88.22c1.324 0 2.47.478 3.438 1.426.968.955 1.452 2.126 1.452 3.502v4.89c0 1.324-.484 2.47-1.452 3.438-.968.97-2.114 1.452-3.438 1.452H6.39c-1.35 0-2.502-.483-3.457-1.452-.955-.967-1.433-2.114-1.433-3.438zm0 26.936c0-1.35.478-2.51 1.433-3.465S5.04 74.01 6.39 74.01h88.22c1.324 0 2.47.47 3.438 1.425S99.5 77.55 99.5 78.9v4.89c0 1.376-.484 2.534-1.452 3.477-.968.943-2.114 1.415-3.438 1.415H6.39c-1.35 0-2.502-.472-3.457-1.415-.955-.943-1.433-2.1-1.433-3.476V78.9z"/></symbol></svg>