<?xml version="1.0" encoding="UTF-8"?><!DOCTYPE svg PUBLIC "-//W3C//DTD SVG 1.1//EN" "http://www.w3.org/Graphics/SVG/1.1/DTD/svg11.dtd"><svg xmlns="http://www.w3.org/2000/svg"><symbol id="social-facebook" viewBox="0 0 100 100"><path d="M56.186 89.948V53.504H68.42L70.25 39.3H56.186v-9.067c0-4.112 1.14-6.914 7.04-6.914l7.52-.006V10.612c-1.3-.173-5.766-.56-10.96-.56-10.844 0-18.267 6.62-18.267 18.775V39.3H29.252v14.204H41.52v36.444h14.666z"/></symbol><symbol id="social-linkedin" viewBox="0 0 100 100"><path d="M27.21 20C23.226 20 20 23.237 20 27.22c0 3.988 3.226 7.224 7.21 7.224 3.977 0 7.208-3.235 7.208-7.223 0-3.982-3.23-7.22-7.206-7.22zm37.874 18.926c-6.05 0-10.106 3.322-11.767 6.473h-.166V39.92H41.226V80H53.65V60.174c0-5.227.992-10.29 7.462-10.29 6.377 0 6.463 5.978 6.463 10.625V80H80V58.016c0-10.79-2.323-19.09-14.916-19.09zm-44.093.997V80h12.435V39.923H20.99z"/></symbol><symbol id="social-twitter" viewBox="0 0 100 100"><path d="M85 28.29a28.715 28.715 0 0 1-8.248 2.262 14.404 14.404 0 0 0 6.314-7.946 28.755 28.755 0 0 1-9.12 3.486 14.343 14.343 0 0 0-10.482-4.536c-7.932 0-14.362 6.43-14.362 14.36 0 1.127.127 2.223.372 3.274-11.936-.6-22.518-6.316-29.6-15.005a14.293 14.293 0 0 0-1.945 7.22c0 4.983 2.534 9.378 6.388 11.954a14.303 14.303 0 0 1-6.505-1.798l-.002.18c0 6.96 4.952 12.764 11.522 14.083a14.384 14.384 0 0 1-6.486.246c1.828 5.707 7.13 9.86 13.416 9.975a28.816 28.816 0 0 1-17.836 6.147 29.22 29.22 0 0 1-3.426-.2 40.65 40.65 0 0 0 22.014 6.452c26.416 0 40.86-21.884 40.86-40.86 0-.624-.013-1.243-.04-1.86A29.187 29.187 0 0 0 85 28.292"/></symbol><symbol id="social-url" viewBox="0 0 100 100"><path d="M63.668 36.71c-3.07 0-5.996 1.18-8.246 3.313l4.303 4.735a5.705 5.705 0 0 1 3.943-1.582h12.5c3.197 0 5.797 2.657 5.797 5.926v4.3c0 3.27-2.6 5.926-5.797 5.926h-12.5c-1.467 0-2.87-.56-3.943-1.584l-4.303 4.735c2.248 2.133 5.177 3.31 8.244 3.31h12.5v.003c6.683 0 12.12-5.56 12.12-12.39v-4.3c0-6.833-5.435-12.392-12.118-12.392h-12.5zm-39.008.003c-6.68 0-12.117 5.558-12.117 12.39V53.4c0 6.833 5.436 12.39 12.117 12.39h12.5l-.004.003c3.07 0 5.996-1.177 8.246-3.313l-4.3-4.734a5.708 5.708 0 0 1-3.944 1.582h-12.5c-3.197 0-5.797-2.657-5.797-5.926v-4.3c0-3.27 2.6-5.926 5.798-5.926h12.5c1.47 0 2.87.56 3.944 1.584l4.302-4.735c-2.25-2.136-5.175-3.312-8.244-3.312h-12.5zM64.44 48.28H36.388c-1.524 0-4.178.872-4.178 2.318v1.625c0 1.445 2.655 1.863 4.177 1.863H64.44c1.523 0 1.845-.417 1.845-1.86V50.6c0-1.446-.322-2.32-1.844-2.32z"/></symbol><symbol id="social-wechat" viewBox="0 0 100 100"><path d="M35.27 21.42C14.61 25.124 7.722 48.562 24.156 59.29c.9.58.9.517-.452 4.567l-1.16 3.468 4.163-2.24 4.163-2.24 2.21.538c2.316.58 5.277.99 7.25.99h1.18l-.406-1.572c-3.24-11.977 7.96-23.845 22.528-23.845h1.973l-.408-1.422C62 26.31 48.505 19.053 35.267 21.42zm-1.803 10.49c2.187 1.487 2.317 4.697.214 6.075-3.41 2.24-7.4-1.702-5.105-5.062 1.008-1.508 3.433-2.003 4.892-1.013zm17.592 0c3.604 2.435.9 8.057-3.133 6.506-2.917-1.12-3.26-5.147-.536-6.59 1.074-.583 2.747-.54 3.67.085zm7.96 8.876c-10.234 1.872-17.335 9.67-16.928 18.633.537 11.997 14.546 20.27 27.997 16.564l1.586-.43 3.346 1.808c1.847 1.013 3.39 1.746 3.433 1.66.044-.108-.32-1.4-.793-2.888-1.072-3.317-1.093-3.08.344-4.113C94.182 60.367 79.98 36.973 59.02 40.785zm-.408 9.67c.9.605 1.374 2.112.986 3.21-.815 2.35-4.314 2.522-5.257.26-1.072-2.607 1.89-5.02 4.27-3.468zm14.33.26c1.416 1.355 1.182 3.662-.472 4.523-2.53 1.29-5.19-1.293-3.882-3.77.857-1.595 3.067-1.982 4.355-.755zM53.79 73.987"/></symbol><symbol id="social-weibo" viewBox="0 0 100 100"><path d="M66.146 21.646c-1.192.02-2.385.155-3.558.405a2.68 2.68 0 0 0-2.057 3.18 2.67 2.67 0 0 0 3.18 2.055c4.452-.946 9.27.437 12.536 4.06a13.163 13.163 0 0 1 2.752 12.882 2.682 2.682 0 0 0 5.102 1.65v-.008a18.485 18.485 0 0 0-3.875-18.11c-3.736-4.144-8.912-6.202-14.08-6.114zm-21.724 8.002c-4.936-.09-12.377 3.823-18.99 10.436C18.835 46.68 15 53.684 15 59.738c0 11.57 14.844 18.612 29.36 18.612 19.04 0 31.703-11.06 31.703-19.838.01-5.312-4.463-8.327-8.48-9.573-.986-.3-1.663-.492-1.15-1.786 1.12-2.81 1.235-5.236.018-6.974-2.27-3.245-8.488-3.07-15.616-.086 0 0-2.242.974-1.662-.793 1.09-3.524.928-6.47-.772-8.18-.965-.967-2.333-1.44-3.978-1.472zm22.467 1.52a9.014 9.014 0 0 0-2.312.193c-1.246.262-2.038 1.5-1.777 2.745a2.303 2.303 0 0 0 2.735 1.768 4.416 4.416 0 0 1 4.2 1.352 4.41 4.41 0 0 1 .917 4.318 2.315 2.315 0 0 0 1.49 2.906 2.312 2.312 0 0 0 2.907-1.487 9.02 9.02 0 0 0-1.886-8.828 8.98 8.98 0 0 0-6.275-2.967zm-23.04 14.71c13.087 0 23.703 6.607 23.703 14.76 0 8.15-10.616 14.757-23.703 14.757-13.088 0-23.702-6.607-23.702-14.758 0-8.152 10.614-14.758 23.702-14.758zm-1.438 6.245c-4.57.048-9.046 2.606-10.992 6.553-2.444 4.954-.077 10.46 5.486 12.256 5.776 1.864 12.575-.995 14.942-6.336 2.337-5.235-.58-10.614-6.287-12.092a11.968 11.968 0 0 0-3.148-.38zm1.54 6.47c.183-.005.365.025.536.093.696.25.947 1.033.56 1.738-.405.695-1.304 1.024-2 .734-.695-.28-.907-1.062-.51-1.738a1.72 1.72 0 0 1 1.413-.828zm-5.315 1.63c.487.006.97.1 1.418.29 1.816.78 2.396 2.837 1.295 4.643-1.12 1.787-3.526 2.57-5.332 1.748-1.778-.81-2.308-2.886-1.188-4.634.833-1.304 2.345-2.066 3.807-2.047z"/></symbol></svg>