<svg xmlns="http://www.w3.org/2000/svg" width="476" height="100" viewBox="0 0 476 100"><path d="M310.772.008c-2.32-.07-3.482.315-3.482 1.157 4.22 2.526 6.327 5.894 6.327 10.104 0 1.683.277 2.808.844 3.367 1.964 4.21 5.063 5.473 9.28 3.79 4.496-2.245 6.466-5.75 5.906-10.526-.567-2.8-3.374-4.905-8.436-6.314-4.64-.98-8.12-1.507-10.438-1.578zM207.897.41c-3.5-.054-4.677 1.743-3.53 5.388v20.206H184.54c-1.686 0-4.638-1.4-8.857-4.21-1.97-.842-3.374-.98-4.218-.42-.845.566-1.13 1.83-.846 3.79v37.47c-.568 5.335 1.826 7.3 7.172 5.893 4.495-.276 6.6-2.666 6.325-7.16v-4.63h20.25v37.47c-.568 4.77 1.542 6.592 6.327 5.474 5.34-.842 7.87-3.23 7.592-7.156V57.16h20.248v5.052c0 4.21 1.688 5.756 5.062 4.63 6.748-.56 9.837-3.37 9.277-8.42V31.897l.846-.842c1.12-.56 1.964-1.263 2.53-2.105-2.814-5.05-7.876-8.696-15.185-10.945-1.128.283-2.53 1.967-4.218 5.052-.843 1.684-1.412 2.526-1.688 2.526h-16.874V6.64l.844-.842c3.09-2.802.277-4.486-8.436-5.052-1.056-.21-1.99-.322-2.797-.335zM460.41 1.59c-.843.283-1.97 1.408-3.374 3.368-1.126 1.125-1.833 1.684-2.11 1.684h-54.414c-7.033-2.526-10.967-3.79-11.81-3.79-1.41 0-1.97 1.123-1.688 3.367v87.568c-.283 2.525.843 3.644 3.374 3.368 5.622-.842 8.437-2.526 8.437-5.052V76.525c4.218-3.927 9.84-10.946 16.875-21.05.844 3.37 1.265 6.178 1.265 8.422.276 5.335 2.953 7.157 8.015 5.473-2.255 3.09-5.062 6.314-8.436 9.682-2.532 2.526-3.52 3.934-2.953 4.21 10.124-5.052 19.404-13.748 27.84-26.102.56 2.25.844 5.196.844 8.84.278 5.053 2.112 7.303 5.486 6.737 5.34-.842 7.73-4.21 7.17-10.104-1.41-5.61-4.22-11.222-8.437-16.84.843-2.525 1.964-5.75 3.374-9.683.843-2.242 1.543-3.927 2.11-5.052.56-1.4 1.403-2.664 2.53-3.79 1.12-1.117 1.826-2.242 2.11-3.367-3.66-3.926-8.86-5.893-15.608-5.893-.57.283-.845 1.263-.845 2.947-.283 4.493-1.127 9.683-2.53 15.577-.844-.56-1.97-1.4-3.375-2.525-2.532-2.526-4.923-4.91-7.17-7.16.275-.558.98-1.115 2.108-1.68.844-.56 1.265-.983 1.265-1.266-3.375-3.93-8.16-5.895-14.34-5.895-.846.283-1.267 1.686-1.267 4.212 0 4.21-.423 8.703-1.268 13.472-3.097-3.086-8.015-7.436-14.763-13.054v-6.734c-.568-5.053 1.688-7.433 6.75-7.157h52.304v71.15c0 3.65-4.64 5.755-13.92 6.314l-3.797.42c-.284.283.276.42 1.688.42 5.62 1.12 8.858 3.086 9.702 5.895 0 .276.14.842.422 1.684.56 2.8 3.09 3.788 7.593 2.946 8.437-.566 12.233-4.493 11.388-11.788V15.48c0-.275.56-.84 1.688-1.683 1.963-.842 2.953-1.683 2.953-2.526-5.345-5.05-10.408-8.274-15.186-9.682zM0 11.168v4.297c1.093.08 2.558.324 4.4.727 1.84.404 3.305.868 4.397 1.392 1.414.646 2.344 1.484 2.79 2.514.444 1.028.668 2.21.668 3.54v62c0 1.454-.274 2.696-.818 3.726-.546 1.028-1.427 1.805-2.64 2.33-.606.283-1.92.516-3.944.696-2.023.18-3.64.314-4.853.394v4.3h37.31v-4.3c-1.053-.04-2.588-.262-4.61-.665-2.024-.404-3.34-.746-3.944-1.03-1.335-.642-2.265-1.488-2.79-2.536-.527-1.048-.788-2.237-.788-3.565V55.425h9.912c2.594 0 4.814.274 6.66.817a9.16 9.16 0 0 1 4.59 3.06c.812 1.01 1.57 2.643 2.28 4.903.71 2.262 1.126 4.282 1.248 6.057h4.55V36.477h-4.55c-.205 2.14-.64 4.15-1.31 6.025-.668 1.876-1.406 3.26-2.217 4.147a10.816 10.816 0 0 1-4.258 2.873c-1.662.627-3.992.942-6.992.942h-9.912V15.952h14.44c2.183 0 4.133.04 5.852.12 1.72.08 3.205.2 4.46.362 2.465.365 5.045 2.363 7.734 5.996 2.69 3.633 4.457 7.044 5.307 10.23h4.55V11.168H0zm76.342 0v23.308h4.246c.364-1.333 1.012-3.015 1.943-5.054a41.163 41.163 0 0 1 3.217-5.783 31.878 31.878 0 0 1 3.973-4.875c1.435-1.432 2.822-2.228 4.155-2.39a62.02 62.02 0 0 1 5.34-.394c1.858-.06 3.416-.09 4.67-.09h3.518v69.267c0 1.656-.316 2.978-.94 3.967-.63.99-1.61 1.746-2.943 2.27-.89.362-2.497.666-4.82.908-2.328.242-4.056.405-5.188.485v4.298h40.642v-4.298c-1.295-.04-3.103-.304-5.43-.788-2.325-.486-3.85-.868-4.578-1.15-1.417-.607-2.41-1.463-2.973-2.574-.567-1.11-.85-2.332-.85-3.663V15.89h3.526c1.62 0 3.385.04 5.29.12 1.905.082 3.486.204 4.742.365 1.338.202 2.726.998 4.166 2.39 1.44 1.392 2.765 3.017 3.983 4.874a46.545 46.545 0 0 1 3.19 5.662c.953 1.996 1.614 3.723 1.978 5.176h4.185v-23.31h-75.04zm279.036.945c-1.128 0-3.1 2.105-5.906 6.315-1.97 3.092-3.1 4.63-3.375 4.63H276.92c-1.128.284-1.688.705-1.688 1.264.277.567 1.12.842 2.53.842h21.516c2.807 17.123 7.87 31.298 15.185 42.52-9.28 11.23-22.5 21.05-39.65 29.47-3.375 2.803-.845 2.948 7.592.422 16.59-6.177 29.805-13.19 39.65-21.05 8.155 8.145 18.416 14.452 30.794 18.945 3.933 1.402 6.18.56 6.748-2.525 1.687-3.933 4.218-6.59 7.592-8 .56-.275 1.265-.696 2.11-1.262 2.53-1.118 2.67-1.96.422-2.526-16.873-2.802-29.814-8.137-38.81-15.998 5.063-7.296 9.98-17.54 14.766-30.736.277-.843 1.12-1.822 2.53-2.947 1.12-.843 1.826-1.822 2.11-2.947-.284-1.12-3.238-2.24-8.86-3.366h24.465c1.687.283 2.67 0 2.953-.842.276-.56-.145-1.54-1.266-2.947-5.344-5.61-9.425-8.696-12.232-9.262zm-54.415 13.05h31.215c-3.1 13.473-6.894 24.14-11.39 31.995-8.16-7.01-14.764-17.68-19.825-31.994zm97.862 0c4.218 4.777 8.436 11.09 12.654 18.944-3.1 12.07-7.316 21.892-12.655 29.47V25.164zM188.76 27.69h15.61v27.365h-20.25V30.637c-.284-1.96 1.266-2.947 4.64-2.947zm29.526 0h20.248v27.365h-20.248V27.69zm207.957 1.684c3.652 5.052 6.75 10.103 9.28 15.156a108.565 108.565 0 0 1-6.75 18.103c-.842-5.053-3.516-10.95-8.012-17.684.56-1.402 1.687-4.63 3.374-9.682a49.224 49.224 0 0 1 2.11-5.894z"/></svg>