<svg xmlns="http://www.w3.org/2000/svg" width="100" height="100" viewBox="0 0 100 100"><path fill="#dc4e41" d="M35.455 24.545C21.382 24.545 10 35.927 10 50c0 14.073 11.382 25.455 25.455 25.455 14.69 0 24.436-10.328 24.436-24.873 0-1.673-.182-2.946-.4-4.22H35.455v8.73H49.89c-.58 3.745-4.362 10.98-14.435 10.98-8.69 0-15.783-7.2-15.783-16.072 0-8.873 7.092-16.072 15.783-16.072 4.946 0 8.254 2.11 10.145 3.927l6.91-6.656c-4.437-4.146-10.182-6.655-17.055-6.655zm40 14.547v7.27h-7.273v7.275h7.273v7.27h7.272v-7.27H90v-7.274h-7.273v-7.27h-7.272z"/></svg>