<svg xmlns="http://www.w3.org/2000/svg" width="100" height="100" viewBox="0 0 100 100"><path d="M49.434 12.148c-.407.167-1.552 1.386-1.552 1.663 0 .093-1.792 3.9-3.99 8.443-2.198 4.544-4.083 8.516-4.193 8.83-.094.296-.26.646-.334.757-.092.11-.61 1.11-1.164 2.217-.59 1.22-1.22 2.235-1.57 2.513-.85.72-.277.646-17.29 2.55-7.685.867-8.535.996-8.997 1.42-.332.297-.462 1.368-.22 1.996.072.167 3.38 3.307 7.35 6.983 12.562 11.6 11.75 10.787 11.75 11.655 0 .425-.26 1.958-.555 3.436-.314 1.48-1.016 5.174-1.59 8.222a1257.63 1257.63 0 0 1-1.476 7.758c-1.275 6.503-1.293 6.688-.628 7.39.628.664 1.348.59 3.25-.37 1.774-.905 1.94-.997 5.432-3.048 1.274-.74 2.937-1.7 3.694-2.125.758-.424 2.162-1.256 3.104-1.828.942-.574 1.755-1.036 1.81-1.036.037 0 .61-.332 1.256-.74.647-.405 1.238-.738 1.312-.738.074 0 .74-.37 1.478-.83 1.755-1.09 3.27-1.645 4.138-1.48.37.075 1.256.426 1.958.814 1.847.98 13.485 7.685 17.106 9.846 3.085 1.848 3.99 2.198 5.043 1.92.702-.165.905-1.18.665-3.194-.11-.906-.277-1.922-.37-2.273-.148-.592-.757-3.86-2.235-12.063-.683-3.898-.683-3.972.85-4.545 2.124-.794 3.122-1.496 2.734-1.884-.128-.13-1.31.018-3.768.462-4.563.83-5.505.96-10.326 1.404-5.486.517-10.548.628-17.31.388-5.282-.185-11.563-.647-11.914-.868-.277-.185-.148-.758.277-1.127.22-.204 3.028-2.217 6.224-4.49 10.012-7.093 16.515-11.785 17.05-12.284.925-.868.85-.905-2.992-1.404-6.077-.776-7.666-.906-17.567-1.368-3.307-.147-6.3-.332-6.65-.388-3.62-.61 14.833-2.272 22.63-2.03 5.116.146 11.138.57 14.685 1.033 3.306.443 3.51.48 3.51.85 0 .295-.352.554-8.13 5.91-3.194 2.218-6.593 4.564-7.554 5.23a180.01 180.01 0 0 1-2.143 1.495c-1.035.702-4.507 3.122-5.468 3.824-.61.443-1.09.924-1.09 1.07 0 .352.905.574 3.695.907 7.408.868 21.188 1.348 21.798.738.13-.128.11-.534-.093-1.384-.147-.646-.277-1.256-.277-1.348 0-.26 3.14-3.4 7.482-7.463C89.74 42.813 90 42.555 90 41.705c0-.74-.61-1.404-1.515-1.626-.443-.112-3.085-.407-5.874-.684-2.79-.26-5.874-.554-6.834-.647-.96-.112-2.992-.315-4.526-.48-5.856-.592-7.648-.814-8.073-1.017-.812-.37-1.57-1.884-7.167-14.483-3.99-9.015-4.34-9.735-4.895-10.234-.462-.425-1.183-.59-1.68-.388z" fill="#ffce0f"/></svg>