<svg xmlns="http://www.w3.org/2000/svg" viewBox="0 0 100 100" width="100" height="100"><path d="M5 0C2.23 0 0 2.23 0 5v90c0 2.77 2.23 5 5 5h90c2.77 0 5-2.23 5-5V5c0-2.77-2.23-5-5-5H5zm5 9.912C54.153 10.06 89.912 45.847 90 90H73.947c-.06-17.084-6.745-33.136-18.822-45.213C43.078 32.71 27.055 26.053 10 25.965V9.912zm0 27.276c29.072.206 52.577 23.74 52.783 52.783H46.73C46.524 69.824 30.177 53.447 10 53.24V37.187zM20.84 68.32c5.98 0 10.84 4.83 10.84 10.84 0 5.98-4.86 10.84-10.84 10.84C14.86 90 10 85.14 10 79.16c0-5.98 4.86-10.84 10.84-10.84z" fill="#d66d0f"/></svg>