<svg xmlns="http://www.w3.org/2000/svg" viewBox="0 0 100 100" width="100" height="100"><rect width="100%" height="100%" rx="5" ry="5" fill="#d66d06"/><path d="M31.68 79.16c0 5.98-4.86 10.84-10.84 10.84C14.86 90 10 85.14 10 79.16c0-5.98 4.86-10.84 10.84-10.84 5.98 0 10.84 4.832 10.84 10.84zM10 37.188V53.24c20.177.206 36.524 16.583 36.73 36.73h16.054C62.577 60.93 39.072 37.394 10 37.188zm0-11.222c17.054.088 33.078 6.745 45.125 18.82C67.202 56.864 73.888 72.916 73.947 90H90c-.088-44.153-35.847-79.94-80-80.088v16.053z" fill="#fff"/></svg>