<svg xmlns="http://www.w3.org/2000/svg" viewBox="0 0 100 100" width="100" height="100"><path d="M0 0v100h100V0H0zm66.146 21.646c5.167-.088 10.343 1.97 14.08 6.114 4.596 5.09 5.844 12.034 3.874 18.11v.007c-.454 1.4-1.963 2.175-3.373 1.72-1.41-.453-2.183-1.96-1.73-3.37 1.402-4.327.514-9.26-2.75-12.883-3.266-3.622-8.085-5.005-12.538-4.06-1.45.31-2.87-.605-3.18-2.054-.308-1.44.61-2.87 2.058-3.18 1.173-.25 2.366-.383 3.558-.404zm-21.724 8.002c1.645.03 3.013.505 3.978 1.473 1.7 1.71 1.863 4.656.772 8.18-.58 1.768 1.662.794 1.662.794 7.128-2.985 13.347-3.16 15.617.086 1.218 1.738 1.102 4.164-.018 6.974-.512 1.294.165 1.486 1.15 1.785 4.018 1.245 8.49 4.26 8.48 9.572 0 8.78-12.663 19.838-31.7 19.838C29.843 78.35 15 71.31 15 59.738c0-6.055 3.835-13.057 10.432-19.654 6.613-6.613 14.054-10.526 18.99-10.436zm22.467 1.52c2.316.105 4.593 1.105 6.274 2.967 2.24 2.482 2.84 5.863 1.885 8.828-.397 1.217-1.692 1.873-2.91 1.486-1.216-.397-1.874-1.7-1.488-2.907.474-1.45.174-3.1-.918-4.318-1.09-1.208-2.71-1.67-4.2-1.352-1.235.27-2.463-.522-2.733-1.768-.26-1.245.532-2.483 1.778-2.744.76-.163 1.538-.227 2.31-.192zm-23.04 14.71c-13.088 0-23.702 6.607-23.702 14.76 0 8.15 10.614 14.757 23.702 14.757 13.087 0 23.703-6.607 23.703-14.758 0-8.152-10.616-14.758-23.703-14.758zm-1.438 6.245c1.054-.01 2.114.11 3.15.38 5.707 1.48 8.623 6.858 6.286 12.093-2.367 5.34-9.166 8.2-14.942 6.336-5.563-1.797-7.93-7.302-5.486-12.256 1.946-3.947 6.423-6.505 10.992-6.553zm1.54 6.47c-.55.01-1.11.32-1.415.827-.396.676-.184 1.458.512 1.738.694.29 1.593-.04 2-.734.385-.705.134-1.487-.562-1.738-.17-.068-.353-.098-.537-.094zm-5.315 1.63c-1.462-.02-2.974.743-3.807 2.047-1.12 1.748-.59 3.823 1.188 4.634 1.806.82 4.21.04 5.332-1.748 1.1-1.806.52-3.862-1.295-4.644-.45-.19-.93-.283-1.418-.29z" fill="#e6162d"/></svg>