<svg xmlns="http://www.w3.org/2000/svg" viewBox="0 0 100 100" width="100" height="100"><path fill="#e6162d" d="M66.146 21.646c-1.192.02-2.385.155-3.558.405-1.45.31-2.366 1.74-2.057 3.18.31 1.45 1.73 2.364 3.18 2.055 4.452-.946 9.27.437 12.536 4.06 3.265 3.62 4.153 8.555 2.752 12.882-.454 1.41.318 2.917 1.73 3.37 1.41.455 2.918-.32 3.372-1.72v-.008c1.97-6.076.722-13.02-3.875-18.11-3.736-4.144-8.912-6.202-14.08-6.114zm-21.724 8.002c-4.936-.09-12.377 3.823-18.99 10.436C18.835 46.68 15 53.684 15 59.738c0 11.57 14.844 18.612 29.36 18.612 19.04 0 31.703-11.06 31.703-19.838.01-5.312-4.463-8.327-8.48-9.573-.986-.3-1.663-.492-1.15-1.786 1.12-2.81 1.235-5.236.018-6.974-2.27-3.245-8.488-3.07-15.616-.086 0 0-2.242.974-1.662-.793 1.09-3.524.928-6.47-.772-8.18-.965-.967-2.333-1.44-3.978-1.472zm22.467 1.52c-.774-.035-1.55.03-2.312.193-1.246.262-2.038 1.5-1.777 2.745.27 1.246 1.5 2.038 2.735 1.768 1.488-.32 3.108.144 4.2 1.352 1.09 1.217 1.39 2.87.917 4.318-.386 1.207.272 2.51 1.49 2.906 1.216.386 2.51-.27 2.907-1.487.955-2.965.355-6.346-1.886-8.828-1.68-1.862-3.958-2.862-6.275-2.967zm-23.04 14.71c13.087 0 23.703 6.607 23.703 14.76 0 8.15-10.616 14.757-23.703 14.757-13.088 0-23.702-6.607-23.702-14.758 0-8.152 10.614-14.758 23.702-14.758zm-1.438 6.245c-4.57.048-9.046 2.606-10.992 6.553-2.444 4.954-.077 10.46 5.486 12.256 5.776 1.864 12.575-.995 14.942-6.336 2.337-5.235-.58-10.614-6.287-12.092-1.034-.27-2.094-.392-3.148-.38zm1.54 6.47c.183-.005.365.025.536.093.696.25.947 1.033.56 1.738-.405.695-1.304 1.024-2 .734-.695-.28-.907-1.062-.51-1.738.303-.507.863-.818 1.413-.828zm-5.315 1.63c.487.006.97.1 1.418.29 1.816.78 2.396 2.837 1.295 4.643-1.12 1.787-3.526 2.57-5.332 1.748-1.778-.81-2.308-2.886-1.188-4.634.833-1.304 2.345-2.066 3.807-2.047z"/></svg>