<?xml version="1.0" encoding="UTF-8" standalone="no"?>
<svg
   xmlns:dc="http://purl.org/dc/elements/1.1/"
   xmlns:cc="http://creativecommons.org/ns#"
   xmlns:rdf="http://www.w3.org/1999/02/22-rdf-syntax-ns#"
   xmlns:svg="http://www.w3.org/2000/svg"
   xmlns="http://www.w3.org/2000/svg"
   xmlns:sodipodi="http://sodipodi.sourceforge.net/DTD/sodipodi-0.dtd"
   xmlns:inkscape="http://www.inkscape.org/namespaces/inkscape"
   version="1.1"
   x="0px"
   y="0px"
   width="100"
   height="100"
   viewBox="0 0 100 100"
   id="social-wechat-bg"
   inkscape:version="0.91 r13725"
   sodipodi:docname="social-wechat-reverse.svg">
  <metadata
     id="metadata11">
    <rdf:RDF>
      <cc:Work
         rdf:about="">
        <dc:format>image/svg+xml</dc:format>
        <dc:type
           rdf:resource="http://purl.org/dc/dcmitype/StillImage" />
        <dc:title />
      </cc:Work>
    </rdf:RDF>
  </metadata>
  <sodipodi:namedview
     pagecolor="#ffffff"
     bordercolor="#666666"
     borderopacity="1"
     objecttolerance="10000"
     gridtolerance="10000"
     guidetolerance="10000"
     inkscape:pageopacity="0"
     inkscape:pageshadow="2"
     inkscape:window-width="1920"
     inkscape:window-height="955"
     id="namedview9"
     showgrid="true"
     inkscape:showpageshadow="false"
     inkscape:zoom="7.89"
     inkscape:cx="31.622307"
     inkscape:cy="50"
     inkscape:window-x="29"
     inkscape:window-y="43"
     inkscape:window-maximized="0"
     inkscape:current-layer="svg2">
    <inkscape:grid
       type="xygrid"
       id="grid4139" />
  </sodipodi:namedview>
  <rect x="0" y="0" rx="10" ry="10" width="100%" height="100%" fill="#609700" />
    <path d="M33.165 17.336c-23.612 4.234-31.482 31.02-12.7 43.28 1.03.665 1.03.592-.516 5.22L18.624 69.8l4.757-2.56 4.757-2.56 2.524.615c2.648.664 6.032 1.132 8.287 1.132h1.35l-.466-1.797C36.132 50.94 48.93 37.376 65.58 37.376h2.255l-.466-1.625C63.714 22.925 48.292 14.63 33.164 17.337zm-2.06 11.99c2.5 1.698 2.648 5.367.245 6.942-3.898 2.56-8.458-1.945-5.835-5.785 1.152-1.724 3.923-2.29 5.59-1.158zm20.106 0c4.12 2.782 1.03 9.207-3.58 7.435-3.333-1.28-3.726-5.883-.612-7.533 1.226-.665 3.138-.615 4.193.098zm9.097 10.143c-11.695 2.14-19.81 11.053-19.345 21.295.613 13.713 16.624 23.166 31.997 18.932l1.813-.493 3.825 2.068c2.11 1.158 3.874 1.995 3.923 1.896.05-.123-.366-1.6-.906-3.3-1.226-3.79-1.25-3.52.393-4.7 18.487-13.32 2.255-40.057-21.7-35.7zm-.465 11.053c1.03.69 1.57 2.413 1.127 3.668-.932 2.685-4.93 2.882-6.008.297-1.226-2.98 2.158-5.737 4.88-3.964zm16.378.295c1.618 1.55 1.35 4.186-.54 5.17-2.893 1.477-5.933-1.477-4.437-4.308.98-1.822 3.506-2.265 4.977-.862zM54.332 77.415" fill="#fff" />

</svg>
