<svg xmlns="http://www.w3.org/2000/svg" viewBox="0 0 100 100" width="100" height="100"><path d="M73.066 9.496c-1.704.03-3.407.222-5.083.58-2.07.44-3.38 2.484-2.94 4.54.442 2.07 2.472 3.38 4.54 2.937 6.362-1.352 13.248.622 17.91 5.796 4.665 5.173 5.933 12.223 3.932 18.404-.648 2.015.456 4.166 2.47 4.815 2.015.647 4.17-.457 4.818-2.457V44.1c2.814-8.678 1.033-18.6-5.535-25.87-5.336-5.92-12.73-8.86-20.112-8.734zm1.06 13.604c-1.104-.05-2.215.04-3.3.276-1.78.372-2.913 2.138-2.54 3.918.386 1.78 2.14 2.913 3.906 2.527 2.125-.454 4.442.207 6 1.932 1.56 1.74 1.988 4.097 1.312 6.167-.552 1.724.388 3.586 2.126 4.152 1.74.552 3.587-.386 4.153-2.124 1.366-4.236.51-9.066-2.69-12.612-2.4-2.66-5.657-4.086-8.968-4.236z" fill="#f93"/><path d="M42.015 84.568c-16.558 1.642-30.852-5.85-31.93-16.71C9.01 56.99 21.566 46.86 38.11 45.22c16.558-1.642 30.853 5.85 31.915 16.708C71.115 72.8 58.56 82.94 42.015 84.568m33.102-36.08c-1.408-.428-2.374-.704-1.642-2.553 1.6-4.015 1.766-7.478.027-9.962-3.242-4.636-12.128-4.387-22.31-.124 0 0-3.202 1.393-2.374-1.132 1.56-5.036 1.324-9.244-1.104-11.687-5.52-5.53-20.214.208-32.812 12.805C5.478 45.26 0 55.262 0 63.913 0 80.443 21.208 90.5 41.946 90.5c27.196 0 45.285-15.797 45.285-28.34.015-7.588-6.373-11.892-12.113-13.672" fill="#e6162d"/><path d="M42.926 64.893c-.58.993-1.863 1.462-2.856 1.048-.994-.4-1.297-1.516-.732-2.482.58-.966 1.808-1.435 2.788-1.05.993.36 1.352 1.478.8 2.485m-5.285 6.76c-1.6 2.553-5.035 3.67-7.615 2.498-2.54-1.158-3.298-4.125-1.698-6.622 1.587-2.483 4.9-3.587 7.465-2.51 2.594 1.117 3.422 4.055 1.85 6.636m6.015-18.075c-7.88-2.057-16.778 1.875-20.2 8.815-3.49 7.08-.11 14.943 7.837 17.51 8.25 2.662 17.965-1.422 21.346-9.052 3.34-7.478-.828-15.163-8.983-17.274"/></svg>