<svg xmlns="http://www.w3.org/2000/svg" viewBox="0 0 100 100" width="100" height="100"><path d="M0 0v100h100V0H0zm66.146 21.646c5.167-.088 10.343 1.968 14.08 6.112 4.596 5.09 5.844 12.036 3.874 18.11v.01c-.454 1.4-1.96 2.174-3.37 1.72-1.412-.454-2.186-1.96-1.732-3.37 1.4-4.328.513-9.264-2.752-12.886-3.265-3.622-8.084-5.003-12.537-4.057-1.45.31-2.87-.608-3.18-2.056-.308-1.44.61-2.87 2.058-3.18 1.173-.25 2.366-.383 3.558-.404zm-21.724 8c1.645.03 3.013.507 3.978 1.475 1.7 1.71 1.863 4.655.772 8.18-.58 1.768 1.662.794 1.662.794 7.128-2.985 13.347-3.16 15.617.086 1.218 1.738 1.104 4.162-.016 6.972-.512 1.295.163 1.488 1.148 1.787 4.018 1.245 8.49 4.26 8.48 9.572 0 8.78-12.66 19.838-31.7 19.838C29.847 78.35 15 71.31 15 59.738c0-6.055 3.835-13.057 10.432-19.654 6.613-6.614 14.054-10.528 18.99-10.438zm22.467 1.522c2.316.105 4.595 1.103 6.276 2.965 2.24 2.482 2.84 5.865 1.883 8.83-.397 1.217-1.69 1.873-2.907 1.486-1.217-.397-1.877-1.702-1.49-2.91.473-1.448.175-3.098-.917-4.315-1.09-1.208-2.713-1.67-4.2-1.352-1.237.27-2.465-.524-2.735-1.77-.26-1.245.532-2.48 1.778-2.742.76-.163 1.538-.227 2.31-.192zm-21.085 15.34c-.65-.02-1.31-.02-1.975.002-.71.023-1.428.07-2.152.14-11.58 1.15-20.37 8.24-19.617 15.85.754 7.6 10.76 12.847 22.35 11.697 11.58-1.14 20.37-8.24 19.608-15.85-.654-6.68-8.463-11.54-18.213-11.84zm-3.393 5.615c1.054-.01 2.114.11 3.15.38 5.707 1.48 8.623 6.858 6.286 12.093-2.367 5.34-9.166 8.2-14.942 6.336-5.563-1.797-7.93-7.3-5.486-12.256 1.946-3.947 6.423-6.505 10.992-6.553zm1.54 6.467c-.55.01-1.11.323-1.415.83-.396.676-.184 1.458.512 1.738.694.29 1.593-.04 2-.734.385-.705.134-1.487-.562-1.738-.17-.068-.353-.1-.537-.096zm-5.315 1.633c-1.462-.02-2.974.74-3.807 2.045-1.12 1.748-.59 3.825 1.188 4.636 1.806.82 4.21.04 5.332-1.748 1.1-1.806.52-3.864-1.295-4.646-.45-.19-.93-.28-1.418-.287z" fill="#e6162d"/></svg>