<svg xmlns="http://www.w3.org/2000/svg" width="100" height="100" viewBox="0 0 100 100"><path d="M90 25.19c-2.943 1.305-6.107 2.187-9.427 2.584 3.39-2.032 5.99-5.248 7.217-9.08-3.17 1.88-6.684 3.246-10.423 3.982-2.994-3.19-7.26-5.183-11.98-5.183-9.064 0-16.413 7.35-16.413 16.413 0 1.286.145 2.54.425 3.74-13.642-.685-25.736-7.22-33.83-17.15-1.414 2.425-2.223 5.245-2.223 8.253 0 5.693 2.898 10.717 7.302 13.66-2.692-.085-5.222-.824-7.435-2.053-.002.07-.002.137-.002.206 0 7.953 5.658 14.586 13.166 16.094-1.378.375-2.828.576-4.325.576-1.058 0-2.086-.103-3.088-.295 2.09 6.52 8.15 11.266 15.332 11.4-5.618 4.4-12.695 7.025-20.385 7.025-1.324 0-2.63-.078-3.915-.23 7.264 4.657 15.89 7.374 25.16 7.374 30.19 0 46.697-25.01 46.697-46.698 0-.713-.015-1.42-.047-2.124C85.017 31.37 87.8 28.48 90 25.19" fill="#6aa9e0"/></svg>