<svg xmlns="http://www.w3.org/2000/svg" width="100" height="100" viewBox="0 0 100 100"><path d="M85 28.29c-2.576 1.143-5.343 1.915-8.248 2.262 2.965-1.777 5.242-4.592 6.314-7.946-2.775 1.646-5.848 2.84-9.12 3.486-2.62-2.79-6.352-4.536-10.482-4.536-7.932 0-14.362 6.43-14.362 14.36 0 1.127.127 2.223.372 3.274-11.936-.6-22.518-6.316-29.6-15.005-1.237 2.12-1.945 4.588-1.945 7.22 0 4.983 2.534 9.378 6.388 11.954-2.354-.076-4.57-.722-6.505-1.798l-.002.18c0 6.96 4.952 12.764 11.522 14.083-1.206.328-2.474.503-3.784.503-.925 0-1.825-.09-2.702-.257 1.828 5.707 7.13 9.86 13.416 9.975-4.915 3.85-11.108 6.147-17.836 6.147-1.16 0-2.303-.068-3.426-.2 6.355 4.074 13.904 6.452 22.014 6.452 26.416 0 40.86-21.884 40.86-40.86 0-.624-.013-1.243-.04-1.86 2.806-2.024 5.24-4.553 7.166-7.433" fill="#6aa9e0"/></svg>