<svg xmlns="http://www.w3.org/2000/svg" width="100" height="100" viewBox="0 0 100 100"><path d="M10 0C4.46 0 0 4.46 0 10v80c0 5.54 4.46 10 10 10h80c5.54 0 10-4.46 10-10V10c0-5.54-4.46-10-10-10H10zm17.21 20h.003c3.974 0 7.205 3.238 7.205 7.22 0 3.988-3.232 7.223-7.207 7.223-3.984 0-7.21-3.235-7.21-7.222C20 23.24 23.225 20 27.21 20zm37.874 18.926c12.593 0 14.916 8.3 14.916 19.09V80H67.574V60.51c0-4.648-.086-10.625-6.463-10.625-6.468 0-7.46 5.062-7.46 10.29V80H41.225V39.922H53.15v5.476h.166c1.662-3.15 5.72-6.472 11.768-6.472zm-44.094.996h12.436V80H20.99V39.922z" fill="#0977b6"/></svg>