<svg xmlns="http://www.w3.org/2000/svg" width="100" height="100" viewBox="0 0 100 100"><path d="M28.956 9.17C-.56 14.464-10.396 47.946 13.08 63.27c1.29.832 1.29.74-.644 6.525L10.78 74.75l5.946-3.2 5.946-3.2 3.155.77c3.31.83 7.54 1.414 10.36 1.414h1.686l-.582-2.246C32.666 51.175 48.663 34.22 69.475 34.22h2.82l-.584-2.03C67.142 16.156 47.864 5.79 28.955 9.17zM26.38 24.16c3.126 2.123 3.31 6.71.307 8.678-4.872 3.2-10.572-2.432-7.294-7.23 1.44-2.156 4.904-2.864 6.988-1.45zm25.133 0c5.15 3.478 1.287 11.51-4.475 9.294-4.166-1.6-4.657-7.354-.765-9.416 1.533-.83 3.923-.77 5.24.122zm11.37 12.68c-14.617 2.674-24.76 13.815-24.18 26.617.766 17.14 20.78 28.957 39.996 23.665l2.265-.616 4.78 2.585c2.64 1.446 4.844 2.492 4.905 2.37.062-.155-.458-2-1.133-4.126-1.532-4.738-1.562-4.4.492-5.875 23.107-16.65 2.817-50.072-27.126-44.626zm-.58 13.815c1.287.862 1.962 3.016 1.41 4.585-1.166 3.356-6.164 3.602-7.51.37-1.534-3.724 2.696-7.17 6.1-4.954zm20.472.37c2.023 1.936 1.688 5.23-.675 6.46-3.616 1.847-7.416-1.845-5.546-5.384 1.225-2.278 4.382-2.832 6.22-1.078zm-27.36 33.246" fill="#609700"/></svg>