<svg xmlns="http://www.w3.org/2000/svg" width="100" height="100" viewBox="0 0 100 100"><path d="M10 0C4.46 0 0 4.46 0 10v80c0 5.54 4.46 10 10 10h80c5.54 0 10-4.46 10-10V10c0-5.54-4.46-10-10-10H10zm53.463 21.557c4.13 0 7.864 1.744 10.484 4.535 3.27-.644 6.345-1.84 9.12-3.487-1.073 3.354-3.35 6.17-6.315 7.948 2.905-.347 5.672-1.12 8.248-2.262-1.925 2.88-4.36 5.41-7.166 7.435.028.615.04 1.234.04 1.857 0 18.978-14.445 40.86-40.86 40.86-8.11 0-15.658-2.375-22.014-6.45 1.123.133 2.267.2 3.426.2 6.728 0 12.92-2.295 17.836-6.147-6.285-.116-11.59-4.27-13.416-9.975.877.168 1.777.258 2.703.258 1.308 0 2.577-.176 3.782-.504-6.57-1.32-11.52-7.124-11.52-14.082v-.18c1.937 1.076 4.152 1.723 6.506 1.797-3.853-2.576-6.388-6.973-6.388-11.956 0-2.632.707-5.097 1.943-7.218C26.956 32.874 37.54 38.59 49.475 39.19c-.245-1.052-.373-2.146-.373-3.272 0-7.93 6.43-14.36 14.36-14.36z" fill="#6aa9e0"/></svg>