<svg xmlns="http://www.w3.org/2000/svg" width="100" height="100"><path d="M3.342 37.233c0-4.652.902-9.087 2.708-13.31 1.806-4.222 4.239-7.864 7.298-10.923s6.701-5.491 10.923-7.297c4.223-1.807 8.658-2.708 13.31-2.708 4.619 0 9.042.901 13.265 2.708C55.068 7.508 58.693 9.941 61.723 13c3.062 3.059 5.491 6.701 7.3 10.923 1.805 4.223 2.706 9.117 2.706 14.687 0 5.604-1.744 11.187-5.232 16.756l30.108 26.85c.459.427.702.951.734 1.561.032.643-.184 1.178-.643 1.607L85.913 96.169a1.973 1.973 0 0 1-1.608.643 2.221 2.221 0 0 1-1.561-.734L55.939 66.015c-5.629 3.58-11.261 5.37-16.89 5.37s-10.556-.902-14.779-2.708c-4.223-1.807-7.865-4.236-10.923-7.298-3.059-3.029-5.492-6.655-7.298-10.878a33.42 33.42 0 0 1-2.707-13.268zm12.668 1.606c0 1.836.567 4.073 1.698 6.722 1.131 2.646 2.662 4.94 4.59 6.868s4.223 3.459 6.885 4.59a21.188 21.188 0 0 0 8.377 1.698c2.922 0 5.705-.566 8.354-1.698 2.646-1.131 4.933-2.662 6.861-4.59s3.458-4.222 4.591-6.868a21.048 21.048 0 0 0 1.696-8.35c0-2.924-.566-5.715-1.696-8.377-1.133-2.662-2.663-4.957-4.591-6.885-1.928-1.927-4.215-3.458-6.861-4.589a21.048 21.048 0 0 0-8.354-1.698c-2.923 0-5.715.567-8.377 1.698-2.662 1.131-4.957 2.662-6.885 4.589-1.928 1.928-3.458 4.223-4.59 6.885-1.131 2.662-1.698 4.728-1.698 6.196v3.809z" fill="{% if foreground %}{{foreground}}{% endif %}"/></svg>