<svg xmlns="http://www.w3.org/2000/svg" width="100" height="100"><path d="M1.424 21.892a99.954 99.954 0 0 1 3.538-1.533c1.281-.528 3.134-1.196 5.56-2.005s4.801-1.477 7.126-2.005c2.325-.528 4.941-.927 7.851-1.196 2.909-.27 5.621-.264 8.137.017s5.043.972 7.581 2.072 4.729 2.617 6.57 4.548c.18.202.309.399.388.59s.106.331.084.421v60.325l-.05.303c-.034.146-.084.259-.152.326s-.163.101-.287.101-.264-.078-.421-.235a18.878 18.878 0 0 0-4.869-3.122 27.73 27.73 0 0 0-5.458-1.819c-1.808-.394-3.807-.606-5.998-.651-2.19-.045-4.2 0-6.031.146-1.831.146-3.841.438-6.031.865-2.19.427-4.026.819-5.509 1.19-1.483.37-3.139.854-4.97 1.438s-3.127 1.011-3.892 1.28c-.764.27-1.685.606-2.763 1.011-.382.135-.68.112-.893-.067s-.331-.394-.354-.641l-.034-.404V23.61c.022-.045.011-.163-.034-.354s.011-.433.168-.725.406-.505.743-.639zm41.679 8.996V26.71c-1.527-.809-3.156-1.455-4.885-1.938s-3.347-.825-4.852-1.027c-1.505-.203-3.246-.242-5.223-.118-1.977.124-3.65.27-5.02.438s-3.123.494-5.256.977-3.779.876-4.936 1.179-2.836.758-5.037 1.365c-1.213.337-2.111.595-2.695.775v4.616a144.66 144.66 0 0 1 2.426-.674c2.269-.651 3.993-1.135 5.172-1.449s2.836-.724 4.97-1.229 3.88-.842 5.239-1.011 3.016-.32 4.97-.455c1.955-.135 3.684-.118 5.189.051s3.139.472 4.902.91 3.441 1.026 5.036 1.768zm0 13.615v-4.147c-1.527-.809-3.15-1.455-4.869-1.938s-3.335-.826-4.852-1.028c-1.517-.202-3.263-.247-5.24-.135-1.977.112-3.65.253-5.02.421s-3.122.495-5.255.978-3.779.882-4.936 1.196-2.825.775-5.003 1.381c-1.235.337-2.145.584-2.729.741v4.619c.539-.157 1.359-.382 2.459-.674a274.356 274.356 0 0 1 5.138-1.449c1.179-.317 2.841-.722 4.987-1.216 2.145-.494 3.892-.831 5.239-1.011s2.999-.337 4.953-.472c1.955-.135 3.684-.112 5.189.067s3.139.483 4.902.91 3.442 1.013 5.037 1.757zm0 13.645V53.97a24.566 24.566 0 0 0-4.869-1.943 35.221 35.221 0 0 0-4.852-1.021c-1.517-.202-3.257-.247-5.223-.135s-3.639.247-5.021.415c-1.381.169-3.139.494-5.273.978-2.134.482-3.779.888-4.936 1.202s-2.825.774-5.003 1.381c-1.235.337-2.145.584-2.729.741v4.616a83.09 83.09 0 0 0 2.459-.674 351.343 351.343 0 0 1 5.155-1.449c1.168-.314 2.825-.719 4.97-1.213 2.145-.494 3.892-.831 5.239-.999 1.348-.169 2.999-.326 4.953-.472 1.955-.146 3.689-.124 5.206.056 1.516.18 3.15.483 4.902.91a25.67 25.67 0 0 1 5.022 1.785zm0 13.613v-4.178a24.469 24.469 0 0 0-4.885-1.943c-1.729-.482-3.347-.819-4.852-1.021s-3.246-.247-5.223-.124c-1.977.124-3.65.27-5.02.438-1.37.168-3.123.494-5.256.977-2.134.483-3.779.876-4.936 1.18-1.157.303-2.825.764-5.003 1.37-1.235.337-2.145.596-2.729.775v4.615l2.426-.707c2.269-.629 3.993-1.101 5.172-1.415s2.841-.73 4.987-1.235c2.145-.506 3.892-.843 5.239-1.011 1.348-.169 2.999-.314 4.953-.449 1.955-.135 3.684-.124 5.189.045 1.505.168 3.139.472 4.902.909a27.907 27.907 0 0 1 5.036 1.774zm54.516-49.869c.314.135.539.343.686.624.146.281.213.517.19.708s-.022.32 0 .387v59.236l-.067.438s-.146.337-.359.55c-.213.214-.505.259-.887.124a156.378 156.378 0 0 0-2.764-1.011c-.764-.27-2.066-.696-3.896-1.28a82.175 82.175 0 0 0-4.965-1.438c-1.482-.371-3.318-.764-5.509-1.19-2.189-.427-4.194-.719-6.014-.865-1.819-.146-3.824-.19-6.015-.146s-4.194.258-6.015.651a27.303 27.303 0 0 0-5.458 1.819 19.593 19.593 0 0 0-4.886 3.122c-.292.225-.505.292-.64.202s-.214-.259-.236-.506l-.033-.337V22.936c-.067-.314.09-.696.472-1.146 1.842-1.932 4.031-3.448 6.57-4.548 2.538-1.101 5.064-1.792 7.581-2.072 2.516-.281 5.228-.287 8.137-.017s5.525.668 7.851 1.196 4.7 1.196 7.126 2.005 4.279 1.477 5.56 2.005 2.471 1.038 3.571 1.533zm-3.673 11.085v-4.616c-.584-.18-1.482-.438-2.695-.775a450.4 450.4 0 0 0-5.043-1.365 159.908 159.908 0 0 0-4.93-1.179c-2.135-.483-3.887-.809-5.257-.977s-3.043-.314-5.021-.438c-1.977-.124-3.723-.084-5.239.118s-3.133.544-4.852 1.027-3.341 1.129-4.868 1.938v4.178a27.85 27.85 0 0 1 5.037-1.769c1.763-.438 3.397-.741 4.902-.91s3.234-.186 5.188-.051 3.61.287 4.97.455 3.105.505 5.239 1.011 3.785.915 4.964 1.229c1.18.314 2.909.798 5.178 1.449 1.08.293 1.888.518 2.427.675zm0 13.514v-4.619c-.584-.157-1.493-.416-2.729-.775a370.447 370.447 0 0 0-5.01-1.365 159.908 159.908 0 0 0-4.93-1.179c-2.135-.483-3.887-.809-5.257-.977s-3.043-.309-5.021-.421c-1.977-.112-3.723-.067-5.239.135s-3.133.539-4.852 1.011-3.341 1.124-4.868 1.955v4.147c1.595-.744 3.268-1.328 5.02-1.755s3.387-.73 4.902-.91c1.517-.18 3.252-.202 5.206-.067s3.605.292 4.953.472 3.094.517 5.239 1.011 3.802.898 4.98 1.213c1.18.317 2.898.8 5.145 1.452 1.103.29 1.922.514 2.461.672zm0 27.359V55.69c-.584-.18-1.482-.438-2.695-.775a500.649 500.649 0 0 0-5.043-1.37 162.344 162.344 0 0 0-4.93-1.18c-2.135-.482-3.887-.809-5.257-.977-1.37-.169-3.043-.314-5.021-.438-1.977-.123-3.723-.078-5.239.124s-3.133.539-4.852 1.021a24.618 24.618 0 0 0-4.868 1.943v17.723a28.018 28.018 0 0 1 5.02-1.774c1.752-.438 3.387-.741 4.902-.909 1.517-.169 3.252-.18 5.206-.045s3.605.28 4.953.449c1.348.168 3.094.505 5.239 1.011 2.146.505 3.802.921 4.98 1.235 1.18.314 2.898.786 5.145 1.415 1.102.314 1.921.549 2.46.707z" fill="{% if foreground %}{{foreground}}{% endif %}"/></svg>