<svg xmlns="http://www.w3.org/2000/svg" version="1" width="100" height="100"><path fill="{% if foreground %}{{foreground}}{% endif %}" d="M71.78 59.429a12.228 12.228 0 0 0-9.087 4.026L40.745 52.618c.129-.714.202-1.45.202-2.201l-.013-.454L63.64 38.04a12.227 12.227 0 0 0 8.141 3.092c6.775 0 12.265-5.491 12.265-12.267 0-6.773-5.489-12.267-12.265-12.267s-12.265 5.493-12.265 12.267c0 .506.033 1.003.093 1.494L37.545 41.946a12.216 12.216 0 0 0-8.865-3.796c-6.773 0-12.266 5.492-12.266 12.267 0 6.775 5.492 12.264 12.266 12.264 2.854 0 5.478-.976 7.562-2.612l23.277 11.492-.003.135c0 6.773 5.489 12.267 12.265 12.267s12.265-5.493 12.265-12.269c-.001-6.774-5.49-12.265-12.266-12.265z"/></svg>