<?xml version="1.0" encoding="UTF-8"?><!DOCTYPE svg PUBLIC "-//W3C//DTD SVG 1.1//EN" "http://www.w3.org/Graphics/SVG/1.1/DTD/svg11.dtd"><svg xmlns="http://www.w3.org/2000/svg"><symbol id="brand-ftc-masthead" viewBox="0 0 476 100"><path d="M310.772.008c-2.32-.07-3.482.315-3.482 1.157 4.22 2.526 6.327 5.894 6.327 10.104 0 1.683.277 2.808.844 3.367 1.964 4.21 5.063 5.473 9.28 3.79 4.496-2.245 6.466-5.75 5.906-10.526-.567-2.8-3.374-4.905-8.436-6.314-4.64-.98-8.12-1.507-10.438-1.578zM207.897.41c-3.5-.054-4.677 1.743-3.53 5.388v20.206H184.54c-1.686 0-4.638-1.4-8.857-4.21-1.97-.842-3.374-.98-4.218-.42-.845.566-1.13 1.83-.846 3.79v37.47c-.568 5.335 1.826 7.3 7.172 5.893 4.495-.276 6.6-2.666 6.325-7.16v-4.63h20.25v37.47c-.568 4.77 1.542 6.592 6.327 5.474 5.34-.842 7.87-3.23 7.592-7.156V57.16h20.248v5.052c0 4.21 1.688 5.756 5.062 4.63 6.748-.56 9.837-3.37 9.277-8.42V31.897l.846-.842c1.12-.56 1.964-1.263 2.53-2.105-2.814-5.05-7.876-8.696-15.185-10.945-1.128.283-2.53 1.967-4.218 5.052-.843 1.684-1.412 2.526-1.688 2.526h-16.874V6.64l.844-.842c3.09-2.802.277-4.486-8.436-5.052-1.056-.21-1.99-.322-2.797-.335zM460.41 1.59c-.843.283-1.97 1.408-3.374 3.368-1.126 1.125-1.833 1.684-2.11 1.684h-54.414c-7.033-2.526-10.967-3.79-11.81-3.79-1.41 0-1.97 1.123-1.688 3.367v87.568c-.283 2.525.843 3.644 3.374 3.368 5.622-.842 8.437-2.526 8.437-5.052V76.525c4.218-3.927 9.84-10.946 16.875-21.05.844 3.37 1.265 6.178 1.265 8.422.276 5.335 2.953 7.157 8.015 5.473-2.255 3.09-5.062 6.314-8.436 9.682-2.532 2.526-3.52 3.934-2.953 4.21 10.124-5.052 19.404-13.748 27.84-26.102.56 2.25.844 5.196.844 8.84.278 5.053 2.112 7.303 5.486 6.737 5.34-.842 7.73-4.21 7.17-10.104-1.41-5.61-4.22-11.222-8.437-16.84.843-2.525 1.964-5.75 3.374-9.683.843-2.242 1.543-3.927 2.11-5.052.56-1.4 1.403-2.664 2.53-3.79 1.12-1.117 1.826-2.242 2.11-3.367-3.66-3.926-8.86-5.893-15.608-5.893-.57.283-.845 1.263-.845 2.947-.283 4.493-1.127 9.683-2.53 15.577-.844-.56-1.97-1.4-3.375-2.525-2.532-2.526-4.923-4.91-7.17-7.16.275-.558.98-1.115 2.108-1.68.844-.56 1.265-.983 1.265-1.266-3.375-3.93-8.16-5.895-14.34-5.895-.846.283-1.267 1.686-1.267 4.212 0 4.21-.423 8.703-1.268 13.472-3.097-3.086-8.015-7.436-14.763-13.054v-6.734c-.568-5.053 1.688-7.433 6.75-7.157h52.304v71.15c0 3.65-4.64 5.755-13.92 6.314l-3.797.42c-.284.283.276.42 1.688.42 5.62 1.12 8.858 3.086 9.702 5.895 0 .276.14.842.422 1.684.56 2.8 3.09 3.788 7.593 2.946 8.437-.566 12.233-4.493 11.388-11.788V15.48c0-.275.56-.84 1.688-1.683 1.963-.842 2.953-1.683 2.953-2.526-5.345-5.05-10.408-8.274-15.186-9.682zM0 11.168v4.297c1.093.08 2.558.324 4.4.727 1.84.404 3.305.868 4.397 1.392 1.414.646 2.344 1.484 2.79 2.514.444 1.028.668 2.21.668 3.54v62c0 1.454-.274 2.696-.818 3.726-.546 1.028-1.427 1.805-2.64 2.33-.606.283-1.92.516-3.944.696-2.023.18-3.64.314-4.853.394v4.3h37.31v-4.3c-1.053-.04-2.588-.262-4.61-.665-2.024-.404-3.34-.746-3.944-1.03-1.335-.642-2.265-1.488-2.79-2.536-.527-1.048-.788-2.237-.788-3.565V55.425h9.912c2.594 0 4.814.274 6.66.817 1.843.546 3.374 1.57 4.59 3.06.812 1.01 1.57 2.643 2.28 4.903.71 2.262 1.126 4.282 1.248 6.057h4.55V36.477h-4.55c-.205 2.14-.64 4.15-1.31 6.025-.668 1.876-1.406 3.26-2.217 4.147-1.175 1.29-2.595 2.25-4.258 2.873-1.662.627-3.992.942-6.992.942h-9.912V15.952h14.44c2.183 0 4.133.04 5.852.12 1.72.08 3.205.2 4.46.362 2.465.365 5.045 2.363 7.734 5.996 2.69 3.633 4.457 7.044 5.307 10.23h4.55V11.168H0zm76.342 0v23.308h4.246c.364-1.333 1.012-3.015 1.943-5.054.93-2.038 2.004-3.967 3.217-5.783 1.213-1.817 2.538-3.442 3.973-4.875 1.435-1.432 2.822-2.228 4.155-2.39 1.7-.202 3.478-.335 5.34-.394 1.858-.06 3.416-.09 4.67-.09h3.518v69.267c0 1.656-.316 2.978-.94 3.967-.63.99-1.61 1.746-2.943 2.27-.89.362-2.497.666-4.82.908-2.328.242-4.056.405-5.188.485v4.298h40.642v-4.298c-1.295-.04-3.103-.304-5.43-.788-2.325-.486-3.85-.868-4.578-1.15-1.417-.607-2.41-1.463-2.973-2.574-.567-1.11-.85-2.332-.85-3.663V15.89h3.526c1.62 0 3.385.04 5.29.12 1.905.082 3.486.204 4.742.365 1.338.202 2.726.998 4.166 2.39 1.44 1.392 2.765 3.017 3.983 4.874 1.176 1.775 2.24 3.663 3.19 5.662.953 1.996 1.614 3.723 1.978 5.176h4.185v-23.31h-75.04zm279.036.945c-1.128 0-3.1 2.105-5.906 6.315-1.97 3.092-3.1 4.63-3.375 4.63H276.92c-1.128.284-1.688.705-1.688 1.264.277.567 1.12.842 2.53.842h21.516c2.807 17.123 7.87 31.298 15.185 42.52-9.28 11.23-22.5 21.05-39.65 29.47-3.375 2.803-.845 2.948 7.592.422 16.59-6.177 29.805-13.19 39.65-21.05 8.155 8.145 18.416 14.452 30.794 18.945 3.933 1.402 6.18.56 6.748-2.525 1.687-3.933 4.218-6.59 7.592-8 .56-.275 1.265-.696 2.11-1.262 2.53-1.118 2.67-1.96.422-2.526-16.873-2.802-29.814-8.137-38.81-15.998 5.063-7.296 9.98-17.54 14.766-30.736.277-.843 1.12-1.822 2.53-2.947 1.12-.843 1.826-1.822 2.11-2.947-.284-1.12-3.238-2.24-8.86-3.366h24.465c1.687.283 2.67 0 2.953-.842.276-.56-.145-1.54-1.266-2.947-5.344-5.61-9.425-8.696-12.232-9.262zm-54.415 13.05h31.215c-3.1 13.473-6.894 24.14-11.39 31.995-8.16-7.01-14.764-17.68-19.825-31.994zm97.862 0c4.218 4.777 8.436 11.09 12.654 18.944-3.1 12.07-7.316 21.892-12.655 29.47V25.164zM188.76 27.69h15.61v27.365h-20.25V30.637c-.284-1.96 1.266-2.947 4.64-2.947zm29.526 0h20.248v27.365h-20.248V27.69zm207.957 1.684c3.652 5.052 6.75 10.103 9.28 15.156-1.687 6.177-3.942 12.21-6.75 18.103-.842-5.053-3.516-10.95-8.012-17.684.56-1.402 1.687-4.63 3.374-9.682.56-1.96 1.264-3.927 2.11-5.894z"/></symbol><symbol id="brand-ftc" viewBox="0 0 100 100"><path d="M19.368 12H47.8l.22 7.505H46.61s-.79-2.767-2.295-3.74c0 0-1.16-1.192-6.374-1.254h-5.91s-1.633-.256-1.633 1.54v10.993h3.834s2.6 0 4.146-1.005c0 0 1.414-1.005 1.632-3.486h1.32v11.97h-1.32s-.344-2.547-1.697-3.614c0 0-1.254-1.255-4.204-1.35h-3.71v11.658s.032 2.005.85 2.664c0 0 .783.912 4.116.885v1.283H19.277v-1.256s2.295 0 3.27-.69c0 0 .905-.343 1.03-3.363V16.49s-.032-1.667-1.003-2.486c0 0-.847-.72-3.207-.69V12zM50.157 12h29.84l.725 7.505h-1.73s-.755-2.354-1.608-3.265c0 0-1.033-1.54-3.608-1.667h-5.243v26.61s-.063 2.038.878 2.76c0 0 .632.787 3.896.822v1.283h-16.43v-1.223s2.016.06 3.144-.47c0 0 1.693-.44 1.665-3.018V14.51h-5.123s-2.193.063-3.517 1.446c0 0-1.224 1.288-1.837 3.55h-1.742l.69-7.506zM46.59 63.49c-.577 0-.882.117-.915.354 1.017.61 1.525 1.424 1.525 2.442.067.406.135.678.204.813.473.95 1.254 1.22 2.34.813 1.017-.542 1.457-1.356 1.322-2.44-.137-.68-.78-1.222-1.933-1.63-1.12-.236-1.967-.354-2.543-.354zm-24.268.172c-.81-.013-1.103.42-.882 1.3v4.884h-4.78c-.138 0-.61-.203-1.425-.61-.34-.204-.577-.34-.712-.407-.407-.272-.712-.34-.916-.205-.203.137-.305.476-.305 1.018v9.053c-.07 1.22.51 1.662 1.73 1.323 1.083-.068 1.592-.612 1.525-1.63v-1.118h4.883v9.053c-.137 1.153.372 1.593 1.526 1.323 1.287-.137 1.897-.712 1.83-1.73v-8.646h4.883v1.322c0 .95.406 1.323 1.22 1.12 1.628-.136 2.373-.815 2.238-2.035v-6.41c0-.067.102-.135.305-.203.27-.204.44-.372.51-.51-.612-1.286-1.832-2.17-3.664-2.644-.204.07-.51.475-.916 1.22-.272.476-.442.713-.51.713h-4.068v-4.68c0-.066.067-.168.204-.305.745-.61.066-.98-2.035-1.118-.24-.05-.456-.077-.643-.08zm60.865.284c-.203.068-.475.305-.814.712-.27.34-.44.508-.508.508H68.742c-2.645-1.22-3.73-1.253-3.255-.1V86.12c-.068.746.204 1.05.814.916 1.492-.204 2.17-.646 2.035-1.323v-3.662c1.018-.95 2.373-2.645 4.07-5.086.203.814.304 1.492.304 2.034.066 1.222.71 1.664 1.932 1.324-.543.68-1.22 1.424-2.034 2.237-.544.612-.78.986-.712 1.12 2.576-1.424 4.814-3.525 6.713-6.306.134.543.236 1.255.305 2.136 0 1.154.406 1.696 1.22 1.627 1.356-.27 1.933-1.084 1.73-2.44-.34-1.357-1.018-2.712-2.035-4.07.27-.61.575-1.39.916-2.34l.407-1.22c.135-.408.372-.746.712-1.018.204-.27.34-.51.407-.713 0-.27-.543-.644-1.627-1.12-1.086-.406-1.798-.507-2.137-.304-.136.07-.203.305-.203.712-.07 1.085-.272 2.34-.61 3.764-.204-.136-.443-.373-.713-.713l-1.83-1.628c.066-.205.27-.373.61-.51l.203-.203c0-.34-.475-.712-1.424-1.12-1.017-.406-1.695-.507-2.034-.304-.203 0-.305.305-.305.916 0 1.084-.1 2.204-.304 3.356-.68-.746-1.866-1.796-3.56-3.154v-1.627c-.137-1.288.407-1.865 1.627-1.73h12.615v17.192c0 .814-1.12 1.29-3.358 1.424-.544.07-.85.138-.915.204l.305.102c1.424.204 2.238.644 2.44 1.322.068.136.103.306.103.51.204.676.814.915 1.83.71 2.102-.202 3.018-1.153 2.747-2.847V67.304c0-.067.17-.204.51-.407.406-.27.61-.474.61-.61-1.29-1.22-2.51-2-3.663-2.34zM57.27 66.49c-.202 0-.644.508-1.32 1.525-.476.747-.782 1.118-.917 1.118H38.35c-.27 0-.373.102-.304.306.066.135.236.202.508.202h5.188c.677 4.138 1.897 7.563 3.662 10.274-2.172 2.714-5.358 5.087-9.563 7.12-.812.678-.202.678 1.832 0 4.136-1.49 7.325-3.152 9.563-4.983 1.83 1.83 4.306 3.357 7.426 4.578.95.408 1.527.204 1.73-.61.407-.95.983-1.592 1.73-1.933.135-.066.338-.168.61-.305.542-.338.542-.54 0-.61-4.002-.745-7.12-2.035-9.36-3.866 1.222-1.762 2.407-4.237 3.56-7.426.068-.27.307-.54.713-.813.27-.204.407-.407.407-.61 0-.27-.712-.543-2.136-.814h5.9c.407 0 .644-.067.712-.204.067-.136-.035-.373-.305-.713-1.22-1.424-2.203-2.17-2.95-2.238zm-13.12 3.153h7.526c-.678 3.188-1.594 5.764-2.746 7.73-1.9-1.694-3.494-4.272-4.78-7.73zm24.185 0c1.017 1.085 2.034 2.61 3.05 4.577-.677 2.848-1.695 5.223-3.05 7.12V69.644zm-50.944.6c.09-.002.184.002.285.01h3.764v6.612h-4.883v-5.9c-.06-.474.22-.715.834-.723zm7.406.01h4.883v6.612h-4.884v-6.612zm50.15.407c.95 1.154 1.695 2.374 2.24 3.662-.34 1.492-.883 2.95-1.628 4.374-.137-1.22-.78-2.645-1.933-4.272.203-.34.473-1.12.813-2.34.27-.677.44-1.152.51-1.424z"/></symbol><symbol id="social-linkedin-bg" viewBox="0 0 100 100"><rect rx="10" ry="10" width="100%" height="100%" fill="#0977b6"/><path d="M23.413 15C18.763 15 15 18.777 15 23.424c0 4.652 3.764 8.427 8.413 8.427 4.638 0 8.408-3.773 8.408-8.425 0-4.647-3.77-8.424-8.406-8.424zm44.185 22.08c-7.057 0-11.79 3.876-13.728 7.552h-.194v-6.39H39.762V85h14.496V61.87c0-6.098 1.158-12.004 8.706-12.004 7.44 0 7.54 6.973 7.54 12.395V85H85V59.352c0-12.588-2.71-22.273-17.402-22.273zm-51.442 1.163V85h14.507V38.243H16.156z" fill="#fff"/></symbol><symbol id="social-linkedin" viewBox="0 0 100 100"><rect rx="10" ry="10" width="100%" height="100%" fill="none"/><path d="M23.413 15C18.763 15 15 18.777 15 23.424c0 4.652 3.764 8.427 8.413 8.427 4.638 0 8.408-3.773 8.408-8.425 0-4.647-3.77-8.424-8.406-8.424zm44.185 22.08c-7.057 0-11.79 3.876-13.728 7.552h-.194v-6.39H39.762V85h14.496V61.87c0-6.098 1.158-12.004 8.706-12.004 7.44 0 7.54 6.973 7.54 12.395V85H85V59.352c0-12.588-2.71-22.273-17.402-22.273zm-51.442 1.163V85h14.507V38.243H16.156z" fill="#0977b6"/></symbol><symbol id="social-wechat-bg" viewBox="0 0 100 100"><rect rx="10" ry="10" width="100%" height="100%" fill="#609700"/><path d="M33.165 17.336c-23.612 4.234-31.482 31.02-12.7 43.28 1.03.665 1.03.592-.516 5.22L18.623 69.8l4.757-2.56 4.758-2.56 2.524.615c2.648.664 6.032 1.132 8.287 1.132h1.35l-.467-1.797c-3.7-13.69 9.097-27.254 25.747-27.254h2.255l-.466-1.625C63.713 22.926 48.29 14.63 33.163 17.338zm-2.06 11.99c2.5 1.698 2.648 5.367.245 6.942-3.898 2.56-8.458-1.945-5.835-5.785 1.152-1.724 3.923-2.29 5.59-1.158zm20.106 0c4.12 2.782 1.03 9.207-3.58 7.435-3.332-1.28-3.725-5.882-.61-7.532 1.225-.665 3.137-.615 4.192.098zM60.31 39.47c-11.695 2.14-19.81 11.052-19.345 21.294.613 13.713 16.624 23.166 31.997 18.932l1.813-.493 3.825 2.068c2.11 1.16 3.874 1.996 3.923 1.897.05-.123-.365-1.6-.905-3.3-1.226-3.79-1.25-3.52.393-4.7 18.487-13.32 2.255-40.057-21.7-35.7zm-.465 11.052c1.03.69 1.57 2.413 1.127 3.668-.932 2.685-4.93 2.882-6.008.297-1.226-2.98 2.158-5.737 4.88-3.964zm16.378.295c1.62 1.55 1.35 4.186-.54 5.17-2.892 1.477-5.932-1.477-4.436-4.308.98-1.823 3.506-2.266 4.977-.863zM54.333 77.415" fill="#fff"/></symbol><symbol id="social-wechat" viewBox="0 0 100 100"><rect rx="10" ry="10" width="100%" height="100%" fill="none"/><path d="M33.165 17.336c-23.612 4.234-31.482 31.02-12.7 43.28 1.03.665 1.03.592-.516 5.22L18.623 69.8l4.757-2.56 4.758-2.56 2.524.615c2.648.664 6.032 1.132 8.287 1.132h1.35l-.467-1.797c-3.7-13.69 9.097-27.254 25.747-27.254h2.255l-.466-1.625C63.713 22.926 48.29 14.63 33.163 17.338zm-2.06 11.99c2.5 1.698 2.648 5.367.245 6.942-3.898 2.56-8.458-1.945-5.835-5.785 1.152-1.724 3.923-2.29 5.59-1.158zm20.106 0c4.12 2.782 1.03 9.207-3.58 7.435-3.332-1.28-3.725-5.882-.61-7.532 1.225-.665 3.137-.615 4.192.098zM60.31 39.47c-11.695 2.14-19.81 11.052-19.345 21.294.613 13.713 16.624 23.166 31.997 18.932l1.813-.493 3.825 2.068c2.11 1.16 3.874 1.996 3.923 1.897.05-.123-.365-1.6-.905-3.3-1.226-3.79-1.25-3.52.393-4.7 18.487-13.32 2.255-40.057-21.7-35.7zm-.465 11.052c1.03.69 1.57 2.413 1.127 3.668-.932 2.685-4.93 2.882-6.008.297-1.226-2.98 2.158-5.737 4.88-3.964zm16.378.295c1.62 1.55 1.35 4.186-.54 5.17-2.892 1.477-5.932-1.477-4.436-4.308.98-1.823 3.506-2.266 4.977-.863zM54.333 77.415" fill="#609700"/></symbol><symbol id="social-weibo-bg" viewBox="0 0 100 100"><rect rx="10" ry="10" width="100%" height="100%" fill="#FFD12B"/><path d="M68.453 17.596c-1.363.023-2.725.177-4.066.463-1.656.352-2.705 1.987-2.352 3.63.353 1.657 1.977 2.704 3.633 2.35 5.09-1.08 10.597.498 14.328 4.638 3.73 4.14 4.745 9.78 3.145 14.724-.518 1.612.366 3.333 1.977 3.852 1.612.52 3.335-.364 3.854-1.965v-.01c2.253-6.944.827-14.88-4.427-20.698-4.27-4.735-10.185-7.088-16.09-6.986zM69.3 28.48c-.882-.042-1.77.032-2.64.22-1.424.297-2.33 1.71-2.03 3.134.308 1.424 1.71 2.33 3.124 2.02 1.7-.363 3.553.167 4.8 1.546 1.248 1.39 1.59 3.278 1.05 4.934-.442 1.38.31 2.87 1.7 3.322 1.392.442 2.87-.308 3.323-1.7 1.093-3.388.41-7.252-2.152-10.09-1.92-2.126-4.525-3.267-7.174-3.387z" fill="#f93"/><path fill="#e6162d" d="M43.612 77.654c-13.246 1.313-24.682-4.68-25.543-13.367-.862-8.698 9.183-16.8 22.418-18.114C53.735 44.86 65.17 50.853 66.02 59.54c.873 8.698-9.172 16.81-22.408 18.114M70.094 48.79c-1.126-.343-1.9-.564-1.314-2.043 1.28-3.212 1.413-5.983.022-7.97-2.594-3.708-9.703-3.51-17.85-.1 0 0-2.56 1.116-1.898-.904 1.248-4.03 1.06-7.395-.883-9.35C43.757 24 32 28.59 21.923 38.668 14.382 46.207 10 54.21 10 61.13 10 74.353 26.966 82.4 43.557 82.4c21.757 0 36.23-12.64 36.23-22.672.01-6.07-5.1-9.515-9.693-10.94"/><path fill="#fff" d="M15.884 62.156c0 9.316 12.13 16.866 27.088 16.866 14.957 0 27.09-7.55 27.09-16.866 0-9.316-12.133-16.866-27.09-16.866s-27.088 7.55-27.088 16.866"/><path d="M44.34 61.913c-.463.795-1.49 1.17-2.284.84-.795-.32-1.038-1.215-.585-1.988.465-.772 1.447-1.148 2.23-.84.795.288 1.082 1.183.64 1.988m-4.227 5.41c-1.28 2.04-4.03 2.935-6.093 1.997-2.03-.927-2.638-3.3-1.358-5.298 1.27-1.987 3.92-2.87 5.972-2.01 2.075.895 2.738 3.246 1.48 5.31m4.812-14.46c-6.303-1.645-13.423 1.5-16.16 7.053-2.793 5.663-.09 11.955 6.27 14.008 6.6 2.13 14.372-1.137 17.076-7.24 2.67-5.984-.662-12.132-7.186-13.82"/></symbol><symbol id="social-weibo" viewBox="0 0 100 100"><rect rx="10" ry="10" width="100%" height="100%" fill="none"/><path d="M68.453 17.596c-1.363.023-2.725.177-4.066.463-1.656.352-2.705 1.987-2.352 3.63.353 1.657 1.977 2.704 3.633 2.35 5.09-1.08 10.597.498 14.328 4.638 3.73 4.14 4.745 9.78 3.145 14.724-.518 1.612.366 3.333 1.977 3.852 1.612.52 3.335-.364 3.854-1.965v-.01c2.253-6.944.827-14.88-4.427-20.698-4.27-4.735-10.185-7.088-16.09-6.986zM69.3 28.48c-.882-.042-1.77.032-2.64.22-1.424.297-2.33 1.71-2.03 3.134.308 1.424 1.71 2.33 3.124 2.02 1.7-.363 3.553.167 4.8 1.546 1.248 1.39 1.59 3.278 1.05 4.934-.442 1.38.31 2.87 1.7 3.322 1.392.442 2.87-.308 3.323-1.7 1.093-3.388.41-7.252-2.152-10.09-1.92-2.126-4.525-3.267-7.174-3.387z" fill="#f93"/><path fill="#e6162d" d="M43.612 77.654c-13.246 1.313-24.682-4.68-25.543-13.367-.862-8.698 9.183-16.8 22.418-18.114C53.735 44.86 65.17 50.853 66.02 59.54c.873 8.698-9.172 16.81-22.408 18.114M70.094 48.79c-1.126-.343-1.9-.564-1.314-2.043 1.28-3.212 1.413-5.983.022-7.97-2.594-3.708-9.703-3.51-17.85-.1 0 0-2.56 1.116-1.898-.904 1.248-4.03 1.06-7.395-.883-9.35C43.757 24 32 28.59 21.923 38.668 14.382 46.207 10 54.21 10 61.13 10 74.353 26.966 82.4 43.557 82.4c21.757 0 36.23-12.64 36.23-22.672.01-6.07-5.1-9.515-9.693-10.94"/><path fill="#fff" d="M15.884 62.156c0 9.316 12.13 16.866 27.088 16.866 14.957 0 27.09-7.55 27.09-16.866 0-9.316-12.133-16.866-27.09-16.866s-27.088 7.55-27.088 16.866"/><path d="M44.34 61.913c-.463.795-1.49 1.17-2.284.84-.795-.32-1.038-1.215-.585-1.988.465-.772 1.447-1.148 2.23-.84.795.288 1.082 1.183.64 1.988m-4.227 5.41c-1.28 2.04-4.03 2.935-6.093 1.997-2.03-.927-2.638-3.3-1.358-5.298 1.27-1.987 3.92-2.87 5.972-2.01 2.075.895 2.738 3.246 1.48 5.31m4.812-14.46c-6.303-1.645-13.423 1.5-16.16 7.053-2.793 5.663-.09 11.955 6.27 14.008 6.6 2.13 14.372-1.137 17.076-7.24 2.67-5.984-.662-12.132-7.186-13.82"/></symbol></svg>