<svg xmlns="http://www.w3.org/2000/svg" width="100" height="100"><path d="M98.145 36.269a.56.56 0 0 1 .355.549c0 .28-.118.463-.355.549l-47.369 19.28-.226.032-.227-.032L6.99 39.013v17.666h-.194c.753.517 1.34 1.259 1.76 2.228.42.969.63 2.023.63 3.164v1.938h-.097v2.034c0 .302-.103.55-.307.754s-.458.312-.759.312c-.258 0-.495-.098-.71-.291-.215.323-.495.484-.839.484-.28 0-.527-.097-.743-.291-.194.388-.506.581-.937.581a.982.982 0 0 1-.613-.226 1.426 1.426 0 0 1-.258-.258.97.97 0 0 1-.71.29c-.388 0-.689-.183-.904-.549a.952.952 0 0 1-.646.259c-.302 0-.555-.108-.759-.312a1.016 1.016 0 0 1-.307-.754v-2.034H.5V62.07c.021-1.141.237-2.195.646-3.164.409-.969.99-1.711 1.744-2.228h-.065V37.269a.583.583 0 0 1-.226-.452c0-.258.119-.441.355-.549l47.369-19.245a.556.556 0 0 1 .452 0l47.37 19.246zM24.168 49.575L50.55 60.327l26.381-10.752v20.601c-.043 3.466-2.724 6.328-8.041 8.589-5.08 2.174-11.193 3.262-18.34 3.262s-13.261-1.088-18.341-3.262c-5.317-2.261-7.997-5.123-8.04-8.589V49.575z" fill=""/></svg>