<?xml version="1.0" encoding="UTF-8" standalone="no"?>
<svg
   xmlns:dc="http://purl.org/dc/elements/1.1/"
   xmlns:cc="http://creativecommons.org/ns#"
   xmlns:rdf="http://www.w3.org/1999/02/22-rdf-syntax-ns#"
   xmlns:svg="http://www.w3.org/2000/svg"
   xmlns="http://www.w3.org/2000/svg"
   xmlns:sodipodi="http://sodipodi.sourceforge.net/DTD/sodipodi-0.dtd"
   xmlns:inkscape="http://www.inkscape.org/namespaces/inkscape"
   version="1.1"
   x="0px"
   y="0px"
   width="100"
   height="100"
   viewBox="0 0 100 100"
   id="social-wechat"
   inkscape:version="0.91 r13725"
   sodipodi:docname="social-wechat.svg">
  <defs
     id="defs10" />
  <metadata
     id="metadata11">
    <rdf:RDF>
      <cc:Work
         rdf:about="">
        <dc:format>image/svg+xml</dc:format>
        <dc:type
           rdf:resource="http://purl.org/dc/dcmitype/StillImage" />
        <dc:title />
      </cc:Work>
    </rdf:RDF>
  </metadata>
  <sodipodi:namedview
     pagecolor="#ffffff"
     bordercolor="#666666"
     borderopacity="1"
     objecttolerance="10000"
     gridtolerance="10000"
     guidetolerance="10000"
     inkscape:pageopacity="0"
     inkscape:pageshadow="2"
     inkscape:window-width="1440"
     inkscape:window-height="790"
     id="namedview9"
     showgrid="true"
     inkscape:showpageshadow="false"
     inkscape:zoom="5.88"
     inkscape:cx="50"
     inkscape:cy="50"
     inkscape:window-x="0"
     inkscape:window-y="1"
     inkscape:window-maximized="1"
     inkscape:current-layer="social-wechat">
    <inkscape:grid
       type="xygrid"
       id="grid4139" />
  </sodipodi:namedview>
<rect class="background" x="0" y="0" width="100%" height="100%" fill="#609700"/>
  <path
     d="M 35.269108,21.419757 C 14.608901,25.124461 7.7227461,48.561902 24.156779,59.289269 c 0.901219,0.581872 0.901219,0.51799 -0.451498,4.567444 l -1.159373,3.468464 4.162327,-2.239983 4.162316,-2.239965 2.208465,0.538117 c 2.316973,0.580999 5.27793,0.990493 7.251023,0.990493 l 1.181244,0 -0.407747,-1.572359 C 37.865197,50.822882 49.063304,38.954534 63.631845,38.954534 l 1.973096,0 -0.407728,-1.421862 C 61.99913,26.310064 48.505055,19.052031 35.268241,21.420626 Z m -1.802467,10.491118 c 2.187465,1.485728 2.316965,4.696062 0.214374,6.074174 -3.410706,2.239965 -7.400644,-1.701857 -5.105554,-5.061818 1.007993,-1.50848 3.432584,-2.003722 4.89118,-1.013239 z m 17.592504,0 c 3.604964,2.434213 0.901244,8.056025 -3.132453,6.505536 -2.916334,-1.119985 -3.260196,-5.147556 -0.535492,-6.591284 1.072733,-0.581873 2.74572,-0.538124 3.668822,0.08575 z m 7.95977,8.875001 C 48.78593,42.658359 41.685411,50.457138 42.092273,59.418767 42.628632,71.41749 56.638074,79.68876 70.089263,75.984058 l 1.586352,-0.43136 3.346829,1.809472 c 1.846226,1.013234 3.389695,1.745591 3.432576,1.658975 0.04375,-0.107631 -0.320244,-1.39998 -0.792736,-2.887456 C 76.589545,72.817474 76.568545,73.05372 78.006161,72.021237 94.18205,60.366384 79.97926,36.971813 59.018915,40.784126 Z m -0.406871,9.671262 c 0.901246,0.603741 1.373741,2.111348 0.986115,3.209451 -0.815494,2.349346 -4.313693,2.521727 -5.256927,0.259879 -1.072747,-2.607476 1.88822,-5.019821 4.269933,-3.468447 z m 14.330554,0.258129 c 1.415732,1.356219 1.181232,3.662695 -0.472492,4.523684 -2.53134,1.29236 -5.191296,-1.292366 -3.882331,-3.769461 0.857498,-1.594219 3.067715,-1.981844 4.354823,-0.754223 z m -19.152613,23.27294"
     inkscape:connector-curvature="0"
     fill="#ffffff" />
</svg>
