<?xml version="1.0" encoding="UTF-8"?><!DOCTYPE svg PUBLIC "-//W3C//DTD SVG 1.1//EN" "http://www.w3.org/Graphics/SVG/1.1/DTD/svg11.dtd"><svg xmlns="http://www.w3.org/2000/svg" xmlns:xlink="http://www.w3.org/1999/xlink"><defs><path id="a" d="M5.1 5.6h17v17h-17z"/><path id="c" d="M27.9 5.6h17v17h-17z"/><path id="e" d="M5.1 27.5h17v17h-17z"/><path id="g" d="M27.9 27.5h17v17h-17z"/><path id="a" d="M227 310.377h33.81v25H227z"/></defs><symbol id="arrow-right" viewBox="0 0 50 50"><path d="M25.52 24.49L14.077 40.962c-.524.762-.344 1.812.414 2.336l4.686 3.313a1.653 1.653 0 0 0 2.318-.412l14.41-20.747a1.65 1.65 0 0 0 .278-.67v-.02l.018-.13.005-.055v-.19l-.005-.047-.018-.138v-.008a1.688 1.688 0 0 0-.28-.675L21.493 2.774a1.652 1.652 0 0 0-2.317-.413L14.49 5.67a1.692 1.692 0 0 0-.415 2.34L25.52 24.49z"/></symbol><symbol id="brand-ftc-masthead" viewBox="0 0 476 100"><path d="M310.772.008c-2.32-.07-3.482.315-3.482 1.157 4.22 2.526 6.327 5.894 6.327 10.104 0 1.683.277 2.808.844 3.367 1.964 4.21 5.063 5.473 9.28 3.79 4.496-2.245 6.466-5.75 5.906-10.526-.567-2.8-3.374-4.905-8.436-6.314-4.64-.98-8.12-1.507-10.438-1.578zM207.897.41c-3.5-.054-4.677 1.743-3.53 5.388v20.206H184.54c-1.686 0-4.638-1.4-8.857-4.21-1.97-.842-3.374-.98-4.218-.42-.845.566-1.13 1.83-.846 3.79v37.47c-.568 5.335 1.826 7.3 7.172 5.893 4.495-.276 6.6-2.666 6.325-7.16v-4.63h20.25v37.47c-.568 4.77 1.542 6.592 6.327 5.474 5.34-.842 7.87-3.23 7.592-7.156V57.16h20.248v5.052c0 4.21 1.688 5.756 5.062 4.63 6.748-.56 9.837-3.37 9.277-8.42V31.897l.846-.842c1.12-.56 1.964-1.263 2.53-2.105-2.814-5.05-7.876-8.696-15.185-10.945-1.128.283-2.53 1.967-4.218 5.052-.843 1.684-1.412 2.526-1.688 2.526h-16.874V6.64l.844-.842c3.09-2.802.277-4.486-8.436-5.052-1.056-.21-1.99-.322-2.797-.335zM460.41 1.59c-.843.283-1.97 1.408-3.374 3.368-1.126 1.125-1.833 1.684-2.11 1.684h-54.414c-7.033-2.526-10.967-3.79-11.81-3.79-1.41 0-1.97 1.123-1.688 3.367v87.568c-.283 2.525.843 3.644 3.374 3.368 5.622-.842 8.437-2.526 8.437-5.052V76.525c4.218-3.927 9.84-10.946 16.875-21.05.844 3.37 1.265 6.178 1.265 8.422.276 5.335 2.953 7.157 8.015 5.473-2.255 3.09-5.062 6.314-8.436 9.682-2.532 2.526-3.52 3.934-2.953 4.21 10.124-5.052 19.404-13.748 27.84-26.102.56 2.25.844 5.196.844 8.84.278 5.053 2.112 7.303 5.486 6.737 5.34-.842 7.73-4.21 7.17-10.104-1.41-5.61-4.22-11.222-8.437-16.84.843-2.525 1.964-5.75 3.374-9.683.843-2.242 1.543-3.927 2.11-5.052.56-1.4 1.403-2.664 2.53-3.79 1.12-1.117 1.826-2.242 2.11-3.367-3.66-3.926-8.86-5.893-15.608-5.893-.57.283-.845 1.263-.845 2.947-.283 4.493-1.127 9.683-2.53 15.577-.844-.56-1.97-1.4-3.375-2.525-2.532-2.526-4.923-4.91-7.17-7.16.275-.558.98-1.115 2.108-1.68.844-.56 1.265-.983 1.265-1.266-3.375-3.93-8.16-5.895-14.34-5.895-.846.283-1.267 1.686-1.267 4.212 0 4.21-.423 8.703-1.268 13.472-3.097-3.086-8.015-7.436-14.763-13.054v-6.734c-.568-5.053 1.688-7.433 6.75-7.157h52.304v71.15c0 3.65-4.64 5.755-13.92 6.314l-3.797.42c-.284.283.276.42 1.688.42 5.62 1.12 8.858 3.086 9.702 5.895 0 .276.14.842.422 1.684.56 2.8 3.09 3.788 7.593 2.946 8.437-.566 12.233-4.493 11.388-11.788V15.48c0-.275.56-.84 1.688-1.683 1.963-.842 2.953-1.683 2.953-2.526-5.345-5.05-10.408-8.274-15.186-9.682zM0 11.168v4.297c1.093.08 2.558.324 4.4.727 1.84.404 3.305.868 4.397 1.392 1.414.646 2.344 1.484 2.79 2.514.444 1.028.668 2.21.668 3.54v62c0 1.454-.274 2.696-.818 3.726-.546 1.028-1.427 1.805-2.64 2.33-.606.283-1.92.516-3.944.696-2.023.18-3.64.314-4.853.394v4.3h37.31v-4.3c-1.053-.04-2.588-.262-4.61-.665-2.024-.404-3.34-.746-3.944-1.03-1.335-.642-2.265-1.488-2.79-2.536-.527-1.048-.788-2.237-.788-3.565V55.425h9.912c2.594 0 4.814.274 6.66.817a9.16 9.16 0 0 1 4.59 3.06c.812 1.01 1.57 2.643 2.28 4.903.71 2.262 1.126 4.282 1.248 6.057h4.55V36.477h-4.55c-.205 2.14-.64 4.15-1.31 6.025-.668 1.876-1.406 3.26-2.217 4.147a10.816 10.816 0 0 1-4.258 2.873c-1.662.627-3.992.942-6.992.942h-9.912V15.952h14.44c2.183 0 4.133.04 5.852.12 1.72.08 3.205.2 4.46.362 2.465.365 5.045 2.363 7.734 5.996 2.69 3.633 4.457 7.044 5.307 10.23h4.55V11.168H0zm76.342 0v23.308h4.246c.364-1.333 1.012-3.015 1.943-5.054a41.163 41.163 0 0 1 3.217-5.783 31.878 31.878 0 0 1 3.973-4.875c1.435-1.432 2.822-2.228 4.155-2.39a62.02 62.02 0 0 1 5.34-.394c1.858-.06 3.416-.09 4.67-.09h3.518v69.267c0 1.656-.316 2.978-.94 3.967-.63.99-1.61 1.746-2.943 2.27-.89.362-2.497.666-4.82.908-2.328.242-4.056.405-5.188.485v4.298h40.642v-4.298c-1.295-.04-3.103-.304-5.43-.788-2.325-.486-3.85-.868-4.578-1.15-1.417-.607-2.41-1.463-2.973-2.574-.567-1.11-.85-2.332-.85-3.663V15.89h3.526c1.62 0 3.385.04 5.29.12 1.905.082 3.486.204 4.742.365 1.338.202 2.726.998 4.166 2.39 1.44 1.392 2.765 3.017 3.983 4.874a46.545 46.545 0 0 1 3.19 5.662c.953 1.996 1.614 3.723 1.978 5.176h4.185v-23.31h-75.04zm279.036.945c-1.128 0-3.1 2.105-5.906 6.315-1.97 3.092-3.1 4.63-3.375 4.63H276.92c-1.128.284-1.688.705-1.688 1.264.277.567 1.12.842 2.53.842h21.516c2.807 17.123 7.87 31.298 15.185 42.52-9.28 11.23-22.5 21.05-39.65 29.47-3.375 2.803-.845 2.948 7.592.422 16.59-6.177 29.805-13.19 39.65-21.05 8.155 8.145 18.416 14.452 30.794 18.945 3.933 1.402 6.18.56 6.748-2.525 1.687-3.933 4.218-6.59 7.592-8 .56-.275 1.265-.696 2.11-1.262 2.53-1.118 2.67-1.96.422-2.526-16.873-2.802-29.814-8.137-38.81-15.998 5.063-7.296 9.98-17.54 14.766-30.736.277-.843 1.12-1.822 2.53-2.947 1.12-.843 1.826-1.822 2.11-2.947-.284-1.12-3.238-2.24-8.86-3.366h24.465c1.687.283 2.67 0 2.953-.842.276-.56-.145-1.54-1.266-2.947-5.344-5.61-9.425-8.696-12.232-9.262zm-54.415 13.05h31.215c-3.1 13.473-6.894 24.14-11.39 31.995-8.16-7.01-14.764-17.68-19.825-31.994zm97.862 0c4.218 4.777 8.436 11.09 12.654 18.944-3.1 12.07-7.316 21.892-12.655 29.47V25.164zM188.76 27.69h15.61v27.365h-20.25V30.637c-.284-1.96 1.266-2.947 4.64-2.947zm29.526 0h20.248v27.365h-20.248V27.69zm207.957 1.684c3.652 5.052 6.75 10.103 9.28 15.156a108.565 108.565 0 0 1-6.75 18.103c-.842-5.053-3.516-10.95-8.012-17.684.56-1.402 1.687-4.63 3.374-9.682a49.224 49.224 0 0 1 2.11-5.894z"/></symbol><symbol id="brand-ftc" viewBox="0 0 100 100"><path d="M19.368 12H47.8l.22 7.505H46.61s-.79-2.767-2.295-3.74c0 0-1.16-1.192-6.374-1.254h-5.91s-1.633-.256-1.633 1.54v10.993h3.834s2.6 0 4.146-1.005c0 0 1.414-1.005 1.632-3.486h1.32v11.97h-1.32s-.344-2.547-1.697-3.614c0 0-1.254-1.255-4.204-1.35h-3.71v11.658s.032 2.005.85 2.664c0 0 .783.912 4.116.885v1.283H19.277v-1.256s2.295 0 3.27-.69c0 0 .905-.343 1.03-3.363V16.49s-.032-1.667-1.003-2.486c0 0-.847-.72-3.207-.69V12zM50.157 12h29.84l.725 7.505h-1.73s-.755-2.354-1.608-3.265c0 0-1.033-1.54-3.608-1.667h-5.243v26.61s-.063 2.038.878 2.76c0 0 .632.787 3.896.822v1.283h-16.43v-1.223s2.016.06 3.144-.47c0 0 1.693-.44 1.665-3.018V14.51h-5.123s-2.193.063-3.517 1.446c0 0-1.224 1.288-1.837 3.55h-1.742l.69-7.506zM46.59 63.49c-.577 0-.882.117-.915.354 1.017.61 1.525 1.424 1.525 2.442.067.406.135.678.204.813.473.95 1.254 1.22 2.34.813 1.017-.542 1.457-1.356 1.322-2.44-.137-.68-.78-1.222-1.933-1.63-1.12-.236-1.967-.354-2.543-.354zm-24.268.172c-.81-.013-1.103.42-.882 1.3v4.884h-4.78c-.138 0-.61-.203-1.425-.61-.34-.204-.577-.34-.712-.407-.407-.272-.712-.34-.916-.205-.203.137-.305.476-.305 1.018v9.053c-.07 1.22.51 1.662 1.73 1.323 1.083-.068 1.592-.612 1.525-1.63v-1.118h4.883v9.053c-.137 1.153.372 1.593 1.526 1.323 1.287-.137 1.897-.712 1.83-1.73v-8.646h4.883v1.322c0 .95.406 1.323 1.22 1.12 1.628-.136 2.373-.815 2.238-2.035v-6.41c0-.067.102-.135.305-.203.27-.204.44-.372.51-.51-.612-1.286-1.832-2.17-3.664-2.644-.204.07-.51.475-.916 1.22-.272.476-.442.713-.51.713h-4.068v-4.68c0-.066.067-.168.204-.305.745-.61.066-.98-2.035-1.118a3.454 3.454 0 0 0-.643-.08zm60.865.284c-.203.068-.475.305-.814.712-.27.34-.44.508-.508.508H68.742c-2.645-1.22-3.73-1.253-3.255-.1V86.12c-.068.746.204 1.05.814.916 1.492-.204 2.17-.646 2.035-1.323v-3.662c1.018-.95 2.373-2.645 4.07-5.086.203.814.304 1.492.304 2.034.066 1.222.71 1.664 1.932 1.324-.543.68-1.22 1.424-2.034 2.237-.544.612-.78.986-.712 1.12 2.576-1.424 4.814-3.525 6.713-6.306.134.543.236 1.255.305 2.136 0 1.154.406 1.696 1.22 1.627 1.356-.27 1.933-1.084 1.73-2.44-.34-1.357-1.018-2.712-2.035-4.07.27-.61.575-1.39.916-2.34l.407-1.22a2.14 2.14 0 0 1 .712-1.018c.204-.27.34-.51.407-.713 0-.27-.543-.644-1.627-1.12-1.086-.406-1.798-.507-2.137-.304-.136.07-.203.305-.203.712-.07 1.085-.272 2.34-.61 3.764-.204-.136-.443-.373-.713-.713l-1.83-1.628c.066-.205.27-.373.61-.51l.203-.203c0-.34-.475-.712-1.424-1.12-1.017-.406-1.695-.507-2.034-.304-.203 0-.305.305-.305.916 0 1.084-.1 2.204-.304 3.356-.68-.746-1.866-1.796-3.56-3.154v-1.627c-.137-1.288.407-1.865 1.627-1.73h12.615v17.192c0 .814-1.12 1.29-3.358 1.424-.544.07-.85.138-.915.204l.305.102c1.424.204 2.238.644 2.44 1.322.068.136.103.306.103.51.204.676.814.915 1.83.71 2.102-.202 3.018-1.153 2.747-2.847V67.304c0-.067.17-.204.51-.407.406-.27.61-.474.61-.61-1.29-1.22-2.51-2-3.663-2.34zM57.27 66.49c-.202 0-.644.508-1.32 1.525-.476.747-.782 1.118-.917 1.118H38.35c-.27 0-.373.102-.304.306.066.135.236.202.508.202h5.188c.677 4.138 1.897 7.563 3.662 10.274-2.172 2.714-5.358 5.087-9.563 7.12-.812.678-.202.678 1.832 0 4.136-1.49 7.325-3.152 9.563-4.983 1.83 1.83 4.306 3.357 7.426 4.578.95.408 1.527.204 1.73-.61.407-.95.983-1.592 1.73-1.933.135-.066.338-.168.61-.305.542-.338.542-.54 0-.61-4.002-.745-7.12-2.035-9.36-3.866 1.222-1.762 2.407-4.237 3.56-7.426.068-.27.307-.54.713-.813.27-.204.407-.407.407-.61 0-.27-.712-.543-2.136-.814h5.9c.407 0 .644-.067.712-.204.067-.136-.035-.373-.305-.713-1.22-1.424-2.203-2.17-2.95-2.238zm-13.12 3.153h7.526c-.678 3.188-1.594 5.764-2.746 7.73-1.9-1.694-3.494-4.272-4.78-7.73zm24.185 0c1.017 1.085 2.034 2.61 3.05 4.577-.677 2.848-1.695 5.223-3.05 7.12V69.644zm-50.944.6c.09-.002.184.002.285.01h3.764v6.612h-4.883v-5.9c-.06-.474.22-.715.834-.723zm7.406.01h4.883v6.612h-4.884v-6.612zm50.15.407a14.867 14.867 0 0 1 2.24 3.662 18.057 18.057 0 0 1-1.628 4.374c-.137-1.22-.78-2.645-1.933-4.272.203-.34.473-1.12.813-2.34.27-.677.44-1.152.51-1.424z"/></symbol><symbol id="cross" viewBox="0 0 77 77"><path d="M77 61.62L53.886 38.495l23.1-23.1L61.6.014 38.486 23.102 15.374 0 0 15.394l23.096 23.1L0 61.62 15.374 77l23.113-23.1L61.6 77z"/></symbol><symbol id="cross_disk" viewBox="-243 245 412 412"><path d="M169 451c0 113.8-92.2 206-206 206s-206-92.2-206-206 92.2-206 206-206 206 92.2 206 206zm-40 0c0-91.8-74.3-166-166-166-91.8 0-166 74.3-166 166 0 91.8 74.3 166 166 166 91.8 0 166-74.3 166-166z"/><path d="M58.3 392.8l-37.1-37.1-58.2 58.2-58.2-58.2-37.1 37.1 58.2 58.2-58.2 58.2 37.1 37.1 58.2-58.2 58.2 58.2 37.1-37.1L.1 451z"/></symbol><symbol id="follow-star-hollow" viewBox="0 0 100 100"><path d="M78.8 96.7c-.3 0-.6-.1-.9-.3L49.7 75.9 21.5 96.4c-.5.4-1.2.4-1.8 0-.5-.4-.7-1.1-.5-1.7L30 61.6 1.8 41.1c-.6-.4-.8-1.1-.6-1.7.2-.6.8-1 1.4-1h34.8L48.3 5.2c.2-.6.8-1 1.4-1s1.2.4 1.4 1l10.8 33.1h34.8c.6 0 1.2.4 1.4 1 .2.6 0 1.3-.5 1.7L69.4 61.6l10.8 33.1c.2.6 0 1.3-.5 1.7-.3.2-.6.3-.9.3zM7.3 41.4l25.3 18.4c.5.4.7 1.1.5 1.7l-9.7 29.8 25.3-18.4c.5-.4 1.2-.4 1.8 0l25.3 18.4-9.7-29.8c-.2-.6 0-1.3.5-1.7l25.3-18.4H60.8c-.6 0-1.2-.4-1.4-1l-9.7-29.8L40 40.3c-.2.6-.8 1-1.4 1H7.3z"/></symbol><symbol id="follow-star" viewBox="0 0 100 100"><path d="M78.8 96.7c-.3 0-.6-.1-.9-.3L49.7 75.9 21.5 96.4c-.5.4-1.2.4-1.8 0-.5-.4-.7-1.1-.5-1.7L30 61.6 1.8 41.1c-.6-.4-.8-1.1-.6-1.7.2-.6.8-1 1.4-1h34.8L48.3 5.2c.2-.6.8-1 1.4-1s1.2.4 1.4 1l10.8 33.1h34.8c.6 0 1.2.4 1.4 1 .2.6 0 1.3-.5 1.7L69.4 61.6l10.8 33.1c.2.6 0 1.3-.5 1.7-.3.2-.6.3-.9.3z"/></symbol><symbol id="grid" viewBox="0 0 50 50"><clipPath id="b"><use xlink:href="#a" overflow="visible"/></clipPath><path clip-path="url(#b)" d="M3.8 4.3h19.5v19.5H3.8z"/><clipPath id="d"><use xlink:href="#c" overflow="visible"/></clipPath><path clip-path="url(#d)" d="M26.6 4.3h19.5v19.5H26.6z"/><clipPath id="f"><use xlink:href="#e" overflow="visible"/></clipPath><path clip-path="url(#f)" d="M3.8 26.2h19.5v19.5H3.8z"/><g><clipPath id="h"><use xlink:href="#g" overflow="visible"/></clipPath><path clip-path="url(#h)" d="M26.6 26.2h19.5v19.5H26.6z"/></g></symbol><symbol id="hamburger" viewBox="0 0 100 100"><path d="M1.5 20.14v-4.93c0-1.35.478-2.503 1.433-3.458S5.04 10.32 6.39 10.32h88.22c1.324 0 2.47.477 3.438 1.432S99.5 13.86 99.5 15.21v4.93c0 1.323-.484 2.47-1.452 3.437s-2.114 1.45-3.438 1.45H6.39c-1.35 0-2.502-.482-3.457-1.45C1.978 22.61 1.5 21.463 1.5 20.14zm0 31.824v-4.89c0-1.376.478-2.547 1.433-3.502.955-.95 2.108-1.426 3.458-1.426h88.22c1.324 0 2.47.478 3.438 1.426.968.955 1.452 2.126 1.452 3.502v4.89c0 1.324-.484 2.47-1.452 3.438-.968.97-2.114 1.452-3.438 1.452H6.39c-1.35 0-2.502-.483-3.457-1.452-.955-.967-1.433-2.114-1.433-3.438zm0 26.936c0-1.35.478-2.51 1.433-3.465S5.04 74.01 6.39 74.01h88.22c1.324 0 2.47.47 3.438 1.425S99.5 77.55 99.5 78.9v4.89c0 1.376-.484 2.534-1.452 3.477-.968.943-2.114 1.415-3.438 1.415H6.39c-1.35 0-2.502-.472-3.457-1.415-.955-.943-1.433-2.1-1.433-3.476V78.9z"/></symbol><symbol id="myft-bolder" viewBox="0 0 800 375.1"><path d="M198.5 133.7c2.8 0 3.8.7 4.5 1.7 1.2 1.9 1.9 3.7 1.9 7.3 0 1.7-1 7.5-7.6 27.3l-18.2 51.9c-6.5 18.6-9.7 31.3-9.7 37.6 0 8.2 2.3 14.3 7.2 19.2 4.7 4.8 10.7 7.3 17.6 7.3 8.7 0 18.1-4.4 27.8-13.1 9.4-8.4 16.5-18.5 21.8-30.8l2.4-5.6H230l-1.1 2.1c-4.4 8.1-10 15.9-14.9 20.8-4.2 4.2-8.5 6.6-11.9 6.6-.9 0-1.5-.2-1.7-.5l-.2-.4-.2-.3c-.2-.4-.8-1.9-.8-3.5 0-4 4.6-17.4 9.3-30.7l14.7-42.3c5.7-14.8 8.5-24.6 9.6-29 1-4 1-8.6 1-14 0-9.5-2.8-16.5-9-22.8-5.2-5-13-8-21-8-11.8 0-23.1 5-35.5 15.6-6.7 5.7-13.5 13.5-20 23.1.4-3.4.6-6.5.6-9.6 0-9.4-2-16.5-6-21.4-3.9-5-10.6-7.7-19.6-7.7-11.6 0-23.9 6.6-37.4 20.2-5.9 5.9-11.3 12.2-16.1 18.8 1.4-6.6 2.2-12.3 2.2-16.8 0-5.7-1.7-10.8-5-15.3-3.3-4.6-8.1-6.9-14.5-6.9-8.7 0-17.3 4.3-26.2 13.3C17 137 9.1 147.8 3 159.9l-3 5.8h17.5l1.1-2.1c4.6-8.4 10.2-16 15.7-21.6 5.8-5.8 8.8-6.6 10.2-6.6 0 0 .1 0 0 0 .1 0 .2.1.3.3v1.8c0 2.1-3.3 14-6.7 26.5L2 282.4h30.6l7.1-21.1c15.1-50.6 29.6-83.6 44.3-100.7 18.4-22.8 28.2-26.2 32.4-26.2.6 0 2.1.1 2.3.8l.3.8.6.6c.7.8 1.5 3.1 1.5 6 0 5.8-2.7 18-7.6 34.3L80.7 283.3h31.5l6.1-19.3c15.2-51.4 30.4-86.7 45.2-105 14-17.3 25.2-25.3 35-25.3z"/><path d="M381.1 121.8c-3-6.3-8.6-10.1-14.8-10.1-4.4 0-8 1.9-10.2 5.3-2.2 3.4-3.3 6.8-3.3 10.9 0 4.6 2.3 10.6 6.7 17.7 3.7 5.9 5.5 12 5.5 18.7 0 10-2.9 27-16.8 50.8-7.8 13.9-16 26.5-25 38 4.4-21.5 6.6-43.9 6.6-68.1 0-22.3-3.1-40.8-9.1-53.6l-.1-.2c-7.2-13.2-15.5-19.4-26-19.4-8.8 0-16.8 4.6-23.9 13.5-7.1 8.1-11.1 20.8-13 41.1l-.4 4.4h15.8l.4-3.6c3.1-28.2 9.2-30.4 10.9-30.4.2 0 .5 0 .7.1l.7.1c2.7 0 5.3 3.7 8.3 12.1 3.3 9 5 22.3 5 39.3 0 23.2-1.7 44.8-5.1 64.2-3.7 21.4-7.1 34.5-10.8 41.1-4 7.3-11.5 16.5-21.8 26.8-10.5 10.5-19.9 17.2-25.9 20.9-6.9 3.9-13.1 5.6-20.5 5.6-4 0-10.5-.6-18.8-3.3-6.1-1.7-11.6-2.8-14.9-2.8-4.6 0-8.7 1.3-12.5 4.1-4.4 2.4-7.1 6.9-7.1 12.1 0 6.2 2.8 11 8 13.9 4.6 2.6 11.2 3.9 20.2 3.9 13.3 0 26-3.5 40-10.9 13.7-7.3 29.9-20.1 46.8-36.9 16.7-15.9 33.8-34.5 53.9-58.3 17.1-20.3 30.6-41.9 41.1-66 9.5-21.7 14.1-40.4 14.1-57 0-9.4-1.7-18-4.7-24zM415.3 278.6V0h177.4v51H472.4v71h99.1v50.2h-99.1v106.4h-57.1zM611.1 0h190.3v51h-66.2v227.6h-58.8V51h-65.3V0z"/></symbol><symbol id="printer" viewBox="0 0 100 100"><path d="M79.932 29.284h-1.36V12.527H20.996v16.757h-9.09V65.07h9.09v23.278H59.29l19.28-17.452V65.07h9.085V29.284h-7.723zM58.052 80.65V70.266h12.094L58.05 80.65zM72.21 65.063H52.853v16.925H27.355v-35.06H72.21v18.135zM27.355 18.89H72.21v10.395H27.355V18.89z"/></symbol><symbol id="profile" viewBox="0 0 100 100"><path d="M96.97 82.82c.287 3.876.406 7.465.358 10.75s-.088 4.93-.12 4.93H1.793l-.096-4.93c-.096-3.285.008-6.874.31-10.75.304-3.876.838-6.396 1.604-7.576.542-.86 1.332-1.69 2.37-2.473 1.036-.78 2.368-1.546 3.995-2.31s3.134-1.437 4.522-2.01 3.246-1.325 5.575-2.234 4.195-1.643 5.6-2.217c6.348-2.617 10.27-4.403 11.77-5.36l.096-9.14-.383-.335c-.223-.223-.534-.622-.933-1.196a18.368 18.368 0 0 1-1.22-2.09c-.415-.813-.82-1.898-1.22-3.27a31.906 31.906 0 0 1-.933-4.45c-1.022.287-2.043-.247-3.063-1.603-1.02-1.356-1.563-2.64-1.627-3.852a15.078 15.078 0 0 1 .048-2.034c.064-.78.19-1.594.383-2.44s.512-1.514.958-2.01c.447-.494.99-.677 1.627-.55-.67-5.07-.925-8.42-.766-10.048.19-1.85.78-3.668 1.77-5.455s2.28-3.397 3.876-4.833c1.595-1.436 3.565-2.6 5.91-3.493S46.82.5 49.5.5c2.68 0 5.2.447 7.56 1.34 2.36.893 4.34 2.058 5.935 3.493 1.595 1.436 2.88 3.046 3.852 4.833.974 1.787 1.556 3.605 1.747 5.455.16 1.596-.096 4.946-.766 10.05.638-.127 1.18.056 1.627.55.446.495.766 1.165.957 2.01s.327 1.66.406 2.44c.08.782.088 1.46.024 2.034-.064 1.212-.606 2.496-1.627 3.852-1.02 1.356-2.042 1.89-3.062 1.603a26.517 26.517 0 0 1-.91 4.465c-.414 1.388-.812 2.472-1.195 3.254-.383.78-.798 1.482-1.244 2.104-.447.622-.758 1.02-.934 1.18-.175.16-.31.27-.406.335l.096 9.14.813.478c.574.32 1.842.91 3.804 1.786 1.962.878 4.362 1.914 7.202 3.095 1.37.573 3.22 1.307 5.55 2.216 2.328.91 4.194 1.66 5.6 2.233a89.197 89.197 0 0 1 4.52 2.01c1.61.765 2.936 1.53 3.972 2.31 1.037.783 1.826 1.612 2.37 2.474.764 1.18 1.29 3.7 1.578 7.576z"/></symbol><symbol id="pullquote" viewBox="227 310.377 26.537 19.623"><clipPath id="b"><use xlink:href="#a" overflow="visible"/></clipPath><path clip-path="url(#b)" d="M252.34 310.386l.887 1.11c-3.595-.09-8.653 2.13-9.72 5.856 1.065-.532 2.087-.844 3.285-.844 3.77 0 6.745 3.107 6.745 6.834 0 3.817-3.062 6.657-6.834 6.657-3.02 0-5.19-1.91-6.257-4.57h-.09c-.753 2.615-3.416 4.524-6.166 4.57-4.483 0-7.19-3.64-7.19-7.9 0-6.7 5.992-11.98 12.56-11.716l.886 1.11c-3.816-.09-8.475 1.996-9.718 5.856.976-.486 2.042-.843 3.15-.843 2.575 0 4.748 1.332 6.036 3.552 1.42-5.727 6.08-9.677 12.025-9.677h.397v.002z"/></symbol><symbol id="search" viewBox="0 0 100 100"><path d="M3.342 37.233c0-4.652.902-9.087 2.708-13.31C7.856 19.7 10.29 16.06 13.348 13s6.7-5.49 10.923-7.297c4.224-1.807 8.66-2.708 13.31-2.708 4.62 0 9.043.9 13.266 2.708C55.068 7.508 58.693 9.94 61.723 13c3.062 3.06 5.49 6.7 7.3 10.923 1.805 4.223 2.706 9.117 2.706 14.687 0 5.604-1.745 11.187-5.233 16.756l30.108 26.85c.46.427.702.95.734 1.56.03.644-.185 1.18-.644 1.608L85.913 96.17c-.432.458-.966.674-1.608.642a2.22 2.22 0 0 1-1.56-.734L55.938 66.015c-5.63 3.58-11.262 5.37-16.89 5.37s-10.557-.902-14.78-2.708c-4.223-1.807-7.865-4.236-10.923-7.298-3.06-3.03-5.492-6.656-7.298-10.88A33.42 33.42 0 0 1 3.34 37.234zM16.01 38.84c0 1.835.567 4.072 1.698 6.72 1.13 2.647 2.662 4.94 4.59 6.87s4.223 3.458 6.885 4.59a21.188 21.188 0 0 0 8.377 1.697c2.922 0 5.705-.566 8.354-1.698 2.646-1.132 4.933-2.663 6.86-4.59s3.46-4.223 4.592-6.87a21.048 21.048 0 0 0 1.696-8.35c0-2.923-.566-5.714-1.696-8.376-1.133-2.662-2.663-4.957-4.59-6.885-1.93-1.928-4.216-3.46-6.862-4.59a21.048 21.048 0 0 0-8.354-1.698c-2.923 0-5.715.567-8.377 1.698-2.662 1.13-4.957 2.662-6.885 4.59-1.928 1.927-3.458 4.222-4.59 6.884-1.13 2.662-1.698 4.728-1.698 6.196v3.81z"/></symbol><symbol id="social-email-bg" viewBox="0 0 99.999997 99.999997"><path d="M0 0v100h100V0H0zm20.098 27.744H80L50 52.55 20.098 27.743zm-.147 7.992L50 60.64l30.05-24.857v36.473h-60.1v-36.52z"/></symbol><symbol id="social-email" viewBox="0 0 99.999997 99.999997"><path d="M20.098 27.745H80L50 52.55 20.098 27.744zm-.147 7.99L50 60.64l30.05-24.854v36.47h-60.1z"/></symbol><symbol id="social-facebook-hollow" viewBox="0 0 100 100"><path d="M0 0v100h100V0H0zm59.787 10.053c5.194 0 9.658.386 10.96.558v12.704l-7.522.004c-5.898 0-7.04 2.802-7.04 6.914v9.07H70.25l-1.832 14.202H56.186V89.95H41.52V53.503H29.254V39.3H41.52V28.827c0-12.155 7.423-18.773 18.267-18.773z"/></symbol><symbol id="social-facebook" viewBox="0 0 100 100"><path d="M56.186 89.948V53.504H68.42L70.25 39.3H56.186v-9.067c0-4.112 1.14-6.914 7.04-6.914l7.52-.005V10.612c-1.3-.173-5.766-.56-10.96-.56-10.844 0-18.267 6.62-18.267 18.775V39.3H29.253v14.204H41.52v36.444h14.666z"/></symbol><symbol id="social-linkedin-hollow" viewBox="0 0 100 100"><path d="M0 0v100h100V0H0zm26.45 19h.003c4.107 0 7.445 3.347 7.445 7.463 0 4.12-3.34 7.463-7.447 7.463-4.117 0-7.45-3.345-7.45-7.465 0-4.115 3.333-7.46 7.45-7.46zm39.136 19.557C78.6 38.557 81 47.134 81 58.283V81H68.16V60.86c0-4.803-.088-10.98-6.678-10.98-6.685 0-7.71 5.233-7.71 10.634V81H40.93V39.586h12.324v5.66h.172c1.716-3.256 5.907-6.69 12.158-6.69zm-45.563 1.03h12.85V81h-12.85V39.586z"/></symbol><symbol id="social-linkedin" viewBox="0 0 100 100"><path d="M27.21 20C23.226 20 20 23.237 20 27.22c0 3.988 3.226 7.224 7.21 7.224 3.977 0 7.208-3.235 7.208-7.223 0-3.982-3.23-7.22-7.206-7.22zm37.874 18.926c-6.05 0-10.106 3.322-11.767 6.473h-.166V39.92H41.226V80H53.65V60.174c0-5.227.992-10.29 7.462-10.29 6.377 0 6.463 5.978 6.463 10.625V80H80V58.016c0-10.79-2.323-19.09-14.916-19.09zm-44.093.997V80h12.435V39.923H20.99z"/></symbol><symbol id="social-twitter-hollow" viewBox="0 0 100 100"><path d="M0 0v100h100V0H0zm63.463 21.557c4.13 0 7.864 1.744 10.484 4.535a28.755 28.755 0 0 0 9.12-3.487 14.407 14.407 0 0 1-6.315 7.948A28.713 28.713 0 0 0 85 28.29a29.186 29.186 0 0 1-7.166 7.435c.028.615.04 1.234.04 1.857 0 18.978-14.445 40.86-40.86 40.86A40.647 40.647 0 0 1 15 71.993c1.123.133 2.267.2 3.426.2 6.728 0 12.92-2.295 17.836-6.147-6.285-.116-11.59-4.27-13.416-9.975a14.355 14.355 0 0 0 6.486-.246c-6.57-1.32-11.52-7.124-11.52-14.082v-.18a14.308 14.308 0 0 0 6.506 1.797 14.357 14.357 0 0 1-6.388-11.956c0-2.632.707-5.097 1.943-7.218C26.956 32.874 37.54 38.59 49.475 39.19a14.407 14.407 0 0 1-.373-3.272c0-7.93 6.43-14.36 14.36-14.36z"/></symbol><symbol id="social-twitter" viewBox="0 0 100 100"><path d="M85 28.29a28.715 28.715 0 0 1-8.248 2.262 14.404 14.404 0 0 0 6.314-7.946 28.755 28.755 0 0 1-9.12 3.486 14.343 14.343 0 0 0-10.482-4.536c-7.932 0-14.362 6.43-14.362 14.36 0 1.127.127 2.223.372 3.274-11.936-.6-22.518-6.316-29.6-15.005a14.293 14.293 0 0 0-1.945 7.22c0 4.983 2.534 9.378 6.388 11.954a14.303 14.303 0 0 1-6.505-1.798l-.002.18c0 6.96 4.952 12.764 11.522 14.083a14.384 14.384 0 0 1-6.486.246c1.828 5.707 7.13 9.86 13.416 9.975a28.816 28.816 0 0 1-17.836 6.147 29.22 29.22 0 0 1-3.426-.2 40.65 40.65 0 0 0 22.014 6.452c26.416 0 40.86-21.884 40.86-40.86 0-.624-.013-1.243-.04-1.86A29.187 29.187 0 0 0 85 28.292"/></symbol><symbol id="social-url-hollow" viewBox="0 0 100 100"><path d="M0 0v100h100V0H0zm63.668 36.71h12.5c6.683 0 12.117 5.56 12.117 12.392v4.3c0 6.832-5.436 12.39-12.12 12.39h-12.5c-3.066 0-5.995-1.18-8.243-3.313l4.303-4.736a5.696 5.696 0 0 0 3.943 1.584h12.5c3.197 0 5.797-2.655 5.797-5.926v-4.3c0-3.27-2.6-5.926-5.797-5.926h-12.5c-1.47 0-2.87.56-3.943 1.582l-4.303-4.735c2.25-2.134 5.177-3.312 8.246-3.312zm-39.008.003h12.5c3.07 0 5.994 1.176 8.244 3.312l-4.302 4.735a5.696 5.696 0 0 0-3.944-1.584h-12.5c-3.197 0-5.797 2.655-5.797 5.926v4.3c0 3.27 2.6 5.926 5.798 5.926h12.5c1.47 0 2.87-.562 3.944-1.582l4.3 4.734c-2.25 2.136-5.177 3.313-8.246 3.313l.004-.002h-12.5c-6.68 0-12.117-5.557-12.117-12.39v-4.296c0-6.833 5.437-12.39 12.117-12.39zM64.44 48.28c1.523 0 1.845.872 1.845 2.318v1.63c0 1.44-.322 1.858-1.844 1.858H36.388c-1.522 0-4.178-.418-4.178-1.863v-1.625c0-1.446 2.653-2.317 4.177-2.317H64.44z"/></symbol><symbol id="social-url" viewBox="0 0 100 100"><path d="M63.668 36.71c-3.07 0-5.996 1.18-8.246 3.313l4.303 4.735a5.705 5.705 0 0 1 3.943-1.582h12.5c3.197 0 5.797 2.657 5.797 5.926v4.3c0 3.27-2.6 5.926-5.797 5.926h-12.5c-1.467 0-2.87-.56-3.943-1.584l-4.303 4.735c2.248 2.133 5.177 3.31 8.244 3.31h12.5v.003c6.683 0 12.12-5.56 12.12-12.39v-4.3c0-6.833-5.435-12.392-12.118-12.392h-12.5zm-39.008.003c-6.68 0-12.117 5.558-12.117 12.39V53.4c0 6.833 5.436 12.39 12.117 12.39h12.5l-.004.003c3.07 0 5.996-1.177 8.246-3.313l-4.3-4.734a5.708 5.708 0 0 1-3.944 1.582h-12.5c-3.197 0-5.797-2.657-5.797-5.926v-4.3c0-3.27 2.6-5.926 5.798-5.926h12.5c1.47 0 2.87.56 3.944 1.584l4.302-4.735c-2.25-2.136-5.175-3.312-8.244-3.312h-12.5zM64.44 48.28H36.388c-1.524 0-4.178.872-4.178 2.318v1.625c0 1.445 2.655 1.863 4.177 1.863H64.44c1.523 0 1.845-.417 1.845-1.86V50.6c0-1.446-.322-2.32-1.844-2.32z"/></symbol><symbol id="social-wechat-hollow" viewBox="0 0 100 100"><path d="M0 0v100h100V0H0zm40.225 20.973C51.72 20.93 62.4 27.71 65.197 37.53l.408 1.423h-1.972c-14.57 0-25.768 11.87-22.53 23.848l.41 1.573H40.33c-1.973 0-4.933-.41-7.25-.99l-2.21-.537-4.16 2.24-4.163 2.238 1.158-3.467c1.353-4.05 1.353-3.986.45-4.568C7.723 48.56 14.61 25.122 35.27 21.417v.002a28.754 28.754 0 0 1 4.955-.447zm-8.68 10.423c-1.155.036-2.34.583-2.97 1.526-2.294 3.36 1.696 7.302 5.107 5.062 2.102-1.378 1.972-4.588-.215-6.074-.547-.37-1.23-.535-1.922-.514zm17.738.02c-.668-.016-1.354.117-1.89.408-2.725 1.444-2.382 5.472.535 6.592 4.033 1.55 6.738-4.072 3.133-6.506-.46-.312-1.11-.478-1.777-.494zm13.582 8.963c18.772-.53 30.308 20.715 15.143 31.64-1.438 1.034-1.417.797-.344 4.113.473 1.487.835 2.78.79 2.888-.042.088-1.584-.645-3.43-1.66l-3.348-1.807-1.586.43C56.638 79.69 42.628 71.418 42.092 59.42c-.407-8.962 6.694-16.76 16.928-18.633v-.002c1.31-.238 2.594-.37 3.845-.404zm-6.076 9.6c-1.788.145-3.253 1.99-2.448 3.946.943 2.262 4.442 2.09 5.258-.26.387-1.098-.085-2.605-.987-3.21h-.002a2.876 2.876 0 0 0-1.82-.477zm14.437.014c-1.038-.046-2.103.478-2.64 1.475-1.308 2.476 1.352 5.06 3.884 3.768 1.654-.86 1.89-3.167.473-4.523a2.635 2.635 0 0 0-1.716-.72z"/></symbol><symbol id="social-wechat" viewBox="0 0 100 100"><path d="M35.27 21.42C14.61 25.124 7.722 48.562 24.156 59.29c.9.58.9.517-.452 4.567l-1.16 3.468 4.163-2.24 4.163-2.24 2.21.538c2.316.58 5.277.99 7.25.99h1.18l-.406-1.572c-3.24-11.977 7.96-23.845 22.528-23.845h1.973l-.408-1.422C62 26.31 48.505 19.053 35.267 21.42zm-1.803 10.49c2.187 1.487 2.317 4.697.214 6.075-3.41 2.24-7.4-1.702-5.105-5.062 1.008-1.508 3.433-2.003 4.892-1.013zm17.592 0c3.604 2.435.9 8.057-3.133 6.506-2.917-1.12-3.26-5.147-.536-6.59 1.074-.583 2.747-.54 3.67.085zm7.96 8.876c-10.234 1.872-17.335 9.67-16.928 18.633.537 11.997 14.546 20.27 27.997 16.564l1.586-.43 3.346 1.808c1.847 1.013 3.39 1.746 3.433 1.66.044-.108-.32-1.4-.793-2.888-1.072-3.317-1.093-3.08.344-4.113C94.182 60.367 79.98 36.973 59.02 40.785zm-.408 9.67c.9.605 1.374 2.112.986 3.21-.815 2.35-4.314 2.522-5.257.26-1.072-2.607 1.89-5.02 4.27-3.468zm14.33.26c1.416 1.355 1.182 3.662-.472 4.523-2.53 1.29-5.19-1.293-3.882-3.77.857-1.595 3.067-1.982 4.355-.755zM53.79 73.987"/></symbol><symbol id="social-weibo-hollow" viewBox="0 0 100 100"><path d="M0 0v100h100V0H0zm66.146 21.646c5.167-.088 10.343 1.97 14.08 6.114A18.485 18.485 0 0 1 84.1 45.87v.007a2.682 2.682 0 0 1-5.102-1.65c1.4-4.327.513-9.26-2.752-12.883-3.265-3.622-8.084-5.005-12.537-4.06a2.67 2.67 0 0 1-3.18-2.054 2.68 2.68 0 0 1 2.058-3.18 18.624 18.624 0 0 1 3.558-.404zm-21.724 8.002c1.645.03 3.013.505 3.978 1.473 1.7 1.71 1.863 4.656.772 8.18-.58 1.768 1.662.794 1.662.794 7.128-2.985 13.347-3.16 15.617.086 1.218 1.738 1.102 4.164-.018 6.974-.512 1.294.165 1.486 1.15 1.785 4.018 1.245 8.49 4.26 8.48 9.572 0 8.78-12.663 19.838-31.7 19.838C29.843 78.35 15 71.31 15 59.738c0-6.055 3.835-13.057 10.432-19.654 6.613-6.613 14.054-10.526 18.99-10.436zm22.467 1.52a8.98 8.98 0 0 1 6.274 2.967 9.02 9.02 0 0 1 1.885 8.828 2.312 2.312 0 0 1-2.91 1.486 2.315 2.315 0 0 1-1.488-2.907 4.41 4.41 0 0 0-.918-4.318 4.416 4.416 0 0 0-4.2-1.352 2.303 2.303 0 0 1-2.733-1.768c-.26-1.245.532-2.483 1.778-2.744a9.014 9.014 0 0 1 2.31-.192zm-23.04 14.71c-13.088 0-23.702 6.607-23.702 14.76 0 8.15 10.614 14.757 23.702 14.757 13.087 0 23.703-6.607 23.703-14.758 0-8.152-10.616-14.758-23.703-14.758zm-1.438 6.245c1.054-.01 2.114.11 3.15.38 5.707 1.48 8.623 6.858 6.286 12.093-2.367 5.34-9.166 8.2-14.942 6.336-5.563-1.797-7.93-7.302-5.486-12.256 1.946-3.947 6.423-6.505 10.992-6.553zm1.54 6.47c-.55.01-1.11.32-1.415.827-.396.676-.184 1.458.512 1.738.694.29 1.593-.04 2-.734.385-.705.134-1.487-.562-1.738a1.392 1.392 0 0 0-.537-.094zm-5.315 1.63c-1.462-.02-2.974.743-3.807 2.047-1.12 1.748-.59 3.823 1.188 4.634 1.806.82 4.21.04 5.332-1.748 1.1-1.806.52-3.862-1.295-4.644a3.788 3.788 0 0 0-1.418-.29z"/></symbol><symbol id="social-weibo" viewBox="0 0 100 100"><path d="M66.146 21.646c-1.192.02-2.385.155-3.558.405a2.68 2.68 0 0 0-2.057 3.18 2.67 2.67 0 0 0 3.18 2.055c4.452-.946 9.27.437 12.536 4.06a13.163 13.163 0 0 1 2.752 12.882 2.682 2.682 0 0 0 5.102 1.65v-.008a18.485 18.485 0 0 0-3.875-18.11c-3.736-4.144-8.912-6.202-14.08-6.114zm-21.724 8.002c-4.936-.09-12.377 3.823-18.99 10.436C18.835 46.68 15 53.684 15 59.738c0 11.57 14.844 18.612 29.36 18.612 19.04 0 31.703-11.06 31.703-19.838.01-5.312-4.463-8.327-8.48-9.573-.986-.3-1.663-.492-1.15-1.786 1.12-2.81 1.235-5.236.018-6.974-2.27-3.245-8.488-3.07-15.616-.086 0 0-2.242.974-1.662-.793 1.09-3.524.928-6.47-.772-8.18-.965-.967-2.333-1.44-3.978-1.472zm22.467 1.52a9.014 9.014 0 0 0-2.312.193c-1.246.262-2.038 1.5-1.777 2.745a2.303 2.303 0 0 0 2.735 1.768 4.416 4.416 0 0 1 4.2 1.352 4.41 4.41 0 0 1 .917 4.318 2.315 2.315 0 0 0 1.49 2.906 2.312 2.312 0 0 0 2.907-1.487 9.02 9.02 0 0 0-1.886-8.828 8.98 8.98 0 0 0-6.275-2.967zm-23.04 14.71c13.087 0 23.703 6.607 23.703 14.76 0 8.15-10.616 14.757-23.703 14.757-13.088 0-23.702-6.607-23.702-14.758 0-8.152 10.614-14.758 23.702-14.758zm-1.438 6.245c-4.57.048-9.046 2.606-10.992 6.553-2.444 4.954-.077 10.46 5.486 12.256 5.776 1.864 12.575-.995 14.942-6.336 2.337-5.235-.58-10.614-6.287-12.092a11.968 11.968 0 0 0-3.148-.38zm1.54 6.47c.183-.005.365.025.536.093.696.25.947 1.033.56 1.738-.405.695-1.304 1.024-2 .734-.695-.28-.907-1.062-.51-1.738a1.72 1.72 0 0 1 1.413-.828zm-5.315 1.63c.487.006.97.1 1.418.29 1.816.78 2.396 2.837 1.295 4.643-1.12 1.787-3.526 2.57-5.332 1.748-1.778-.81-2.308-2.886-1.188-4.634.833-1.304 2.345-2.066 3.807-2.047z"/></symbol><symbol id="tick" viewBox="0 0 54 46"><path d="M43.39 1.557L20.3 24.647l-9.77-9.775-9.636 9.644L20.29 43.913l.01-.027.032.027 32.693-32.73z"/></symbol></svg>