<svg xmlns="http://www.w3.org/2000/svg" width="50" height="50"><path d="M41.945 32.209l-2.533-3.584a1.29 1.29 0 0 0-1.789-.316l-12.601 8.753-12.6-8.753a1.293 1.293 0 0 0-1.791.316l-2.527 3.584a1.262 1.262 0 0 0 .312 1.777L24.28 44.898c.164.11.34.102.515.102h.45c.18 0 .356.008.518-.102l15.861-10.967c.589-.404.729-1.142.321-1.722zm-31.313-11.83c.413.58 1.212.72 1.791.316l12.6-8.752 12.601 8.752a1.29 1.29 0 0 0 1.789-.316l2.527-3.584a1.255 1.255 0 0 0-.314-1.773L25.764 4.106c-.161-.114-.338-.106-.518-.106h-.447c-.179 0-.355-.008-.517.106L8.422 15.075a1.235 1.235 0 0 0-.326 1.748l2.536 3.556z" fill="{% if foreground %}{{foreground}}{% endif %}"/></svg>