<svg xmlns="http://www.w3.org/2000/svg" version="1" width="100" height="100"><path d="M64.571 33.066c1.325-.713 2.572-1.53 3.617-2.443 4.962-4.361 5.857-12.113 1.996-15.503-1.618-1.419-3.811-2.106-6.183-2.106-3.287 0-6.92 1.327-9.806 3.859-1.676 1.473-3.111 3.368-4.134 5.359-1.024-1.991-2.454-3.887-4.131-5.359-2.887-2.532-6.518-3.859-9.805-3.859-2.369 0-4.56.688-6.18 2.106-3.863 3.39-2.966 11.142 1.998 15.503 1.041.913 2.288 1.73 3.613 2.443H17.987v24.29h27.844V35.388c.977-.25 3.409-.65 4.1-1.259l.132-.141.132.141c.694.608 3.128 1.008 4.102 1.259v21.969h27.847v-24.29H64.571zm-18.337-2.717c-.001.004-.358.211-1.362.211-2.852 0-6.811-1.593-9.21-3.696C33.701 25.138 33 21.758 33 20.542c0-1.081.5-1.519.66-1.659.726-.633 1.856-.73 2.467-.73 2.042 0 4.316.929 6.089 2.479 3.344 2.937 4.484 8.84 4.018 9.717zm7.744.07l-.007.002c-.527-1.013.624-6.872 3.94-9.786 1.775-1.554 4.05-2.482 6.091-2.482.61 0 1.739.098 2.464.73.161.143.664.58.664 1.663 0 1.212-.701 4.592-2.663 6.317-2.403 2.104-6.355 3.696-9.21 3.696-.828.001-1.213-.14-1.279-.14zM17.987 65.335V88h27.844V63.711H17.987zm36.309 0V88h27.847V63.711H54.296z" fill="{% if foreground %}{{foreground}}{% endif %}"/></svg>