<svg xmlns="http://www.w3.org/2000/svg" width="100" height="100"><path d="M.5 46.852V30.836l20.974 31.813L80.465 14.38 98.5 38.256v14.545L78.922 26.979 19.417 75.578.5 46.852zm.331 14.511v-2.461h.992l1.58 2.461H.831zm0 6.502v-2.461h5.252l1.543 2.461H.831zm0 4.04h9.477l1.58 2.498H.831v-2.498zm0 6.502h13.738l1.542 2.497H.831v-2.497zm0 6.465h97.632v2.534H.831v-2.534zm6.795-53.007V12.691h5.29v14.803h8.081v4.371H7.626zm14.142 49.039l3.122-2.497h73.573v2.497H21.768zm.844-49.039V12.691H36.46v4.445h-8.375V20h5.914v4.224h-5.914v3.269h8.853v4.371H22.612zm7.2 42.538l2.938-2.498h65.712v2.498h-68.65zm7.86-6.538l3.122-2.461h57.668v2.461h-60.79zm.184-36l.11-.22 5.767-9.917-5.437-9.036h6.098l.037.037 2.792 4.739 2.608-4.775h5.436l-5.252 9.073 5.951 10.101h-5.914l-.037-.073-3.379-5.62-2.975 5.693h-5.805zm7.897 29.462l2.938-2.425h49.771v2.425H45.753zm7.897-6.502l3.086-2.391H91.08l1.837 2.391H53.65zm7.825-6.468l3.159-2.535h21.451l1.873 2.535H61.475zm8.081-6.464l2.938-2.571h8.742l2.021 2.571H69.556z" fill="{% if foreground %}{{foreground}}{% endif %}"/></svg>