<?xml version="1.0" encoding="UTF-8" standalone="no"?>
<!-- Generator: Adobe Illustrator 16.0.4, SVG Export Plug-In . SVG Version: 6.00 Build 0)  -->

<svg
   xmlns:dc="http://purl.org/dc/elements/1.1/"
   xmlns:cc="http://creativecommons.org/ns#"
   xmlns:rdf="http://www.w3.org/1999/02/22-rdf-syntax-ns#"
   xmlns:svg="http://www.w3.org/2000/svg"
   xmlns="http://www.w3.org/2000/svg"
   xmlns:sodipodi="http://sodipodi.sourceforge.net/DTD/sodipodi-0.dtd"
   xmlns:inkscape="http://www.inkscape.org/namespaces/inkscape"
   version="1.1"
   id="Layer_1"
   x="0px"
   y="0px"
   width="476"
   height="100"
   viewBox="0 0 476 100"
   enable-background="new 0 0 412.479 89.078"
   xml:space="preserve"
   inkscape:version="0.91 r13725"
   sodipodi:docname="brand-ftc-masthead.svg"><metadata
     id="metadata21"><rdf:RDF><cc:Work
         rdf:about=""><dc:format>image/svg+xml</dc:format><dc:type
           rdf:resource="http://purl.org/dc/dcmitype/StillImage" /><dc:title></dc:title></cc:Work></rdf:RDF></metadata><defs
     id="defs19" /><sodipodi:namedview
     pagecolor="#ffffff"
     bordercolor="#666666"
     borderopacity="1"
     objecttolerance="10"
     gridtolerance="10"
     guidetolerance="10"
     inkscape:pageopacity="0"
     inkscape:pageshadow="2"
     inkscape:window-width="1920"
     inkscape:window-height="955"
     id="namedview17"
     showgrid="true"
     inkscape:showpageshadow="false"
     inkscape:zoom="2.2284577"
     inkscape:cx="231"
     inkscape:cy="50"
     inkscape:window-x="0"
     inkscape:window-y="1"
     inkscape:window-maximized="1"
     inkscape:current-layer="Layer_1"><inkscape:grid
       type="xygrid"
       id="grid4149" /></sodipodi:namedview><path
     d="M 310.77157,0.00821617 C 308.45149,-0.06247466 307.29041,0.3228995 307.29041,1.1648281 311.50883,3.6911716 313.61743,7.0586178 313.61743,11.268792 313.61743,12.952685 313.89427,14.078231 314.46081,14.636827 316.42439,18.847058 319.5229,20.109694 323.74132,18.425801 328.23602,16.182249 330.20619,12.67656 329.64631,7.9008227 329.07877,5.098663 326.27175,2.9950335 321.20985,1.585828 316.57035,0.6060001 313.09099,0.07889861 310.77157,0.00821617 Z M 207.89746,0.4111027 C 204.39677,0.3562587 203.22047,2.1531802 204.36672,5.7980826 L 204.36672,26.003814 184.54096,26.003814 C 182.85366,26.003814 179.90156,24.602959 175.68314,21.793836 173.71224,20.952455 172.30872,20.814235 171.4649,21.372831 170.62042,21.939533 170.33531,23.204382 170.61891,25.164084 L 170.61891,62.633012 C 170.05237,67.96854 172.44608,69.93509 177.79192,68.527007 182.28662,68.251198 184.39327,65.860737 184.11699,61.367786 L 184.11699,56.736738 204.36672,56.736738 204.36672,94.208012 C 203.79852,98.977967 205.90878,100.79933 210.69374,99.680963 216.03292,98.838491 218.5631,96.451439 218.28616,92.523994 L 218.28616,57.160021 238.53394,57.160021 238.53394,62.212008 C 238.53394,66.422239 240.22162,67.968287 243.59556,66.84299 250.3441,66.283264 253.43267,63.472302 252.87345,58.420755 L 252.87345,31.897809 253.71945,31.0558 C 254.83955,30.497205 255.68372,29.79329 256.25026,28.950779 253.43554,23.899232 248.37417,20.254195 241.06475,18.004796 239.93733,18.287582 238.53382,19.971849 236.84652,23.056783 236.0037,24.740675 235.43537,25.582809 235.15909,25.582809 L 218.28616,25.582809 218.28616,6.6400889 219.13021,5.7980826 C 222.22121,2.9959257 219.40686,1.3116173 210.69374,0.7460929 209.63841,0.5364077 208.70541,0.423765 207.89746,0.4111027 Z M 460.4102,1.5880978 C 459.56738,1.8708718 458.43971,2.9964287 457.03601,4.9560803 455.90959,6.0813656 455.20284,6.6400889 454.92656,6.6400889 L 400.51222,6.6400889 C 393.47908,4.1137417 389.54539,2.8488328 388.70091,2.8488328 387.29055,2.8488328 386.73054,3.973244 387.01414,6.2168141 L 387.01414,93.784728 C 386.73054,96.309936 387.85721,97.428507 390.38833,97.152697 396.01045,96.311382 398.8248,94.627114 398.8248,92.10071 L 398.8248,76.523746 C 403.04322,72.597431 408.66454,65.57808 415.69968,55.473791 416.54416,58.842641 416.96509,61.652408 416.96509,63.896026 417.24136,69.231488 419.91829,71.052843 424.97953,69.369016 422.72469,72.459731 419.91766,75.684332 416.54372,79.051986 414.01194,81.57839 413.02436,82.986219 413.59089,83.262029 423.71438,78.210417 432.9936,69.513709 441.43044,57.160021 441.99132,59.40942 442.27448,62.356322 442.27448,66.001047 442.55176,71.052594 444.38613,73.302558 447.76007,72.736986 453.09925,71.89454 455.49101,68.52707 454.93113,62.633012 453.52011,57.02174 450.71113,51.411283 446.49271,45.793035 447.33553,43.267826 448.45654,40.044421 449.8669,36.110065 450.70972,33.867643 451.40981,32.18331 451.97635,31.058079 452.53723,29.656972 453.37974,28.394337 454.50716,27.26904 455.62626,26.150719 456.333,25.026368 456.61594,23.90107 452.9584,19.973625 447.75762,18.007075 441.00908,18.007075 440.44088,18.28986 440.16503,19.270213 440.16503,20.95404 439.88209,25.447056 439.03793,30.637012 437.63423,36.53107 436.79141,35.971344 435.66374,35.130341 434.26004,34.005044 431.72826,31.478706 429.3365,29.095222 427.08897,26.845822 427.36525,26.287226 428.07034,25.72959 429.19776,25.164084 430.04224,24.604359 430.46317,24.181578 430.46317,23.898792 427.08823,19.971347 422.3037,18.004796 416.1217,18.004796 415.27722,18.287582 414.8563,19.690715 414.8563,22.217053 414.8563,26.427284 414.43276,30.920235 413.58828,35.689061 410.49062,32.604128 405.57334,28.254027 398.8248,22.635778 L 398.8248,15.902053 C 398.25726,10.849377 400.5126,8.4692938 405.57384,8.745106 L 457.87939,8.745106 457.87939,79.893994 C 457.87939,83.5445 453.23895,85.650399 443.95929,86.208994 L 440.16308,86.629998 C 439.87948,86.912784 440.43949,87.051002 441.85051,87.051002 447.47097,88.169323 450.70789,90.135874 451.55237,92.944998 451.55237,93.220808 451.6908,93.786504 451.97374,94.629016 452.53362,97.431163 455.0648,98.418492 459.56682,97.575981 468.00366,97.010475 471.79993,93.083155 470.95545,85.78799 L 470.95545,15.481049 C 470.95545,15.205239 471.51546,14.639608 472.64288,13.797097 474.60646,12.954586 475.59571,12.113582 475.59571,11.27107 470.25087,6.2195239 465.1885,2.9961257 460.4102,1.5880978 Z M 0,11.166976 0,15.46523 C 1.0926247,15.546358 2.5580523,15.7885 4.399609,16.191815 6.2388498,16.596261 7.70549,17.060013 8.7969532,17.583792 10.211212,18.230492 11.140515,19.068274 11.586403,20.098491 12.031114,21.126447 12.255425,22.30698 12.255425,23.63852 L 12.255425,85.638584 C 12.255425,87.091849 11.981289,88.333999 11.436716,89.364215 10.890994,90.392172 10.010339,91.169468 8.7969532,91.693313 8.1908427,91.977229 6.8758754,92.209678 4.853177,92.390473 2.8304785,92.571267 1.213383,92.704332 0,92.784265 L 0,97.082584 37.310512,97.082584 37.310512,92.784265 C 36.257388,92.744864 34.721505,92.522124 32.700005,92.118808 30.676109,91.715559 29.361201,91.373984 28.756249,91.091264 27.420921,90.448085 26.490528,89.601534 25.964531,88.55391 25.438535,87.506286 25.177567,86.317098 25.177567,84.989013 L 25.177567,55.426268 35.090315,55.426268 C 37.684279,55.426268 39.90361,55.69983 41.74869,56.243342 43.592572,56.789181 45.12417,57.812046 46.341064,59.303517 47.151528,60.31287 47.910754,61.946268 48.620226,64.206099 49.329698,66.468255 49.745601,68.487653 49.867563,70.263105 L 54.416822,70.263105 54.416822,36.47671 49.867563,36.47671 C 49.663183,38.616011 49.22784,40.625765 48.558978,42.502014 47.890182,44.378262 47.151528,45.76089 46.341064,46.64865 45.164846,47.940788 43.744801,48.898582 42.082065,49.523223 40.420461,50.150124 38.089511,50.46477 35.090315,50.46477 L 25.177567,50.46477 25.177567,15.951855 39.61694,15.951855 C 41.801012,15.951855 43.750562,15.990706 45.470218,16.071836 47.189874,16.152964 48.674769,16.272928 49.928811,16.433989 52.395022,16.799032 54.975181,18.79677 57.664411,22.429801 60.353575,26.062899 62.121209,29.473666 62.971151,32.660591 L 67.52041,32.660591 67.52041,11.166976 0,11.166976 Z M 76.3423,11.166976 76.3423,34.47585 80.587732,34.47585 C 80.952288,33.143114 81.600009,31.46122 82.531237,29.421585 83.461332,27.384275 84.533694,25.454504 85.74706,23.63852 86.960426,21.822536 88.285177,20.197701 89.720299,18.765299 91.155487,17.332963 92.542002,16.537394 93.875,16.375138 95.573752,16.17348 97.35338,16.040416 99.213506,15.98128 101.0725,15.919886 102.63125,15.890792 103.88522,15.890792 L 107.40276,15.890792 107.40276,85.156516 C 107.40276,86.812569 107.08726,88.134636 106.46156,89.124321 105.83339,90.114006 104.85427,90.869592 103.52006,91.394567 102.63068,91.75609 101.02328,92.059942 98.698669,92.302197 96.371797,92.544385 94.644222,92.706611 93.512142,92.786543 L 93.512142,97.084798 134.15439,97.084798 134.15439,92.786543 C 132.85921,92.747142 131.05063,92.483272 128.72489,91.998894 126.39915,91.514451 124.87393,91.131811 124.14595,90.849025 122.72927,90.242922 121.73743,89.386886 121.17291,88.275542 120.60636,87.166457 120.32237,85.943663 120.32237,84.613253 L 120.32237,15.890792 123.84917,15.890792 C 125.47123,15.890792 127.23473,15.930773 129.13973,16.010706 131.04539,16.091834 132.6255,16.214077 133.88174,16.375138 135.21986,16.576795 136.60847,17.373494 138.04779,18.765299 139.48777,20.157169 140.8126,21.782005 142.03055,23.63852 143.20558,25.415103 144.2688,27.302566 145.22146,29.301604 146.17346,31.298382 146.83433,33.024863 147.19849,34.478129 L 151.3828,34.478129 151.3828,11.166976 76.3423,11.166976 Z M 355.37773,12.11308 C 354.25031,12.11308 352.27947,14.217849 349.47207,18.42808 347.50183,21.51999 346.3735,23.059061 346.09722,23.059061 L 276.9194,23.059061 C 275.79198,23.341847 275.23197,23.763479 275.23197,24.322075 275.50925,24.888776 276.35242,25.164084 277.76278,25.164084 L 299.27792,25.164084 C 302.08532,42.286532 307.14734,56.462389 314.46342,67.684999 305.18376,78.914585 291.96252,88.73458 274.81256,97.154976 271.43796,99.957243 273.96815,100.1023 282.40499,97.575981 298.99407,91.399137 312.20964,84.386695 322.05584,76.526025 330.20974,84.670611 340.47089,90.978007 352.84887,95.470958 356.78269,96.872065 359.03138,96.029932 359.59791,92.944998 361.28522,89.011773 363.8164,86.354064 367.19034,84.945981 367.75022,84.670171 368.4553,84.248539 369.29978,83.683033 371.8299,82.564712 371.96933,81.722513 369.72181,81.157007 352.84913,78.35486 339.90844,73.019709 330.91172,65.159038 335.97462,57.863873 340.89285,47.619968 345.67781,34.423769 345.95509,33.581258 346.79826,32.602102 348.20862,31.476804 349.32838,30.634293 350.03447,29.655072 350.31807,28.529774 350.03447,27.411453 347.07975,26.289315 341.45763,25.164084 L 365.92298,25.164084 C 367.61028,25.446804 368.59321,25.16339 368.87581,24.322075 369.15209,23.763479 368.73051,22.783127 367.61041,21.375044 362.26557,15.763772 358.18513,12.678586 355.37773,12.11308 Z M 300.96273,25.164084 332.17778,25.164084 C 329.07946,38.636026 325.28419,49.304048 320.78849,57.157742 312.62893,50.14656 306.02397,39.478538 300.96273,25.164084 Z M 398.8248,25.164084 C 403.04322,29.939821 407.26108,36.253044 411.4795,44.106804 408.38118,56.177706 404.16398,65.998831 398.8248,73.576781 L 398.8248,25.164084 Z M 188.76115,27.690044 204.36867,27.690044 204.36867,55.055065 184.11894,55.055065 184.11894,30.637075 C 183.836,28.676243 185.38621,27.690044 188.76115,27.690044 Z M 218.28616,27.690044 238.53394,27.690044 238.53394,55.055065 218.28616,55.055065 218.28616,27.690044 Z M 426.24298,29.374061 C 429.89486,34.425608 432.99271,39.477345 435.52283,44.530021 433.83553,50.706865 431.58119,56.738954 428.77379,62.633012 427.93097,57.580336 425.25666,51.684186 420.7613,44.948813 421.32118,43.547706 422.44689,40.319604 424.13353,35.268057 424.69341,33.308421 425.3985,31.340674 426.24298,29.374061 Z"
     id="path5"
     inkscape:connector-curvature="0" /></svg>