<?xml version="1.0" encoding="UTF-8" standalone="no"?>
<!-- Generator: Adobe Illustrator 16.0.4, SVG Export Plug-In . SVG Version: 6.00 Build 0)  -->

<svg
   xmlns:dc="http://purl.org/dc/elements/1.1/"
   xmlns:cc="http://creativecommons.org/ns#"
   xmlns:rdf="http://www.w3.org/1999/02/22-rdf-syntax-ns#"
   xmlns:svg="http://www.w3.org/2000/svg"
   xmlns="http://www.w3.org/2000/svg"
   xmlns:sodipodi="http://sodipodi.sourceforge.net/DTD/sodipodi-0.dtd"
   xmlns:inkscape="http://www.inkscape.org/namespaces/inkscape"
   version="1.1"
   id="Layer_1"
   x="0px"
   y="0px"
   width="470"
   height="100"
   viewBox="0 0 470 100"
   enable-background="new 0 0 412.479 89.078"
   xml:space="preserve"
   inkscape:version="0.91 r13725"
   sodipodi:docname="brand-ftc-masthead.svg"><metadata
     id="metadata21"><rdf:RDF><cc:Work
         rdf:about=""><dc:format>image/svg+xml</dc:format><dc:type
           rdf:resource="http://purl.org/dc/dcmitype/StillImage" /><dc:title></dc:title></cc:Work></rdf:RDF></metadata><defs
     id="defs19" /><sodipodi:namedview
     pagecolor="#ffffff"
     bordercolor="#666666"
     borderopacity="1"
     objecttolerance="10"
     gridtolerance="10"
     guidetolerance="10"
     inkscape:pageopacity="0"
     inkscape:pageshadow="2"
     inkscape:window-width="1440"
     inkscape:window-height="790"
     id="namedview17"
     showgrid="true"
     inkscape:showpageshadow="false"
     inkscape:zoom="2.012605"
     inkscape:cx="238"
     inkscape:cy="50"
     inkscape:window-x="0"
     inkscape:window-y="1"
     inkscape:window-maximized="1"
     inkscape:current-layer="Layer_1"><inkscape:grid
       type="xygrid"
       id="grid4149" /></sodipodi:namedview><path fill="#ffffff"
     d="M 306.62348,1.4798127 C 304.37165,1.4112027 303.2448,1.7852327 303.2448,2.6023775 307.33904,5.0543537 309.38555,8.3226734 309.38555,12.408916 309.38555,14.043236 309.65427,15.135651 310.20408,15.677804 312.10991,19.7641 315.11721,20.989566 319.21145,19.35524 323.57378,17.177733 325.48599,13.775239 324.94256,9.1400866 324.39175,6.4204134 321.66735,4.3787078 316.75446,3.0109846 312.25153,2.0599996 308.87458,1.5484144 306.62348,1.4798127 Z M 206.77764,1.8708394 C 203.37999,1.81761 202.23834,3.5616361 203.35085,7.099244 L 203.35085,26.710184 184.10868,26.710184 C 182.47101,26.710184 179.60585,25.350566 175.51161,22.624134 173.59874,21.807519 172.23652,21.673372 171.41755,22.215519 170.59792,22.76554 170.32121,23.993156 170.59641,25.895171 L 170.59641,62.261137 C 170.0466,67.439606 172.36982,69.348266 177.5583,67.98163 181.9207,67.713941 183.96533,65.393851 183.69717,61.033158 L 183.69717,56.538428 203.35085,56.538428 203.35085,92.90667 C 202.79938,97.536212 204.84748,99.303974 209.4916,98.218516 214.67363,97.400845 217.12933,95.084059 216.86051,91.272226 L 216.86051,56.949251 236.51224,56.949251 236.51224,61.852523 C 236.51224,65.938819 238.15029,67.43936 241.4249,66.347187 247.97478,65.803939 250.97242,63.075724 250.42965,58.172878 L 250.42965,32.430677 251.2508,31.613455 C 252.33793,31.071303 253.15725,30.388108 253.70706,29.570398 250.97522,24.667552 246.06281,21.129818 238.96857,18.946632 237.87433,19.221095 236.51217,20.855781 234.87452,23.849904 234.05649,25.484229 233.50488,26.301569 233.23679,26.301569 L 216.86051,26.301569 216.86051,7.9164647 217.67971,7.099244 C 220.67971,4.3795737 217.94824,2.7448456 209.4916,2.1959686 208.46735,1.992456 207.56179,1.8831291 206.77764,1.8708394 Z M 451.85722,3.0131879 C 451.03918,3.2876375 449.94476,4.380062 448.58236,6.2820278 447.48911,7.3741879 446.80316,7.9164647 446.535,7.9164647 L 393.72244,7.9164647 C 386.89632,5.4644848 383.07841,4.236811 382.25878,4.236811 380.89,4.236811 380.34644,5.3281227 380.62171,7.5056496 L 380.62171,92.495846 C 380.34644,94.946721 381.43993,96.032364 383.89657,95.764674 389.35321,94.948125 392.08468,93.313438 392.08468,90.861402 L 392.08468,75.742973 C 396.17892,71.932235 401.63476,65.11951 408.46284,55.312658 409.28247,58.582339 409.69101,61.309401 409.69101,63.486974 409.95909,68.665377 412.55727,70.433112 417.46948,68.798852 415.28107,71.798588 412.55664,74.928269 409.28203,78.196789 406.8248,80.648825 405.86627,82.015214 406.41614,82.282904 416.24157,77.379993 425.24765,68.939289 433.43613,56.949251 433.98051,59.132437 434.25532,61.992595 434.25532,65.530031 434.52448,70.432877 436.30481,72.616607 439.57949,72.067681 444.76145,71.250036 447.08286,67.981693 446.53943,62.261137 445.16992,56.815044 442.44368,51.369738 438.34944,45.916872 439.16741,43.465998 440.25545,40.337483 441.6243,36.518942 442.44227,34.34253 443.12178,32.707778 443.67166,31.615671 444.21602,30.255808 445.03368,29.030336 446.12792,27.938163 447.21412,26.852763 447.9,25.761508 448.17461,24.669341 444.6248,20.857502 439.57711,18.948841 433.02723,18.948841 432.47571,19.223303 432.20798,20.174802 432.20798,21.809062 431.93335,26.169813 431.11404,31.206994 429.75171,36.92755 428.93367,36.384302 427.83918,35.568058 426.47685,34.475885 424.01955,32.023915 421.69821,29.710592 419.51683,27.527405 419.78499,26.985252 420.46936,26.444031 421.56359,25.895171 422.38316,25.351924 422.7917,24.941589 422.7917,24.667126 419.51616,20.855293 414.87247,18.946632 408.8724,18.946632 408.05277,19.221095 407.64424,20.582921 407.64424,23.034891 407.64424,27.121187 407.23323,31.48188 406.4136,36.110328 403.40708,33.116206 398.63456,28.894156 392.08468,23.441289 L 392.08468,16.905783 C 391.53387,12.001843 393.72278,9.6918235 398.63506,9.9595164 L 449.40089,9.9595164 449.40089,79.01401 C 449.40089,82.557059 444.89709,84.600966 435.89057,85.143118 L 432.20608,85.551732 C 431.93088,85.826188 432.47437,85.960339 433.84388,85.960339 439.29886,87.045739 442.44051,88.954407 443.26014,91.680833 443.26014,91.94853 443.39451,92.497573 443.66912,93.315284 444.21248,96.034943 446.66918,96.993208 451.03869,96.175498 459.22717,95.626638 462.91165,91.814923 462.09202,84.734504 L 462.09202,16.497176 C 462.09202,16.229486 462.63558,15.680501 463.72982,14.862791 465.63558,14.045081 466.59571,13.228836 466.59571,12.411125 461.40823,7.5082797 456.49484,4.379768 451.85722,3.0131879 Z M 5,12.310097 5,16.481819 C 6.0604611,16.56056 7.4827512,16.795576 9.2700985,17.187019 11.055198,17.579558 12.478663,18.02966 13.538001,18.538018 14.910625,19.165685 15.812572,19.978806 16.245335,20.978692 16.676956,21.976394 16.894666,23.122172 16.894666,24.414519 L 16.894666,84.589501 C 16.894666,85.999982 16.628601,87.205571 16.100058,88.205463 15.570401,89.203159 14.715667,89.957572 13.538001,90.465996 12.949729,90.741554 11.673471,90.967164 9.7103152,91.142632 7.7471582,91.318106 6.1776648,91.447257 5,91.524832 L 5,95.696626 41.212212,95.696626 41.212212,91.524832 C 40.190091,91.486593 38.699414,91.270412 36.737421,90.878968 34.773102,90.487591 33.496904,90.156068 32.90976,89.881671 31.613737,89.257427 30.710735,88.435796 30.200222,87.419007 29.68971,86.402225 29.436421,85.248037 29.436421,83.959047 L 29.436421,55.266535 39.057367,55.266535 C 41.574975,55.266535 43.728975,55.532047 45.519742,56.059557 47.309346,56.589331 48.795857,57.582082 49.976932,59.029649 50.76354,60.009294 51.500415,61.594609 52.189006,63.787919 52.87759,65.983484 53.28125,67.943438 53.399621,69.666628 L 57.81497,69.666628 57.81497,36.874793 53.399621,36.874793 C 53.201261,38.951122 52.778733,40.901712 52.129557,42.722731 51.480452,44.543749 50.76354,45.885679 49.976932,46.747301 48.835336,48.001407 47.457095,48.931006 45.843303,49.537258 44.230615,50.145707 41.968279,50.451092 39.057367,50.451092 L 29.436421,50.451092 29.436421,16.954122 43.450747,16.954122 C 45.570524,16.954122 47.462688,16.991832 49.13172,17.070571 50.800759,17.149309 52.241939,17.265745 53.45907,17.422067 55.852684,17.776358 58.356887,19.715289 60.96696,23.241381 63.576961,26.767533 65.292564,30.077892 66.117481,33.17101 L 70.53283,33.17101 70.53283,12.310097 5,12.310097 Z M 79.095027,12.310097 79.095027,34.932831 83.215488,34.932831 C 83.569313,33.639323 84.197966,32.00694 85.101782,30.027344 86.0045,28.05001 87.045292,26.177044 88.222944,24.414519 89.400589,22.651987 90.68635,21.074983 92.079223,19.684749 93.472163,18.294574 94.817868,17.522427 96.111624,17.364945 97.760368,17.169223 99.487604,17.040079 101.29297,16.982679 103.09722,16.923091 104.61012,16.894858 105.8272,16.894858 L 109.24114,16.894858 109.24114,84.121622 C 109.24114,85.728927 108.93495,87.012074 108.32766,87.972625 107.71797,88.933176 106.76769,89.666523 105.47275,90.176042 104.60955,90.526925 103.04947,90.821831 100.79331,91.05696 98.53492,91.292015 96.858201,91.449467 95.759448,91.527047 L 95.759448,95.698777 135.20534,95.698777 135.20534,91.527047 C 133.94824,91.488801 132.19293,91.232701 129.93565,90.762582 127.67837,90.292398 126.19802,89.921021 125.49148,89.646565 124.1165,89.058298 123.15385,88.227462 122.60599,87.148836 122.0561,86.072399 121.78044,84.885599 121.78044,83.594354 L 121.78044,16.894858 125.20343,16.894858 C 126.77775,16.894858 128.48938,16.933663 130.33824,17.011244 132.18783,17.089978 133.72146,17.208623 134.94067,17.364945 136.23945,17.560666 137.58718,18.333915 138.98408,19.684749 140.38171,21.035648 141.66755,22.612653 142.84966,24.414519 143.99004,26.138805 145.02197,27.970702 145.94663,29.910898 146.87056,31.848897 147.51197,33.524558 147.86542,34.93504 L 151.9266,34.93504 151.9266,12.310097 79.095027,12.310097 Z M 349.91658,13.228348 C 348.82234,13.228348 346.90953,15.27116 344.18473,19.357456 342.27252,22.358352 341.17737,23.852112 340.90921,23.852112 L 273.76776,23.852112 C 272.67358,24.126575 272.13003,24.535796 272.13003,25.077949 272.39912,25.627969 273.21751,25.895171 274.58636,25.895171 L 295.46814,25.895171 C 298.1929,42.513591 303.10593,56.272157 310.20662,67.164409 301.20017,78.063434 288.36806,87.594357 271.72294,95.766883 268.44767,98.486662 270.90338,98.627449 279.09193,96.175498 295.19262,90.180479 308.0192,83.37446 317.57553,75.745182 325.4894,83.650018 335.4485,89.771746 347.46213,94.132439 351.28017,95.492302 353.46264,94.674963 354.01251,91.680833 355.65012,87.863395 358.10682,85.283918 361.38143,83.917282 361.92486,83.649592 362.60915,83.240371 363.42878,82.691511 365.88442,81.606111 366.01977,80.788706 363.83842,80.239846 347.46239,77.520187 334.90264,72.342081 326.17073,64.712802 331.0846,57.632383 335.85807,47.690031 340.50219,34.882283 340.77128,34.064573 341.58967,33.114243 342.95845,32.022069 344.04531,31.204359 344.73061,30.253964 345.00581,29.16179 344.73061,28.07639 341.86283,26.987278 336.40619,25.895171 L 360.15138,25.895171 C 361.78905,26.169568 362.743,25.894498 363.01727,25.077949 363.28543,24.535796 362.87631,23.584305 361.78918,22.217669 356.60163,16.771576 352.64131,13.777208 349.91658,13.228348 Z M 297.10339,25.895171 327.39955,25.895171 C 324.39244,38.970542 320.70889,49.324537 316.34549,56.947042 308.42617,50.142248 302.0156,39.788253 297.10339,25.895171 Z M 392.08468,25.895171 C 396.17892,30.530327 400.2726,36.657707 404.36684,44.280278 401.35973,55.995853 397.26671,65.527878 392.08468,72.882759 L 392.08468,25.895171 Z M 188.20462,28.346777 203.35273,28.346777 203.35273,54.906259 183.69905,54.906259 183.69905,31.207057 C 183.42444,29.303947 184.92901,28.346777 188.20462,28.346777 Z M 216.86051,28.346777 236.51224,28.346777 236.51224,54.906259 216.86051,54.906259 216.86051,28.346777 Z M 418.69576,29.98122 C 422.24012,34.884066 425.24683,39.787095 427.70247,44.691042 426.0648,50.686054 423.87682,56.540581 421.15209,62.261137 420.33405,57.357197 417.73849,51.634612 413.37543,45.097507 413.91886,43.737644 415.01139,40.604566 416.6484,35.701721 417.19183,33.799765 417.87613,31.889943 418.69576,29.98122 Z"
     id="path5"
     inkscape:connector-curvature="0" /></svg>