<?xml version="1.0" encoding="UTF-8" standalone="no"?>
<svg
   xmlns:dc="http://purl.org/dc/elements/1.1/"
   xmlns:cc="http://creativecommons.org/ns#"
   xmlns:rdf="http://www.w3.org/1999/02/22-rdf-syntax-ns#"
   xmlns:svg="http://www.w3.org/2000/svg"
   xmlns="http://www.w3.org/2000/svg"
   xmlns:sodipodi="http://sodipodi.sourceforge.net/DTD/sodipodi-0.dtd"
   xmlns:inkscape="http://www.inkscape.org/namespaces/inkscape"
   version="1.1"
   id="Layer_1"
   x="0px"
   y="0px"
   width="100"
   height="100"
   viewBox="0 0 100 100"
   enable-background="new 0 0 511.999 512"
   xml:space="preserve"
   inkscape:version="0.91 r13725"
   sodipodi:docname="brand-ftc.svg"><metadata
     id="metadata24"><rdf:RDF><cc:Work
         rdf:about=""><dc:format>image/svg+xml</dc:format><dc:type
           rdf:resource="http://purl.org/dc/dcmitype/StillImage" /><dc:title /></cc:Work></rdf:RDF></metadata><defs
     id="defs22" /><sodipodi:namedview
     pagecolor="#ffffff"
     bordercolor="#666666"
     borderopacity="1"
     objecttolerance="10"
     gridtolerance="10"
     guidetolerance="10"
     inkscape:pageopacity="0"
     inkscape:pageshadow="2"
     inkscape:window-width="1440"
     inkscape:window-height="791"
     id="namedview20"
     showgrid="true"
     inkscape:showpageshadow="false"
     inkscape:zoom="5.89"
     inkscape:cx="50"
     inkscape:cy="50"
     inkscape:window-x="0"
     inkscape:window-y="1"
     inkscape:window-maximized="1"
     inkscape:current-layer="Layer_1"><inkscape:grid
       type="xygrid"
       id="grid4141" /></sodipodi:namedview>
<!-- build:remove -->
<rect
     width="100%"
     height="100%"
     x="0"
     y="0"
     fill="#ffcc99"
     id="rect7" />
<!-- endbuild -->
     <g
     id="g3337"
     transform="matrix(0.19854041,0,0,0.19854041,-0.82718442,-0.486378)"><path
       d="M 53.217342,56.384569 241.44177,56.384569 242.89889,106.06987 233.54829,106.06987 C 233.54829,106.06987 228.31962,87.751419 218.35098,81.316437 218.35098,81.316437 210.67355,73.420417 176.15836,73.00797 L 137.03127,73.00797 C 137.03127,73.00797 126.22863,71.306455 126.22863,83.195083 L 126.22863,155.96593 151.61045,155.96593 C 151.61045,155.96593 168.82478,155.96593 179.05328,149.31243 179.05328,149.31243 188.41159,142.66283 189.85447,126.23851 L 198.58703,126.23851 198.58703,205.47154 189.85447,205.47154 C 189.85447,205.47154 187.57505,188.61539 178.62136,181.55718 178.62136,181.55718 170.31292,173.24874 150.78171,172.61519 L 126.22999,172.61519 126.22999,249.79238 C 126.22999,249.79238 126.43425,263.06836 131.84777,267.42947 131.84777,267.42947 137.03381,273.4662 159.09659,273.28389 L 159.09659,281.78117 52.62,281.78117 52.62,273.46493 C 52.62,273.46493 67.809517,273.46493 74.257456,268.8982 74.257456,268.8982 80.25412,266.62522 81.09066,246.63497 L 81.09066,86.121023 C 81.09066,86.121023 80.870875,75.088318 74.44233,69.668295 74.44233,69.668295 68.837416,64.893441 53.216045,65.105483 L 53.216045,56.384569 Z"
       id="path8"
       inkscape:connector-curvature="0" /><path
       d="M 257.03726,56.384569 454.58506,56.384569 459.378,106.06987 447.91605,106.06987 C 447.91605,106.06987 442.92919,90.482124 437.28157,84.451825 437.28157,84.451825 430.44059,74.263415 413.39696,73.420417 L 378.68912,73.420417 378.68912,249.56608 C 378.68912,249.56608 378.27026,263.06836 384.49964,267.84706 384.49964,267.84706 388.6759,273.05505 410.28227,273.28516 L 410.28227,281.78244 301.521,281.78244 301.521,273.6847 C 301.521,273.6847 314.86419,274.07907 322.32965,270.58035 322.32965,270.58035 333.53954,267.65568 333.3546,250.59527 L 333.3546,73.009258 299.44194,73.009258 C 299.44194,73.009258 284.91963,73.420417 276.15605,82.571882 276.15605,82.571882 268.05441,91.100155 263.99978,106.06987 L 252.46663,106.06987 257.03726,56.384569 Z"
       id="path10"
       inkscape:connector-curvature="0" /></g><path
     inkscape:connector-curvature="0"
     id="path14"
     d="M 46.617685,64.28141 C 45.995875,64.28141 45.666741,64.40896 45.630852,64.66435 46.727584,65.32264 47.276232,66.19983 47.276232,67.297018 47.348155,67.73534 47.421515,68.02878 47.495372,68.17432 48.006045,69.19943 48.847955,69.49051 50.018605,69.051765 51.115543,68.46777 51.589775,67.589835 51.444245,66.41913 51.296791,65.68906 50.602735,65.10294 49.360348,64.66435 48.153824,64.40896 47.239495,64.28141 46.617685,64.28141 Z M 20.450317,64.46772 C 19.577326,64.45363 19.260473,64.9212 19.498822,65.870822 L 19.498822,71.13585 14.34354,71.13585 C 14.196177,71.13585 13.685207,70.916757 12.807615,70.47794 12.440795,70.25865 12.185237,70.11311 12.039712,70.03895 11.600877,69.747692 11.271929,69.67411 11.052432,69.81965 10.833211,69.96678 10.723361,70.33241 10.723361,70.91675 L 10.723361,80.6795 C 10.649682,81.99569 11.272127,82.47157 12.588371,82.10514 13.756994,82.033025 14.30543,81.446946 14.23331,80.34996 L 14.23331,79.14362 19.49841,79.14362 19.49841,88.90578 C 19.350889,90.14834 19.899651,90.62329 21.143772,90.33182 22.532109,90.1843 23.190402,89.56408 23.118228,88.46679 L 23.118228,79.14362 28.383382,79.14362 28.383382,80.56926 C 28.383382,81.59436 28.822015,81.99529 29.699629,81.776 31.454755,81.63046 32.258582,80.8984 32.113048,79.58195 L 32.113048,72.67146 C 32.113048,72.59955 32.222169,72.52595 32.441765,72.452364 32.732875,72.23273 32.916086,72.05111 32.989966,71.90398 32.331945,70.51562 31.015577,69.56427 29.041199,69.051765 28.821623,69.125883 28.4926,69.56427 28.053839,70.3681 27.760978,70.88046 27.577568,71.13585 27.505634,71.13585 L 23.117827,71.13585 23.117827,66.09002 C 23.117827,66.01821 23.189995,65.90876 23.33713,65.76102 24.140962,65.10294 23.409174,64.701753 21.143349,64.5545 20.882808,64.50003 20.65179,64.47108 20.450317,64.46772 Z M 86.08115,64.7738 C 85.86146,64.847732 85.568395,65.10294 85.203165,65.54183 84.910105,65.9088 84.72689,66.09002 84.65512,66.09002 L 70.50499,66.09002 C 67.65292,64.7738 66.48187,64.73811 66.99463,65.98063 L 66.99463,88.68649 C 66.92087,89.49032 67.214325,89.81943 67.87222,89.67392 69.47988,89.45423 70.21177,88.97796 70.066,88.24764 L 70.066,84.29892 C 71.16295,83.27579 72.62498,81.44693 74.45377,78.81447 74.67286,79.691723 74.782305,80.42372 74.782305,81.00825 74.854485,82.32444 75.55045,82.80071 76.866635,82.43429 76.28052,83.16595 75.55045,83.96978 74.67286,84.847069 74.086745,85.50526 73.83135,85.90857 73.90511,86.05411 76.68303,84.51815 79.096505,82.25227 81.14475,79.25307 81.290244,79.83919 81.400012,80.60693 81.473526,81.5563 81.473526,82.80071 81.912495,83.38524 82.79009,83.31148 84.25181,83.02041 84.873625,82.14242 84.65465,80.67911 84.28754,79.217351 83.557435,77.75525 82.46054,76.291164 82.75162,75.63325 83.08116,74.79368 83.448775,73.76822 83.668475,73.10993 83.813615,72.67101 83.887375,72.45191 84.03327,72.01304 84.2885,71.6482 84.65551,71.35474 84.874589,71.06367 85.020109,70.8065 85.093715,70.5874 85.093715,70.295895 84.50799,69.89302 83.338925,69.38027 82.168275,68.942 81.40053,68.83261 81.0357,69.051765 80.888175,69.12567 80.815995,69.38026 80.815995,69.81926 80.742235,70.98991 80.522855,72.34211 80.15771,73.87807 79.93841,73.73253 79.68104,73.47675 79.389965,73.10993 78.73167,72.52551 78.073406,71.94086 77.41548,71.35474 77.487315,71.13544 77.70656,70.95382 78.073406,70.806508 L 78.292675,70.5874 C 78.292675,70.22216 77.780315,69.81926 76.757185,69.38027 75.6603,68.942 74.928645,68.83261 74.563542,69.051765 74.344446,69.051765 74.234655,69.380709 74.234655,70.03895 74.234655,71.2096 74.124815,72.41666 73.90551,73.65877 73.173855,72.85494 71.89375,71.72196 70.06639,70.25865 L 70.06639,68.50346 C 69.91927,67.1151 70.50539,66.49329 71.82158,66.63883 L 85.423255,66.63883 85.423255,85.17612 C 85.423255,86.05411 84.21612,86.566518 81.803045,86.712021 81.21692,86.78576 80.88789,86.85945 80.815995,86.9313 L 81.14515,87.04115 C 82.68063,87.26045 83.558225,87.73513 83.777525,88.46679 83.849695,88.612743 83.887375,88.79594 83.887375,89.01563 84.10676,89.7457 84.76496,90.00284 85.86185,89.78326 88.12741,89.56408 89.11446,88.53896 88.82298,86.712021 L 88.82298,68.39362 C 88.82298,68.321452 89.00501,68.17432 89.37183,67.95502 89.81042,67.663516 90.02992,67.44425 90.02992,67.297018 88.63977,65.98063 87.323585,65.14062 86.08115,64.7738 Z M 58.135435,67.516198 C 57.916254,67.516198 57.439865,68.06447 56.709795,69.161137 56.197212,69.96678 55.868264,70.3677 55.722745,70.3677 L 37.733125,70.3677 C 37.440119,70.3677 37.330734,70.47755 37.404402,70.69673 37.476246,70.84437 37.659698,70.916281 37.952815,70.916281 L 43.546685,70.916281 C 44.276785,75.37786 45.592965,79.07105 47.495372,81.9949 45.154084,84.92073 41.717775,87.47935 37.184363,89.67348 36.307088,90.4036 36.965183,90.4036 39.158766,89.67348 43.618542,88.06388 47.056642,86.272908 49.469755,84.29853 51.444245,86.27301 54.113085,87.91874 57.477502,89.23493 58.500603,89.67392 59.122475,89.45423 59.342024,88.57664 59.780765,87.551741 60.401385,86.859463 61.20702,86.49246 61.352519,86.42054 61.572035,86.31108 61.865095,86.16356 62.449251,85.79872 62.449251,85.57942 61.865095,85.50526 57.549315,84.70156 54.186465,83.31148 51.773385,81.33715 53.089575,79.436456 54.368095,76.767946 55.612505,73.32962 55.684299,73.038483 55.941655,72.74553 56.380245,72.452364 56.671725,72.23313 56.819245,72.01343 56.819245,71.79413 56.819245,71.50286 56.051105,71.2096 54.515234,70.91675 L 60.877636,70.91675 C 61.316392,70.91675 61.571694,70.84476 61.645405,70.697176 61.717575,70.55131 61.607865,70.29592 61.316374,69.9295 60.000065,68.39362 58.939355,67.589835 58.135435,67.516198 Z M 43.985447,70.91675 52.102535,70.91675 C 51.370875,74.35473 50.383435,77.13305 49.140783,79.25307 47.092765,77.42611 45.373686,74.64581 43.985447,70.91675 Z M 70.06521,70.91675 C 71.1621,72.08759 72.25899,73.73293 73.355875,75.85294 72.624081,78.92392 71.52733,81.48452 70.06521,83.53078 L 70.06521,70.91675 Z M 15.133055,71.56334 C 15.227833,71.56215 15.32975,71.56581 15.439417,71.57484 L 19.498013,71.57484 19.498013,78.70462 14.232899,78.70462 14.232899,72.34258 C 14.168497,71.83134 14.469131,71.57206 15.133055,71.56334 Z M 23.117827,71.57484 28.382986,71.57484 28.382986,78.70462 23.117827,78.70462 23.117827,71.57484 Z M 77.195385,72.01343 C 78.218515,73.25784 79.02201,74.57403 79.608602,75.96228 79.242045,77.57165 78.65751,79.14362 77.853911,80.67911 77.70616,79.362854 77.012029,77.827247 75.769745,76.072059 75.988914,75.70701 76.280444,74.86551 76.64694,73.54932 76.938415,72.81925 77.121625,72.306861 77.195385,72.01343 Z" /></svg>