<?xml version="1.0" encoding="UTF-8" standalone="no"?>
<!-- Generator: Adobe Illustrator 16.0.4, SVG Export Plug-In . SVG Version: 6.00 Build 0)  -->

<svg
   xmlns:dc="http://purl.org/dc/elements/1.1/"
   xmlns:cc="http://creativecommons.org/ns#"
   xmlns:rdf="http://www.w3.org/1999/02/22-rdf-syntax-ns#"
   xmlns:svg="http://www.w3.org/2000/svg"
   xmlns="http://www.w3.org/2000/svg"
   xmlns:sodipodi="http://sodipodi.sourceforge.net/DTD/sodipodi-0.dtd"
   xmlns:inkscape="http://www.inkscape.org/namespaces/inkscape"
   version="1.1"
   id="Layer_1"
   x="0px"
   y="0px"
   width="100"
   height="100"
   viewBox="0 0 100 100"
   enable-background="new 0 0 511.999 512"
   xml:space="preserve"
   inkscape:version="0.91 r13725"
   sodipodi:docname="brand-ftc.svg"><metadata
     id="metadata24"><rdf:RDF><cc:Work
         rdf:about=""><dc:format>image/svg+xml</dc:format><dc:type
           rdf:resource="http://purl.org/dc/dcmitype/StillImage" /><dc:title /></cc:Work></rdf:RDF></metadata><defs
     id="defs22" /><sodipodi:namedview
     pagecolor="#ffffff"
     bordercolor="#666666"
     borderopacity="1"
     objecttolerance="10"
     gridtolerance="10"
     guidetolerance="10"
     inkscape:pageopacity="0"
     inkscape:pageshadow="2"
     inkscape:window-width="1920"
     inkscape:window-height="955"
     id="namedview20"
     showgrid="true"
     inkscape:showpageshadow="false"
     inkscape:zoom="1.5410156"
     inkscape:cx="49.642583"
     inkscape:cy="126.21546"
     inkscape:window-x="0"
     inkscape:window-y="1"
     inkscape:window-maximized="1"
     inkscape:current-layer="Layer_1"><inkscape:grid
       type="xygrid"
       id="grid4141" /></sodipodi:namedview>
<!-- build:remove -->
<rect width="100%" height="100%" x="0" y="0" fill="#ffcc99" />
<!-- endbuild -->
       <g
     id="g4147"
     transform="scale(0.1953125,0.1953125)"><g
       id="g6"><path
         inkscape:connector-curvature="0"
         id="path8"
         d="M 99.162,61.439 244.74,61.439 245.867,99.867 238.635,99.867 C 238.635,99.867 234.591,85.699 226.881,80.722 226.881,80.722 220.943,74.615 194.248,74.296 L 163.986,74.296 C 163.986,74.296 155.631,72.98 155.631,82.175 L 155.631,138.458 175.262,138.458 C 175.262,138.458 188.576,138.458 196.487,133.312 196.487,133.312 203.725,128.169 204.841,115.466 L 211.595,115.466 211.595,176.747 204.841,176.747 C 204.841,176.747 203.078,163.71 196.153,158.251 196.153,158.251 189.727,151.825 174.621,151.335 L 155.632,151.335 155.632,211.026 C 155.632,211.026 155.79,221.294 159.977,224.667 159.977,224.667 163.988,229.336 181.052,229.195 L 181.052,235.767 98.7,235.767 98.7,229.335 C 98.7,229.335 110.448,229.335 115.435,225.803 115.435,225.803 120.073,224.045 120.72,208.584 L 120.72,84.438 C 120.72,84.438 120.55,75.905 115.578,71.713 115.578,71.713 111.243,68.02 99.161,68.184 L 99.161,61.439 Z" /><path
         inkscape:connector-curvature="0"
         id="path10"
         d="M 256.802,61.439 409.591,61.439 413.298,99.867 404.433,99.867 C 404.433,99.867 400.576,87.811 396.208,83.147 396.208,83.147 390.917,75.267 377.735,74.615 L 350.891,74.615 350.891,210.851 C 350.891,210.851 350.567,221.294 355.385,224.99 355.385,224.99 358.615,229.018 375.326,229.196 L 375.326,235.768 291.207,235.768 291.207,229.505 C 291.207,229.505 301.527,229.81 307.301,227.104 307.301,227.104 315.971,224.842 315.828,211.647 L 315.828,74.297 289.599,74.297 C 289.599,74.297 278.367,74.615 271.589,81.693 271.589,81.693 265.323,88.289 262.187,99.867 L 253.267,99.867 256.802,61.439 Z" /></g><path
       inkscape:connector-curvature="0"
       id="path14"
       d="M 238.53906,325.06445 C 235.58694,325.06445 234.02452,325.66981 233.85352,326.88281 239.06152,330.00781 241.66602,334.17381 241.66602,339.38281 242.00802,341.46481 242.35603,342.85783 242.70703,343.54883 245.13103,348.41583 249.1285,349.79884 254.6875,347.71484 259.8965,344.94184 262.14803,340.77384 261.45703,335.21484 260.75703,331.74784 257.4615,328.96481 251.5625,326.88281 245.833,325.66981 241.49119,325.06445 238.53906,325.06445 Z M 114.29102,325.94922 C 110.14582,325.8819 108.64081,328.10195 109.77344,332.61133 L 109.77344,357.61133 85.294922,357.61133 C 84.594922,357.61133 82.168953,356.57033 78.001953,354.48633 76.259953,353.44533 75.046469,352.75434 74.355469,352.40234 72.271469,351.01934 70.709969,350.67033 69.667969,351.36133 68.626969,352.06033 68.105469,353.79531 68.105469,356.57031 L 68.105469,402.92578 C 67.755469,409.17578 70.710938,411.43531 76.960938,409.69531 82.509938,409.35331 85.113484,406.57033 84.771484,401.36133 L 84.771484,395.63281 109.77148,395.63281 109.77148,441.98633 C 109.07048,447.88633 111.67598,450.14081 117.58398,448.75781 124.17598,448.05681 127.30098,445.11134 126.95898,439.90234 L 126.95898,395.63281 151.95898,395.63281 151.95898,402.40234 C 151.95898,407.26934 154.04198,409.17381 158.20898,408.13281 166.54198,407.44181 170.35897,403.96484 169.66797,397.71484 L 169.66797,364.90234 C 169.66797,364.56034 170.18652,364.21133 171.22852,363.86133 172.61152,362.81933 173.48103,361.95681 173.83203,361.25781 170.70703,354.66581 164.45703,350.14884 155.08203,347.71484 154.04003,348.06684 152.47753,350.14884 150.39453,353.96484 149.00353,356.39784 148.13302,357.61133 147.79102,357.61133 L 126.95703,357.61133 126.95703,333.65234 C 126.95703,333.31134 127.29905,332.79084 127.99805,332.08984 131.81505,328.96484 128.34003,327.06033 117.58203,326.36133 116.34434,326.1022 115.2476,325.96475 114.29102,325.94922 Z M 425.91992,327.40234 C 424.87792,327.75334 423.48495,328.96483 421.75195,331.04883 420.35995,332.79183 419.49044,333.65234 419.14844,333.65234 L 351.96094,333.65234 C 338.41894,327.40234 332.85897,327.23281 335.29297,333.13281 L 335.29297,440.94531 C 334.94297,444.76231 336.33594,446.32381 339.46094,445.63281 347.09394,444.59081 350.56895,442.32833 349.87695,438.86133 L 349.87695,420.11133 C 355.08595,415.25433 362.02694,406.57031 370.71094,394.07031 371.75194,398.23631 372.27148,401.71133 372.27148,404.48633 372.61348,410.73633 375.91797,412.99781 382.16797,411.25781 379.38497,414.73281 375.91895,418.54884 371.75195,422.71484 368.96795,425.83984 367.75547,427.75431 368.10547,428.44531 381.29647,421.15231 392.75547,410.39434 402.48047,396.15234 403.17147,398.93634 403.69297,402.58184 404.04297,407.08984 404.04297,412.99784 406.12597,415.77383 410.29297,415.42383 417.23397,414.04083 420.18748,409.87283 419.14648,402.92383 417.40448,395.98283 413.93652,389.04084 408.72852,382.08984 410.11152,378.96484 411.67588,374.97837 413.42188,370.10938 414.46388,366.98438 415.15391,364.90037 415.50391,363.85938 416.19591,361.77537 417.40839,360.04339 419.15039,358.65039 420.19139,357.26739 420.88242,356.04686 421.23242,355.00586 421.23242,353.62186 418.45039,351.70939 412.90039,349.27539 407.34139,347.19339 403.69589,346.67384 401.96289,347.71484 401.26289,348.06584 400.91992,349.27537 400.91992,351.35938 400.56992,356.91738 399.52792,363.33786 397.79492,370.63086 396.75292,369.93986 395.53144,368.72637 394.14844,366.98438 391.02344,364.20938 387.89844,361.43339 384.77344,358.65039 385.11544,357.60839 386.15644,356.74587 387.89844,356.04688 L 388.93945,355.00586 C 388.93945,353.27186 386.50644,351.35939 381.64844,349.27539 376.43944,347.19339 372.96542,346.67384 371.23242,347.71484 370.19142,347.71484 369.66992,349.27734 369.66992,352.40234 369.66992,357.96134 369.14942,363.69184 368.10742,369.58984 364.63342,365.77284 358.55491,360.39431 349.87891,353.44531 L 349.87891,345.11133 C 349.17991,338.51933 351.96289,335.56681 358.21289,336.25781 L 422.79688,336.25781 422.79688,424.27734 C 422.79688,428.44534 417.06542,430.87931 405.60742,431.57031 402.82342,431.92031 401.26192,432.26933 400.91992,432.61133 L 402.48242,433.13281 C 409.77442,434.17381 413.94042,436.42734 414.98242,439.90234 415.32442,440.59534 415.50391,441.46481 415.50391,442.50781 416.54591,445.97481 419.67091,447.19534 424.87891,446.15234 435.63691,445.11134 440.32345,440.24431 438.93945,431.57031 L 438.93945,344.58984 C 438.93945,344.24784 439.80392,343.54881 441.54492,342.50781 443.62792,341.12281 444.66992,340.08181 444.66992,339.38281 438.06992,333.13281 431.81992,329.14434 425.91992,327.40234 Z M 293.22852,340.42383 C 292.18752,340.42383 289.92498,343.02738 286.45898,348.23438 284.02498,352.05938 282.46248,353.96289 281.77148,353.96289 L 196.35352,353.96289 C 194.96252,353.96289 194.44297,354.48439 194.79297,355.52539 195.13397,356.22639 196.00448,356.56836 197.39648,356.56836 L 223.95703,356.56836 C 227.42403,377.75236 233.67403,395.28887 242.70703,409.17188 231.59003,423.06488 215.27305,435.21286 193.74805,445.63086 189.58205,449.09786 192.70705,449.09786 203.12305,445.63086 224.29905,437.98886 240.62303,429.48438 252.08203,420.10938 261.45703,429.48538 274.12852,437.29883 290.10352,443.54883 294.96152,445.63283 297.91503,444.58983 298.95703,440.42383 301.04003,435.55683 303.9875,432.26934 307.8125,430.52734 308.5035,430.18634 309.5455,429.66584 310.9375,428.96484 313.7115,427.23284 313.7115,426.19184 310.9375,425.83984 290.4455,422.02384 274.47753,415.42383 263.01953,406.04883 269.26953,397.02383 275.34005,384.35334 281.24805,368.02734 281.59005,366.64434 282.81153,365.25433 284.89453,363.86133 286.27853,362.82033 286.97852,361.77733 286.97852,360.73633 286.97852,359.35333 283.33106,357.96131 276.03906,356.57031 L 306.24805,356.57031 C 308.33205,356.57031 309.54453,356.22834 309.89453,355.52734 310.23653,354.83534 309.71603,353.62281 308.33203,351.88281 302.08203,344.58981 297.04552,340.77383 293.22852,340.42383 Z M 226.04102,356.57031 264.58203,356.57031 C 261.10803,372.89431 256.41953,386.08634 250.51953,396.15234 240.79453,387.47834 232.63302,374.27731 226.04102,356.57031 Z M 349.87305,356.57031 C 355.08205,362.12931 360.29005,369.94181 365.49805,380.00781 362.02305,394.58981 356.81505,406.74784 349.87305,416.46484 L 349.87305,356.57031 Z M 89.042969,359.64062 C 89.493293,359.63477 89.977297,359.65256 90.498047,359.69531 L 109.76953,359.69531 109.76953,393.54883 84.769531,393.54883 84.769531,363.33984 C 84.463281,360.91259 85.890699,359.68161 89.042969,359.64062 Z M 126.95703,359.69531 151.95703,359.69531 151.95703,393.54883 126.95703,393.54883 126.95703,359.69531 Z M 383.72852,361.77734 C 388.58652,367.68634 392.4025,373.93534 395.1875,380.52734 393.4465,388.16934 390.67147,395.63283 386.85547,402.92383 386.15447,396.67383 382.85798,389.38283 376.95898,381.04883 377.99998,379.31583 379.384,375.32031 381.125,369.07031 382.508,365.60331 383.37852,363.17034 383.72852,361.77734 Z" /></g></svg>