<?xml version="1.0" encoding="UTF-8" standalone="no"?>
<!-- Created with Inkscape (http://www.inkscape.org/) -->

<svg
   xmlns:dc="http://purl.org/dc/elements/1.1/"
   xmlns:cc="http://creativecommons.org/ns#"
   xmlns:rdf="http://www.w3.org/1999/02/22-rdf-syntax-ns#"
   xmlns:svg="http://www.w3.org/2000/svg"
   xmlns="http://www.w3.org/2000/svg"
   xmlns:sodipodi="http://sodipodi.sourceforge.net/DTD/sodipodi-0.dtd"
   xmlns:inkscape="http://www.inkscape.org/namespaces/inkscape"
   id="svg2"
   version="1.1"
   inkscape:version="0.91 r13725"
   xml:space="preserve"
   width="100"
   height="100"
   viewBox="0 0 100 99.999999"
   sodipodi:docname="renren-logo-vector.svg"><metadata
     id="metadata8"><rdf:RDF><cc:Work
         rdf:about=""><dc:format>image/svg+xml</dc:format><dc:type
           rdf:resource="http://purl.org/dc/dcmitype/StillImage" /><dc:title></dc:title></cc:Work></rdf:RDF></metadata><defs
     id="defs6" /><sodipodi:namedview
     pagecolor="#ffffff"
     bordercolor="#666666"
     borderopacity="1"
     objecttolerance="10"
     gridtolerance="10"
     guidetolerance="10"
     inkscape:pageopacity="0"
     inkscape:pageshadow="2"
     inkscape:window-width="1920"
     inkscape:window-height="955"
     id="namedview4"
     showgrid="true"
     inkscape:zoom="7.89"
     inkscape:cx="50"
     inkscape:cy="50"
     inkscape:window-x="0"
     inkscape:window-y="1"
     inkscape:window-maximized="1"
     inkscape:current-layer="g10"><inkscape:grid
       type="xygrid"
       id="grid4444" /></sodipodi:namedview><g
     id="g10"
     inkscape:groupmode="layer"
     inkscape:label="ink_ext_XXXXXX"
     transform="matrix(1.25,0,0,-1.25,0,100.00001)"><path
       inkscape:connector-curvature="0"
       id="path200"
       fill="#2c5ab0;"
       d="M 36.839109,71.7021 C 36.453019,56.25017 34.675331,50.061015 34.668619,50.039182 27.544451,23.390697 8.0352517,16.226247 8,16.217855 L 8,16.217855 C 11.014844,12.811887 13.359911,9.3891298 13.359911,9.3891298 L 13.359911,9.3891298 C 25.439439,16.676131 35.183961,29.140055 40.043641,43.95242 L 40.043641,43.95242 C 44.863029,28.651575 54.728427,16.377331 65.829307,9.95819 L 65.829307,9.95819 C 68.599067,13.78214 71.999999,17.273727 71.999999,17.273727 L 71.999999,17.273727 C 58.753811,25.158313 49.652201,35.369502 43.538587,56.303895 L 43.521799,56.35425 43.528517,56.406288 C 44.104281,62.00624 44.393011,70.12417 44.446729,71.7021 L 36.839109,71.7021" /></g></svg>