<?xml version="1.0" encoding="UTF-8" standalone="no"?>
<svg
   xmlns:dc="http://purl.org/dc/elements/1.1/"
   xmlns:cc="http://creativecommons.org/ns#"
   xmlns:rdf="http://www.w3.org/1999/02/22-rdf-syntax-ns#"
   xmlns:svg="http://www.w3.org/2000/svg"
   xmlns="http://www.w3.org/2000/svg"
   xmlns:sodipodi="http://sodipodi.sourceforge.net/DTD/sodipodi-0.dtd"
   xmlns:inkscape="http://www.inkscape.org/namespaces/inkscape"
   width="100"
   height="100"
   viewBox="0 0 100 100"
   id="svg2"
   version="1.1"
   inkscape:version="0.91 r13725"
   sodipodi:docname="follow-qzone.svg">
  <metadata
     id="metadata10">
    <rdf:RDF>
      <cc:Work
         rdf:about="">
        <dc:format>image/svg+xml</dc:format>
        <dc:type
           rdf:resource="http://purl.org/dc/dcmitype/StillImage" />
        <dc:title></dc:title>
      </cc:Work>
    </rdf:RDF>
  </metadata>
  <defs
     id="defs8" />
  <sodipodi:namedview
     pagecolor="#ffffff"
     bordercolor="#666666"
     borderopacity="1"
     objecttolerance="10"
     gridtolerance="10"
     guidetolerance="10"
     inkscape:pageopacity="0"
     inkscape:pageshadow="2"
     inkscape:window-width="1920"
     inkscape:window-height="955"
     id="namedview6"
     showgrid="true"
     inkscape:zoom="7.89"
     inkscape:cx="50"
     inkscape:cy="50"
     inkscape:window-x="0"
     inkscape:window-y="1"
     inkscape:window-maximized="1"
     inkscape:current-layer="svg2">
    <inkscape:grid
       type="xygrid"
       id="grid4138" />
  </sodipodi:namedview>

  <path
     d="M 49.434001,12.148283 C 49.027316,12.314689 47.882001,13.533884 47.882001,13.810832 47.882001,13.903254 46.090001,17.709052 43.891646,22.253092 41.693726,26.797489 39.809199,30.769122 39.6988,31.082828 39.605996,31.378642 39.439709,31.729476 39.366004,31.840332 39.273618,31.951442 38.756402,32.948927 38.202247,34.057106 37.610926,35.276402 36.982797,36.292402 36.631973,36.5696 35.782146,37.289922 36.3548,37.216162 19.341317,39.118722 11.656757,39.98687 10.807077,40.116242 10.345157,40.541239 10.012677,40.836562 9.8833124,41.908156 10.123611,42.536284 10.197367,42.702544 13.503992,45.842914 17.475637,49.518943 30.037202,61.119817 29.224397,60.306981 29.224397,61.175438 29.224397,61.600139 28.966002,63.133293 28.670195,64.611138 28.356277,66.088983 27.654227,69.783746 27.081429,72.831616 26.508997,75.879815 25.843942,79.371121 25.6036,80.590234 24.329197,87.092561 24.310509,87.277546 24.975746,87.979441 25.6036,88.644459 26.324357,88.570401 28.226799,87.610061 30.000397,86.704732 30.166606,86.612539 33.657999,84.561874 34.932402,83.823106 36.595006,82.862465 37.352398,82.437452 38.110003,82.012754 39.513646,81.181487 40.455626,80.608666 41.397996,80.036154 42.210801,79.574265 42.266,79.574265 42.302888,79.574265 42.875726,79.241761 43.522494,78.835201 44.169199,78.428938 44.759956,78.096418 44.834001,78.096418 44.907602,78.096418 45.572814,77.727041 46.311735,77.265156 48.066802,76.175121 49.581197,75.621041 50.449973,75.787308 50.819124,75.861066 51.705919,76.212321 52.407876,76.600149 54.255141,77.579217 65.89307,84.284688 69.513653,86.44628 72.598801,88.293519 73.503601,88.644459 74.556912,88.367276 75.258797,88.20102 75.462,87.185054 75.222,85.171574 75.110801,84.266241 74.944539,83.250288 74.852383,82.899345 74.704402,82.308081 74.094801,79.038632 72.617203,70.836577 71.933753,66.93869 71.933753,66.864933 73.466797,66.292414 75.591315,65.498024 76.588749,64.796133 76.201113,64.408001 76.071602,64.27864 74.889203,64.426448 72.432403,64.869891 67.869453,65.701154 66.927472,65.830534 62.106003,66.273681 56.619604,66.791175 51.557998,66.901812 44.796926,66.661796 39.513646,66.477108 33.232912,66.015224 32.881999,65.793654 32.605194,65.608661 32.734003,65.036147 33.159008,64.666753 33.380559,64.463327 36.188402,62.449851 39.384398,60.177916 49.396458,53.084331 55.899342,48.392039 56.434803,47.893282 57.358799,47.025122 57.284412,46.988242 53.442276,46.489496 47.364621,45.713539 45.775873,45.584162 35.874569,45.122288 32.567726,44.974773 29.575317,44.789775 29.224397,44.734467 25.6036,44.124766 44.058001,42.462235 51.853527,42.702544 56.970713,42.850348 62.992916,43.275054 66.539597,43.736944 69.846,44.180387 70.049203,44.217266 70.049203,44.586642 70.049203,44.88227 69.698229,45.141031 61.921202,50.498016 58.725556,52.714651 55.326512,55.060923 54.365998,55.725934 53.423796,56.390971 52.444836,57.074411 52.222799,57.222227 51.188404,57.924112 47.715603,60.344171 46.754823,61.04606 46.145646,61.489211 45.6652,61.969531 45.6652,62.117341 45.6652,62.468281 46.570248,62.690161 49.359599,63.022655 56.7676,63.890811 70.548056,64.371121 71.157864,63.761441 71.286987,63.632064 71.268502,63.225788 71.065203,62.376091 70.917835,61.729518 70.788398,61.119817 70.788398,61.027611 70.788398,60.768875 73.92862,57.628491 78.269918,53.564651 89.741201,42.813181 90,42.554722 90,41.705022 90,40.965942 89.390205,40.300935 88.485201,40.079362 88.041998,39.96842 85.400404,39.672802 82.610798,39.395911 79.8212,39.137152 76.736403,38.841522 75.775885,38.749333 74.815416,38.638402 72.78358,38.435268 71.250018,38.269011 65.394004,37.677759 63.602093,37.456175 63.177489,37.253042 62.364629,36.883666 61.607225,35.368635 56.010002,22.770162 52.019618,13.755482 51.668949,13.034942 51.114802,12.536287 50.653032,12.111486 49.932404,11.945087 49.434001,12.148283 Z"
     inkscape:connector-curvature="0"
     fill="#ffce0f" />
</svg>
