<?xml version="1.0" encoding="UTF-8" standalone="no"?>
<svg
   xmlns:dc="http://purl.org/dc/elements/1.1/"
   xmlns:cc="http://creativecommons.org/ns#"
   xmlns:rdf="http://www.w3.org/1999/02/22-rdf-syntax-ns#"
   xmlns:svg="http://www.w3.org/2000/svg"
   xmlns="http://www.w3.org/2000/svg"
   xmlns:sodipodi="http://sodipodi.sourceforge.net/DTD/sodipodi-0.dtd"
   xmlns:inkscape="http://www.inkscape.org/namespaces/inkscape"
   viewBox="0 0 100 100"
   id="svg2"
   version="1.1"
   inkscape:version="0.91 r13725"
   sodipodi:docname="rss.svg"
   width="100"
   height="100">
  <metadata
     id="metadata10">
    <rdf:RDF>
      <cc:Work
         rdf:about="">
        <dc:format>image/svg+xml</dc:format>
        <dc:type
           rdf:resource="http://purl.org/dc/dcmitype/StillImage" />
        <dc:title></dc:title>
      </cc:Work>
    </rdf:RDF>
  </metadata>
  <defs
     id="defs8" />
  <sodipodi:namedview
     pagecolor="#ffffff"
     bordercolor="#666666"
     borderopacity="1"
     objecttolerance="10000"
     gridtolerance="10"
     guidetolerance="10"
     inkscape:pageopacity="0"
     inkscape:pageshadow="2"
     inkscape:window-width="1920"
     inkscape:window-height="955"
     id="namedview6"
     showgrid="true"
     inkscape:showpageshadow="false"
     inkscape:zoom="3.945"
     inkscape:cx="50"
     inkscape:cy="50"
     inkscape:window-x="0"
     inkscape:window-y="1"
     inkscape:window-maximized="1"
     inkscape:current-layer="svg2">
    <inkscape:grid
       type="xygrid"
       id="grid4133" />
  </sodipodi:namedview>
  <path
     style="fill:#d66d06;fill-opacity:0.94117647;stroke:none;stroke-opacity:1"
     d="M 0 0 L 0 100 L 100 100 L 100 0 L 0 0 z M 10 9.9121094 C 54.153171 10.059388 89.91162 45.846844 90 90 L 73.947266 90 C 73.888362 72.916059 67.201578 56.863686 55.125 44.787109 C 43.077874 32.710522 27.054483 26.053191 10 25.964844 L 10 9.9121094 z M 10 37.1875 C 39.072162 37.393676 62.577016 60.927993 62.783203 89.970703 L 46.730469 89.970703 C 46.524276 69.823431 30.176728 53.446429 10 53.240234 L 10 37.1875 z M 20.839844 68.320312 C 26.819231 68.320312 31.679688 73.151313 31.679688 79.160156 C 31.679688 85.139533 26.819231 90 20.839844 90 C 14.860463 90 10 85.139533 10 79.160156 C 10 73.180778 14.860463 68.320313 20.839844 68.320312 z "
     id="rect4135" />
</svg>
