<?xml version="1.0" encoding="UTF-8" standalone="no"?>
<svg
   xmlns:dc="http://purl.org/dc/elements/1.1/"
   xmlns:cc="http://creativecommons.org/ns#"
   xmlns:rdf="http://www.w3.org/1999/02/22-rdf-syntax-ns#"
   xmlns:svg="http://www.w3.org/2000/svg"
   xmlns="http://www.w3.org/2000/svg"
   xmlns:sodipodi="http://sodipodi.sourceforge.net/DTD/sodipodi-0.dtd"
   xmlns:inkscape="http://www.inkscape.org/namespaces/inkscape"
   viewBox="0 0 100 100"
   id="svg2"
   version="1.1"
   inkscape:version="0.91 r13725"
   sodipodi:docname="rss.svg"
   width="100"
   height="100">
  <sodipodi:namedview
     pagecolor="#ffffff"
     bordercolor="#666666"
     borderopacity="1"
     objecttolerance="10"
     gridtolerance="10"
     guidetolerance="10"
     inkscape:pageopacity="0"
     inkscape:pageshadow="2"
     inkscape:window-width="1920"
     inkscape:window-height="955"
     id="namedview8"
     showgrid="true"
     inkscape:zoom="2.36"
     inkscape:cx="50"
     inkscape:cy="50"
     inkscape:window-x="0"
     inkscape:window-y="1"
     inkscape:window-maximized="1"
     inkscape:current-layer="svg2">
    <inkscape:grid
       type="xygrid"
       id="grid4136" />
  </sodipodi:namedview>
  <metadata
     id="metadata10">
    <rdf:RDF>
      <cc:Work
         rdf:about="">
        <dc:format>image/svg+xml</dc:format>
        <dc:type
           rdf:resource="http://purl.org/dc/dcmitype/StillImage" />
        <dc:title />
      </cc:Work>
    </rdf:RDF>
  </metadata>
  <defs
     id="defs8" />
  <!-- build:remove -->
  <rect
     x="0"
     y="0"
     width="100%"
     height="100%"
     rx="5"
     ry="5"
     id="rect5"
     fill="#d66d06" />
  <!-- endbuild -->
  <path
     d="M 31.678942,79.160534 C 31.678942,85.139911 26.818853,90 20.839467,90 14.860085,90 10,85.139911 10,79.160534 10,73.181157 14.860085,68.321067 20.839467,68.321067 26.818853,68.321067 31.678942,73.151691 31.678942,79.160534 Z M 10,37.187051 10,53.240057 C 30.176729,53.446252 46.524296,69.823274 46.730489,89.970549 L 62.783504,89.970549 C 62.577317,60.927836 39.072162,37.393228 10,37.187051 Z M 10,25.964669 C 27.054484,26.053015 43.078057,32.709872 55.125183,44.786459 67.201761,56.863035 73.888076,72.91606 73.946979,90 L 90,90 C 89.911624,45.846845 54.153171,10.058918 10,9.9116384 L 10,25.964669 10,25.964669 Z"
     id="path4"
     inkscape:connector-curvature="0"
     fill="#ffffff" />
</svg>
