<?xml version="1.0" encoding="UTF-8" standalone="no"?>
<svg xmlns:dc="http://purl.org/dc/elements/1.1/" xmlns:cc="http://creativecommons.org/ns#" xmlns:rdf="http://www.w3.org/1999/02/22-rdf-syntax-ns#" xmlns:svg="http://www.w3.org/2000/svg" xmlns="http://www.w3.org/2000/svg" xmlns:sodipodi="http://sodipodi.sourceforge.net/DTD/sodipodi-0.dtd" xmlns:inkscape="http://www.inkscape.org/namespaces/inkscape" version="1.1" id="social-weibo" x="0px" y="0px" viewBox="0 0 100 100" enable-background="new 0 0 724.7 587.1" xml:space="preserve" inkscape:version="0.91 r13725" sodipodi:docname="social-weibo-bg.svg" width="100" height="100"><metadata id="metadata17"><rdf:RDF><cc:Work rdf:about=""><dc:format>image/svg+xml</dc:format><dc:type rdf:resource="http://purl.org/dc/dcmitype/StillImage" /><dc:title /></cc:Work></rdf:RDF></metadata><defs id="defs15" /><sodipodi:namedview pagecolor="#ffffff" bordercolor="#666666" borderopacity="1" objecttolerance="10" gridtolerance="10" guidetolerance="10" inkscape:pageopacity="0" inkscape:pageshadow="2" inkscape:window-width="1440" inkscape:window-height="856" id="namedview13" showgrid="true" inkscape:showpageshadow="false" inkscape:zoom="6.54" inkscape:cx="7.8746177" inkscape:cy="50" inkscape:window-x="6" inkscape:window-y="46" inkscape:window-maximized="0" inkscape:current-layer="social-weibo"><inkscape:grid type="xygrid" id="grid4137" /></sodipodi:namedview><path d="M 0 0 L 0 100 L 100 100 L 100 0 L 0 0 z M 66.146484 21.646484 C 71.313427 21.557833 76.489128 23.616395 80.224609 27.759766 C 84.822124 32.849636 86.069974 39.794164 84.099609 45.869141 L 84.099609 45.876953 C 83.645656 47.277391 82.13673 48.051588 80.726562 47.597656 C 79.316397 47.143716 78.544091 45.636662 78.998047 44.226562 C 80.398549 39.899688 79.510716 34.96558 76.246094 31.34375 C 72.981472 27.721927 68.161622 26.338652 63.708984 27.285156 C 62.260188 27.594221 60.840326 26.679202 60.53125 25.230469 C 60.222173 23.791391 61.139093 22.359838 62.587891 22.050781 C 63.761417 21.800874 64.954113 21.666944 66.146484 21.646484 z M 44.421875 29.648438 C 46.067315 29.678617 47.434529 30.152858 48.400391 31.121094 C 50.100314 32.830595 50.263301 35.77553 49.171875 39.300781 C 48.592356 41.068228 50.833984 40.09375 50.833984 40.09375 C 57.962064 37.10936 64.181389 36.934528 66.451172 40.179688 C 67.668179 41.918165 67.552045 44.34376 66.431641 47.154297 C 65.919733 48.448499 66.59685 48.640052 67.582031 48.939453 C 71.600029 50.185364 76.0722 53.199708 76.0625 58.511719 C 76.0625 67.291029 63.398521 78.349609 44.361328 78.349609 C 29.844381 78.349609 15 71.308815 15 59.738281 C 15 53.682587 18.834784 46.680534 25.431641 40.083984 C 32.045399 33.470523 39.485556 29.557891 44.421875 29.648438 z M 66.888672 31.167969 C 69.206295 31.273453 71.483459 32.273144 73.164062 34.134766 C 75.404867 36.616926 76.005032 39.997821 75.048828 42.962891 C 74.652822 44.179826 73.357614 44.835549 72.140625 44.449219 C 70.923635 44.053233 70.266 42.750247 70.652344 41.542969 C 71.125618 40.094241 70.825802 38.441544 69.734375 37.224609 C 68.642948 36.017336 67.022586 35.554326 65.535156 35.873047 C 64.298847 36.143477 63.071223 35.351382 62.800781 34.105469 C 62.539998 32.859563 63.332161 31.622102 64.578125 31.361328 C 65.338744 31.197149 66.116131 31.132809 66.888672 31.167969 z M 43.849609 45.878906 C 30.76214 45.878906 20.148438 52.485194 20.148438 60.636719 C 20.148438 68.788245 30.76214 75.394531 43.849609 75.394531 C 56.937076 75.394531 67.552734 68.788245 67.552734 60.636719 C 67.552734 52.485194 56.937076 45.878906 43.849609 45.878906 z M 42.412109 52.123047 C 43.466456 52.111898 44.526468 52.234081 45.560547 52.503906 C 51.268808 53.981615 54.18505 59.360958 51.847656 64.595703 C 49.481289 69.936691 42.682121 72.795674 36.90625 70.931641 C 31.342872 69.135218 28.976284 63.630446 31.419922 58.675781 C 33.366139 54.728599 37.843274 52.171357 42.412109 52.123047 z M 43.951172 58.591797 C 43.401082 58.601756 42.841357 58.912866 42.537109 59.419922 C 42.141106 60.095995 42.353404 60.878116 43.048828 61.158203 C 43.74425 61.447947 44.643166 61.119214 45.048828 60.423828 C 45.435175 59.718776 45.183703 58.936658 44.488281 58.685547 C 44.31684 58.617937 44.134535 58.588497 43.951172 58.591797 z M 38.636719 60.222656 C 37.174792 60.203641 35.663135 60.965673 34.830078 62.269531 C 33.709674 64.017664 34.240386 66.093011 36.017578 66.904297 C 37.823745 67.725246 40.229207 66.943016 41.349609 65.15625 C 42.450697 63.350169 41.870514 61.294028 40.054688 60.511719 C 39.605559 60.323384 39.124028 60.228956 38.636719 60.222656 z " fill="#e6162d" /></svg>