<?xml version="1.0" encoding="UTF-8" standalone="no"?>
<!-- Created with Inkscape (http://www.inkscape.org/) -->

<svg
   xmlns:dc="http://purl.org/dc/elements/1.1/"
   xmlns:cc="http://creativecommons.org/ns#"
   xmlns:rdf="http://www.w3.org/1999/02/22-rdf-syntax-ns#"
   xmlns:svg="http://www.w3.org/2000/svg"
   xmlns="http://www.w3.org/2000/svg"
   xmlns:sodipodi="http://sodipodi.sourceforge.net/DTD/sodipodi-0.dtd"
   xmlns:inkscape="http://www.inkscape.org/namespaces/inkscape"
   id="svg2"
   version="1.1"
   inkscape:version="0.91 r13725"
   xml:space="preserve"
   width="100"
   height="100"
   viewBox="0 0 100 100"
   sodipodi:docname="social-twitter.svg"><metadata
     id="metadata8"><rdf:RDF><cc:Work
         rdf:about=""><dc:format>image/svg+xml</dc:format><dc:type
           rdf:resource="http://purl.org/dc/dcmitype/StillImage" /><dc:title /></cc:Work></rdf:RDF></metadata><defs
     id="defs6" /><sodipodi:namedview
     pagecolor="#ffffff"
     bordercolor="#666666"
     borderopacity="1"
     objecttolerance="10"
     gridtolerance="10"
     guidetolerance="10"
     inkscape:pageopacity="0"
     inkscape:pageshadow="2"
     inkscape:window-width="1920"
     inkscape:window-height="955"
     id="namedview4"
     showgrid="true"
     inkscape:zoom="7.89"
     inkscape:cx="6.1470218"
     inkscape:cy="50"
     inkscape:window-x="0"
     inkscape:window-y="1"
     inkscape:window-maximized="1"
     inkscape:current-layer="svg2"><inkscape:grid
       type="xygrid"
       id="grid4144" /></sodipodi:namedview><path
     style="fill:#6aa9e0"
     d="M 0 0 L 0 100 L 100 100 L 100 0 L 0 0 z M 63.462891 21.556641 C 67.593405 21.556641 71.327436 23.300643 73.947266 26.091797 C 77.218499 25.44759 80.291661 24.251326 83.066406 22.605469 C 81.994099 25.959154 79.71722 28.77528 76.751953 30.552734 C 79.657038 30.20554 82.424455 29.433213 85 28.291016 C 83.074545 31.170996 80.639718 33.699818 77.833984 35.724609 C 77.861638 36.340394 77.875 36.959337 77.875 37.582031 C 77.875 56.559743 63.42936 78.443359 37.013672 78.443359 C 28.90347 78.443359 21.355615 76.066774 15 71.992188 C 16.123495 72.124777 17.266574 72.191406 18.425781 72.191406 C 25.154136 72.191406 31.346669 69.896602 36.261719 66.044922 C 29.977329 65.929015 24.673205 61.776005 22.845703 56.070312 C 23.722536 56.238037 24.623356 56.328125 25.548828 56.328125 C 26.858456 56.328125 28.126918 56.152378 29.332031 55.824219 C 22.762196 54.504984 17.810547 48.700447 17.810547 41.742188 C 17.810547 41.681502 17.811428 41.62242 17.8125 41.5625 C 19.74884 42.638146 21.96426 43.28487 24.318359 43.359375 C 20.4649 40.784082 17.929688 36.386674 17.929688 31.404297 C 17.929688 28.772157 18.636837 26.306617 19.873047 24.185547 C 26.956397 32.874157 37.538952 38.590551 49.474609 39.189453 C 49.229836 38.138386 49.101562 37.043547 49.101562 35.917969 C 49.101562 27.986989 55.531401 21.556641 63.462891 21.556641 z "
     id="rect4153" /></svg>