<?xml version="1.0" encoding="UTF-8" standalone="no"?>
<!-- Created with Inkscape (http://www.inkscape.org/) -->

<svg xmlns:dc="http://purl.org/dc/elements/1.1/" xmlns:cc="http://creativecommons.org/ns#" xmlns:rdf="http://www.w3.org/1999/02/22-rdf-syntax-ns#" xmlns:svg="http://www.w3.org/2000/svg" xmlns="http://www.w3.org/2000/svg" xmlns:sodipodi="http://sodipodi.sourceforge.net/DTD/sodipodi-0.dtd" xmlns:inkscape="http://www.inkscape.org/namespaces/inkscape" id="svg2" version="1.1" inkscape:version="0.91 r13725" xml:space="preserve" width="100" height="100" viewBox="0 0 100 100" sodipodi:docname="social-facebook.svg"><metadata id="metadata8"><rdf:RDF><cc:Work rdf:about=""><dc:format>image/svg+xml</dc:format><dc:type rdf:resource="http://purl.org/dc/dcmitype/StillImage" /><dc:title /></cc:Work></rdf:RDF></metadata><defs id="defs6"><clipPath clipPathUnits="userSpaceOnUse" id="clipPath42"><path d="M 0,500 1024,500 1024,0 0,0 0,500 Z" id="path44" inkscape:connector-curvature="0" /></clipPath><clipPath clipPathUnits="userSpaceOnUse" id="clipPath54"><path d="M 0,500 1024,500 1024,0 0,0 0,500 Z" id="path56" inkscape:connector-curvature="0" /></clipPath></defs><sodipodi:namedview pagecolor="#ffffff" bordercolor="#666666" borderopacity="1" objecttolerance="10" gridtolerance="10" guidetolerance="10" inkscape:pageopacity="0" inkscape:pageshadow="2" inkscape:window-width="1440" inkscape:window-height="790" id="namedview4" showgrid="true" inkscape:zoom="7.89" inkscape:cx="28.073511" inkscape:cy="50" inkscape:window-x="0" inkscape:window-y="1" inkscape:window-maximized="1" inkscape:current-layer="svg2" inkscape:showpageshadow="false"><inkscape:grid type="xygrid" id="grid4211" /></sodipodi:namedview><path d="M 56.185611,89.9485 56.185611,53.504254 68.418883,53.504254 70.250361,39.301031 56.185611,39.301031 56.185611,30.232902 C 56.185611,26.120739 57.327376,23.318529 63.224512,23.318529 L 70.74579,23.315001 70.74579,10.61179 C 69.444638,10.43901 64.98018,10.052194 59.786163,10.052194 48.942193,10.052194 41.518593,16.671081 41.518593,28.826682 L 41.518593,39.301031 29.25429,39.301031 29.25429,53.504254 41.518593,53.504254 41.518593,89.9485 56.185611,89.9485 Z" fill="#3c5a99" inkscape:connector-curvature="0" /></svg>