<?xml version="1.0" encoding="UTF-8" standalone="no"?>
<svg
   xmlns:dc="http://purl.org/dc/elements/1.1/"
   xmlns:cc="http://creativecommons.org/ns#"
   xmlns:rdf="http://www.w3.org/1999/02/22-rdf-syntax-ns#"
   xmlns:svg="http://www.w3.org/2000/svg"
   xmlns="http://www.w3.org/2000/svg"
   xmlns:sodipodi="http://sodipodi.sourceforge.net/DTD/sodipodi-0.dtd"
   xmlns:inkscape="http://www.inkscape.org/namespaces/inkscape"
   version="1.1"
   id="social-weibo"
   x="0px"
   y="0px"
   viewBox="0 0 100 100"
   enable-background="new 0 0 724.7 587.1"
   xml:space="preserve"
   inkscape:version="0.91 r13725"
   sodipodi:docname="social-weibo.svg"
   width="100"
   height="100"><metadata
     id="metadata17"><rdf:RDF><cc:Work
         rdf:about=""><dc:format>image/svg+xml</dc:format><dc:type
           rdf:resource="http://purl.org/dc/dcmitype/StillImage" /><dc:title /></cc:Work></rdf:RDF></metadata><defs
     id="defs15" /><sodipodi:namedview
     pagecolor="#ffffff"
     bordercolor="#666666"
     borderopacity="1"
     objecttolerance="10"
     gridtolerance="10"
     guidetolerance="10"
     inkscape:pageopacity="0"
     inkscape:pageshadow="2"
     inkscape:window-width="1440"
     inkscape:window-height="856"
     id="namedview13"
     showgrid="true"
     inkscape:showpageshadow="false"
     inkscape:zoom="6.54"
     inkscape:cx="50"
     inkscape:cy="50"
     inkscape:window-x="-13"
     inkscape:window-y="23"
     inkscape:window-maximized="0"
     inkscape:current-layer="social-weibo"><inkscape:grid
       type="xygrid"
       id="grid4137" /></sodipodi:namedview><g
     id="g4153"
     transform="matrix(0.87499276,0,0,0.87498994,6.2500703,6.2504549)"><path
       inkscape:connector-curvature="0"
       id="path1"
       d="m 68.453125,17.595703 c -1.362721,0.02338 -2.725223,0.17728 -4.066406,0.462891 -1.655783,0.353212 -2.704796,1.988133 -2.351563,3.632812 0.353233,1.655714 1.977033,2.702831 3.632813,2.34961 5.088771,-1.081731 10.597097,0.497444 14.328125,4.636718 3.731027,4.139282 4.745118,9.779554 3.144531,14.72461 -0.518811,1.611561 0.364932,3.332767 1.976563,3.851562 1.611632,0.518785 3.334707,-0.364325 3.853515,-1.964844 l 0,-0.0098 c 2.251864,-6.94291 0.826612,-14.88017 -4.427734,-20.697231 -4.269157,-4.735335 -10.184718,-7.087645 -16.089844,-6.986328 z m 0.847656,10.882813 c -0.882911,-0.04018 -1.771339,0.03306 -2.640625,0.220703 -1.423971,0.298031 -2.32929,1.710857 -2.03125,3.134765 0.309079,1.423917 1.712064,2.330552 3.125,2.021485 1.699935,-0.364256 3.553426,0.165166 4.800782,1.544922 1.247356,1.390799 1.589717,3.277885 1.048828,4.933593 -0.44154,1.379762 0.310315,2.869705 1.701172,3.322266 1.390856,0.441524 2.869683,-0.30842 3.322265,-1.699219 1.092814,-3.38869 0.408597,-7.253056 -2.152344,-10.089843 -1.920706,-2.127592 -4.525094,-3.268117 -7.173828,-3.388672 z"
       style="fill:#ff9933" /><path
       inkscape:connector-curvature="0"
       id="path2"
       d="M 43.612373,77.653628 C 30.366119,78.967158 18.930188,72.97348 18.069181,64.286515 17.208174,55.588513 27.25325,47.48656 40.488466,46.173028 c 13.246257,-1.313523 24.682189,4.680149 25.532157,13.367113 0.872044,8.698001 -9.17303,16.810992 -22.40825,18.113487 M 70.093846,48.789054 c -1.125931,-0.342177 -1.898628,-0.562938 -1.313586,-2.042043 1.280472,-3.21208 1.412933,-5.982635 0.02206,-7.969489 -2.594059,-3.708794 -9.702883,-3.510111 -17.849327,-0.09934 0,0 -2.560944,1.114841 -1.898631,-0.905121 1.247354,-4.028905 1.059698,-7.395515 -0.883087,-9.349253 -4.415405,-4.42627 -16.171457,0.165566 -26.249648,10.243338 -7.539328,7.539001 -11.92163,15.541606 -11.92163,22.462479 0,13.22362 16.966244,21.270377 33.557178,21.270377 21.756972,0 36.228506,-12.6386 36.228506,-22.672212 0.01106,-6.07094 -5.099806,-9.514819 -9.691842,-10.938734"
       style="fill:#e6162d" /><!-- build:remove --><path
       inkscape:connector-curvature="0"
       id="path3"
       d="m 15.883549,62.156166 c 0,9.316137 12.13136,16.866181 27.088591,16.866181 14.957229,0 27.088592,-7.550044 27.088592,-16.866181 0,-9.316136 -12.131363,-16.86618 -27.088592,-16.86618 -14.957231,0 -27.088591,7.550044 -27.088591,16.86618"
       style="fill:#ffffff" /><!-- endbuild --><path
       inkscape:connector-curvature="0"
       id="path4"
       d="m 44.340918,61.913332 c -0.463617,0.794737 -1.490202,1.170029 -2.284976,0.838889 -0.794777,-0.320103 -1.037624,-1.214189 -0.585045,-1.986853 0.463619,-0.772666 1.446051,-1.147958 2.229787,-0.83889 0.794774,0.286987 1.081778,1.181072 0.640234,1.986854 m -4.227762,5.408653 c -1.280471,2.042042 -4.029069,2.936128 -6.093277,1.99789 -2.031093,-0.927195 -2.638213,-3.300385 -1.357741,-5.298275 1.269432,-1.986854 3.918684,-2.869897 5.971853,-2.008927 2.075247,0.894078 2.737561,3.245196 1.479165,5.309312 m 4.812806,-14.459882 c -6.30301,-1.64467 -13.422872,1.501185 -16.160431,7.05333 -2.792752,5.662539 -0.08831,11.954242 6.269894,14.007321 6.601051,2.130348 14.372188,-1.136921 17.07663,-7.240977 2.671329,-5.982635 -0.662312,-12.130844 -7.186093,-13.819674" /></g></svg>