<?xml version="1.0" encoding="UTF-8" standalone="no"?>
<svg
   xmlns:dc="http://purl.org/dc/elements/1.1/"
   xmlns:cc="http://creativecommons.org/ns#"
   xmlns:rdf="http://www.w3.org/1999/02/22-rdf-syntax-ns#"
   xmlns:svg="http://www.w3.org/2000/svg"
   xmlns="http://www.w3.org/2000/svg"
   xmlns:sodipodi="http://sodipodi.sourceforge.net/DTD/sodipodi-0.dtd"
   xmlns:inkscape="http://www.inkscape.org/namespaces/inkscape"
   width="100"
   height="100"
   viewBox="0 0 100 100"
   id="svg2"
   version="1.1"
   inkscape:version="0.91 r13725"
   sodipodi:docname="social-email-bg.svg">
  <metadata
     id="metadata10">
    <rdf:RDF>
      <cc:Work
         rdf:about="">
        <dc:format>image/svg+xml</dc:format>
        <dc:type
           rdf:resource="http://purl.org/dc/dcmitype/StillImage" />
        <dc:title></dc:title>
      </cc:Work>
    </rdf:RDF>
  </metadata>
  <defs
     id="defs8" />
  <sodipodi:namedview
     pagecolor="#ffffff"
     bordercolor="#666666"
     borderopacity="1"
     objecttolerance="10"
     gridtolerance="10"
     guidetolerance="10"
     inkscape:pageopacity="0"
     inkscape:pageshadow="2"
     inkscape:window-width="1920"
     inkscape:window-height="955"
     id="namedview6"
     showgrid="true"
     inkscape:zoom="7.89"
     inkscape:cx="50"
     inkscape:cy="50"
     inkscape:window-x="0"
     inkscape:window-y="1"
     inkscape:window-maximized="1"
     inkscape:current-layer="svg2">
    <inkscape:grid
       type="xygrid"
       id="grid4138" />
  </sodipodi:namedview>
  <path
     d="M 87.842857,0 C 91.209184,0 94.076531,1.1846939 96.446939,3.5540816 98.815306,5.9234694 100,8.7908163 100,12.157143 L 100,87.842857 C 100,91.209184 98.815306,94.069388 96.446939,96.437755 94.077551,98.807143 91.209184,100 87.842857,100 L 12.157143,100 C 8.7918367,100 5.9234694,98.807143 3.5540816,96.437755 1.1846939,94.069388 0,91.209184 0,87.842857 L 0,12.157143 C 0,8.7918367 1.1846939,5.9234694 3.5540816,3.5540816 5.9234694,1.1846939 8.7908163,0 12.157143,0 L 87.842857,0 Z M 80.04898,72.255102 80.04898,35.783673 50,60.637755 19.95102,35.735714 19.95102,72.255102 80.04898,72.255102 Z M 80,27.744898 20.097959,27.744898 50,52.54898 80,27.744898 Z"
     id="path4"
     inkscape:connector-curvature="0"
     style="fill:#000000;fill-opacity:1" />
</svg>
