<?xml version="1.0" encoding="UTF-8" standalone="no"?>
<svg
   xmlns:dc="http://purl.org/dc/elements/1.1/"
   xmlns:cc="http://creativecommons.org/ns#"
   xmlns:rdf="http://www.w3.org/1999/02/22-rdf-syntax-ns#"
   xmlns:svg="http://www.w3.org/2000/svg"
   xmlns="http://www.w3.org/2000/svg"
   xmlns:sodipodi="http://sodipodi.sourceforge.net/DTD/sodipodi-0.dtd"
   xmlns:inkscape="http://www.inkscape.org/namespaces/inkscape"
   version="1.1"
   x="0px"
   y="0px"
   width="100"
   height="100"
   viewBox="0 0 100 100"
   id="social-wechat-bg"
   inkscape:version="0.91 r13725"
   sodipodi:docname="social-wechat.svg">
  <defs
     id="defs10" />
  <metadata
     id="metadata11">
    <rdf:RDF>
      <cc:Work
         rdf:about="">
        <dc:format>image/svg+xml</dc:format>
        <dc:type
           rdf:resource="http://purl.org/dc/dcmitype/StillImage" />
        <dc:title />
      </cc:Work>
    </rdf:RDF>
  </metadata>
  <sodipodi:namedview
     pagecolor="#ffffff"
     bordercolor="#666666"
     borderopacity="1"
     objecttolerance="10000"
     gridtolerance="10000"
     guidetolerance="10000"
     inkscape:pageopacity="0"
     inkscape:pageshadow="2"
     inkscape:window-width="1920"
     inkscape:window-height="955"
     id="namedview9"
     showgrid="true"
     inkscape:showpageshadow="false"
     inkscape:zoom="3.945"
     inkscape:cx="31.65868"
     inkscape:cy="50"
     inkscape:window-x="39"
     inkscape:window-y="0"
     inkscape:window-maximized="0"
     inkscape:current-layer="social-wechat-bg">
    <inkscape:grid
       type="xygrid"
       id="grid4139" />
  </sodipodi:namedview>
  <circle cx="50" cy="50" r="50" fill="#3cb034" />
  <path
     d="M 35.269439,21.418921 C 14.608896,25.12368 7.7226319,48.561479 24.156911,59.288999 25.058169,59.870871 25.058169,59.807 23.705411,63.856509 L 22.546039,67.325011 26.70842,65.08501 30.8708,62.845001 33.079309,63.38313 C 35.39631,63.96413 38.357319,64.37363 40.330449,64.37363 L 41.5117,64.37363 41.103949,62.801251 C 37.865569,50.82248 49.06384,38.953959 63.632619,38.953959 L 65.605746,38.953959 65.197991,37.53208 C 61.999861,26.309309 48.505589,19.05117 35.26856,21.419799 Z M 33.46693,31.910191 C 35.654439,33.395949 35.783939,36.606329 33.681309,37.984456 30.27055,40.22446 26.280541,36.282579 28.575671,32.92257 29.583671,31.414069 32.008301,30.918819 33.46693,31.90932 Z M 51.059719,31.910191 C 54.664721,34.34445 51.96097,39.966331 47.92721,38.41583 45.01083,37.29583 44.666951,33.268199 47.39171,31.824441 48.46446,31.242569 50.137463,31.286319 51.06059,31.910191 Z M 59.019609,40.785339 C 48.78646,42.65784 41.685821,50.45673 42.0927,59.418499 42.629075,71.417399 56.638729,79.688789 70.09013,75.98403 L 71.676509,75.552651 75.02339,77.362159 C 76.86964,78.37541 78.413146,79.107789 78.45602,79.02116 78.49977,78.913538 78.13577,77.62116 77.66327,76.133654 76.590519,72.8174 76.569519,73.05365 78.007141,72.021149 94.1833,60.366121 79.980271,36.971201 59.019609,40.783589 Z M 58.61273,50.45673 C 59.513981,51.06048 59.986481,52.56811 59.59886,53.666239 58.783359,56.015619 55.2851,56.18799 54.34185,53.92611 53.269099,51.318609 56.2301,48.906229 58.611859,50.457602 Z M 72.94351,50.714856 C 74.35926,52.07111 74.12476,54.37761 72.47101,55.238611 69.93963,56.53099 67.279621,53.946239 68.588629,51.469109 69.44613,49.874851 71.65638,49.48723 72.94351,50.714856 Z M 53.790599,73.98815"
     id="path8"
     inkscape:connector-curvature="0"
     fill="#ffffff" />
</svg>
