<?xml version="1.0" encoding="UTF-8" standalone="no"?>
<!-- Created with Inkscape (http://www.inkscape.org/) -->

<svg
   xmlns:dc="http://purl.org/dc/elements/1.1/"
   xmlns:cc="http://creativecommons.org/ns#"
   xmlns:rdf="http://www.w3.org/1999/02/22-rdf-syntax-ns#"
   xmlns:svg="http://www.w3.org/2000/svg"
   xmlns="http://www.w3.org/2000/svg"
   xmlns:sodipodi="http://sodipodi.sourceforge.net/DTD/sodipodi-0.dtd"
   xmlns:inkscape="http://www.inkscape.org/namespaces/inkscape"
   id="svg2"
   version="1.1"
   inkscape:version="0.91 r13725"
   xml:space="preserve"
   width="100"
   height="100"
   viewBox="0 0 100 100"
   sodipodi:docname="social-facebook-bg.svg"><metadata
     id="metadata8"><rdf:RDF><cc:Work
         rdf:about=""><dc:format>image/svg+xml</dc:format><dc:type
           rdf:resource="http://purl.org/dc/dcmitype/StillImage" /><dc:title /></cc:Work></rdf:RDF></metadata><defs
     id="defs6"><clipPath
       clipPathUnits="userSpaceOnUse"
       id="clipPath42"><path
         d="M 0,500 1024,500 1024,0 0,0 0,500 Z"
         id="path44"
         inkscape:connector-curvature="0" /></clipPath><clipPath
       clipPathUnits="userSpaceOnUse"
       id="clipPath54"><path
         d="M 0,500 1024,500 1024,0 0,0 0,500 Z"
         id="path56"
         inkscape:connector-curvature="0" /></clipPath></defs><sodipodi:namedview
     pagecolor="#ffffff"
     bordercolor="#666666"
     borderopacity="1"
     objecttolerance="10"
     gridtolerance="10"
     guidetolerance="10"
     inkscape:pageopacity="0"
     inkscape:pageshadow="2"
     inkscape:window-width="1920"
     inkscape:window-height="955"
     id="namedview4"
     showgrid="true"
     inkscape:zoom="7.89"
     inkscape:cx="28.073511"
     inkscape:cy="50"
     inkscape:window-x="0"
     inkscape:window-y="1"
     inkscape:window-maximized="1"
     inkscape:current-layer="svg2"
     inkscape:showpageshadow="false"><inkscape:grid
       type="xygrid"
       id="grid4211" /></sodipodi:namedview><path
     style="fill:#3c5a99;fill-opacity:1"
     d="M 10 0 C 4.46 0 0 4.46 0 10 L 0 90 C 0 95.54 4.46 100 10 100 L 53.414062 100 L 53.414062 61.275391 L 40.380859 61.275391 L 40.380859 46.183594 L 53.414062 46.183594 L 53.414062 35.052734 C 53.414062 22.136418 61.301624 15.103516 72.824219 15.103516 C 78.343286 15.103516 83.086173 15.515626 84.46875 15.699219 L 84.46875 29.197266 L 76.478516 29.201172 C 70.212335 29.201172 68.998047 32.177367 68.998047 36.546875 L 68.998047 46.183594 L 83.943359 46.183594 L 81.996094 61.275391 L 68.998047 61.275391 L 68.998047 100 L 90 100 C 95.54 100 100 95.54 100 90 L 100 10 C 100 4.46 95.54 0 90 0 L 10 0 z "
     id="rect11" /></svg>