<?xml version="1.0" encoding="UTF-8" standalone="no"?>
<!-- Created with Inkscape (http://www.inkscape.org/) -->

<svg
   xmlns:dc="http://purl.org/dc/elements/1.1/"
   xmlns:cc="http://creativecommons.org/ns#"
   xmlns:rdf="http://www.w3.org/1999/02/22-rdf-syntax-ns#"
   xmlns:svg="http://www.w3.org/2000/svg"
   xmlns="http://www.w3.org/2000/svg"
   xmlns:sodipodi="http://sodipodi.sourceforge.net/DTD/sodipodi-0.dtd"
   xmlns:inkscape="http://www.inkscape.org/namespaces/inkscape"
   id="svg2"
   version="1.1"
   inkscape:version="0.91 r13725"
   xml:space="preserve"
   width="100"
   height="100"
   viewBox="0 0 100 100"
   sodipodi:docname="social-twitter.svg"><metadata
     id="metadata8"><rdf:RDF><cc:Work
         rdf:about=""><dc:format>image/svg+xml</dc:format><dc:type
           rdf:resource="http://purl.org/dc/dcmitype/StillImage" /><dc:title /></cc:Work></rdf:RDF></metadata><defs
     id="defs6" /><sodipodi:namedview
     pagecolor="#ffffff"
     bordercolor="#666666"
     borderopacity="1"
     objecttolerance="10"
     gridtolerance="10"
     guidetolerance="10"
     inkscape:pageopacity="0"
     inkscape:pageshadow="2"
     inkscape:window-width="1440"
     inkscape:window-height="790"
     id="namedview4"
     showgrid="true"
     inkscape:zoom="7.89"
     inkscape:cx="28.073511"
     inkscape:cy="44.930292"
     inkscape:window-x="0"
     inkscape:window-y="1"
     inkscape:window-maximized="1"
     inkscape:current-layer="svg2"><inkscape:grid
       type="xygrid"
       id="grid4144" /></sodipodi:namedview><path
     d="m 85,28.29061 c -2.575545,1.142204 -5.343397,1.914182 -8.248478,2.261377 2.965262,-1.777457 5.242261,-4.591894 6.31457,-7.945575 -2.774747,1.645857 -5.848307,2.84108 -9.119537,3.485288 -2.619838,-2.791149 -6.352206,-4.535319 -10.482719,-4.535319 -7.931491,0 -14.361783,6.430041 -14.361783,14.36102 0,1.125576 0.127254,2.221703 0.372029,3.272766 C 37.53842,38.591273 26.956383,32.8738 19.873033,24.18519 c -1.236209,2.12107 -1.944219,4.5878 -1.944219,7.21994 0,4.982374 2.535327,9.378143 6.388792,11.953436 -2.3541,-0.0745 -4.568493,-0.720509 -6.504833,-1.796155 -0.0012,0.05993 -0.0014,0.11984 -0.0014,0.180521 0,6.958264 4.95036,12.762743 11.520187,14.081979 -1.20511,0.328154 -2.47393,0.503587 -3.783553,0.503587 -0.925474,0 -1.825111,-0.08981 -2.701952,-0.257547 1.827508,5.705696 7.131122,9.857707 13.41552,9.973615 -4.915054,3.851677 -11.107439,6.14768 -17.835796,6.14768 -1.159211,0 -2.302409,-0.06782 -3.425904,-0.200422 6.355615,4.074592 13.904415,6.452008 22.014623,6.452008 26.415685,0 40.860681,-21.883408 40.860681,-40.861118 0,-0.622697 -0.01382,-1.242073 -0.04147,-1.857859 C 80.639564,33.700061 83.074545,31.170593 85,28.29061"
     style="fill:#6aa9e0"
     id="path14"
     inkscape:connector-curvature="0" /></svg>