<?xml version="1.0" encoding="UTF-8" standalone="no"?>
<svg
   xmlns:dc="http://purl.org/dc/elements/1.1/"
   xmlns:cc="http://creativecommons.org/ns#"
   xmlns:rdf="http://www.w3.org/1999/02/22-rdf-syntax-ns#"
   xmlns:svg="http://www.w3.org/2000/svg"
   xmlns="http://www.w3.org/2000/svg"
   xmlns:sodipodi="http://sodipodi.sourceforge.net/DTD/sodipodi-0.dtd"
   xmlns:inkscape="http://www.inkscape.org/namespaces/inkscape"
   width="100"
   height="100"
   viewBox="0 0 100 100"
   id="social-linkedin"
   version="1.1"
   inkscape:version="0.91 r13725"
   sodipodi:docname="social-linkedin.svg">
  <defs
     id="defs4" />
  <sodipodi:namedview
     id="base"
     pagecolor="#ffffff"
     bordercolor="#666666"
     borderopacity="1.0"
     inkscape:pageopacity="0.0"
     inkscape:pageshadow="2"
     inkscape:zoom="5.88"
     inkscape:cx="50"
     inkscape:cy="50"
     inkscape:document-units="px"
     inkscape:current-layer="social-linkedin"
     showgrid="true"
     units="px"
     inkscape:showpageshadow="false"
     inkscape:window-width="1440"
     inkscape:window-height="790"
     inkscape:window-x="0"
     inkscape:window-y="1"
     inkscape:window-maximized="1">
    <inkscape:grid
       type="xygrid"
       id="grid4138" />
  </sodipodi:namedview>
  <metadata
     id="metadata7">
    <rdf:RDF>
      <cc:Work
         rdf:about="">
        <dc:format>image/svg+xml</dc:format>
        <dc:type
           rdf:resource="http://purl.org/dc/dcmitype/StillImage" />
        <dc:title />
      </cc:Work>
    </rdf:RDF>
  </metadata>

  <path
     d="M 27.211145,20 C 23.22543,20 20,23.23743 20,27.22057 c 0,3.98743 3.22628,7.22315 7.211145,7.22315 3.975425,0 7.206855,-3.234865 7.206855,-7.22229 0,-3.98315 -3.23143,-7.220575 -7.206,-7.220575 z M 65.084,38.92572 c -6.048855,0 -10.10572,3.32228 -11.766855,6.473135 l -0.16629,0 0,-5.477135 -11.926285,0 0,40.07828 12.42515,0 0,-19.82572 c 0,-5.22685 0.99256,-10.289135 7.46228,-10.289135 6.377145,0 6.462855,5.976855 6.462855,10.624285 L 67.574855,80 80,80 80,58.016 C 80,47.22628 77.677145,38.924855 65.084,38.924855 Z m -44.093145,0.99685 0,40.07743 12.434575,0 0,-40.07743 -12.434575,0 z"
     inkscape:connector-curvature="0"
     fill="#0977b6" />
</svg>
