<?xml version="1.0" encoding="UTF-8" standalone="no"?>
<!-- Created with Inkscape (http://www.inkscape.org/) -->

<svg
   xmlns:dc="http://purl.org/dc/elements/1.1/"
   xmlns:cc="http://creativecommons.org/ns#"
   xmlns:rdf="http://www.w3.org/1999/02/22-rdf-syntax-ns#"
   xmlns:svg="http://www.w3.org/2000/svg"
   xmlns="http://www.w3.org/2000/svg"
   xmlns:sodipodi="http://sodipodi.sourceforge.net/DTD/sodipodi-0.dtd"
   xmlns:inkscape="http://www.inkscape.org/namespaces/inkscape"
   id="svg2"
   version="1.1"
   inkscape:version="0.91 r13725"
   xml:space="preserve"
   width="100"
   height="100"
   viewBox="0 0 100 100"
   sodipodi:docname="social-twitter.svg"><metadata
     id="metadata8"><rdf:RDF><cc:Work
         rdf:about=""><dc:format>image/svg+xml</dc:format><dc:type
           rdf:resource="http://purl.org/dc/dcmitype/StillImage" /><dc:title></dc:title></cc:Work></rdf:RDF></metadata><defs
     id="defs6" /><sodipodi:namedview
     pagecolor="#ffffff"
     bordercolor="#666666"
     borderopacity="1"
     objecttolerance="10"
     gridtolerance="10"
     guidetolerance="10"
     inkscape:pageopacity="0"
     inkscape:pageshadow="2"
     inkscape:window-width="1920"
     inkscape:window-height="955"
     id="namedview4"
     showgrid="true"
     inkscape:zoom="7.89"
     inkscape:cx="50"
     inkscape:cy="44.930292"
     inkscape:window-x="0"
     inkscape:window-y="1"
     inkscape:window-maximized="1"
     inkscape:current-layer="svg2"><inkscape:grid
       type="xygrid"
       id="grid4144" /></sodipodi:namedview><path
     d="M 90,25.189254 C 87.05652,26.494631 83.893263,27.376891 80.573168,27.773685 83.962039,25.742306 86.564323,22.525806 87.78982,18.693029 84.61868,20.574008 81.10604,21.939978 77.367492,22.676215 74.373392,19.486331 70.107829,17.492993 65.387242,17.492993 56.322682,17.492993 48.973777,24.841611 48.973777,33.905586 48.973777,35.191959 49.119209,36.444675 49.398952,37.645892 35.758198,36.96144 23.66444,30.427186 15.569185,20.497346 14.156375,22.921426 13.34722,25.740546 13.34722,28.748706 13.34722,34.442848 16.244737,39.466583 20.648696,42.409776 17.958297,42.324626 15.42756,41.586337 13.2146,40.357026 13.213373,40.425506 13.21314,40.493986 13.21314,40.563337 13.21314,48.515636 18.870693,55.149326 26.379068,56.657026 25.0018,57.03206 23.55172,57.232553 22.055007,57.232553 20.997323,57.232553 19.969166,57.129906 18.967063,56.938216 21.055643,63.459009 27.116916,68.204164 34.299084,68.336631 28.68188,72.738547 21.60487,75.36255 13.915319,75.36255 12.590508,75.36255 11.283995,75.285037 10,75.133497 17.26356,79.790174 25.89076,82.50722 35.159567,82.50722 65.34892,82.50722 81.857487,57.497613 81.857487,35.808801 81.857487,35.097147 81.841694,34.38929 81.81009,33.685535 85.016644,31.371484 87.79948,28.480664 90,25.189254"
     style="fill:#6aa9e0;fill-opacity:1;fill-rule:nonzero;stroke:none"
     id="path14"
     inkscape:connector-curvature="0" /></svg>