<?xml version="1.0" encoding="UTF-8" standalone="no"?>
<svg
   xmlns:dc="http://purl.org/dc/elements/1.1/"
   xmlns:cc="http://creativecommons.org/ns#"
   xmlns:rdf="http://www.w3.org/1999/02/22-rdf-syntax-ns#"
   xmlns:svg="http://www.w3.org/2000/svg"
   xmlns="http://www.w3.org/2000/svg"
   xmlns:sodipodi="http://sodipodi.sourceforge.net/DTD/sodipodi-0.dtd"
   xmlns:inkscape="http://www.inkscape.org/namespaces/inkscape"
   version="1.1"
   id="social-weibo"
   x="0px"
   y="0px"
   viewBox="0 0 100 100"
   enable-background="new 0 0 724.7 587.1"
   xml:space="preserve"
   inkscape:version="0.91 r13725"
   sodipodi:docname="social-weibo.svg"
   width="100"
   height="100"><metadata
     id="metadata17"><rdf:RDF><cc:Work
         rdf:about=""><dc:format>image/svg+xml</dc:format><dc:type
           rdf:resource="http://purl.org/dc/dcmitype/StillImage" /><dc:title /></cc:Work></rdf:RDF></metadata><defs
     id="defs15" /><sodipodi:namedview
     pagecolor="#ffffff"
     bordercolor="#666666"
     borderopacity="1"
     objecttolerance="10"
     gridtolerance="10"
     guidetolerance="10"
     inkscape:pageopacity="0"
     inkscape:pageshadow="2"
     inkscape:window-width="1440"
     inkscape:window-height="856"
     id="namedview13"
     showgrid="true"
     inkscape:showpageshadow="false"
     inkscape:zoom="6.54"
     inkscape:cx="50"
     inkscape:cy="50"
     inkscape:window-x="6"
     inkscape:window-y="0"
     inkscape:window-maximized="0"
     inkscape:current-layer="social-weibo"><inkscape:grid
       type="xygrid"
       id="grid4137" /></sodipodi:namedview>
<path
     fill="#e6162d"
     d="m 66.146484,21.646484 c -1.192371,0.02046 -2.385067,0.15439 -3.558593,0.404297 -1.448798,0.309057 -2.365718,1.74061 -2.056641,3.179688 0.309076,1.448733 1.728938,2.363752 3.177734,2.054687 4.452638,-0.946504 9.272488,0.436771 12.53711,4.058594 3.264622,3.62183 4.152455,8.555938 2.751953,12.882812 -0.453956,1.4101 0.318349,2.917154 1.728515,3.371094 1.410167,0.453932 2.919094,-0.320265 3.373047,-1.720703 l 0,-0.0078 c 1.970365,-6.074977 0.722515,-13.019505 -3.875,-18.109375 -3.735481,-4.143371 -8.911182,-6.201933 -14.078125,-6.113282 z M 44.421875,29.648438 C 39.485556,29.557891 32.045399,33.470523 25.431641,40.083984 18.834784,46.680534 15,53.682587 15,59.738281 c 0,11.570534 14.844381,18.611328 29.361328,18.611328 19.037193,0 31.701172,-11.05858 31.701172,-19.83789 0.0097,-5.312011 -4.462471,-8.326355 -8.480469,-9.572266 -0.985181,-0.299401 -1.662298,-0.490954 -1.15039,-1.785156 1.120404,-2.810537 1.236537,-5.236132 0.01953,-6.974609 -2.269783,-3.24516 -8.489108,-3.07033 -15.617188,-0.08594 0,0 -2.241628,0.974478 -1.662109,-0.792969 1.091426,-3.525251 0.928439,-6.470186 -0.771484,-8.179687 -0.965862,-0.968236 -2.333076,-1.442476 -3.978516,-1.472656 z m 22.466797,1.519531 c -0.772541,-0.03516 -1.549928,0.02918 -2.310547,0.193359 -1.245964,0.260774 -2.038127,1.498235 -1.777344,2.744141 0.270442,1.245913 1.498066,2.038008 2.734375,1.767578 1.48743,-0.318721 3.107792,0.144289 4.199219,1.351562 1.091427,1.216935 1.391243,2.869632 0.917969,4.31836 -0.386344,1.207278 0.271291,2.510264 1.488281,2.90625 1.216989,0.38633 2.512197,-0.269393 2.908203,-1.486328 0.956204,-2.96507 0.356039,-6.345965 -1.884766,-8.828125 -1.680603,-1.861622 -3.957767,-2.861313 -6.27539,-2.966797 z M 43.849609,45.878906 c 13.087467,0 23.703125,6.606288 23.703125,14.757813 0,8.151526 -10.615658,14.757812 -23.703125,14.757812 -13.087469,0 -23.701171,-6.606286 -23.701171,-14.757812 0,-8.151525 10.613702,-14.757813 23.701171,-14.757813 z m -1.4375,6.244141 c -4.568835,0.04831 -9.04597,2.605552 -10.992187,6.552734 -2.443638,4.954665 -0.07705,10.459437 5.486328,12.25586 5.775871,1.864033 12.575039,-0.99495 14.941406,-6.335938 2.337394,-5.234745 -0.578848,-10.614088 -6.287109,-12.091797 -1.034079,-0.269825 -2.094091,-0.392008 -3.148438,-0.380859 z m 1.539063,6.46875 c 0.183363,-0.0033 0.365668,0.02614 0.537109,0.09375 0.695422,0.251111 0.946894,1.033229 0.560547,1.738281 -0.405662,0.695386 -1.304578,1.024119 -2,0.734375 -0.695424,-0.280087 -0.907722,-1.062208 -0.511719,-1.738281 0.304248,-0.507056 0.863973,-0.818166 1.414063,-0.828125 z m -5.314453,1.630859 c 0.487309,0.0063 0.96884,0.100728 1.417969,0.289063 1.815826,0.782309 2.396009,2.83845 1.294921,4.644531 -1.120402,1.786766 -3.525864,2.568996 -5.332031,1.748047 -1.777192,-0.811286 -2.307904,-2.886633 -1.1875,-4.634766 0.833057,-1.303858 2.344714,-2.06589 3.806641,-2.046875 z"
     inkscape:connector-curvature="0" /></svg>