<?xml version="1.0" encoding="UTF-8" standalone="no"?>
<svg
   xmlns:dc="http://purl.org/dc/elements/1.1/"
   xmlns:cc="http://creativecommons.org/ns#"
   xmlns:rdf="http://www.w3.org/1999/02/22-rdf-syntax-ns#"
   xmlns:svg="http://www.w3.org/2000/svg"
   xmlns="http://www.w3.org/2000/svg"
   xmlns:sodipodi="http://sodipodi.sourceforge.net/DTD/sodipodi-0.dtd"
   xmlns:inkscape="http://www.inkscape.org/namespaces/inkscape"
   width="100"
   height="100"
   viewBox="0 0 100 100"
   id="social-linkedin-bg"
   version="1.1"
   inkscape:version="0.91 r13725"
   sodipodi:docname="social-linkedin-reverse.svg">
  <defs
     id="defs4" />
  <sodipodi:namedview
     id="base"
     pagecolor="#ffffff"
     bordercolor="#666666"
     borderopacity="1.0"
     inkscape:pageopacity="0.0"
     inkscape:pageshadow="2"
     inkscape:zoom="7.89"
     inkscape:cx="31.622307"
     inkscape:cy="50"
     inkscape:document-units="px"
     inkscape:current-layer="layer1"
     showgrid="true"
     units="px"
     inkscape:showpageshadow="false"
     inkscape:window-width="1920"
     inkscape:window-height="955"
     inkscape:window-x="0"
     inkscape:window-y="1"
     inkscape:window-maximized="1">
    <inkscape:grid
       type="xygrid"
       id="grid4138" />
  </sodipodi:namedview>
  <metadata
     id="metadata7">
    <rdf:RDF>
      <cc:Work
         rdf:about="">
        <dc:format>image/svg+xml</dc:format>
        <dc:type
           rdf:resource="http://purl.org/dc/dcmitype/StillImage" />
        <dc:title />
      </cc:Work>
    </rdf:RDF>
  </metadata>
  <rect x="0" y="0" rx="10" ry="10" width="100%" height="100%" fill="#0977b6" />
  <path d="M23.413 15C18.763 15 15 18.777 15 23.424c0 4.652 3.764 8.427 8.413 8.427 4.638 0 8.408-3.774 8.408-8.426 0-4.647-3.77-8.424-8.407-8.424zm44.185 22.08c-7.057 0-11.79 3.876-13.728 7.552h-.194v-6.39H39.762V85h14.496V61.87c0-6.098 1.158-12.004 8.706-12.004 7.44 0 7.54 6.973 7.54 12.395V85H85V59.352c0-12.588-2.71-22.273-17.402-22.273zm-51.442 1.163V85h14.507V38.243H16.156z" fill="#fff"/>
</svg>
