<?xml version="1.0" encoding="UTF-8" standalone="no"?>
<!-- Created with Inkscape (http://www.inkscape.org/) -->

<svg
   xmlns:dc="http://purl.org/dc/elements/1.1/"
   xmlns:cc="http://creativecommons.org/ns#"
   xmlns:rdf="http://www.w3.org/1999/02/22-rdf-syntax-ns#"
   xmlns:svg="http://www.w3.org/2000/svg"
   xmlns="http://www.w3.org/2000/svg"
   xmlns:sodipodi="http://sodipodi.sourceforge.net/DTD/sodipodi-0.dtd"
   xmlns:inkscape="http://www.inkscape.org/namespaces/inkscape"
   id="svg2"
   version="1.1"
   inkscape:version="0.91 r13725"
   xml:space="preserve"
   width="100"
   height="100"
   viewBox="0 0 100 100"
   sodipodi:docname="social-facebook-alt.svg"><metadata
     id="metadata8"><rdf:RDF><cc:Work
         rdf:about=""><dc:format>image/svg+xml</dc:format><dc:type
           rdf:resource="http://purl.org/dc/dcmitype/StillImage" /><dc:title></dc:title></cc:Work></rdf:RDF></metadata><defs
     id="defs6"><clipPath
       clipPathUnits="userSpaceOnUse"
       id="clipPath42"><path
         d="M 0,500 1024,500 1024,0 0,0 0,500 Z"
         id="path44"
         inkscape:connector-curvature="0" /></clipPath><clipPath
       clipPathUnits="userSpaceOnUse"
       id="clipPath54"><path
         d="M 0,500 1024,500 1024,0 0,0 0,500 Z"
         id="path56"
         inkscape:connector-curvature="0" /></clipPath></defs><sodipodi:namedview
     pagecolor="#ffffff"
     bordercolor="#666666"
     borderopacity="1"
     objecttolerance="10"
     gridtolerance="10"
     guidetolerance="10"
     inkscape:pageopacity="0"
     inkscape:pageshadow="2"
     inkscape:window-width="1920"
     inkscape:window-height="955"
     id="namedview4"
     showgrid="true"
     inkscape:zoom="7.89"
     inkscape:cx="28.073511"
     inkscape:cy="50"
     inkscape:window-x="0"
     inkscape:window-y="1"
     inkscape:window-maximized="1"
     inkscape:current-layer="svg2"
     inkscape:showpageshadow="false"><inkscape:grid
       type="xygrid"
       id="grid4211" /></sodipodi:namedview><rect
     x="0"
     y="0"
     width="100"
     height="100"
     id="rect11"
     style="fill:none;fill-opacity:0" /><path
     d="M 56.998175,100 56.998175,61.275034 69.997017,61.275034 71.943115,46.182956 56.998175,46.182956 56.998175,36.547332 C 56.998175,32.177824 58.211395,29.200249 64.477576,29.200249 L 72.469544,29.196501 72.469544,15.69831 C 71.086967,15.514717 66.343119,15.103694 60.824052,15.103694 49.301457,15.103694 41.413277,22.136796 41.413277,35.053112 L 41.413277,46.182956 28.381464,46.182956 28.381464,61.275034 41.413277,61.275034 41.413277,100 56.998175,100 Z"
     style="fill:#3c5a99"
     id="path64"
     inkscape:connector-curvature="0" /></svg>