<?xml version="1.0" encoding="UTF-8" standalone="no"?>
<svg
   xmlns:dc="http://purl.org/dc/elements/1.1/"
   xmlns:cc="http://creativecommons.org/ns#"
   xmlns:rdf="http://www.w3.org/1999/02/22-rdf-syntax-ns#"
   xmlns:svg="http://www.w3.org/2000/svg"
   xmlns="http://www.w3.org/2000/svg"
   xmlns:sodipodi="http://sodipodi.sourceforge.net/DTD/sodipodi-0.dtd"
   xmlns:inkscape="http://www.inkscape.org/namespaces/inkscape"
   version="1.1"
   id="social-weibo-bg"
   x="0px"
   y="0px"
   viewBox="0 0 100 100"
   enable-background="new 0 0 724.7 587.1"
   xml:space="preserve"
   inkscape:version="0.91 r13725"
   sodipodi:docname="social-weibo-bg.svg"
   width="100"
   height="100"><metadata
     id="metadata17"><rdf:RDF><cc:Work
         rdf:about=""><dc:format>image/svg+xml</dc:format><dc:type
           rdf:resource="http://purl.org/dc/dcmitype/StillImage" /><dc:title /></cc:Work></rdf:RDF></metadata><defs
     id="defs15" /><sodipodi:namedview
     pagecolor="#ffffff"
     bordercolor="#666666"
     borderopacity="1"
     objecttolerance="10"
     gridtolerance="10"
     guidetolerance="10"
     inkscape:pageopacity="0"
     inkscape:pageshadow="2"
     inkscape:window-width="1920"
     inkscape:window-height="955"
     id="namedview13"
     showgrid="true"
     inkscape:showpageshadow="false"
     inkscape:zoom="5.5790725"
     inkscape:cx="-16.397374"
     inkscape:cy="50.723881"
     inkscape:window-x="25"
     inkscape:window-y="73"
     inkscape:window-maximized="0"
     inkscape:current-layer="social-weibo-bg"><inkscape:grid
       type="xygrid"
       id="grid4137" /></sodipodi:namedview><path
     style="fill:#e6162d;fill-opacity:1"
     d="M 10 0 C 4.46 0 0 4.46 0 10 L 0 90 C 0 95.54 4.46 100 10 100 L 90 100 C 95.54 100 100 95.54 100 90 L 100 10 C 100 4.46 95.54 0 90 0 L 10 0 z M 66.146484 21.646484 C 71.313476 21.557832 76.489093 23.61439 80.224609 27.757812 C 84.822167 32.847747 86.069993 39.794057 84.099609 45.869141 L 84.099609 45.876953 C 83.645652 47.277409 82.138695 48.051594 80.728516 47.597656 C 79.318337 47.14371 78.544087 45.63668 78.998047 44.226562 C 80.398562 39.899634 79.510746 34.963673 76.246094 31.341797 C 72.981441 27.719928 68.161664 26.338641 63.708984 27.285156 C 62.260175 27.594225 60.840329 26.677267 60.53125 25.228516 C 60.222171 23.78942 61.139079 22.359842 62.587891 22.050781 C 63.761427 21.800871 64.954102 21.666943 66.146484 21.646484 z M 44.421875 29.646484 C 46.06733 29.676667 47.43452 30.152846 48.400391 31.121094 C 50.100329 32.830616 50.263311 35.775485 49.171875 39.300781 C 48.59235 41.06825 50.833984 40.09375 50.833984 40.09375 C 57.962131 37.109324 64.181368 36.934489 66.451172 40.179688 C 67.668184 41.918184 67.554008 44.341771 66.433594 47.152344 C 65.921681 48.446562 66.59684 48.640048 67.582031 48.939453 C 71.600067 50.18538 76.072175 53.19964 76.0625 58.511719 C 76.0625 67.291137 63.400654 78.349609 44.363281 78.349609 C 29.846199 78.349609 15 71.308962 15 59.738281 C 15 53.68251 18.834721 46.680618 25.431641 40.083984 C 32.045459 33.470441 39.48551 29.555936 44.421875 29.646484 z M 66.888672 31.167969 C 69.206317 31.273454 71.485396 32.271167 73.166016 34.132812 C 75.406842 36.615004 76.005041 39.997783 75.048828 42.962891 C 74.652818 44.179841 73.359579 44.835553 72.142578 44.449219 C 70.925577 44.053227 70.265996 42.748309 70.652344 41.541016 C 71.125622 40.092269 70.827766 38.44156 69.736328 37.224609 C 68.64489 36.017321 67.022601 35.554323 65.535156 35.873047 C 64.298836 36.143481 63.071226 35.349444 62.800781 34.103516 C 62.539996 32.857595 63.332149 31.622106 64.578125 31.361328 C 65.338751 31.197136 66.116124 31.132807 66.888672 31.167969 z M 43.851562 45.878906 C 30.763973 45.878906 20.148438 52.48509 20.148438 60.636719 C 20.148438 68.788346 30.763973 75.394531 43.851562 75.394531 C 56.939154 75.394531 67.552734 68.788346 67.552734 60.636719 C 67.552734 52.48509 56.939153 45.878906 43.851562 45.878906 z M 42.412109 52.123047 C 43.466466 52.111898 44.526458 52.234077 45.560547 52.503906 C 51.268862 53.981634 54.185072 59.360892 51.847656 64.595703 C 49.481267 69.936758 42.682176 72.795697 36.90625 70.931641 C 31.342817 69.135194 28.976261 63.630509 31.419922 58.675781 C 33.366157 54.728549 37.843232 52.171359 42.412109 52.123047 z M 43.951172 58.589844 C 43.401076 58.599803 42.84136 58.912859 42.537109 59.419922 C 42.141102 60.096004 42.353397 60.878113 43.048828 61.158203 C 43.744256 61.447951 44.643163 61.119224 45.048828 60.423828 C 45.43518 59.718768 45.183709 58.936661 44.488281 58.685547 C 44.316839 58.617938 44.134537 58.586524 43.951172 58.589844 z M 38.636719 60.222656 C 37.174778 60.203641 35.663144 60.963704 34.830078 62.267578 C 33.709664 64.015734 34.24037 66.093 36.017578 66.904297 C 37.823762 67.725256 40.229196 66.943039 41.349609 65.15625 C 42.450707 63.350146 41.87053 61.292085 40.054688 60.509766 C 39.605556 60.321428 39.124032 60.228995 38.636719 60.222656 z "
     id="rect7" /></svg>