<?xml version="1.0" encoding="UTF-8" standalone="no"?>
<svg
   xmlns:dc="http://purl.org/dc/elements/1.1/"
   xmlns:cc="http://creativecommons.org/ns#"
   xmlns:rdf="http://www.w3.org/1999/02/22-rdf-syntax-ns#"
   xmlns:svg="http://www.w3.org/2000/svg"
   xmlns="http://www.w3.org/2000/svg"
   xmlns:sodipodi="http://sodipodi.sourceforge.net/DTD/sodipodi-0.dtd"
   xmlns:inkscape="http://www.inkscape.org/namespaces/inkscape"
   width="100"
   height="100"
   viewBox="0 0 100 100"
   id="svg2"
   version="1.1"
   inkscape:version="0.91 r13725"
   sodipodi:docname="social-link.svg">
  <metadata
     id="metadata20">
    <rdf:RDF>
      <cc:Work
         rdf:about="">
        <dc:format>image/svg+xml</dc:format>
        <dc:type
           rdf:resource="http://purl.org/dc/dcmitype/StillImage" />
        <dc:title>Slice 1</dc:title>
      </cc:Work>
    </rdf:RDF>
  </metadata>
  <defs
     id="defs18" />
  <sodipodi:namedview
     pagecolor="#ffffff"
     bordercolor="#666666"
     borderopacity="1"
     objecttolerance="10"
     gridtolerance="10000"
     guidetolerance="10000"
     inkscape:pageopacity="0"
     inkscape:pageshadow="2"
     inkscape:window-width="1920"
     inkscape:window-height="955"
     id="namedview16"
     showgrid="true"
     inkscape:showpageshadow="false"
     inkscape:zoom="3.5757576"
     inkscape:cx="33"
     inkscape:cy="42.27845"
     inkscape:window-x="0"
     inkscape:window-y="1"
     inkscape:window-maximized="1"
     inkscape:current-layer="svg2">
    <inkscape:grid
       type="xygrid"
       id="grid4148" />
  </sodipodi:namedview>
  <path
     fill="#27757b"
     d="M 0 0 L 0 100 L 100 100 L 100 0 L 0 0 z M 63.667969 36.710938 L 76.167969 36.710938 C 82.850781 36.710938 88.285156 42.270314 88.285156 49.101562 L 88.285156 53.402344 C 88.285156 60.233594 82.848828 65.792969 76.166016 65.792969 L 76.166016 65.791016 L 63.666016 65.791016 C 60.598828 65.791016 57.670313 64.612891 55.421875 62.478516 L 59.724609 57.744141 C 60.798047 58.767578 62.200781 59.328125 63.667969 59.328125 L 76.167969 59.328125 C 79.364844 59.328125 81.964844 56.672656 81.964844 53.402344 L 81.964844 49.101562 C 81.964844 45.832813 79.364844 43.175781 76.167969 43.175781 L 63.667969 43.175781 C 62.199219 43.175781 60.798047 43.7375 59.724609 44.757812 L 55.421875 40.023438 C 57.671875 37.889063 60.599219 36.710938 63.667969 36.710938 z M 24.660156 36.712891 L 37.160156 36.712891 C 40.228906 36.712891 43.154297 37.889453 45.404297 40.025391 L 41.101562 44.759766 C 40.026564 43.736328 38.626953 43.175781 37.158203 43.175781 L 24.658203 43.175781 C 21.461328 43.175781 18.861328 45.83125 18.861328 49.101562 L 18.861328 53.402344 C 18.861328 56.671094 21.461328 59.328125 24.658203 59.328125 L 37.158203 59.328125 C 38.626953 59.328125 40.026562 58.766406 41.101562 57.746094 L 45.402344 62.480469 C 43.152344 64.616406 40.225 65.792969 37.15625 65.792969 L 37.160156 65.791016 L 24.660156 65.791016 C 17.978906 65.791016 12.542969 60.233203 12.542969 53.400391 L 12.542969 49.103516 C 12.542969 42.270703 17.980469 36.712891 24.660156 36.712891 z M 64.441406 48.279297 C 65.963281 48.279297 66.285156 49.152344 66.285156 50.597656 L 66.285156 52.226562 C 66.285156 53.66875 65.963281 54.085938 64.441406 54.085938 L 36.386719 54.085938 C 34.864844 54.085938 32.208984 53.667969 32.208984 52.222656 L 32.208984 50.597656 C 32.208984 49.152344 34.863281 48.28125 36.386719 48.28125 L 64.441406 48.28125 L 64.441406 48.279297 z " />
</svg>
