<?xml version="1.0" encoding="UTF-8" standalone="no"?>
<svg
   xmlns:dc="http://purl.org/dc/elements/1.1/"
   xmlns:cc="http://creativecommons.org/ns#"
   xmlns:rdf="http://www.w3.org/1999/02/22-rdf-syntax-ns#"
   xmlns:svg="http://www.w3.org/2000/svg"
   xmlns="http://www.w3.org/2000/svg"
   xmlns:sodipodi="http://sodipodi.sourceforge.net/DTD/sodipodi-0.dtd"
   xmlns:inkscape="http://www.inkscape.org/namespaces/inkscape"
   width="100"
   height="100"
   viewBox="0 0 100 100"
   id="social-linkedin-bg"
   version="1.1"
   inkscape:version="0.91 r13725"
   sodipodi:docname="social-linkedin.svg">
  <defs
     id="defs4" />
  <sodipodi:namedview
     id="base"
     pagecolor="#ffffff"
     bordercolor="#666666"
     borderopacity="1.0"
     inkscape:pageopacity="0.0"
     inkscape:pageshadow="2"
     inkscape:zoom="7.89"
     inkscape:cx="-60.076045"
     inkscape:cy="50"
     inkscape:document-units="px"
     inkscape:current-layer="social-linkedin-bg"
     showgrid="true"
     units="px"
     inkscape:showpageshadow="false"
     inkscape:window-width="1920"
     inkscape:window-height="955"
     inkscape:window-x="0"
     inkscape:window-y="1"
     inkscape:window-maximized="1">
    <inkscape:grid
       type="xygrid"
       id="grid4138" />
  </sodipodi:namedview>
  <metadata
     id="metadata7">
    <rdf:RDF>
      <cc:Work
         rdf:about="">
        <dc:format>image/svg+xml</dc:format>
        <dc:type
           rdf:resource="http://purl.org/dc/dcmitype/StillImage" />
        <dc:title />
      </cc:Work>
    </rdf:RDF>
  </metadata>
<!-- build:remove -->
  <rect
     x="0"
     y="0"
     width="100%"
     height="100%"
     fill="#ffffff" />
<!-- endbuild -->
  <path
     fill="#0977b6"
     d="M 0 0 L 0 100 L 100 100 L 100 0 L 0 0 z M 26.451172 19 L 26.453125 19 C 30.560183 19 33.898438 22.34699 33.898438 26.462891 C 33.898438 30.583234 30.559115 33.925781 26.451172 33.925781 C 22.333498 33.925781 19 30.58128 19 26.460938 C 19 22.345021 22.332599 19 26.451172 19 z M 65.585938 38.556641 C 78.598853 38.556641 81 47.133844 81 58.283203 L 81 81 L 68.160156 81 L 68.160156 60.859375 C 68.160156 56.057033 68.072137 49.880859 61.482422 49.880859 C 54.797047 49.880859 53.771484 55.112573 53.771484 60.513672 L 53.771484 81 L 40.931641 81 L 40.931641 39.585938 L 53.255859 39.585938 L 53.255859 45.246094 L 53.427734 45.246094 C 55.14426 41.990209 59.335453 38.556641 65.585938 38.556641 z M 20.023438 39.585938 L 32.873047 39.585938 L 32.873047 81 L 20.023438 81 L 20.023438 39.585938 z " />
</svg>
