<?xml version="1.0" encoding="UTF-8" standalone="no"?>
<svg
   xmlns:dc="http://purl.org/dc/elements/1.1/"
   xmlns:cc="http://creativecommons.org/ns#"
   xmlns:rdf="http://www.w3.org/1999/02/22-rdf-syntax-ns#"
   xmlns:svg="http://www.w3.org/2000/svg"
   xmlns="http://www.w3.org/2000/svg"
   xmlns:sodipodi="http://sodipodi.sourceforge.net/DTD/sodipodi-0.dtd"
   xmlns:inkscape="http://www.inkscape.org/namespaces/inkscape"
   version="1.1"
   x="0px"
   y="0px"
   width="100"
   height="100"
   viewBox="0 0 100 100"
   id="social-wechat-bg"
   inkscape:version="0.91 r13725"
   sodipodi:docname="social-wechat.svg">
  <defs
     id="defs10" />
  <metadata
     id="metadata11">
    <rdf:RDF>
      <cc:Work
         rdf:about="">
        <dc:format>image/svg+xml</dc:format>
        <dc:type
           rdf:resource="http://purl.org/dc/dcmitype/StillImage" />
        <dc:title />
      </cc:Work>
    </rdf:RDF>
  </metadata>
  <sodipodi:namedview
     pagecolor="#ffffff"
     bordercolor="#666666"
     borderopacity="1"
     objecttolerance="10000"
     gridtolerance="10000"
     guidetolerance="10000"
     inkscape:pageopacity="0"
     inkscape:pageshadow="2"
     inkscape:window-width="1920"
     inkscape:window-height="955"
     id="namedview9"
     showgrid="true"
     inkscape:showpageshadow="false"
     inkscape:zoom="7.89"
     inkscape:cx="-12.230671"
     inkscape:cy="50"
     inkscape:window-x="19"
     inkscape:window-y="23"
     inkscape:window-maximized="0"
     inkscape:current-layer="social-wechat-bg">
    <inkscape:grid
       type="xygrid"
       id="grid4139" />
  </sodipodi:namedview>
  <path
     d="M 0 0 L 0 100 L 100 100 L 100 0 L 0 0 z M 40.224609 20.972656 C 51.718997 20.928549 62.398902 27.711325 65.197266 37.53125 L 65.605469 38.953125 L 63.632812 38.953125 C 49.064033 38.953125 37.865136 50.82201 41.103516 62.800781 L 41.511719 64.373047 L 40.330078 64.373047 C 38.356948 64.373047 35.397079 63.963812 33.080078 63.382812 L 30.871094 62.845703 L 26.708984 65.085938 L 22.546875 67.324219 L 23.705078 63.857422 C 25.057836 59.807913 25.057508 59.870935 24.15625 59.289062 C 7.7219709 48.561543 14.608988 25.122728 35.269531 21.417969 L 35.269531 21.419922 C 36.92416 21.123843 38.582554 20.978957 40.224609 20.972656 z M 31.544922 31.396484 C 30.389877 31.432339 29.206172 31.979062 28.576172 32.921875 C 26.281042 36.281884 30.270882 40.224379 33.681641 37.984375 C 35.784271 36.606248 35.654306 33.395914 33.466797 31.910156 C 32.919811 31.538718 32.237949 31.374972 31.544922 31.396484 z M 49.283203 31.416016 C 48.615468 31.399828 47.928953 31.533283 47.392578 31.824219 C 44.667819 33.267977 45.011354 37.296016 47.927734 38.416016 C 51.961494 39.966517 54.665549 34.344415 51.060547 31.910156 C 50.598983 31.59822 49.950938 31.432203 49.283203 31.416016 z M 62.865234 40.378906 C 81.63744 39.85052 93.172962 61.094896 78.007812 72.021484 C 76.57019 73.053985 76.591312 72.816558 77.664062 76.132812 C 78.136563 77.620318 78.498828 78.913862 78.455078 79.021484 C 78.412204 79.108113 76.869687 78.374579 75.023438 77.361328 L 71.675781 75.552734 L 70.089844 75.984375 C 56.638443 79.689134 42.628172 71.416869 42.091797 59.417969 C 41.684918 50.4562 48.786382 42.657657 59.019531 40.785156 L 59.019531 40.783203 C 60.329573 40.544929 61.613754 40.414132 62.865234 40.378906 z M 56.789062 49.978516 C 55.001762 50.124739 53.537234 51.970156 54.341797 53.925781 C 55.285047 56.187661 58.784108 56.015396 59.599609 53.666016 C 59.98723 52.567887 59.514532 51.060781 58.613281 50.457031 L 58.611328 50.457031 C 58.015888 50.069188 57.384829 49.929775 56.789062 49.978516 z M 71.226562 49.994141 C 70.189421 49.948108 69.123829 50.472339 68.587891 51.46875 C 67.278883 53.94588 69.939323 56.53066 72.470703 55.238281 C 74.124453 54.37728 74.359109 52.071098 72.943359 50.714844 C 72.460686 50.254484 71.848847 50.02176 71.226562 49.994141 z "
     fill="#609700" />
</svg>
