<?xml version="1.0" encoding="UTF-8" standalone="no"?>
<!-- Created with Inkscape (http://www.inkscape.org/) -->

<svg
   xmlns:dc="http://purl.org/dc/elements/1.1/"
   xmlns:cc="http://creativecommons.org/ns#"
   xmlns:rdf="http://www.w3.org/1999/02/22-rdf-syntax-ns#"
   xmlns:svg="http://www.w3.org/2000/svg"
   xmlns="http://www.w3.org/2000/svg"
   xmlns:sodipodi="http://sodipodi.sourceforge.net/DTD/sodipodi-0.dtd"
   xmlns:inkscape="http://www.inkscape.org/namespaces/inkscape"
   id="svg2"
   version="1.1"
   inkscape:version="0.91 r13725"
   xml:space="preserve"
   width="100"
   height="100"
   viewBox="0 0 100 100"
   sodipodi:docname="social-facebook.svg"><metadata
     id="metadata8"><rdf:RDF><cc:Work
         rdf:about=""><dc:format>image/svg+xml</dc:format><dc:type
           rdf:resource="http://purl.org/dc/dcmitype/StillImage" /><dc:title /></cc:Work></rdf:RDF></metadata><defs
     id="defs6"><clipPath
       clipPathUnits="userSpaceOnUse"
       id="clipPath42"><path
         d="M 0,500 1024,500 1024,0 0,0 0,500 Z"
         id="path44"
         inkscape:connector-curvature="0" /></clipPath><clipPath
       clipPathUnits="userSpaceOnUse"
       id="clipPath54"><path
         d="M 0,500 1024,500 1024,0 0,0 0,500 Z"
         id="path56"
         inkscape:connector-curvature="0" /></clipPath></defs><sodipodi:namedview
     pagecolor="#ffffff"
     bordercolor="#666666"
     borderopacity="1"
     objecttolerance="10"
     gridtolerance="10"
     guidetolerance="10"
     inkscape:pageopacity="0"
     inkscape:pageshadow="2"
     inkscape:window-width="1920"
     inkscape:window-height="955"
     id="namedview4"
     showgrid="true"
     inkscape:zoom="7.89"
     inkscape:cx="28.073511"
     inkscape:cy="50"
     inkscape:window-x="0"
     inkscape:window-y="1"
     inkscape:window-maximized="1"
     inkscape:current-layer="svg2"
     inkscape:showpageshadow="false"><inkscape:grid
       type="xygrid"
       id="grid4211" /></sodipodi:namedview><path
     style="fill:#3c5a99"
     d="M 0 0 L 0 100 L 100 100 L 100 0 L 0 0 z M 59.787109 10.052734 C 64.981126 10.052734 69.444942 10.438548 70.746094 10.611328 L 70.746094 23.314453 L 63.224609 23.318359 C 57.327473 23.318359 56.185547 26.120259 56.185547 30.232422 L 56.185547 39.300781 L 70.25 39.300781 L 68.417969 53.503906 L 56.185547 53.503906 L 56.185547 89.949219 L 41.519531 89.949219 L 41.519531 53.503906 L 29.253906 53.503906 L 29.253906 39.300781 L 41.519531 39.300781 L 41.519531 28.826172 C 41.519531 16.670571 48.943139 10.052734 59.787109 10.052734 z "
     id="rect11" /></svg>