<?xml version="1.0" encoding="UTF-8" standalone="no"?>
<svg
   xmlns:dc="http://purl.org/dc/elements/1.1/"
   xmlns:cc="http://creativecommons.org/ns#"
   xmlns:rdf="http://www.w3.org/1999/02/22-rdf-syntax-ns#"
   xmlns:svg="http://www.w3.org/2000/svg"
   xmlns="http://www.w3.org/2000/svg"
   xmlns:sodipodi="http://sodipodi.sourceforge.net/DTD/sodipodi-0.dtd"
   xmlns:inkscape="http://www.inkscape.org/namespaces/inkscape"
   width="100"
   height="100"
   viewBox="0 0 100 100"
   id="social-linkedin"
   version="1.1"
   inkscape:version="0.91 r13725"
   sodipodi:docname="social-linkedin.svg">
  <defs
     id="defs4" />
  <sodipodi:namedview
     id="base"
     pagecolor="#ffffff"
     bordercolor="#666666"
     borderopacity="1.0"
     inkscape:pageopacity="0.0"
     inkscape:pageshadow="2"
     inkscape:zoom="7.89"
     inkscape:cx="50"
     inkscape:cy="50"
     inkscape:document-units="px"
     inkscape:current-layer="social-linkedin"
     showgrid="true"
     units="px"
     inkscape:showpageshadow="false"
     inkscape:window-width="1920"
     inkscape:window-height="955"
     inkscape:window-x="0"
     inkscape:window-y="1"
     inkscape:window-maximized="1">
    <inkscape:grid
       type="xygrid"
       id="grid4138" />
  </sodipodi:namedview>
  <metadata
     id="metadata7">
    <rdf:RDF>
      <cc:Work
         rdf:about="">
        <dc:format>image/svg+xml</dc:format>
        <dc:type
           rdf:resource="http://purl.org/dc/dcmitype/StillImage" />
        <dc:title />
      </cc:Work>
    </rdf:RDF>
  </metadata>
  <path
     d="M 19.61486,10 C 14.30057,10 10,14.31657 10,19.62743 10,24.944 14.30171,29.25829 19.61486,29.25829 24.91543,29.25829 29.224,24.94514 29.224,19.62857 29.224,14.31771 24.91543,10.00114 19.616,10.00114 Z M 70.112,35.23429 C 62.04686,35.23429 56.63771,39.664 54.42286,43.86514 L 54.20114,43.86514 54.20114,36.56229 38.29943,36.56229 38.29943,90 54.86629,90 54.86629,63.56571 C 54.86629,56.59657 56.18971,49.84686 64.816,49.84686 73.31886,49.84686 73.43314,57.816 73.43314,64.01257 L 73.43314,90 90,90 90,60.688 C 90,46.30171 86.90286,35.23314 70.112,35.23314 Z M 11.32114,36.56343 11.32114,90 27.90057,90 27.90057,36.56343 11.32114,36.56343 Z"
     id="path7"
     inkscape:connector-curvature="0"
     style="fill:#0977b6" />
</svg>
