<svg xmlns="http://www.w3.org/2000/svg" width="100" height="100" viewBox="0 0 100 100"><rect rx="10" ry="10" width="100%" height="100%" fill="none"/><path d="M33.165 17.336c-23.612 4.234-31.482 31.02-12.7 43.28 1.03.665 1.03.592-.516 5.22L18.623 69.8l4.757-2.56 4.758-2.56 2.524.615c2.648.664 6.032 1.132 8.287 1.132h1.35l-.467-1.797c-3.7-13.69 9.097-27.254 25.747-27.254h2.255l-.466-1.625C63.713 22.926 48.29 14.63 33.163 17.338zm-2.06 11.99c2.5 1.698 2.648 5.367.245 6.942-3.898 2.56-8.458-1.945-5.835-5.785 1.152-1.724 3.923-2.29 5.59-1.158zm20.106 0c4.12 2.782 1.03 9.207-3.58 7.435-3.332-1.28-3.725-5.882-.61-7.532 1.225-.665 3.137-.615 4.192.098zM60.31 39.47c-11.695 2.14-19.81 11.052-19.345 21.294.613 13.713 16.624 23.166 31.997 18.932l1.813-.493 3.825 2.068c2.11 1.16 3.874 1.996 3.923 1.897.05-.123-.365-1.6-.905-3.3-1.226-3.79-1.25-3.52.393-4.7 18.487-13.32 2.255-40.057-21.7-35.7zm-.465 11.052c1.03.69 1.57 2.413 1.127 3.668-.932 2.685-4.93 2.882-6.008.297-1.226-2.98 2.158-5.737 4.88-3.964zm16.378.295c1.62 1.55 1.35 4.186-.54 5.17-2.892 1.477-5.932-1.477-4.436-4.308.98-1.823 3.506-2.266 4.977-.863zM54.333 77.415" fill="#609700"/></svg>