<?xml version="1.0" encoding="UTF-8"?>
<!DOCTYPE svg PUBLIC "-//W3C//DTD SVG 1.1//EN" "http://www.w3.org/Graphics/SVG/1.1/DTD/svg11.dtd"><svg xmlns="http://www.w3.org/2000/svg"><symbol id="arrow-down" viewBox="0 0 50 50"><path d="M45.812 19.256l-3.118-4.411a1.589 1.589 0 0 0-2.202-.39l-15.51 10.773L9.475 14.455a1.59 1.59 0 0 0-2.204.39l-3.11 4.411a1.554 1.554 0 0 0 .385 2.188l19.526 13.432c.198.133.415.124.631.124h.555c.222 0 .438.009.637-.125l19.523-13.498c.724-.498.895-1.408.394-2.121z"/></symbol><symbol id="arrow-downwards" viewBox="0 0 50 50"><path fill-rule="evenodd" clip-rule="evenodd" d="M4.5 25.119l20.23 21.507 20.229-21.507h-9.281V2.833H13.782v22.285H4.5z"/></symbol><symbol id="arrow-left" viewBox="0 0 50 50"><path d="M24.462 24.486L35.906 8.011a1.683 1.683 0 0 0-.413-2.336l-4.686-3.313a1.652 1.652 0 0 0-2.318.412L14.08 23.521a1.662 1.662 0 0 0-.279.671v.018l-.017.13-.005.056v.189l.005.048.017.139v.008c.042.236.134.464.279.675l14.41 20.747a1.652 1.652 0 0 0 2.318.414l4.686-3.309a1.692 1.692 0 0 0 .413-2.342L24.462 24.486z"/></symbol><symbol id="arrow-right" viewBox="0 0 50 50"><path d="M25.521 24.489L14.076 40.963c-.524.762-.344 1.812.414 2.336l4.686 3.314a1.653 1.653 0 0 0 2.318-.412l14.409-20.748c.146-.207.238-.435.279-.671v-.018l.018-.13.005-.056v-.189l-.005-.048-.018-.139v-.008a1.688 1.688 0 0 0-.279-.675L21.493 2.775a1.652 1.652 0 0 0-2.318-.413L14.489 5.67a1.692 1.692 0 0 0-.414 2.341l11.446 16.478z"/></symbol><symbol id="arrow-up-down" viewBox="0 0 50 50"><path d="M41.945 32.209l-2.533-3.584a1.29 1.29 0 0 0-1.789-.316l-12.601 8.753-12.6-8.753a1.293 1.293 0 0 0-1.791.316l-2.527 3.584a1.262 1.262 0 0 0 .312 1.777L24.28 44.898c.164.11.34.102.515.102h.45c.18 0 .356.008.518-.102l15.861-10.967c.589-.404.729-1.142.321-1.722zm-31.313-11.83c.413.58 1.212.72 1.791.316l12.6-8.752 12.601 8.752a1.29 1.29 0 0 0 1.789-.316l2.527-3.584a1.255 1.255 0 0 0-.314-1.773L25.764 4.106c-.161-.114-.338-.106-.518-.106h-.447c-.179 0-.355-.008-.517.106L8.422 15.075a1.235 1.235 0 0 0-.326 1.748l2.536 3.556z"/></symbol><symbol id="arrow-up" viewBox="0 0 50 50"><path d="M4.156 29.916l3.118 4.411a1.589 1.589 0 0 0 2.202.39l15.51-10.773 15.508 10.773a1.59 1.59 0 0 0 2.204-.39l3.11-4.411a1.554 1.554 0 0 0-.385-2.188L25.897 14.211a1.138 1.138 0 0 0-.631-.211h-.555c-.222 0-.438.077-.637.211L4.551 27.752a1.53 1.53 0 0 0-.395 2.164z"/></symbol><symbol id="arrow-upwards" viewBox="0 0 50 50"><path fill-rule="evenodd" clip-rule="evenodd" d="M44.959 24.341L24.729 2.833 4.5 24.341h9.282v22.285h21.896V24.341h9.281z"/></symbol><symbol id="clippings" viewBox="0 0 100 100"><path d="M6.208 82.657c-2.828-2.903-4.243-6.4-4.243-10.488 0-4.089 1.409-7.573 4.226-10.464 2.199-2.249 4.818-3.636 7.857-4.14 3.039-.508 5.882-.099 8.525 1.211l9.638-10.157-8.896-9.381c-2.718 1.557-5.677 2.106-8.878 1.65-3.2-.457-5.949-1.859-8.247-4.207-2.817-2.891-4.226-6.382-4.226-10.472 0-4.088 1.415-7.586 4.243-10.489 2.83-2.903 6.233-4.355 10.213-4.355 3.978 0 7.388 1.445 10.229 4.336 2.102 2.151 3.422 4.714 3.967 7.691.542 2.979.258 5.79-.853 8.433l9.192 9.601 20.498-21.685h13.492L45.703 48.545l-6.746 7.19-9.527 10.007c1.335 2.718 1.755 5.646 1.26 8.8-.493 3.149-1.842 5.867-4.041 8.142-2.841 2.891-6.25 4.338-10.229 4.338-3.979-.001-7.382-1.461-10.212-4.365zm5.449-61.339c-1.323 1.346-1.982 2.977-1.982 4.892 0 1.915.659 3.547 1.982 4.893 1.322 1.346 2.91 2.021 4.764 2.021 1.852 0 3.439-.674 4.762-2.021 1.322-1.346 1.983-2.979 1.983-4.893 0-1.915-.661-3.545-1.983-4.892-1.323-1.348-2.91-2.02-4.762-2.02-1.854 0-3.442.672-4.764 2.02zm0 45.957c-1.323 1.348-1.982 2.977-1.982 4.894 0 1.915.659 3.545 1.982 4.893 1.322 1.345 2.91 2.025 4.764 2.025 1.852 0 3.439-.681 4.762-2.025 1.322-1.348 1.983-2.978 1.983-4.893 0-1.917-.661-3.546-1.983-4.894-1.323-1.348-2.91-2.012-4.762-2.012-1.854.001-3.442.665-4.764 2.012zm25.019-16.322a3.201 3.201 0 0 1-.943-2.321c0-.903.314-1.667.943-2.311.631-.642 1.391-.963 2.281-.963s1.644.321 2.262.963c.616.644.926 1.408.926 2.311 0 .902-.31 1.68-.926 2.321-.618.643-1.372.965-2.262.965s-1.65-.322-2.281-.965zm6.136 8.861l6.782-7.082 23.352 24.834H59.454L42.812 59.814zm24.353-7.34v-5.783h11.562v5.783H67.165zm19.273 0V46.73h11.527v11.525h-5.781v-5.781h-5.746zm5.746 13.492h5.781v11.565h-5.781V65.966z"/></symbol><symbol id="comment" viewBox="0 0 100 100"><path d="M1.859 62.304V13.853c0-3.167 1.108-5.851 3.325-8.051C7.4 3.601 10.092 2.5 13.259 2.5h74.529c3.166 0 5.852 1.101 8.051 3.302 2.202 2.201 3.302 4.884 3.302 8.051v48.451c0 3.167-1.1 5.859-3.302 8.075-2.199 2.217-4.885 3.324-8.051 3.324H44.373L20.669 98.5V73.703h-7.41c-3.167 0-5.859-1.107-8.075-3.324-2.217-2.216-3.325-4.908-3.325-8.075zm15.532-40.946h66.217v-4.655H17.391v4.655zm0 12.635h66.217v-4.655H17.391v4.655zm0 12.636h66.217v-4.655H17.391v4.655zm0 12.588h66.217v-4.608H17.391v4.608z"/></symbol><symbol id="cross" viewBox="0 0 77 77"><path d="M77 61.62L53.886 38.495l23.101-23.101L61.599.016 38.487 23.101 15.374 0 0 15.394l23.096 23.101L0 61.62 15.374 77l23.113-23.099L61.599 77z"/></symbol><symbol id="email" viewBox="0 0 100 100"><path d="M19 25v50h63V25H19zm57 6v.806L50.509 52.879 25 31.79V31h51zM25 69V38.749l25.509 21.115L76 38.765V69H25z"/></symbol><symbol id="eye" viewBox="0 0 100 100"><path d="M1.5 47.595c2.776-4.607 6.04-8.718 9.791-12.331s7.719-6.572 11.903-8.875c4.184-2.304 8.619-4.056 13.306-5.257s9.358-1.802 14.015-1.802 9.328.601 14.015 1.802 9.122 2.954 13.306 5.257c4.185 2.304 8.147 5.262 11.889 8.875s7 7.724 9.776 12.331v3.781c-2.776 4.627-6.035 8.742-9.776 12.346s-7.704 6.557-11.889 8.86c-4.184 2.304-8.619 4.057-13.306 5.268s-9.357 1.821-14.015 1.821c-4.657 0-9.328-.61-14.015-1.821s-9.122-2.964-13.306-5.268c-4.185-2.304-8.152-5.257-11.903-8.86S4.276 56.003 1.5 51.376v-3.781zm49 24.514c3.071 0 6.006-.601 8.802-1.802 2.776-1.181 5.179-2.786 7.207-4.813 2.008-2.009 3.613-4.411 4.814-7.207a22.088 22.088 0 0 0 1.801-8.802c0-3.052-.601-5.976-1.801-8.772-1.201-2.796-2.807-5.208-4.814-7.236-2.028-2.008-4.431-3.613-7.207-4.814a22.376 22.376 0 0 0-8.802-1.772c-3.072 0-5.996.591-8.772 1.772-2.796 1.201-5.208 2.806-7.236 4.814-2.009 2.028-3.613 4.44-4.814 7.236a22.303 22.303 0 0 0-1.772 8.772c0 3.071.59 6.006 1.772 8.802 1.201 2.796 2.806 5.198 4.814 7.207 2.028 2.027 4.44 3.633 7.236 4.813a21.842 21.842 0 0 0 8.772 1.802zm11.312-22.624c0-3.111-1.103-5.77-3.309-7.975-2.205-2.206-4.868-3.308-7.989-3.308s-5.789 1.098-8.004 3.293c-2.215 2.196-3.323 4.859-3.323 7.99s1.107 5.799 3.323 8.004c2.215 2.205 4.878 3.309 7.989 3.309 3.131 0 5.799-1.104 8.004-3.309 2.207-2.205 3.309-4.873 3.309-8.004z"/></symbol><symbol id="font-size" viewBox="0 0 100 100"><path d="M1 78.057l21.878-59.113h13.046l21.647 59.113H44.352l-4.358-12.324H18.347l-4.531 12.324H1zM21.666 55.89h15.009l-7.303-22.169h-.173L21.666 55.89zm40.841 22.167l14.518-39.4h8.631L100 78.057h-8.745l-2.916-7.389H74.023l-3.03 7.389h-8.486zm13.71-14.778h9.93l-4.82-14.778h-.115l-4.995 14.778z"/></symbol><symbol id="gift" viewBox="0 0 100 100"><path d="M64.571 33.066c1.325-.713 2.572-1.53 3.617-2.443 4.962-4.361 5.857-12.113 1.996-15.503-1.618-1.419-3.811-2.106-6.183-2.106-3.287 0-6.92 1.327-9.806 3.859-1.676 1.473-3.111 3.368-4.134 5.359-1.024-1.991-2.454-3.887-4.131-5.359-2.887-2.532-6.518-3.859-9.805-3.859-2.369 0-4.56.688-6.18 2.106-3.863 3.39-2.966 11.142 1.998 15.503 1.041.913 2.288 1.73 3.613 2.443H17.987v24.29h27.844V35.388c.977-.25 3.409-.65 4.1-1.259l.132-.141.132.141c.694.608 3.128 1.008 4.102 1.259v21.969h27.847v-24.29H64.571zm-18.337-2.717c-.001.004-.358.211-1.362.211-2.852 0-6.811-1.593-9.21-3.696C33.701 25.138 33 21.758 33 20.542c0-1.081.5-1.519.66-1.659.726-.633 1.856-.73 2.467-.73 2.042 0 4.316.929 6.089 2.479 3.344 2.937 4.484 8.84 4.018 9.717zm7.744.07l-.007.002c-.527-1.013.624-6.872 3.94-9.786 1.775-1.554 4.05-2.482 6.091-2.482.61 0 1.739.098 2.464.73.161.143.664.58.664 1.663 0 1.212-.701 4.592-2.663 6.317-2.403 2.104-6.355 3.696-9.21 3.696-.828.001-1.213-.14-1.279-.14zM17.987 65.335V88h27.844V63.711H17.987zm36.309 0V88h27.847V63.711H54.296z"/></symbol><symbol id="grid" viewBox="0 0 128 126"><title>Group</title><path d="M.32.92h54.4v54.4H.32zM73.28 71h54.4v54.4h-54.4zM.32 71h54.4v54.4H.32zM73.28.92h54.4v54.4h-54.4z" fill-rule="evenodd"/></symbol><symbol id="hamburger" viewBox="0 0 100 100"><path d="M1.5 20.139V15.21c0-1.35.478-2.503 1.433-3.458s2.108-1.433 3.458-1.433H94.61c1.324 0 2.471.478 3.438 1.433S99.5 13.86 99.5 15.21v4.929c0 1.324-.484 2.47-1.452 3.438s-2.114 1.451-3.438 1.451H6.391c-1.35 0-2.503-.483-3.458-1.451-.955-.968-1.433-2.114-1.433-3.438zm0 31.825v-4.89c0-1.376.478-2.547 1.433-3.502.955-.949 2.108-1.426 3.458-1.426H94.61c1.324 0 2.471.478 3.438 1.426.968.955 1.452 2.126 1.452 3.502v4.89c0 1.324-.484 2.471-1.452 3.438-.968.969-2.114 1.452-3.438 1.452H6.391c-1.35 0-2.503-.483-3.458-1.452-.955-.967-1.433-2.114-1.433-3.438zm0 26.936c0-1.351.478-2.51 1.433-3.465s2.108-1.426 3.458-1.426H94.61c1.324 0 2.471.471 3.438 1.426S99.5 77.55 99.5 78.9v4.891c0 1.375-.484 2.533-1.452 3.476-.968.943-2.114 1.415-3.438 1.415H6.391c-1.35 0-2.503-.472-3.458-1.415-.955-.943-1.433-2.101-1.433-3.476V78.9z"/></symbol><symbol id="more" viewBox="0 0 100 100"><path d="M35.701 49.688a5.36 5.36 0 0 1-5.362 5.361 5.36 5.36 0 1 1 0-10.722 5.36 5.36 0 0 1 5.362 5.361m19.849 0a5.36 5.36 0 0 1-5.362 5.361 5.36 5.36 0 1 1 0-10.722 5.36 5.36 0 0 1 5.362 5.361m19.849 0a5.36 5.36 0 0 1-5.363 5.361 5.36 5.36 0 1 1 0-10.722 5.36 5.36 0 0 1 5.363 5.361"/></symbol><symbol id="plus" viewBox="0 0 128 128"><path d="M53.9 0v53.9H0v20.2h53.9V128h20.2V74.1H128V53.9H74.1V0H53.9z" fill-rule="evenodd"/></symbol><symbol id="printer" viewBox="0 0 100 100"><path d="M79.932 29.284h-1.36V12.527H20.996v16.757h-9.09V65.07h9.09v23.278h38.295l19.28-17.452V65.07h9.084V29.284h-7.723zM58.051 80.65V70.266h12.095L58.051 80.65zM72.21 65.063H52.853v16.925H27.355V46.927H72.21v18.136zM27.355 18.889H72.21v10.396H27.355V18.889z"/></symbol><symbol id="profile" viewBox="0 0 100 100"><path d="M96.97 82.82c.287 3.876.406 7.465.358 10.751s-.088 4.929-.119 4.929H1.792l-.096-4.929c-.096-3.286.008-6.875.311-10.751.303-3.876.837-6.396 1.603-7.576.542-.861 1.332-1.69 2.369-2.473 1.037-.781 2.369-1.547 3.996-2.312s3.134-1.436 4.522-2.01 3.246-1.324 5.575-2.233 4.195-1.643 5.599-2.217c6.349-2.616 10.272-4.402 11.771-5.359l.096-9.14-.383-.335c-.223-.223-.534-.622-.933-1.196a18.368 18.368 0 0 1-1.22-2.089c-.415-.813-.821-1.898-1.22-3.27a31.906 31.906 0 0 1-.933-4.45c-1.021.287-2.042-.247-3.062-1.603-1.021-1.356-1.563-2.64-1.627-3.852a15.078 15.078 0 0 1 .048-2.034c.064-.782.191-1.595.383-2.44s.511-1.515.957-2.01c.447-.495.989-.678 1.627-.55-.67-5.072-.925-8.422-.766-10.049.191-1.85.782-3.668 1.771-5.455.989-1.787 2.281-3.397 3.876-4.833 1.595-1.436 3.565-2.6 5.91-3.493S46.821.5 49.5.5c2.68 0 5.2.447 7.561 1.34 2.36.893 4.338 2.058 5.934 3.493 1.595 1.436 2.879 3.046 3.852 4.833.974 1.787 1.556 3.605 1.747 5.455.159 1.595-.096 4.945-.766 10.049.638-.127 1.18.056 1.627.55.446.495.766 1.165.957 2.01s.327 1.659.406 2.44c.08.782.088 1.459.024 2.034-.064 1.212-.606 2.496-1.627 3.852-1.021 1.356-2.042 1.89-3.062 1.603a26.517 26.517 0 0 1-.909 4.466c-.415 1.388-.813 2.472-1.196 3.254a14.758 14.758 0 0 1-1.244 2.105c-.447.622-.758 1.021-.934 1.18-.175.16-.311.271-.406.335l.096 9.14.813.479c.574.319 1.842.909 3.804 1.786 1.962.878 4.362 1.914 7.202 3.095 1.371.574 3.222 1.308 5.551 2.217a387.93 387.93 0 0 1 5.599 2.233 89.197 89.197 0 0 1 4.521 2.01c1.611.766 2.936 1.531 3.972 2.312 1.037.782 1.826 1.611 2.369 2.473.765 1.181 1.292 3.7 1.579 7.576z"/></symbol><symbol id="refresh" viewBox="0 0 100 100"><path d="M15.889 15.249c4.228-4.229 9.042-7.543 14.438-9.941 5.396-2.398 10.872-3.779 16.427-4.143 5.553-.363 11.139.252 16.758 1.847a47.33 47.33 0 0 1 15.481 7.645L88.603 1l8.759 40.712-40.712-8.758 10.51-10.509c-4.104-2.587-8.537-4.166-13.304-4.734-4.765-.568-9.468-.063-14.107 1.515-4.639 1.579-8.71 4.135-12.213 7.669-3.094 3.062-5.436 6.588-7.031 10.581-1.593 3.993-2.39 8.009-2.39 12.048 0 4.04.797 8.049 2.39 12.025 1.595 3.977 3.929 7.496 7.006 10.571 3.077 3.078 6.612 5.413 10.604 7.006 3.993 1.594 8 2.399 12.025 2.399 4.024 0 8.03-.806 12.022-2.399a30.787 30.787 0 0 0 10.583-7.022 30.907 30.907 0 0 0 5.965-8.236l16.285 3.977c-2.462 5.997-5.998 11.299-10.604 15.905-4.64 4.672-9.982 8.208-16.025 10.621C62.322 96.785 56.247 98 50.14 98c-6.108 0-12.182-1.215-18.227-3.63-6.043-2.413-11.384-5.949-16.023-10.604-4.64-4.656-8.176-10.004-10.605-16.047C2.854 61.673 1.64 55.601 1.64 49.492c0-6.106 1.215-12.174 3.646-18.217 2.428-6.046 5.964-11.387 10.603-16.026z"/></symbol><symbol id="rss" viewBox="0 0 100 100"><path d="M34.198 75.15c0 5.158-4.192 9.35-9.35 9.35-5.157 0-9.349-4.192-9.349-9.35 0-5.156 4.192-9.348 9.35-9.348a9.34 9.34 0 0 1 9.349 9.349zM15.499 38.949v13.846c17.403.178 31.503 14.303 31.681 31.68h13.846c-.178-25.05-20.451-45.348-45.527-45.526zm0-9.68c14.71.077 28.53 5.818 38.922 16.235C64.837 55.919 70.604 69.765 70.655 84.5H84.5c-.077-38.083-30.919-68.95-69.002-69.077v13.846z"/></symbol><symbol id="search" viewBox="0 0 100 100"><path d="M3.342 37.233c0-4.652.902-9.087 2.708-13.31 1.806-4.222 4.239-7.864 7.298-10.923s6.701-5.491 10.923-7.297c4.223-1.807 8.658-2.708 13.31-2.708 4.619 0 9.042.901 13.265 2.708C55.068 7.508 58.693 9.941 61.723 13c3.062 3.059 5.491 6.701 7.3 10.923 1.805 4.223 2.706 9.117 2.706 14.687 0 5.604-1.744 11.187-5.232 16.756l30.108 26.85c.459.427.702.951.734 1.561.032.643-.184 1.178-.643 1.607L85.913 96.169a1.973 1.973 0 0 1-1.608.643 2.221 2.221 0 0 1-1.561-.734L55.939 66.015c-5.629 3.58-11.261 5.37-16.89 5.37s-10.556-.902-14.779-2.708c-4.223-1.807-7.865-4.236-10.923-7.298-3.059-3.029-5.492-6.655-7.298-10.878a33.42 33.42 0 0 1-2.707-13.268zm12.668 1.606c0 1.836.567 4.073 1.698 6.722 1.131 2.646 2.662 4.94 4.59 6.868s4.223 3.459 6.885 4.59a21.188 21.188 0 0 0 8.377 1.698c2.922 0 5.705-.566 8.354-1.698 2.646-1.131 4.933-2.662 6.861-4.59s3.458-4.222 4.591-6.868a21.048 21.048 0 0 0 1.696-8.35c0-2.924-.566-5.715-1.696-8.377-1.133-2.662-2.663-4.957-4.591-6.885-1.928-1.927-4.215-3.458-6.861-4.589a21.048 21.048 0 0 0-8.354-1.698c-2.923 0-5.715.567-8.377 1.698-2.662 1.131-4.957 2.662-6.885 4.589-1.928 1.928-3.458 4.223-4.59 6.885-1.131 2.662-1.698 4.728-1.698 6.196v3.809z"/></symbol><symbol id="section-arts" viewBox="0 0 100 100"><path d="M1.5 53.233c5.046-.325 8.862-.577 11.45-.757a2.64 2.64 0 0 0 .916-.293c.317-.162.5-.309.549-.439.163-.276.236-.415.22-.415.065-.016.154.106.269.366l.024.122c.504 1.303.439 2.537-.195 3.709-.375.781-1.64 1.367-3.797 1.767-2.156.398-4.228.602-6.213.602H1.744l2.393-2.515L1.5 53.233zm2.759-9.425c1.318 1.351 2.995 2.566 5.029 3.64.732.423 1.526.838 2.38 1.253s1.453.716 1.794.895c.342.18.521.318.537.416.049.357-.041.602-.269.731-.228.131-.716.253-1.465.366-2.407.391-4.035.505-4.881.342l-.305-.138a7.337 7.337 0 0 1-.659-.391 5.84 5.84 0 0 1-.842-.644 4.075 4.075 0 0 1-.684-.871c-.211-.35-.326-.7-.342-1.058l-.293-4.541zm1.782-.733c.114-.032.562-.098 1.343-.195 1.644-.276 3.996-.562 7.056-.854 3.06-.293 4.646-.366 4.761-.22.195.293.285 1.099.269 2.417 0 .293-.021.627-.061 1.001a9.376 9.376 0 0 1-.134.906l-.073.342c-.635-.082-1.465-.122-2.49-.122-.635 0-1.392.122-2.271.374s-1.481.497-1.807.725c-.504.276-2.555-.944-6.152-3.665-.506-.391-.652-.627-.441-.709zm10.462-10.388c-.057-.578.228-1.225.854-1.941s1.607-1.318 2.942-1.807c1.253-.488 3.137-1.079 5.652-1.77a81.058 81.058 0 0 1 7.727-1.721 56.14 56.14 0 0 1 10.23-.854c3.369.032 5.615.423 6.738 1.172l.207.146c.09.065.232.224.428.476.195.252.338.529.428.83.089.301.105.7.049 1.196-.058.496-.232 1.029-.525 1.599-.082.146-.203.398-.366.757-2.604.488-4.395 1.685-5.371 3.589-.277.846-.391 1.636-.342 2.368-1.97-1.139-3.85-1.595-5.64-1.367-1.009.13-1.49.749-1.441 1.855.033 1.058.456 1.855 1.27 2.393.456.293.944.383 1.465.269 1.155-.163 1.973-.244 2.454-.244.48 0 1.099.078 1.855.232.757.155 1.192.232 1.306.232 1.025 3.418.822 6.602-.61 9.548l-.354.643c-.171.318-.322.619-.452.896s-.22.505-.269.684c-.928-.781-2.425-1.172-4.492-1.172-2.54 0-4.79.562-6.751 1.685-1.961 1.123-2.934 2.448-2.917 3.978.016 1.14.249 1.953.696 2.45.448.496 1.046.699 1.794.61.749-.09 1.51-.261 2.283-.521.773-.26 1.607-.553 2.502-.87.896-.317 1.595-.48 2.1-.497 2.181-.081 3.776.065 4.785.439.391 2.067 1.001 3.825 1.831 5.274-.163.179-.432.406-.806.684-1.058.765-2.633 1.416-4.724 1.953-2.092.537-3.74.699-4.944.488-1.025-.18-2.238-.822-3.638-1.921a57.45 57.45 0 0 1-4.053-3.499c-1.302-1.237-2.213-1.994-2.734-2.271-.521-.244-1.103-.765-1.746-1.554-.643-.79-1.245-1.718-1.807-2.783-.562-1.064-.985-2.269-1.27-3.62-.285-1.351-.322-2.62-.11-3.808.244-1.776.293-3.367.146-4.775-.146-1.408-.48-2.698-1.001-3.87-.521-1.172-1.005-2.091-1.453-2.759-.448-.667-.842-1.139-1.184-1.416a2.006 2.006 0 0 1-.742-1.406zm8.142 11.121c.342.277.59.403.745.378s.399-.175.732-.452c.333-.276.655-.574.964-.891s.793-.63 1.453-.94a6.734 6.734 0 0 1 2.185-.586c.993-.114 1.595-.74 1.807-1.88.212-1.123-.024-1.961-.708-2.515-.358-.293-.797-.382-1.318-.269-1.237.277-2.38.956-3.43 2.039s-1.782 2.136-2.197 3.162-.493 1.677-.233 1.954zm23.658 16.854c-.504-1.408-.814-2.987-.928-4.745s.195-3.424.928-5.003a15.946 15.946 0 0 0 1.343-4.565c.211-1.565.211-2.936 0-4.116-.211-1.18-.443-2.156-.696-2.93-.252-.773-.509-1.355-.769-1.746-.195-.244-.317-.525-.366-.842s.004-.655.159-1.013.395-.696.72-1.013.814-.594 1.465-.83c.65-.236 1.408-.395 2.271-.476 1.351-.13 3.162-.208 5.433-.232s5.074.085 8.41.33c3.711.375 7.129.989 10.255 1.843 3.125.854 5.127 1.786 6.006 2.795l.183.208s.171.281.293.574.191.594.208.903c.016.31-.069.7-.257 1.172s-.492.936-.915 1.392c-1.123 1.172-1.998 3.109-2.625 5.813-.627 2.702-.769 4.638-.427 5.808l.073.269c.146.635.256 1.156.329 1.562.073.407.114 1.034.122 1.889s-.085 1.636-.28 2.335c-.195.7-.558 1.515-1.087 2.442s-1.217 1.814-2.062 2.661c-1.319 1.27-2.511 2.596-3.577 3.987s-1.896 2.449-2.49 3.166c-.594.716-1.241 1.212-1.941 1.489-1.204.439-2.901.643-5.09.618-2.189-.024-3.821-.285-4.896-.789-.944-.424-1.949-1.352-3.015-2.783a68.422 68.422 0 0 1-3.027-4.419c-.953-1.514-1.657-2.466-2.112-2.856-.588-.522-1.134-1.49-1.638-2.898zm4.785-1.889c-.032.293.062.619.281.977.22.358.455.7.708 1.026.252.325.557.699.915 1.123.358.423.618.748.781.977.179.244.452.757.818 1.538s.716 1.456 1.05 2.034c.333.578.887 1.147 1.66 1.701.772.553 1.681.887 2.722 1.001.847.081 1.583.073 2.21-.017a3.81 3.81 0 0 0 1.66-.635c.479-.334.851-.635 1.11-.903.261-.269.627-.708 1.099-1.326.473-.619.83-1.074 1.074-1.367.375-.391.822-.798 1.343-1.221.521-.424.948-.766 1.282-1.025.334-.261.631-.537.891-.822.261-.285.383-.554.366-.813-.016-.261-.171-.529-.464-.806-.13-.261-.488-.326-1.074-.188s-1.143.35-1.672.627c-.529.276-1.384.521-2.563.732-1.181.211-2.438.26-3.772.146a13.784 13.784 0 0 1-3.784-.871c-1.204-.464-2.136-.928-2.795-1.4-.659-.472-1.286-.846-1.88-1.114-.595-.269-1.079-.293-1.453-.082-.31.18-.481.415-.513.708zm.513-14.013c-.472.977-.415 1.776.171 2.395.244.26.562.415.952.464.684.114 1.331.285 1.941.513.61.228 1.099.464 1.465.708l1.062.708c.342.229.627.398.854.521.229.121.46.17.696.146.235-.025.476-.154.72-.398.229-.262.159-.814-.207-1.661-.366-.847-1.042-1.742-2.026-2.676-.985-.936-2.088-1.558-3.309-1.868-1.042-.293-1.815.09-2.319 1.148zm13.623 6.13c.195.326.415.497.659.513.244.017.537-.073.879-.26.342-.188.721-.399 1.136-.635.415-.236.98-.439 1.696-.611a7.858 7.858 0 0 1 2.295-.178c.798.049 1.376-.302 1.734-1.042.357-.74.378-1.481.061-2.222-.317-.738-.892-1.092-1.722-1.06a6.457 6.457 0 0 0-2.295.547 8.109 8.109 0 0 0-1.989 1.213c-.562.472-1.058.96-1.489 1.465-.432.504-.729.96-.892 1.375-.162.415-.187.716-.073.895zm13.16 2.246c-.065-.293-.058-.806.024-1.538.081-.732.179-1.391.293-1.977l.171-.879c1.807.163 4.089.48 6.848.952 2.759.473 4.79.903 6.092 1.294.439.146.757.269.952.375.195.105.256.211.183.309s-.166.171-.28.229a7.891 7.891 0 0 1-.61.26l-.635.244c-.31.131-1.18.57-2.612 1.316-1.433.749-2.246 1.14-2.441 1.172-.098.033-.277-.008-.537-.113-.261-.106-1.038-.317-2.332-.644-1.296-.326-3.001-.658-5.116-1zm4.809 6.639c-.017-.733.045-1.14.183-1.222.139-.081.428.033.867.342.748.473 1.416.822 2.002 1.05.537.18 1.745.424 3.625.733s3.618.569 5.213.781l2.417.317-3.027 2.051 1.904 2.661c-4.021-.293-7.666-.888-10.938-1.782-1.01-.31-1.632-.766-1.868-1.367-.235-.603-.354-1.62-.354-3.052l-.024-.512zm1.343-2.125c-.049-.098.175-.276.671-.537a38.32 38.32 0 0 1 1.904-.919l1.478-.668.659-.406c.325-.204.643-.391.952-.57l1.062-.61c.399-.228.766-.421 1.099-.575.334-.155.647-.285.94-.391.293-.106.533-.146.72-.131.188.017.298.098.33.244.163.617.203 1.447.122 2.488-.081 1.042-.261 1.677-.537 1.904-1.188 1.123-2.36 1.733-3.516 1.831-.635.065-1.538-.057-2.71-.366-2.019-.618-3.076-1.049-3.174-1.294z"/></symbol><symbol id="section-blogs" viewBox="0 0 100 100"><path d="M20.932 50.516l22.958 4.592 4.592 22.962L16.34 91.845l-4.591 4.592c-.128.127-.303.287-.526.478-.223.191-.678.463-1.363.813s-1.379.59-2.081.718c-.701.127-1.53.031-2.487-.271s-1.866-.877-2.727-1.737c-.861-.861-1.443-1.77-1.746-2.711-.303-.94-.375-1.785-.215-2.535a9.21 9.21 0 0 1 .669-2.024c.287-.605.574-1.084.861-1.435l.43-.479 4.592-4.592 13.776-32.146zm4.592 29.466c1.786 0 3.316-.638 4.592-1.913 1.275-1.275 1.913-2.806 1.913-4.592 0-1.785-.638-3.315-1.913-4.591-1.276-1.276-2.806-1.914-4.592-1.914s-3.308.638-4.568 1.914c-1.259 1.275-1.889 2.806-1.889 4.591 0 1.786.63 3.316 1.889 4.592 1.26 1.276 2.782 1.913 4.568 1.913zM90.505 1.725c1.354.67 2.646 1.626 3.89 2.87 1.244 1.243 2.217 2.542 2.902 3.898.686 1.355 1.067 2.615 1.147 3.778.08 1.164.016 2.296-.175 3.396s-.511 2.081-.957 2.942a34.808 34.808 0 0 1-1.291 2.295c-.415.67-.798 1.18-1.148 1.531l-.479.526L80.62 36.736 57.661 59.703 39.299 41.328C51.543 29.084 59.192 21.431 62.253 18.37L76.028 4.595c.127-.128.318-.295.558-.502s.733-.566 1.483-1.076c.749-.51 1.515-.957 2.312-1.339.797-.382 1.785-.693 2.949-.933s2.312-.303 3.443-.191c1.133.111 2.376.502 3.732 1.171z"/></symbol><symbol id="section-business-education" viewBox="0 0 100 100"><path d="M98.145 36.269a.56.56 0 0 1 .355.549c0 .28-.118.463-.355.549l-47.369 19.28-.226.032-.227-.032L6.99 39.013v17.666h-.194c.753.517 1.34 1.259 1.76 2.228.42.969.63 2.023.63 3.164v1.938h-.097v2.034c0 .302-.103.55-.307.754s-.458.312-.759.312c-.258 0-.495-.098-.71-.291-.215.323-.495.484-.839.484-.28 0-.527-.097-.743-.291-.194.388-.506.581-.937.581a.982.982 0 0 1-.613-.226 1.426 1.426 0 0 1-.258-.258.97.97 0 0 1-.71.29c-.388 0-.689-.183-.904-.549a.952.952 0 0 1-.646.259c-.302 0-.555-.108-.759-.312a1.016 1.016 0 0 1-.307-.754v-2.034H.5V62.07c.021-1.141.237-2.195.646-3.164.409-.969.99-1.711 1.744-2.228h-.065V37.269a.583.583 0 0 1-.226-.452c0-.258.119-.441.355-.549l47.369-19.245a.556.556 0 0 1 .452 0l47.37 19.246zM24.168 49.575L50.55 60.327l26.381-10.752v20.601c-.043 3.466-2.724 6.328-8.041 8.589-5.08 2.174-11.193 3.262-18.34 3.262s-13.261-1.088-18.341-3.262c-5.317-2.261-7.997-5.123-8.04-8.589V49.575z"/></symbol><symbol id="section-business-life" viewBox="0 0 100 100"><path d="M38.483 57.09c0 .022-.284.109-.853.263l-.951.229c-1.64.394-2.995.732-4.066 1.017-1.071.284-2.688.787-4.853 1.508-2.164.722-4.065 1.465-5.705 2.229-1.64.766-3.443 1.771-5.41 3.017s-3.683 2.579-5.147 4c-1.159 1.05-1.705 3.05-1.64 6h-7.9c-.612-9.814-.612-14.983 0-15.508 1.158-1.137 2.677-2.153 4.557-3.039 1.88-.885 3.596-1.529 5.147-1.934 1.552-.405 2.995-.743 4.328-1.027s2.044-.448 2.131-.492c.437-.196.705-.48.803-.853.098-.371.104-.983.016-1.836-.021-.241-.208-.612-.557-1.115-.35-.503-.727-1.06-1.131-1.661s-.776-1.574-1.115-2.929c-.339-1.355-.508-2.918-.508-4.688 0-2.885.738-5.394 2.213-7.525s3.284-3.197 5.426-3.197 3.995 1.077 5.558 3.229c1.562 2.153 2.344 4.662 2.344 7.525 0 1.771-.169 3.339-.508 4.7-.339 1.366-.71 2.36-1.115 2.973-.404.612-.781 1.169-1.131 1.683s-.535.896-.557 1.136l-.017.558-.016.503v.415s.011.295.033.372l.082.295s.076.207.131.262l.213.197c.087.076.186.152.295.219.065.021.645.163 1.738.426s2.404.656 3.935 1.181c1.53.524 2.94 1.125 4.229 1.803v.064zm21.836 2.46c.153.065.935.262 2.344.601 1.41.339 3.082.798 5.017 1.377s4.027 1.301 6.279 2.164c2.251.863 4.558 2 6.918 3.41 2.36 1.409 4.404 2.962 6.131 4.645.328.284.547.863.656 1.738.109.874.137 1.836.082 2.885s-.137 2.076-.246 3.093-.219 1.869-.328 2.547l-.164 1.017H14.089c-.109-.743-.235-1.673-.377-2.776s-.229-2.688-.262-4.754.18-3.312.639-3.749c2.143-2.076 4.792-3.956 7.951-5.628 3.159-1.673 5.951-2.886 8.377-3.65a130.28 130.28 0 0 1 7.049-2.022c2.273-.579 3.443-.874 3.508-.896.765-.372 1.229-.919 1.394-1.629s.18-1.869.049-3.486c-.044-.394-.279-.896-.705-1.497-.426-.602-.923-1.334-1.492-2.208s-1.137-1.935-1.705-3.169-1.049-2.896-1.442-4.995c-.394-2.098-.59-4.448-.59-7.049 0-3.519.524-6.732 1.574-9.639 1.049-2.907 2.667-5.279 4.853-7.115 2.186-1.836 4.754-2.754 7.705-2.754l.065-.033c2.886.022 5.421.945 7.606 2.771 2.187 1.825 3.814 4.197 4.886 7.115s1.606 6.137 1.606 9.656c0 2.601-.196 4.957-.59 7.066-.394 2.104-.875 3.776-1.443 5s-1.136 2.273-1.704 3.147-1.066 1.606-1.492 2.208c-.427.601-.65 1.114-.672 1.529-.153 1.596-.143 2.744.032 3.454s.646 1.254 1.41 1.626zm38.755.295c.284.24.426 1.65.426 4.229s-.076 5.104-.229 7.573l-.196 3.705h-7.902c.065-2.929-.491-4.929-1.672-6-1.465-1.421-3.181-2.754-5.147-4-1.968-1.246-3.771-2.251-5.41-3.017-1.64-.765-3.547-1.508-5.722-2.229-2.175-.721-3.798-1.224-4.868-1.508a186.207 186.207 0 0 0-4.066-1.017l-.983-.229-.918-.263v-.065c1.268-.699 2.678-1.312 4.229-1.825s2.88-.896 3.983-1.158c1.104-.263 1.678-.404 1.722-.426.306-.153.52-.351.64-.591s.18-.546.18-.907v-1.322c-.021-.24-.213-.623-.573-1.136s-.743-1.071-1.147-1.683c-.404-.612-.776-1.607-1.115-2.973-.339-1.361-.508-2.929-.508-4.7 0-2.863.76-5.372 2.278-7.525 1.52-2.153 3.35-3.229 5.492-3.229 2.164 0 3.994 1.065 5.492 3.197 1.497 2.131 2.245 4.628 2.245 7.492 0 1.792-.158 3.366-.475 4.721-.317 1.355-.673 2.328-1.066 2.929s-.765 1.158-1.114 1.661c-.35.502-.535.874-.558 1.115-.065.853-.055 1.465.033 1.836.087.372.35.656.787.853.087.044.798.208 2.131.492s2.775.622 4.328 1.027c1.552.404 3.268 1.049 5.147 1.934 1.878.885 3.397 1.902 4.556 3.039z"/></symbol><symbol id="section-columnists" viewBox="0 0 100 100"><path d="M99.752 39.225l-32.208-7.993L49.99 3.07 32.436 31.232.228 39.225l21.36 25.396-2.353 33.105 30.755-12.47 30.755 12.47-2.35-33.104L99.75 39.226zM30.006 69h-6.38l.238-5.154-4.746-7.125c3.256-1.417 6.287-2.147 6.67-2.33.737-.346.786-1.112.664-2.478-.072-1.102-2.58-2.34-2.58-8.76 0-4.76 1.925-9 6.628-9.015 2.35.014 6.358 4.22 6.358 8.978 0 6.42-2.684 7.626-2.778 8.726-.12 1.364-.11 2.064.63 2.41.52.217 4.694 1.07 8.58 3.113-.042.588-.22 1.248-.698 1.474-.615.295-8.02 2.937-12.266 7.073-.184.166-.28 1.09-.32 3.09zM49 41.446c5 .01 6.775 3.97 6.775 8.723 0 6.42-2.498 7.477-2.572 8.577-.12 1.364.002 1.93.738 2.278.614.29 8.056 2.71 12.304 6.847.774.702.035 11.128.035 11.128H32.774s-.688-10.452 0-11.16c4.296-4.134 11.65-5.95 12.347-6.238.74-.35.786-1.293.665-2.656-.094-1.103-2.998-2.434-2.998-8.854 0-4.754 1.21-8.612 6.21-8.62v-.026zM70.02 69c-.037-2-.136-2.928-.32-3.096-4.244-4.135-11.65-6.473-12.266-6.768-.48-.225-.656-1.04-.697-1.627 3.886-2.045 8.06-2.973 8.578-3.19.74-.343.754-1.083.63-2.446-.093-1.102-2.775-2.332-2.775-8.752 0-4.758 4.007-8.983 6.356-8.997 4.703.014 6.627 4.234 6.627 8.987 0 6.42-2.508 7.625-2.578 8.724-.12 1.363-.072 2.06.664 2.403.383.183 3.413.76 6.67 2.177l-4.746 7.425L76.4 69h-6.38z"/></symbol><symbol id="section-companies" viewBox="0 0 100 100"><path d="M.5 63.671h40.856v32.713H12.831V84.191H4.595v12.192H.5V63.671zm4.095-4.049V27.047H21.02v32.575H4.595zm0 20.475h8.236V71.86H4.595v8.237zm12.33 0h8.144V71.86h-8.144v8.237zm0 4.094v8.144h8.144v-8.144h-8.144zm8.144-24.569V2.616h40.764V39.24h-4.095v-4.049h-8.144v61.193H45.45V59.622H25.069zm4.095-40.718h8.144V10.76h-8.144v8.144zm0 12.192h8.144v-8.144h-8.144v8.144zm0 12.239h8.144v-8.144h-8.144v8.144zm0 12.192h8.144v-8.144h-8.144v8.144zm0 24.57h8.144V71.86h-8.144v8.237zm0 4.094v8.144h8.144v-8.144h-8.144zm12.192-65.287H49.5V10.76h-8.144v8.144zm0 12.192H49.5v-8.144h-8.144v8.144zm0 12.239H49.5v-8.144h-8.144v8.144zm0 12.192H49.5v-8.144h-8.144v8.144zm12.239-36.623h8.144V10.76h-8.144v8.144zm0 12.192h8.144v-8.144h-8.144v8.144zm4.049 65.288V43.335H98.5v53.049H82.121V84.191h-8.19v12.192H57.644zm4.094-40.857h8.144v-8.144h-8.144v8.144zm0 12.239h8.144v-8.144h-8.144v8.144zm0 12.331h8.144V71.86h-8.144v8.237zm0 4.094v8.144h8.144v-8.144h-8.144zm8.144-44.951V18.904h20.429V39.24H69.882zm4.049 16.287h8.19v-8.144h-8.19v8.144zm0 12.239h8.19v-8.144h-8.19v8.144zm0 12.331h8.19V71.86h-8.19v8.237zm12.285-24.57h8.189v-8.144h-8.189v8.144zm0 12.239h8.189v-8.144h-8.189v8.144zm0 12.331h8.189V71.86h-8.189v8.237zm0 4.094v8.144h8.189v-8.144h-8.189z"/></symbol><symbol id="section-ftfm" viewBox="0 0 100 100"><path d="M60.257 62.26L42.712 44.604 6.287 80.77.5 74.093l42.212-42.36 17.545 16.989 31.678-31.01 6.565 5.935L60.257 62.26zM13.186 48.721h8.828L10.33 59.997v-48.48h75.966v8.086h-.11l-3.153 3.079v-3.079l-.037-5.082h-13.8v15.765h6.417l-2.967 2.894-3.45-.037v3.45l-.186.111-2.671 2.596v-6.157H50.724v2.782l-5.489-5.638h1.929V14.521h-15.06v15.765h8.717l-2.856 2.745v.111h-5.86v5.378h.667l-3.821 3.709v-9.087H13.186v15.579zm69.809-5.675l3.265-2.671.036 2.671v44.438H10.33V81.03h.223l2.634-2.448v5.749H28.95V70.68h-8.16l3.19-3.449h4.97V62.26l3.153-2.967v7.938h15.06V53.32l3.264 3.673V67.23H66.34v-7.233l2.745-3.004.111 2.744v7.493h13.799V51.577h-8.271l2.93-2.856h5.342v-5.675zM13.186 14.521v15.765H28.95V14.521H13.186zM47.163 84.33V70.68h-15.06v13.65h15.06zm-1.298-32.753l-6.269.223 3.338-3.375 2.931 3.152zm4.562-37.056v15.765H66.34V14.521H50.427zM66.34 84.33V70.68H50.427v13.65H66.34zm16.655 0V70.68H69.196v13.65h13.799z"/></symbol><symbol id="section-house-and-home" viewBox="0 0 100 100"><path d="M97.746 51.26c.222.253.301.464.229.631-.069.167-.271.25-.605.25H82.488v38.897c0 .336-.12.615-.355.84a1.218 1.218 0 0 1-.859.334H68.319V65.135c0-.336-.11-.615-.334-.838a1.14 1.14 0 0 0-.838-.337H55.368a1.14 1.14 0 0 0-.838.337 1.13 1.13 0 0 0-.337.838v27.077H17.728a1.141 1.141 0 0 1-1.173-1.174V52.141H1.633c-.335 0-.539-.083-.609-.25-.069-.167.007-.378.231-.631L48.704 6.955c.838-.223 1.369-.223 1.592 0l12.532 11.694v-3.437c0-.335.112-.614.337-.838a1.13 1.13 0 0 1 .838-.335h15.298a1.141 1.141 0 0 1 1.175 1.173v19.911l17.27 16.137zM42.249 76.914V65.135a1.14 1.14 0 0 0-.335-.838 1.136 1.136 0 0 0-.838-.337H29.297c-.309 0-.581.113-.818.337a1.1 1.1 0 0 0-.357.838v11.779c0 .306.119.578.357.816.237.236.509.355.818.355h11.778c.335 0 .614-.119.838-.355.223-.238.336-.51.336-.816z"/></symbol><symbol id="section-leader-and-letters" viewBox="0 0 100 100"><path d="M5.955 98.5V19.545H25v8.183H14.09v62.59h49v-8.135h8.183V98.5H5.955zm21.773-19.045V.5H74l8.422 8.565 1.914 2.058 8.709 8.422v59.91H27.728zm8.134-8.183h49v-49h-13.59V8.683h-35.41v62.589zm5.455-38.089v-5.455h38.138v5.455H41.317zm0 13.589v-5.455h38.138v5.455H41.317zm0 13.638v-5.455h38.138v5.455H41.317z"/></symbol><symbol id="section-lex" viewBox="0 0 100 100"><path d="M.5 46.852V30.836l20.974 31.813L80.465 14.38 98.5 38.256v14.545L78.922 26.979 19.417 75.578.5 46.852zm.331 14.511v-2.461h.992l1.58 2.461H.831zm0 6.502v-2.461h5.252l1.543 2.461H.831zm0 4.04h9.477l1.58 2.498H.831v-2.498zm0 6.502h13.738l1.542 2.497H.831v-2.497zm0 6.465h97.632v2.534H.831v-2.534zm6.795-53.007V12.691h5.29v14.803h8.081v4.371H7.626zm14.142 49.039l3.122-2.497h73.573v2.497H21.768zm.844-49.039V12.691H36.46v4.445h-8.375V20h5.914v4.224h-5.914v3.269h8.853v4.371H22.612zm7.2 42.538l2.938-2.498h65.712v2.498h-68.65zm7.86-6.538l3.122-2.461h57.668v2.461h-60.79zm.184-36l.11-.22 5.767-9.917-5.437-9.036h6.098l.037.037 2.792 4.739 2.608-4.775h5.436l-5.252 9.073 5.951 10.101h-5.914l-.037-.073-3.379-5.62-2.975 5.693h-5.805zm7.897 29.462l2.938-2.425h49.771v2.425H45.753zm7.897-6.502l3.086-2.391H91.08l1.837 2.391H53.65zm7.825-6.468l3.159-2.535h21.451l1.873 2.535H61.475zm8.081-6.464l2.938-2.571h8.742l2.021 2.571H69.556z"/></symbol><symbol id="section-magazine" viewBox="0 0 100 100"><path d="M1.424 21.892a99.954 99.954 0 0 1 3.538-1.533c1.281-.528 3.134-1.196 5.56-2.005s4.801-1.477 7.126-2.005c2.325-.528 4.941-.927 7.851-1.196 2.909-.27 5.621-.264 8.137.017s5.043.972 7.581 2.072 4.729 2.617 6.57 4.548c.18.202.309.399.388.59s.106.331.084.421v60.325l-.05.303c-.034.146-.084.259-.152.326s-.163.101-.287.101-.264-.078-.421-.235a18.878 18.878 0 0 0-4.869-3.122 27.73 27.73 0 0 0-5.458-1.819c-1.808-.394-3.807-.606-5.998-.651-2.19-.045-4.2 0-6.031.146-1.831.146-3.841.438-6.031.865-2.19.427-4.026.819-5.509 1.19-1.483.37-3.139.854-4.97 1.438s-3.127 1.011-3.892 1.28c-.764.27-1.685.606-2.763 1.011-.382.135-.68.112-.893-.067s-.331-.394-.354-.641l-.034-.404V23.61c.022-.045.011-.163-.034-.354s.011-.433.168-.725.406-.505.743-.639zm41.679 8.996V26.71c-1.527-.809-3.156-1.455-4.885-1.938s-3.347-.825-4.852-1.027c-1.505-.203-3.246-.242-5.223-.118-1.977.124-3.65.27-5.02.438s-3.123.494-5.256.977-3.779.876-4.936 1.179-2.836.758-5.037 1.365c-1.213.337-2.111.595-2.695.775v4.616a144.66 144.66 0 0 1 2.426-.674c2.269-.651 3.993-1.135 5.172-1.449s2.836-.724 4.97-1.229 3.88-.842 5.239-1.011 3.016-.32 4.97-.455c1.955-.135 3.684-.118 5.189.051s3.139.472 4.902.91 3.441 1.026 5.036 1.768zm0 13.615v-4.147c-1.527-.809-3.15-1.455-4.869-1.938s-3.335-.826-4.852-1.028c-1.517-.202-3.263-.247-5.24-.135-1.977.112-3.65.253-5.02.421s-3.122.495-5.255.978-3.779.882-4.936 1.196-2.825.775-5.003 1.381c-1.235.337-2.145.584-2.729.741v4.619c.539-.157 1.359-.382 2.459-.674a274.356 274.356 0 0 1 5.138-1.449c1.179-.317 2.841-.722 4.987-1.216 2.145-.494 3.892-.831 5.239-1.011s2.999-.337 4.953-.472c1.955-.135 3.684-.112 5.189.067s3.139.483 4.902.91 3.442 1.013 5.037 1.757zm0 13.645V53.97a24.566 24.566 0 0 0-4.869-1.943 35.221 35.221 0 0 0-4.852-1.021c-1.517-.202-3.257-.247-5.223-.135s-3.639.247-5.021.415c-1.381.169-3.139.494-5.273.978-2.134.482-3.779.888-4.936 1.202s-2.825.774-5.003 1.381c-1.235.337-2.145.584-2.729.741v4.616a83.09 83.09 0 0 0 2.459-.674 351.343 351.343 0 0 1 5.155-1.449c1.168-.314 2.825-.719 4.97-1.213 2.145-.494 3.892-.831 5.239-.999 1.348-.169 2.999-.326 4.953-.472 1.955-.146 3.689-.124 5.206.056 1.516.18 3.15.483 4.902.91a25.67 25.67 0 0 1 5.022 1.785zm0 13.613v-4.178a24.469 24.469 0 0 0-4.885-1.943c-1.729-.482-3.347-.819-4.852-1.021s-3.246-.247-5.223-.124c-1.977.124-3.65.27-5.02.438-1.37.168-3.123.494-5.256.977-2.134.483-3.779.876-4.936 1.18-1.157.303-2.825.764-5.003 1.37-1.235.337-2.145.596-2.729.775v4.615l2.426-.707c2.269-.629 3.993-1.101 5.172-1.415s2.841-.73 4.987-1.235c2.145-.506 3.892-.843 5.239-1.011 1.348-.169 2.999-.314 4.953-.449 1.955-.135 3.684-.124 5.189.045 1.505.168 3.139.472 4.902.909a27.907 27.907 0 0 1 5.036 1.774zm54.516-49.869c.314.135.539.343.686.624.146.281.213.517.19.708s-.022.32 0 .387v59.236l-.067.438s-.146.337-.359.55c-.213.214-.505.259-.887.124a156.378 156.378 0 0 0-2.764-1.011c-.764-.27-2.066-.696-3.896-1.28a82.175 82.175 0 0 0-4.965-1.438c-1.482-.371-3.318-.764-5.509-1.19-2.189-.427-4.194-.719-6.014-.865-1.819-.146-3.824-.19-6.015-.146s-4.194.258-6.015.651a27.303 27.303 0 0 0-5.458 1.819 19.593 19.593 0 0 0-4.886 3.122c-.292.225-.505.292-.64.202s-.214-.259-.236-.506l-.033-.337V22.936c-.067-.314.09-.696.472-1.146 1.842-1.932 4.031-3.448 6.57-4.548 2.538-1.101 5.064-1.792 7.581-2.072 2.516-.281 5.228-.287 8.137-.017s5.525.668 7.851 1.196 4.7 1.196 7.126 2.005 4.279 1.477 5.56 2.005 2.471 1.038 3.571 1.533zm-3.673 11.085v-4.616c-.584-.18-1.482-.438-2.695-.775a450.4 450.4 0 0 0-5.043-1.365 159.908 159.908 0 0 0-4.93-1.179c-2.135-.483-3.887-.809-5.257-.977s-3.043-.314-5.021-.438c-1.977-.124-3.723-.084-5.239.118s-3.133.544-4.852 1.027-3.341 1.129-4.868 1.938v4.178a27.85 27.85 0 0 1 5.037-1.769c1.763-.438 3.397-.741 4.902-.91s3.234-.186 5.188-.051 3.61.287 4.97.455 3.105.505 5.239 1.011 3.785.915 4.964 1.229c1.18.314 2.909.798 5.178 1.449 1.08.293 1.888.518 2.427.675zm0 13.514v-4.619c-.584-.157-1.493-.416-2.729-.775a370.447 370.447 0 0 0-5.01-1.365 159.908 159.908 0 0 0-4.93-1.179c-2.135-.483-3.887-.809-5.257-.977s-3.043-.309-5.021-.421c-1.977-.112-3.723-.067-5.239.135s-3.133.539-4.852 1.011-3.341 1.124-4.868 1.955v4.147c1.595-.744 3.268-1.328 5.02-1.755s3.387-.73 4.902-.91c1.517-.18 3.252-.202 5.206-.067s3.605.292 4.953.472 3.094.517 5.239 1.011 3.802.898 4.98 1.213c1.18.317 2.898.8 5.145 1.452 1.103.29 1.922.514 2.461.672zm0 27.359V55.69c-.584-.18-1.482-.438-2.695-.775a500.649 500.649 0 0 0-5.043-1.37 162.344 162.344 0 0 0-4.93-1.18c-2.135-.482-3.887-.809-5.257-.977-1.37-.169-3.043-.314-5.021-.438-1.977-.123-3.723-.078-5.239.124s-3.133.539-4.852 1.021a24.618 24.618 0 0 0-4.868 1.943v17.723a28.018 28.018 0 0 1 5.02-1.774c1.752-.438 3.387-.741 4.902-.909 1.517-.169 3.252-.18 5.206-.045s3.605.28 4.953.449c1.348.168 3.094.505 5.239 1.011 2.146.505 3.802.921 4.98 1.235 1.18.314 2.898.786 5.145 1.415 1.102.314 1.921.549 2.46.707z"/></symbol><symbol id="section-markets-data" viewBox="0 0 100 100"><path d="M1 88.93V10.07h2.625v76.312H98v2.547H1zm5.211-5.327v-57.59l16.019 5.094 12.814 11.118 13.009-12.082 7.913 14.551 7.525 7.412 5.674 2.742 10.848-10.307 7.449-10.847 4.941-7.991L98 18.447v65.271l-91.789-.115z"/></symbol><symbol id="section-markets" viewBox="0 0 100 100"><path d="M2.5 90.088h96v4.527h-96v-4.527zm.354-77.137V7.403h4.528v5.548H2.854zm0 11.806v-5.548h4.528v5.548H2.854zm0 11.85v-5.548h4.528v5.548H2.854zm0 11.806v-5.415h4.528v5.415H2.854zm0 11.939v-5.549h4.528v5.549H2.854zm0 11.805v-5.503h4.528v5.503H2.854zm0 6.303h4.528v5.548H2.854V78.46zm14.203 4.35V56.535h22.546V82.81H17.057zm27.384 0V33.456h22.324V82.81H44.441zm27.295 0V4.384h22.413V82.81H71.736z"/></symbol><symbol id="section-money" viewBox="0 0 100 100"><path d="M2.5 46.124c0-2.504.355-4.921 1.067-7.252.712-2.332 1.505-3.498 2.378-3.498h6.098c1.333-3.123 3.273-5.995 5.823-8.613-.046-.575-.31-1.114-.792-1.619a7.337 7.337 0 0 0-1.603-1.275 17.913 17.913 0 0 1-1.74-1.171c-.573-.437-.976-.861-1.206-1.275-.229-.413-.229-.953 0-1.619.345-.919 1.309-1.39 2.894-1.413 1.586-.023 3.216.212 4.893.706a34.982 34.982 0 0 1 4.823 1.809c3.308-2.136 7.017-3.778 11.128-4.927 4.111-1.148 8.429-1.723 12.954-1.723 4.962 0 9.725.723 14.294 2.171 4.57 1.447 8.58 3.422 12.025 5.925 3.444 2.504 6.316 5.49 8.612 8.958 2.298 3.468 3.732 7.154 4.307 11.059 1.148-.437 2.269-1.257 3.358-2.463 1.093-1.207 1.952-2.395 2.585-3.566a28.911 28.911 0 0 1 1.911-3.101c.644-.896 1.173-1.321 1.585-1.275.391.069.592.609.604 1.62.012 1.01-.201 2.302-.637 3.875a34.833 34.833 0 0 1-1.81 4.927c-.77 1.71-1.854 3.417-3.255 5.127-1.401 1.712-2.952 3.089-4.652 4.123-.664 3.284-1.946 6.397-3.842 9.349-1.894 2.951-4.289 5.604-7.183 7.947.139 1.884.189 4.043.154 6.489-.033 2.444-.166 3.928-.395 4.432-.047.069-.184.311-.414.725-.23.412-.391.688-.482.838-.092.149-.281.413-.569.792-.287.379-.545.654-.774.814-.229.162-.558.369-.981.633-.425.264-.862.46-1.31.585-.447.127-.992.242-1.638.346-.643.104-1.33.16-2.066.16-1.446 0-2.75-.172-3.91-.516-1.159-.347-2.085-.794-2.772-1.333-.689-.539-1.224-1.057-1.603-1.563-.379-.504-.648-.998-.811-1.48-.137-.32-.217-1.251-.24-2.79-3.513.734-6.877 1.102-10.092 1.102-3.628 0-7.292-.424-10.99-1.273-.023 1.629-.092 2.618-.208 2.962-.114.459-.355.941-.723 1.459-.368.517-.884 1.046-1.55 1.585-.667.539-1.58.986-2.74 1.333-1.16.344-2.463.516-3.91.516-1.171 0-2.217-.127-3.136-.379-.918-.252-1.63-.517-2.135-.782-.505-.264-.988-.676-1.447-1.25-.459-.574-.752-.989-.878-1.229a74.993 74.993 0 0 1-.638-1.252c-.597-.919-.667-4.777-.206-11.575-3.675-3.032-6.478-6.649-8.407-10.854H5.945c-.873 0-1.666-1.262-2.378-3.776A27.518 27.518 0 0 1 2.5 46.124zm31.662-19.242c-.253.701-.207 1.349.138 1.946.368.666.884 1.114 1.551 1.343a2.277 2.277 0 0 0 1.928-.172c.299-.138.914-.397 1.844-.775.93-.379 2.458-.828 4.582-1.344 2.125-.517 4.106-.775 5.944-.775.826 0 1.671.052 2.532.154a23.61 23.61 0 0 1 2.36.397c.711.161 1.397.345 2.064.551.664.207 1.262.408 1.79.603.529.195.988.379 1.379.552.391.172.705.315.947.43.241.116.374.173.396.173.598.367 1.264.441 1.999.224.734-.218 1.24-.637 1.516-1.257.367-.575.447-1.241.24-1.999-.252-.757-.643-1.263-1.17-1.515l-.862-.431c-.344-.172-1.021-.459-2.031-.861a38.923 38.923 0 0 0-3.051-1.068c-1.021-.31-2.275-.585-3.77-.827a27.224 27.224 0 0 0-4.34-.362c-2.274 0-4.623.293-7.046.879-2.423.585-4.232 1.131-5.426 1.636-1.195.505-1.883.838-2.067.999-.712.299-1.195.798-1.447 1.499z"/></symbol><symbol id="section-special-report" viewBox="0 0 100 100"><path d="M77.397.5l15.647 16.317V98.5H11.41V84.862H5.955V68.545h5.455v-10.91H5.955V41.317h5.455V30.455H5.955V14.09h5.455V.5h65.987zM11.41 19.545V25h8.135v-5.455H11.41zm0 27.227v5.455h8.135v-5.455H11.41zm0 27.228v5.455h8.135V74H11.41zm52.206-20.768l-2.058-12.011 8.709-8.518-12.059-1.723-5.359-10.91-5.407 10.91-12.059 1.723 8.757 8.518-2.058 12.011 10.767-5.694 10.767 5.694z"/></symbol><symbol id="section-uk" viewBox="0 0 100 100"><path d="M16.98 48.618a2.293 2.293 0 0 1-.07-.431l.022-.287a.624.624 0 0 1 .144-.305.928.928 0 0 1 .36-.239c.67-.413 1.039-.781 1.102-1.101.033-.125-.048-.207-.24-.24-.607-.095-.924-.302-.957-.622-.033-.158.062-.287.287-.383.67-.32 1.307-.479 1.915-.479.096 0 .335-.173.718-.526.383-.35.703-.56.958-.622.158-.062.294-.225.405-.457a1.53 1.53 0 0 0 .169-.648v-.335c.32-1.116.574-1.771.766-1.963.191-.128.328-.128.405 0 .082.129.21.295.383.504.176.206.361.295.552.262.32-.033.781-.159 1.389-.383.191-.062.35-.055.479.026.128.078.287.07.479-.026.159-.033.357-.11.6-.239.239-.129.405-.199.501-.214.096-.019.272.007.526.07.225.096.423.265.6.504.173.239.357.534.549.884.191.35.335.589.431.718.191.225.32.56.383 1.009.062.445.158.732.287.861l.191.191.191.21.144.236c.062.113.121.242.169.383l.166.512c.096.383.375.703.839.957.461.258.693.497.693.718 0 1.819-.096 2.92-.287 3.303-.033.066-.28.225-.741.497-.463.27-.729.527-.791.752-.254.7-.829 1.355-1.724 1.959-.637.287-1.094.448-1.362.494-.272.051-.538-.031-.792-.252-.096-.095-.225-.367-.383-.816-.159-.449-.35-.715-.574-.812a2.754 2.754 0 0 1-1.079-.56c-.335-.271-.549-.574-.645-.928-.096-.349-.287-.556-.575-.622-.287-.062-.542.018-.766.239-.479.353-.751.593-.814.718-.225.578-.78.496-1.675-.24-2.106-.699-3.193-1.292-3.255-1.771a2.4 2.4 0 0 0-.073-.506zm8.403-38.462l.479-.861-.192-1.868c-.128-.928.254-1.532 1.149-1.819.287-.128.718-.479 1.292-1.053a28.63 28.63 0 0 1 1.532-1.437c.446-.383.766-.449.958-.191.383.316.589.979.622 1.984.034 1.005-.11 1.558-.431 1.654-.637.287-.957.732-.957 1.34 0 .288-.062.52-.192.692-.128.177-.416.417-.862.718l-.813.552c-.159.126-.32.31-.479.549l-.383.574a.818.818 0 0 1-.405.313c-.177.062-.361-.033-.552-.287l-.766-.86zm.67 5.026l.287-.526c.096-.162.328-.247.696-.265.365-.015.548-.166.548-.453 0-.287.082-.438.24-.457.159-.015.383.055.67.217l.383.144c.191.096.32.088.383-.026.062-.11.121-.39.169-.835a7.61 7.61 0 0 1 .214-1.197c.192-.737.446-.785.766-.144.033.096.096.239.191.431l.287.622c.192.221.313.494.361.813.048.317.056.589.022.814-.033.222-.096.549-.191.979-.096.431.015.767.335 1.005.32.239.655.361 1.005.361.254-.192.313-.52.169-.983-.144-.46-.36-.95-.647-1.458-.096-.258-.015-.552.239-.888.254-.335.335-.615.239-.836-.287-.799-.224-1.484.192-2.059.191-.191.438-.32.744-.383.302-.066.67-.096 1.101-.096s.755-.033.979-.096c.287-.095.383-.184.287-.264a5.501 5.501 0 0 1-.453-.454c-.21-.225-.28-.431-.217-.622.033-.225.103-.457.217-.696a3.49 3.49 0 0 0 .239-.67c.048-.207.056-.472.023-.789V6.18c-.034-.225-.041-.354-.023-.383.015-.033.071-.033.166 0 .254.063.494.096.718.096.32 0 .526-.066.622-.191.096-.129.111-.295.048-.505-.062-.203-.047-.436.049-.69.062-.258.206-.623.431-1.102.225-.478.368-.847.431-1.101.095-.354.246-.582.456-.696.207-.11.438-.07.692.122.254.35 1.164.67 2.729.957.512.125 1.834.062 3.973-.191.162 0 .32-.033.479-.096.162-.066.287-.128.383-.192l.431-.265.527-.309c.607-.288 1.277-.096 2.011.574.191.126.294.269.313.431.015.158 0 .317-.048.479l-.192.67a5.65 5.65 0 0 0-.169.813c-.03.446-.062.733-.096.862-.029.125-.143.262-.335.405a3.291 3.291 0 0 0-.527.504c-.158.221-.412.556-.766 1.005-.35.446-.645.814-.884 1.101s-.408.527-.504.718c-.03.192-.199.342-.501.453l-.766.288c-.209.081-.265.198-.169.36l.409.453c.015.018-.055.217-.217.6a8.937 8.937 0 0 1-.335.526 3.369 3.369 0 0 0-.431.91v.262s.062.073.191.073.247-.018.361-.047l.501-.122c.225-.048.431-.07.623-.07.32-.033.567-.136.744-.313.173-.173.405-.262.692-.262.258 0 .622.119 1.101.358s.847.375 1.102.409c.191.029.526-.019 1.006-.144.478-.128.927-.081 1.34.144.287.125.589.166.912.118.317-.048.546-.088.693-.118.14-.033.36-.114.648-.24.286-.128.521-.209.714-.239.448-.129.751-.144.913-.048.154.096.317.335.479.718l.096.191c.059.125.229.383.501.766s.449.7.522.957c.081.254.114.527.074.813-.096.288-.339.575-.744.862-.396.287-.641.479-.736.575-.133.128-.229.471-.287 1.028-.066.559-.162.95-.287 1.174-.066.096-.14.512-.221 1.245-.074.733-.324 1.164-.737 1.293a1.681 1.681 0 0 0-.861.718c-.229.35-.376.637-.457.862s-.198.623-.36 1.197c-.096.512-.456 1.116-1.075 1.819-.626.703-.936 1.067-.936 1.101-.065.225.141.501.597.836.464.335.678.567.648.696 0 .192-.214.376-.648.549a7.623 7.623 0 0 1-1.314.409l-.67.144-.048.07-.143.122-.214.213-.24.265a1.445 1.445 0 0 0-.191.287l-.144.31a.777.777 0 0 0-.073.287c0 .081.025.162.073.24a.668.668 0 0 0 .214.217.712.712 0 0 0 .744.143c.269-.096.494-.239.67-.431.173-.191.372-.398.6-.622.221-.225.397-.369.523-.431.257-.128.823.062 1.701.574.876.512 1.348.767 1.414.767.125 0 .221.11.286.335.06.224.155.383.288.479.221.129.516.368.884.718.367.35.566.622.596.813 0 .129.096.309.288.549.191.242.383.456.573.647l.288.287c.711.766 1.123 1.532 1.249 2.298.095.575.322 1.51.67 2.802.353 1.292.574 2.037.67 2.228.516 1.278.766 2.202.766 2.776 0 .32.272.575.817.784.537.206 1.017.317 1.437.317l.331-.03c.162-.018.272-.018.339 0l.25.096a.803.803 0 0 1 .324.269c.06.066.177.225.331.479.163.257.303.464.435.622.125.162.303.32.523.497.228.173.449.269.67.269.324.066.479.272.479.623 0 .354.015.641.051.861.06.129.235.335.523.638.287.301.53.589.722.861.19.272.235.529.14.75-.096.192-.272.244-.509.148-.242-.097-.353-.066-.353.096-.06.316.11.935.545 1.863.427.927.861 1.502 1.274 1.724.382.257.589.478.641.685.044.206-.081.367-.398.464-.449.162-.449.658 0 1.491.096.221.303.383.619.479.324.096.493.251.529.479.03.317.222.619.575.921l.574.516c.155.191.221.463.206.811-.015.354-.206.766-.589 1.244-.449.545-.707 1.149-.751 1.819-.052.67.161 1.163.604 1.486a.848.848 0 0 0 .354.097l.272-.036a.408.408 0 0 0 .191-.111l.141-.191.066-.235.044-.243c.021-.06.036-.206.036-.427.03-.229.191-.339.494-.339.302 0 .464-.06.464-.191 0-.06.029-.126.11-.192.081-.059.206-.125.383-.176.177-.045.332-.074.479-.096a7.78 7.78 0 0 0 .619-.096l.655-.11c.516-.061.848-.015 1.023.146.177.155.354.479.509.957.096.192.191.317.287.398.096.08.176.11.243.08l.044-.051 1.149.479c.161.096.161.177 0 .243-.317.125-.332.347-.046.67.192.222.465.347.812.383.287.03.479.06.589.11.117.045.191.11.243.177.044.06.14.178.287.332.141.161.331.339.56.53.347.316.574.67.671 1.068.095.396.095.78 0 1.133a3.329 3.329 0 0 1-.479 1.002c-.132.229-.288.626-.479 1.216-.191.589-.384.973-.575 1.134-.323.287-.67.751-1.038 1.385-.368.641-.574 1.2-.641 1.679-.06.987-.604 1.179-1.627.574-.317-.19-.479-.051-.479.428-.03.287 0 .493.095.626.096.125.096.287 0 .493-.095.207-.286.428-.574.656a3.451 3.451 0 0 1-.957.522c-.729.229-.589.655.434 1.296l.428.236c.162.132.56.206 1.215.242.655.029 1.289.029 1.9 0l.861-.052c0 .42-.11.736-.338.958-.029.132.051.465.257 1.009.207.538.273.892.178 1.053-.133.191-.56.332-1.281.428-.716.096-1.127.177-1.261.242-.221.126-.441.494-.67 1.113-.221.625-.441.979-.67 1.038-.221.066-.538.258-.942.59-.397.338-.766.53-1.112.56-.258.036-.479.081-.655.161a3.697 3.697 0 0 0-.626.384 4.401 4.401 0 0 1-.634.412 1.614 1.614 0 0 1-.625.214c-.192.015-.348 0-.479-.067l-.464-.271a2.898 2.898 0 0 0-.494-.258l-.331-.126-.383-.146-.338-.096a1.407 1.407 0 0 0-.369-.06h-.301a1.71 1.71 0 0 0-.384.045c-.25.096-.589.065-.987-.081-.397-.14-.641-.206-.736-.206-.25 0-.634.228-1.148.67-.509.448-.781.67-.811.67-.036 0-.146-.073-.339-.236a2.961 2.961 0 0 0-.751-.434 1.461 1.461 0 0 0-.876-.097c-.251.133-.383.303-.368.53.021.222.117.428.272.619l.191.339c0 .125-.236.331-.715.619-.479.286-.847.368-1.104.242a25.447 25.447 0 0 0-1.34-.611c-.634-.265-1.068-.456-1.289-.589l-.229-.096-.235-.044h-.188l-.17.015-.14.044-.169.096-.147.104-.14.096c-.081.044-.118.096-.118.125l-.242.287-.31.383a1.02 1.02 0 0 1-.339.25c-.141.082-.259.134-.354.134l-.816-.317c-.449-.177-.766-.272-.958-.309-.125-.029-.265.066-.405.309-.146.235-.265.347-.36.317-.096-.03-.295-.178-.597-.435a6.927 6.927 0 0 0-.839-.619 2.802 2.802 0 0 0-1.268-.574c-.497-.096-.791-.052-.887.14-.062.132-.221.191-.479.214-.254.015-.575.029-.958.029s-.733.066-1.053.191c-.924.25-1.388 1.054-1.388 2.394 0 .353-.177.699-.526 1.054-.35.353-.527.588-.527.714 0 .354-.479.53-1.436.53-.129 0-.302-.082-.526-.222a28.416 28.416 0 0 1-.836-.574 5.124 5.124 0 0 0-.935-.545c-.287-.096-.645-.147-1.075-.147-.431 0-.862.022-1.292.066-.431.052-.681.081-.744.081-.703 0-1.116.236-1.245.715-.033.133-.159.243-.383.339-.225.095-.52.176-.884.258l-.6.125c-.192.096-.406.412-.645.957-.24.545-.376.848-.409.906l-.096.052c-.67.545-1.101.523-1.292-.052-.129-.251-.272-.428-.431-.508a.454.454 0 0 0-.431-.016.728.728 0 0 0-.288.236c-.095.162-.405.214-.932.147s-.825-.192-.887-.384c-.158-.221-.151-.529.025-.913.174-.383.391-.67.645-.861.159-.154.623-.398 1.389-.699.766-.303 1.292-.561 1.58-.781a3.3 3.3 0 0 0 .479-.383c.128-.125.224-.273.287-.413l.122-.309.096-.413c.048-.205.085-.331.118-.397.033-.221.199-.397.504-.508.302-.118.582-.147.836-.118h.383c.191-.316.512-.655.958-.986a6.512 6.512 0 0 1 1.197-.736c.159-.097.239-.222.239-.383a5.95 5.95 0 0 0-.07-.751 3.924 3.924 0 0 1-.026-.973c.033-.383.232-.67.6-.861.365-.192.74-.317 1.123-.384.383-.059.589-.11.622-.14.063-.036.074-.161.026-.368l-.169-.671a1.34 1.34 0 0 1 .048-.78c.095-.191.582-.303 1.462-.339a37.926 37.926 0 0 1 3.207.052l2.033.096c.225 0 .409-.015.552-.036a1.21 1.21 0 0 0 .383-.097l.214-.096.217-.154c.11-.096.199-.162.261-.191.192-.133.328-.303.409-.516.077-.206.118-.383.118-.538l-.048-.19c-.062-.133-.232-.133-.501 0a11.05 11.05 0 0 0-.936.492c-.35.207-.604.332-.766.369-.191 0-.582-.206-1.171-.626a45.341 45.341 0 0 1-1.845-1.37c-.637-.493-1.021-.766-1.149-.832-.158-.096-.416-.081-.766.066a9.107 9.107 0 0 0-1.076.522c-.368.214-.6.339-.696.368-.096.037-.129-.095-.096-.383l.24-1.48-.048-.146c-.062-.251-.247-.398-.549-.413-.306-.015-.471-.081-.504-.191s-.088-.191-.166-.258c-.081-.06-.21-.14-.383-.221a1.373 1.373 0 0 1-.408-.258c-.192-.191-.454-.177-.789.066-.335.235-.504.479-.504.7 0 .228-.199.434-.597.641-.401.205-.744.315-1.031.315-.383 0-.876-.286-1.484-.86-.158-.191-.192-.494-.096-.893.096-.396.096-.625 0-.685 0-.036-.07-.096-.214-.177a1.416 1.416 0 0 1-.335-.242c-.081-.074-.114-.192-.096-.332.015-.146.118-.302.31-.494.191-.19.445-.338.766-.418a5.48 5.48 0 0 1 1.031-.142l.597-.015c.095-.036.158-.161.191-.367.033-.207.207-.369.527-.494.512-.258 1.093-.61 1.749-1.038.652-.435 1.09-.78 1.314-1.068.158-.257.486-.626.983-1.089.494-.457.932-.841 1.315-1.164l.622-.523c-.445-1.09-.942-2.01-1.483-2.776-.225-.383-.406-.611-.549-.67-.144-.066-.258-.081-.335-.037-.081.052-.265.229-.552.516-.32.25-.71.288-1.171.096-.464-.191-.777-.449-.935-.766-.096-.191-.015-.354.239-.479.254-.132.534-.257.839-.367.302-.111.453-.222.453-.354 0-.384.589-.987 1.771-1.819.129-.125.144-.191.048-.191-.766.066-1.277-.015-1.532-.236-.254-.228-.328-.478-.214-.751.111-.271.295-.509.549-.736l.431-.332h1.724c.287.126.622.192 1.005.192.159 0 .351-.051.575-.133l.457-.14c.078-.016.213.029.405.125.062.036.169.111.313.243.144.125.269.221.383.302.111.08.229.141.357.177.129.03.225-.036.288-.191.383-.419 1.038-.626 1.962-.626.162 0 .305-.081.431-.235.129-.162.225-.303.287-.435l.048-.236c.287-.191.615-.928.983-2.202.365-1.285.548-2.419.548-3.405 0-.641-.022-1.083-.07-1.325-.048-.237-.151-.369-.313-.398-.158-.029-.383-.015-.67.051-.383.06-.807-.242-1.267-.897-.464-.655-.726-1.179-.792-1.595-.096-1.02-.383-1.786-.862-2.298a2.609 2.609 0 0 1-.287-.574.93.93 0 0 1 .025-.622l.166-.479c.033-.096.137-.288.313-.575.173-.287.28-.445.31-.479.066-.191.225-.526.479-1.005.416-.703.497-1.053.239-1.053-.096 0-.239.033-.431.096-.67.255-1.547.383-2.633.383s-1.756-.158-2.01-.479c-.191-.159-.287-.062-.287.288-.062.99-.192 1.58-.383 1.771a.777.777 0 0 1-.479.144c-.479 0-1.204-.096-2.176-.287-.976-.192-1.558-.269-1.749-.24-.254.033-.534-.35-.836-1.148-.306-.799-.409-1.451-.312-1.966.095-.542.559-1.421 1.388-2.633.829-1.211 1.499-1.996 2.011-2.346.158-.128.239-.262.239-.405 0-.144-.081-.32-.239-.527a5.325 5.325 0 0 0-.479-.552 7.853 7.853 0 0 0-.526-.479c-.191-.159-.302-.272-.335-.335-.129-.096-.184-.335-.166-.718.015-.383.047-.703.095-.958s.037-.416-.025-.479l-1.484-.335-.957.67c-.254.254-.32.446-.192.575.32.287.719.876 1.197 1.771.479.895.589 1.451.335 1.675-.096.192-.199.302-.31.335-.114.033-.239 0-.383-.096a1.892 1.892 0 0 1-.383-.335c-.114-.129-.28-.335-.505-.623-.512-.67-.895-.35-1.149.958l-.095.574c-.033.416-.35.663-.958.744-.607.078-1.054.022-1.34-.169-.159-.096-.144-.446.048-1.053.191-.608.409-1.237.648-1.892.239-.653.324-1.062.262-1.22-.159-.416-.033-.829.383-1.245.128-.159.136-.35.025-.574a5.463 5.463 0 0 0-.408-.67l-.287-.335c-.225-.225-.454-.111-.693.335s-.479.972-.718 1.58c-.24.607-.442.942-.601 1.005-.798.417-1.307.431-1.532.048-.225-.383-.32-.839-.287-1.366.033-.527.111-.932.239-1.219.096-.159.936-.71 2.515-1.653 1.58-.939 2.401-1.554 2.463-1.841 0-.096.055-.328.169-.696l.335-1.149c.11-.397.207-.795.288-1.197.077-.397.103-.718.07-.958-.033-.239-.128-.357-.287-.357-.225.062-.464.368-.718.909-.254.542-.549 1.068-.884 1.58s-.71.781-1.127.814c-1.115.095-1.738-.063-1.867-.479-.033-.191.081-.383.335-.574.225-.159.32-.361.287-.6a1.18 1.18 0 0 0-.239-.597 4.713 4.713 0 0 1-.405-.622 2.149 2.149 0 0 1-.265-.671c-.033-.32 0-.534.096-.648.096-.11.254-.228.479-.357s.398-.32.527-.575c.128-.35.423-.718.887-1.101.46-.383.74-.766.836-1.149.096-.417-.144-.854-.718-1.318-.575-.46-1.039-.692-1.389-.692-.191 0-.541-.28-1.053-.839-.512-.556-.877-.851-1.102-.884-.158-.033-.357-.184-.6-.457a4.815 4.815 0 0 1-.596-.836l-.239-.383-.097-.099z"/></symbol><symbol id="section-world" viewBox="0 0 100 100"><path d="M1.453 49.5c0-4.348.579-8.602 1.736-12.763 1.157-4.16 2.768-7.991 4.833-11.495 2.064-3.504 4.574-6.734 7.53-9.69s6.186-5.465 9.69-7.53c3.503-2.065 7.326-3.668 11.472-4.811C40.858 2.071 45.105 1.5 49.453 1.5s8.604.571 12.761 1.712c4.162 1.142 8.002 2.746 11.522 4.811a48.221 48.221 0 0 1 9.711 7.53c2.954 2.956 5.468 6.186 7.532 9.69 2.064 3.503 3.673 7.335 4.831 11.495a47.354 47.354 0 0 1 1.738 12.763c0 4.35-.579 8.585-1.738 12.73-1.158 4.146-2.767 7.977-4.831 11.481-2.064 3.501-4.578 6.725-7.532 9.679-2.958 2.958-6.193 5.476-9.711 7.54-3.521 2.064-7.36 3.677-11.522 4.835-4.157 1.155-8.413 1.734-12.761 1.734s-8.595-.579-12.739-1.734c-4.146-1.158-7.969-2.771-11.472-4.835-3.504-2.064-6.734-4.582-9.69-7.54a48.433 48.433 0 0 1-7.53-9.679c-2.065-3.505-3.676-7.336-4.833-11.481A47.096 47.096 0 0 1 1.453 49.5zm8.587-9.197c0 1.095.141 1.642.422 1.642.156-.03.265-.312.328-.845.031-.281.203-1.062.516-2.346.312-1.281.469-2.189.469-2.722 0-1.157.188-1.814.563-1.971.061-.031.125 0 .188.094.061.126.031.571-.094 1.338-.126.765-.282 1.65-.469 2.65a54.084 54.084 0 0 0-.375 2.159c0 .126-.063.767-.188 1.924-.126 1.157-.22 2.128-.282 2.909a22.67 22.67 0 0 0-.047 2.581c.031.938.155 1.596.375 1.971 3.19 4.284 5.41 7.414 6.663 9.385.125.188.359.608.704 1.281.343.673.602 1.175.773 1.485.171.313.438.657.797 1.032.359.375.729.645 1.104.8.375.126.859.188 1.455.204.594.016 1.024.061 1.289.139.266.077.4.281.4.596 0 .312-.016.514-.047.624-.033.11-.071.204-.118.281-.047.078-.204.237-.469.453-.265.221-.524.47-.773.751-.75.815-1.377 1.971-1.877 3.488-.501 1.518-.596 2.583-.281 3.175l.398.815c.171.359.532 1 1.079 1.922a27.917 27.917 0 0 0 1.667 2.518c.563.751 1.281 1.485 2.158 2.208.876.718 1.735 1.188 2.58 1.407.094.062.22.172.375.326.157.156.369.596.634 1.33.265.735.398 1.629.398 2.661 0 .75.017 1.265.047 1.546 3.378 1.751 7.179 3.052 11.402 3.896a150.458 150.458 0 0 1 2.534-1.501c.218-.127.916-.723 2.089-1.771 1.173-1.045 2.228-1.702 3.166-1.983 1.188-.314 2.024-.768 2.51-1.363s.808-1.424.963-2.484c.126-.657.624-1.502 1.501-2.534.878-1.032 1.33-1.767 1.359-2.207.094-.751-.498-1.547-1.783-2.392-1.281-.845-2.485-1.22-3.611-1.126-.781.062-1.744-.11-2.885-.518-1.143-.404-1.917-.515-2.324-.327a.43.43 0 0 0-.234.094c-.5.311-.9.453-1.196.438-.298-.017-.416-.282-.353-.812.063-.375.132-.706.212-.971.078-.266.147-.421.21-.485l.094-.14-.094-.265c-.03-.11-.148-.314-.351-.612a3.04 3.04 0 0 0-.775-.767c-.312-.217-.798-.421-1.455-.608s-1.422-.281-2.299-.281c-2.313-2.317-3.848-3.583-4.598-3.803l-3.801-.983a3.57 3.57 0 0 1-.563.155c-.219.049-.563.063-1.032.032-.47-.032-.798-.188-.986-.47-.155-.22-.194-.469-.116-.734s.196-.518.351-.767c.157-.249.212-.47.165-.641-.047-.172-.273-.253-.681-.253-.563 0-1.266.175-2.11.534-.844.359-1.471.404-1.877.123a5.92 5.92 0 0 0-.916-.404 9.215 9.215 0 0 1-.867-.347c-.188-.094-.384-.281-.587-.563-.204-.281-.337-.641-.398-1.077a4.453 4.453 0 0 1 .069-1.501c.11-.531.141-.906.094-1.127-.047-.22-.29-.407-.726-.562-1.283-.314-2.191-.751-2.722-1.314-.22-.248-.204-.452.047-.611.437-.437.883-1.126 1.336-2.064.453-.938.477-1.515.071-1.734-.282-.094-.541 0-.775.281-.234.281-.5.547-.797.796-.296.253-.68.314-1.149.188-.501-.188-.899-.718-1.197-1.595a7.84 7.84 0 0 1-.422-2.657c.016-.892.18-1.487.494-1.799.031-.063.141-.218.329-.453l.397-.485c.08-.094.212-.235.4-.422.188-.188.337-.312.445-.375l.4-.218a.824.824 0 0 1 .469-.094c.155.014.312.078.469.171.282.157.483.298.61.438.125.141.188.235.188.265l.094.094c.061.031.171.031.329 0 .155-.063.312-.171.469-.328.155-.157.288-.251.398-.265.11-.017.367.077.775.265.249.094.476.157.679.204.204.047.345.077.422.077s.166.031.259.11c.094.078.218.218.375.406.312.375.428 1.143.351 2.299s-.085 1.767-.022 1.83c.094.188.257.329.492.422.235.094.478.077.729-.031.249-.11.422-.345.516-.72.061-.345.031-.892-.094-1.626-.126-.736-.182-1.346-.166-1.846.017-.5.196-.767.541-.798.249-.094.61-.171 1.079-.234s.837-.141 1.103-.235a.844.844 0 0 0 .539-.516c.063-.157.329-.438.798-.828.469-.392.72-.798.75-1.236.063-.563.149-.907.259-1.032.11-.125.492-.312 1.148-.563.345-.155.869-.469 1.573-.938s1.322-.781 1.852-.938c.345-.125.588-.202.729-.235.141-.03.234-.039.281-.022l.329.07c.171.032.414.047.727.047 1.752 0 2.848-.235 3.285-.704.126-.125.141-.265.047-.422-.094-.155-.312-.351-.657-.585a4.757 4.757 0 0 1-.82-.681c-.204-.218-.243-.437-.119-.657.063-.031.166-.125.306-.281l.329-.351.328-.329c.141-.141.266-.234.375-.281l.375-.141s.281-.063.422-.047a.786.786 0 0 1 .398.164c.22.22.361.861.422 1.924.033.469.174.595.422.375l.141-.094c.219-.249.438-.351.657-.304.219.047.4.163.541.351.141.188.288.32.445.4.157.078.282.039.375-.118.125-.312.055-.671-.21-1.079a1.7 1.7 0 0 1-.259-1.314 1.807 1.807 0 0 0-.047-1.079 6.709 6.709 0 0 0-.61-1.196 6.614 6.614 0 0 1-.61-1.197l-.257-.798c-.08-.249-.133-.5-.166-.751a5.299 5.299 0 0 1-.047-.585v-1.056c0-.249-.155-.351-.469-.304a7.073 7.073 0 0 0-1.008.235c-.361.11-.665.022-.916-.259-.188-.155-.359-.508-.516-1.055-.155-.547-.328-.994-.516-1.337-.188-.344-.469-.446-.845-.305-.375.141-.704.546-.985 1.22a16.145 16.145 0 0 0-.679 1.946c-.173.626-.306.955-.4.985-.5.126-1.032.329-1.595.61-.563.281-.875.61-.938.985-.094.501-.437 1.018-1.032 1.548-.406.345-.61.314-.61-.094 0-.094.017-.218.047-.375.094-.343.25-.71.469-1.102.221-.392.408-.688.563-.892.157-.204.275-.486.353-.845.078-.359.039-.681-.118-.963a5.19 5.19 0 0 0-.632-.797l-.704-.727a3.944 3.944 0 0 1-.541-.68 1.19 1.19 0 0 1-.188-.775c.033-.265.188-.539.469-.82.281-.345.51-.604.681-.775.171-.172.351-.304.539-.398l.353-.166c.047-.016.218-.039.516-.069.298-.033.492-.047.585-.047.345-.033.712.1 1.104.398.39.298.679.532.867.704.188.171.439.133.751-.116.157-.22.336-.532.541-.938.202-.408.384-.712.539-.916.157-.204.329-.336.516-.398.094 0 .502.484 1.22 1.455.845 1.188 1.33 1.422 1.455.704v-.235c.188-1.095.251-2.293.188-3.59-.061-1.297-.375-2.01-.938-2.134-.5-.126-1-.008-1.501.351-.5.359-.845.555-1.032.587-.406.155-.726.062-.961-.281-.234-.345-.353-.783-.353-1.314 0-.281-.328-.173-.985.329-1.126.812-1.83 1.032-2.111.657a1.08 1.08 0 0 1-.188-.469c-.188-1.065-.265-1.736-.234-2.018.033-.282.251-.938.657-1.971.22-.438.469-.908.751-1.408.22-.314.306-.508.259-.587-.047-.078-.273-.164-.682-.257-.845-.188-1.908-.281-3.191-.281-1.313.594-2.893 1.501-4.737 2.721a5.385 5.385 0 0 1-.094.61 1.34 1.34 0 0 1-.212.422c-.11.155-.273.282-.492.375-.345.125-.885.641-1.62 1.548a96.211 96.211 0 0 0-2.346 3.026c-.829 1.11-1.369 1.808-1.618 2.089-5.382 6.161-7.993 10.307-7.836 12.433.094 1.314-.055 2.558-.447 3.731-.393 1.168-.589 1.974-.589 2.41zm33.829-26.415c-.845.375-.626 1.844.657 4.411.157.343.422.757.797 1.243s.649.93.822 1.338c.171.406.21.875.116 1.408a3.04 3.04 0 0 0-.069 1.126c.047.375.125.742.235 1.102.108.359.226.681.351.962s.251.501.375.656c.125.157.204.22.235.188.188-.062.375-.249.563-.562.188-.313.328-.594.422-.844l.141-.375c1.908-.908 3.441-1.94 4.597-3.097.408-.375.628-.651.656-.822.033-.171-.053-.282-.257-.329s-.444-.157-.727-.329a1.25 1.25 0 0 1-.562-.773c-.188-.438-.4-1.213-.633-2.324-.236-1.11-.493-1.946-.775-2.509-.249-.439-.868-.736-1.852-.892a11.01 11.01 0 0 0-2.956-.071c-.985.109-1.697.272-2.136.493zM58.46 8.539c.878.218 2.551 1.032 5.023 2.44 2.47 1.438 3.799 2.548 3.986 3.332.126.53.188.953.188 1.267.032.782-.172.892-.608.329-.094-.094-.236-.329-.424-.704-.188-.375-.396-.626-.633-.75-.232-.126-.587-.157-1.057-.094-1.094.343-1.641 1.079-1.641 2.205l-.069.751c-.049.469-.073.867-.073 1.195 0 .329.086.696.262 1.104.171.406.428.718.771.938 1.032.594 2.191 1.971 3.473 4.129l.143-.234c.094-.126.241-.243.445-.353.203-.11.399-.133.587-.069.281.155.624.227 1.032.21.404-.016.498-.21.282-.585-.47-.814-1.176-1.862-2.114-3.144.845-.439 1.354-.657 1.526-.657.171 0 .367.235.588.704.094.218.343.428.75.632.404.204.727.422.963.657.233.235.241.555.021.963-.249.531-.367.812-.351.845.017.031-.135.218-.445.563l-.656.633c-.314.298-.534.516-.657.657a2.392 2.392 0 0 0-.375.633 2.141 2.141 0 0 0-.188.892c0 .562-.135 1.393-.4 2.486-.265 1.096-.399 1.689-.399 1.783-.062.251-.021.438.118.563a.833.833 0 0 0 .493.212c.188.016.376.094.563.234s.298.351.326.632c.065.221.159.469.282.751.126.282.236.508.33.681.094.172.163.337.212.492.045.157.004.273-.118.353-.126.078-.359.116-.706.116-.812 0-1.452.212-1.922.635-.469.422-.705.883-.705 1.383 0 .501.244 1.15.729 1.948.481.797.882 1.242 1.196 1.336.216.157.701.234 1.452.234s1.33-.141 1.738-.422l.514-.351c.127-.079.282-.196.47-.353a1.62 1.62 0 0 0 .399-.445c.078-.141.155-.314.234-.516.08-.204.108-.422.096-.657a3.114 3.114 0 0 0-.167-.775c-.122-.343-.265-.718-.42-1.126l-.351-.892a1.427 1.427 0 0 1-.096-.657c.014-.249.132-.483.353-.704l.232-.351.188-.282.144-.188.139-.165.143-.094a.262.262 0 0 1 .188-.022l.188.022.281.047c.249.063.266.235.046.517v.047l.705-.329c.437-.218.743-.53.914-.938.172-.406.282-.765.327-1.079.049-.312.15-.469.306-.469.347 0 .485.83.424 2.487-.032.094.249.361.845.798.155.032.232-.125.232-.469 0-.343-.024-.704-.069-1.08-.049-.375-.024-.624.069-.75.127-.094.417.041.869.4.453.359.885.688 1.29.985.407.297.656.336.75.116.127-.437-.016-.859-.42-1.267-.408-.406-.612-.734-.612-.985 0-.125.033-.265.094-.422.408.314.814.469 1.221.469 2.284 0 3.521.282 3.709.845.028.188.154.384.375.587.217.204.404.367.563.492a.995.995 0 0 1 .326.516c.062.221-.062.408-.375.563l-.376.234-.351.235-.331.234-.326.212-.281.188a1.15 1.15 0 0 0-.236.21l-.164.188-.139.188-.049.141c0 .126.058.212.163.259l.262.094c.061.015.053.116-.024.304-.078.188-.273.485-.588.892-.689.938-1.367 1.564-2.04 1.877-.673.314-1.212.22-1.62-.282a9.509 9.509 0 0 1-.399-.563c-.078-.125-.114-.202-.114-.235 0-.03-.049-.108-.143-.234a6.54 6.54 0 0 0-.515-.563c-.47-.594-1.126-.9-1.971-.914-.845-.017-1.379.29-1.596.914l-.236.844c-.122.439-.225.759-.306.963-.078.202-.188.461-.327.773a2.49 2.49 0 0 1-.493.751 1.415 1.415 0 0 1-.608.375c-.596.157-1.003.337-1.22.541-.221.202-.485.773-.8 1.711-.281.657-.453 1.408-.514 2.252-.065.845-.237 1.485-.519 1.924-.188.345-.522.704-1.008 1.095-.485.39-.759.922-.82 1.579-.158 1.159-.158 2.767 0 4.832.498 2.346.657 4.129.47 5.349-.065.689.225 1.457.869 2.317.641.861 1.383 1.343 2.228 1.437.216.033.759.175 1.617.425.859.249 1.61.343 2.252.281.644-.062 1.337-.359 2.088-.894.188-.122.453-.311.8-.563.343-.249.633-.452.865-.592.236-.143.518-.313.845-.534.33-.216.611-.388.845-.514l.75-.408c.27-.139.502-.232.706-.281.204-.045.399-.062.588-.062.188 0 .343.032.469.11.123.077.217.216.281.403.123.376.188.751.188 1.127 0 .375.036.705.114 1.003.081.298.273.686.587 1.155.408.534.665.877.775 1.032.11.159.241.424.4.8.154.375.2.686.139.954a4.593 4.593 0 0 1-.376.968c-.094.188-.281.579-.562 1.175a71.827 71.827 0 0 0-.657 1.407c-.155.311-.326.751-.514 1.314a10.49 10.49 0 0 0-.331 1.641v.375c0 .126-.016.266-.045.424v.376a43.824 43.824 0 0 0 6.288-12.106 41.672 41.672 0 0 0 2.252-13.607c0-5.098-.877-10.009-2.628-14.734-1.722-4.753-4.101-8.96-7.132-12.62-3.003-3.66-6.602-6.804-10.792-9.432a43.193 43.193 0 0 0-13.469-5.49c-.752.687-.846 1.126-.283 1.314zm5.305 19.893c.155-.218.281-.329.375-.329s.266.126.515.375l.236.353.188.304c.033.063.062.165.094.306.031.141.045.29.045.445-.028.408-.122.704-.281.892-.155.188-.343.204-.562.047-.249-.188-.327-.625-.233-1.314 0-.155-.032-.328-.094-.516s-.118-.32-.163-.398l-.12-.165zm.681-1.22a.79.79 0 0 1-.119-.445c0-.172.095-.305.282-.399.155-.125.358-.117.607.023.253.141.543.375.869.704.331.329.571.555.727.68.314.157.579.196.8.118.216-.078.375-.102.469-.071.094.033.124.204.094.516a2.378 2.378 0 0 0-.024.869c.049.265.055.492.024.679-.032.188-.157.298-.375.329-.971.157-1.456-.078-1.456-.704 0-.469-.037-.773-.115-.914-.081-.141-.228-.226-.448-.259-.281-.031-.547-.202-.796-.516l-.236-.235a2.086 2.086 0 0 1-.303-.375z"/></symbol><symbol id="settings" viewBox="0 0 100 100"><path d="M1 51.916v-4.832c0-1.357.474-2.51 1.421-3.458s2.084-1.421 3.41-1.421h12.125c.253 0 .537.031.853.095a30.663 30.663 0 0 1 3.931-9.378 7.347 7.347 0 0 1-.663-.568l-8.573-8.573c-.947-.947-1.421-2.092-1.421-3.433 0-1.342.474-2.487 1.421-3.435l3.41-3.41c.947-.947 2.092-1.421 3.434-1.421s2.487.474 3.434 1.421l8.573 8.573c.189.158.363.379.521.663a31.941 31.941 0 0 1 9.425-3.931 4.4 4.4 0 0 1-.095-.853V5.831c0-1.326.474-2.463 1.421-3.41S45.727 1 47.084 1h4.832c1.356 0 2.51.474 3.457 1.421s1.421 2.084 1.421 3.41v12.125c0 .253-.032.537-.095.853 3.315.789 6.441 2.1 9.378 3.931.222-.284.411-.505.568-.663l8.573-8.573c.947-.947 2.09-1.421 3.433-1.421s2.487.474 3.435 1.421l3.41 3.41c.947.947 1.421 2.092 1.421 3.435 0 1.341-.474 2.486-1.421 3.433l-8.572 8.573a3.102 3.102 0 0 1-.664.568 30.69 30.69 0 0 1 3.932 9.378c.316-.063.601-.095.853-.095H93.17c1.326 0 2.463.474 3.41 1.421s1.42 2.1 1.42 3.457v4.832c0 1.356-.474 2.51-1.421 3.457s-2.084 1.421-3.41 1.421H81.044a3.94 3.94 0 0 1-.853-.095 30.67 30.67 0 0 1-3.932 9.378c.285.222.505.411.664.568l8.572 8.573c.947.947 1.421 2.084 1.421 3.425 0 1.342-.474 2.495-1.421 3.442l-3.41 3.41c-.947.947-2.092 1.421-3.435 1.421s-2.485-.474-3.433-1.421l-8.573-8.572a6.099 6.099 0 0 1-.568-.663 30.692 30.692 0 0 1-9.378 3.931c.062.316.095.601.095.853v12.125c0 1.326-.474 2.463-1.421 3.41S53.272 98 51.916 98h-4.832c-1.357 0-2.51-.474-3.458-1.421s-1.421-2.084-1.421-3.41V81.044c0-.252.031-.536.095-.853a31.39 31.39 0 0 1-9.378-3.931 6.099 6.099 0 0 1-.568.663l-8.573 8.572c-.947.947-2.092 1.421-3.434 1.421-1.341 0-2.486-.474-3.434-1.421l-3.41-3.41c-.947-.947-1.421-2.101-1.421-3.442 0-1.341.474-2.478 1.421-3.425l8.573-8.573c.158-.189.379-.379.663-.568a30.643 30.643 0 0 1-3.931-9.378c-.315.062-.6.095-.853.095H5.831c-1.326 0-2.463-.474-3.41-1.421S1 53.272 1 51.916zm31.686-12.149c-1.736 2.977-2.605 6.229-2.605 9.733s.869 6.742 2.605 9.725c1.736 2.985 4.097 5.354 7.081 7.09 2.984 1.735 6.229 2.604 9.733 2.604s6.75-.869 9.732-2.604c2.985-1.736 5.346-4.104 7.082-7.09 1.735-2.982 2.604-6.22 2.604-9.725s-.869-6.757-2.604-9.733a19.28 19.28 0 0 0-7.082-7.081c-2.982-1.736-6.228-2.605-9.732-2.605s-6.749.869-9.733 2.605a19.27 19.27 0 0 0-7.081 7.081z"/></symbol><symbol id="share" viewBox="0 0 100 100"><path d="M71.78 59.429a12.228 12.228 0 0 0-9.087 4.026L40.745 52.618c.129-.714.202-1.45.202-2.201l-.013-.454L63.64 38.04a12.227 12.227 0 0 0 8.141 3.092c6.775 0 12.265-5.491 12.265-12.267 0-6.773-5.489-12.267-12.265-12.267s-12.265 5.493-12.265 12.267c0 .506.033 1.003.093 1.494L37.545 41.946a12.216 12.216 0 0 0-8.865-3.796c-6.773 0-12.266 5.492-12.266 12.267 0 6.775 5.492 12.264 12.266 12.264 2.854 0 5.478-.976 7.562-2.612l23.277 11.492-.003.135c0 6.773 5.489 12.267 12.265 12.267s12.265-5.493 12.265-12.269c-.001-6.774-5.49-12.265-12.266-12.265z"/></symbol><symbol id="sign-in" viewBox="0 0 100 100"><path d="M31.341 49.925H2.831V38.518h28.51V27.112l17.113 17.112L31.341 61.33V49.925zM88.373 4.3v74.14L54.156 95.555V78.44h-34.22V55.627h5.708v17.109h28.514V21.412L76.97 10.004H25.642v22.812h-5.708V4.3h68.439z"/></symbol><symbol id="sign-out" viewBox="0 0 100 100"><path d="M77.998 62.223V50.611H48.974V38.999h29.028V27.39l17.416 17.415-17.42 17.418zm-5.803-5.806v23.22H43.168v17.419L8.333 79.637V4.167h63.862v29.029H66.39V9.973H19.947l23.221 11.611v52.251h23.223V56.417h5.804z"/></symbol><symbol id="social-facebook" viewBox="0 0 100 100"><path d="M56.186 89.948V53.504H68.42L70.25 39.3H56.186v-9.067c0-4.112 1.14-6.914 7.04-6.914l7.52-.005V10.612c-1.3-.173-5.766-.56-10.96-.56-10.844 0-18.267 6.62-18.267 18.775V39.3H29.253v14.204H41.52v36.444h14.666z"/></symbol><symbol id="social-linkedin" viewBox="0 0 100 100"><path d="M27.211 20C23.225 20 20 23.237 20 27.22c0 3.988 3.226 7.224 7.211 7.224 3.976 0 7.207-3.235 7.207-7.223 0-3.983-3.231-7.22-7.206-7.22zm37.873 18.926c-6.049 0-10.106 3.322-11.767 6.473h-.166v-5.477H41.225V80H53.65V60.174c0-5.227.992-10.289 7.462-10.289 6.377 0 6.463 5.977 6.463 10.624V80H80V58.016c0-10.79-2.323-19.091-14.916-19.091zm-44.093.997V80h12.434V39.923H20.991z"/></symbol><symbol id="social-twitter" viewBox="0 0 100 100"><path d="M85 28.29a28.715 28.715 0 0 1-8.248 2.262 14.404 14.404 0 0 0 6.314-7.946 28.755 28.755 0 0 1-9.12 3.486 14.343 14.343 0 0 0-10.482-4.536c-7.932 0-14.362 6.43-14.362 14.361 0 1.126.127 2.222.372 3.273-11.936-.599-22.518-6.316-29.601-15.005a14.293 14.293 0 0 0-1.944 7.22c0 4.983 2.535 9.378 6.389 11.954a14.303 14.303 0 0 1-6.505-1.797 9.01 9.01 0 0 0-.002.18c0 6.96 4.95 12.764 11.52 14.083a14.384 14.384 0 0 1-6.485.246c1.828 5.706 7.131 9.858 13.416 9.974a28.816 28.816 0 0 1-17.836 6.147 29.22 29.22 0 0 1-3.426-.2 40.65 40.65 0 0 0 22.014 6.452c26.416 0 40.861-21.884 40.861-40.861 0-.623-.014-1.242-.041-1.858A29.187 29.187 0 0 0 85 28.29"/></symbol><symbol id="social-url" viewBox="0 0 100 100"><path d="M63.668 36.71c-3.069 0-5.996 1.18-8.246 3.313l4.303 4.735a5.705 5.705 0 0 1 3.943-1.582h12.5c3.197 0 5.797 2.657 5.797 5.926v4.3c0 3.27-2.6 5.926-5.797 5.926h-12.5c-1.467 0-2.87-.56-3.943-1.584l-4.303 4.735c2.248 2.134 5.177 3.312 8.244 3.312h12.5v.002c6.683 0 12.12-5.56 12.12-12.39v-4.301c0-6.832-5.435-12.391-12.118-12.391h-12.5zm-39.008.003c-6.68 0-12.117 5.558-12.117 12.39V53.4c0 6.833 5.436 12.391 12.117 12.391h12.5l-.004.002c3.069 0 5.996-1.177 8.246-3.313l-4.3-4.734a5.708 5.708 0 0 1-3.944 1.582h-12.5c-3.197 0-5.797-2.657-5.797-5.926v-4.3c0-3.27 2.6-5.926 5.797-5.926h12.5c1.469 0 2.869.56 3.944 1.584l4.302-4.735c-2.25-2.136-5.175-3.312-8.244-3.312h-12.5zm39.781 11.566v.002H36.387c-1.524 0-4.178.871-4.178 2.317v1.625c0 1.445 2.656 1.863 4.178 1.863H64.44c1.522 0 1.844-.417 1.844-1.86v-1.628c0-1.446-.322-2.319-1.844-2.319z"/></symbol><symbol id="social-wechat" viewBox="0 0 100 100"><path d="M35.27 21.42C14.608 25.124 7.722 48.562 24.156 59.29c.901.581.901.517-.452 4.567l-1.16 3.468 4.163-2.24 4.163-2.24 2.208.538c2.317.581 5.278.99 7.251.99h1.181l-.407-1.572c-3.239-11.978 7.96-23.846 22.528-23.846h1.973l-.408-1.422C62 26.31 48.505 19.052 35.268 21.42zm-1.803 10.49c2.187 1.487 2.317 4.697.214 6.075-3.41 2.24-7.4-1.702-5.106-5.062 1.008-1.508 3.433-2.003 4.892-1.013zm17.592 0c3.605 2.435.901 8.057-3.132 6.506-2.917-1.12-3.26-5.147-.536-6.59 1.073-.583 2.746-.539 3.669.085zm7.96 8.876c-10.233 1.872-17.334 9.671-16.927 18.633.537 11.998 14.546 20.27 27.997 16.565l1.587-.431 3.346 1.81c1.847 1.012 3.39 1.745 3.433 1.658.044-.107-.32-1.4-.793-2.887-1.072-3.317-1.093-3.08.344-4.113 16.176-11.655 1.973-35.05-18.987-31.237zm-.407 9.671c.901.604 1.374 2.111.986 3.21-.815 2.349-4.314 2.521-5.257.26-1.073-2.608 1.888-5.02 4.27-3.469zm14.33.258c1.416 1.356 1.182 3.663-.472 4.524-2.531 1.292-5.191-1.292-3.882-3.77.857-1.594 3.067-1.981 4.355-.754zM53.79 73.988"/></symbol><symbol id="social-weibo" viewBox="0 0 100 100"><path d="M66.146 21.646c-1.192.02-2.385.155-3.558.405a2.68 2.68 0 0 0-2.057 3.18 2.671 2.671 0 0 0 3.178 2.054c4.453-.946 9.272.437 12.537 4.059a13.163 13.163 0 0 1 2.752 12.883 2.682 2.682 0 0 0 5.102 1.65v-.008a18.485 18.485 0 0 0-3.875-18.11c-3.736-4.143-8.912-6.201-14.079-6.113zm-21.724 8.002c-4.936-.09-12.377 3.823-18.99 10.436C18.835 46.681 15 53.683 15 59.738c0 11.57 14.844 18.612 29.361 18.612 19.038 0 31.702-11.059 31.702-19.838.01-5.312-4.463-8.327-8.481-9.573-.985-.299-1.662-.49-1.15-1.785 1.12-2.81 1.236-5.236.02-6.974-2.27-3.245-8.49-3.07-15.618-.086 0 0-2.242.974-1.662-.793 1.091-3.525.928-6.47-.772-8.18-.965-.968-2.333-1.442-3.978-1.473zm22.467 1.52a9.014 9.014 0 0 0-2.31.193c-1.247.261-2.039 1.499-1.778 2.744a2.303 2.303 0 0 0 2.734 1.768 4.416 4.416 0 0 1 4.2 1.352 4.41 4.41 0 0 1 .917 4.318 2.315 2.315 0 0 0 1.489 2.906 2.312 2.312 0 0 0 2.908-1.486 9.02 9.02 0 0 0-1.885-8.828 8.981 8.981 0 0 0-6.275-2.967zm-23.04 14.71c13.088 0 23.704 6.607 23.704 14.759 0 8.151-10.616 14.758-23.703 14.758-13.088 0-23.702-6.607-23.702-14.758 0-8.152 10.614-14.758 23.702-14.758zm-1.437 6.245c-4.569.048-9.046 2.606-10.992 6.553-2.444 4.954-.077 10.46 5.486 12.256 5.776 1.864 12.575-.995 14.942-6.336 2.337-5.235-.58-10.614-6.287-12.092a11.968 11.968 0 0 0-3.149-.381zm1.54 6.469c.183-.004.365.026.536.094.696.25.947 1.033.56 1.738-.405.695-1.304 1.024-2 .734-.695-.28-.907-1.062-.51-1.738a1.721 1.721 0 0 1 1.413-.828zm-5.315 1.63a3.79 3.79 0 0 1 1.418.29c1.816.782 2.396 2.838 1.295 4.644-1.12 1.787-3.526 2.57-5.332 1.748-1.778-.811-2.308-2.886-1.188-4.634.833-1.304 2.345-2.066 3.807-2.047z"/></symbol><symbol id="speechbubble" viewBox="0 0 100 100"><path d="M84.934 8.5H16.926c-5.187 0-9.427 4.234-9.427 9.423v40.492c0 5.183 4.24 9.423 9.427 9.423h19.322v23.511l23.501-23.511h25.189c5.185 0 9.421-4.24 9.421-9.423V17.923c0-5.189-4.241-9.423-9.425-9.423z"/></symbol><symbol id="tick-thin" viewBox="0 0 127 117"><path d="M48.21 91.16L19.2 69.4l-7.314-5.486L.914 78.544l7.315 5.485 29.493 22.124-.182.238 7.38 5.157 7.194 5.393.183-.238.238.183 5.156-7.378 5.396-7.196-.238-.183 58.926-84.177 5.23-7.497L112.008-.022l-5.23 7.497L48.2 91.16h.01z" fill-rule="evenodd"/></symbol><symbol id="tick" viewBox="0 0 54 46"><path d="M43.391 1.557L20.299 24.646l-9.77-9.774-9.635 9.644 19.395 19.397.01-.027.033.027 32.693-32.729z"/></symbol><symbol id="warning" viewBox="0 0 83 81.167"><path d="M42.52 53.824a3.602 3.602 0 0 0-3.606 3.608 3.6 3.6 0 0 0 3.607 3.612 3.597 3.597 0 0 0 3.606-3.612c0-1.995-1.6-3.608-3.605-3.608zm0-27.584c-2.163 0-3.665 2.06-3.665 3.948.612 3.89 2.833 17.077 3.28 20.005h.777c.443-2.928 2.662-16.102 3.277-19.988 0-1.89-1.442-3.965-3.67-3.965z"/><path d="M74.704 59.318L48.48 13.9c-1.64-2.84-3.798-4.258-5.96-4.258-2.16 0-4.32 1.418-5.958 4.258L10.34 59.318C7.06 64.995 9.743 69.64 16.3 69.64h52.445c6.554.002 9.237-4.645 5.96-10.322zm-3.62 4.786c-.08.105-.747.537-2.34.537H16.3c-1.594 0-2.26-.43-2.336-.528-.052-.12-.09-.914.705-2.294L40.892 16.4c.797-1.38 1.502-1.742 1.623-1.758.133.016.84.38 1.635 1.758l26.225 45.418c.796 1.38.757 2.173.71 2.286z"/></symbol></svg>