<?xml version="1.0" encoding="UTF-8"?><!DOCTYPE svg PUBLIC "-//W3C//DTD SVG 1.1//EN" "http://www.w3.org/Graphics/SVG/1.1/DTD/svg11.dtd"><svg xmlns="http://www.w3.org/2000/svg"><symbol id="arrow-down" viewBox="0 0 1024 1024"><path d="M799 432l-64-64-224 224-224-224-64 64 288 288z"/></symbol><symbol id="arrow-left" viewBox="0 0 1024 1024"><path d="M571 800l64-64-224-224 224-224-64-64-288 288z"/></symbol><symbol id="arrow-right" viewBox="0 0 1024 1024"><path d="M448 800l-64-64 224-224-224-224 64-64 288 288z"/></symbol><symbol id="arrow-up" viewBox="0 0 1024 1024"><path d="M800 576l-64 64-224-224-224 224-64-64 288-288z"/></symbol><symbol id="arrows-left-right" viewBox="0 0 1024 1024"><path d="M595.8 305.8l-45.4 45.8L709.3 512 550.4 672.4l45.4 45.8L800 512zm-167.6 0l45.4 45.8L314.7 512l158.9 160.4-45.4 45.8L224 512z"/></symbol><symbol id="arrows-up-down" viewBox="0 0 1024 1024"><path d="M713.2 585.8l-45.8-45.4L507 699.3 346.6 540.4l-45.8 45.4L507 790zm0-167.6l-45.8 45.4L507 304.7 346.6 463.6l-45.8-45.4L507 214z"/></symbol><symbol id="book" viewBox="0 0 1024 1024"><path d="M224 279v417.3l268 102.9V379zm576 0v417.3L532 799.2V379z"/></symbol><symbol id="cross" viewBox="0 0 1024 1024"><path d="M282 672l64 64 160-160 160 160 64-64-160-160 160-160-64-64-160 160-160-160-64 64 160 160z"/></symbol><symbol id="gift" viewBox="0 0 1024 1024"><path d="M224 584v184h256V584zm320 184h256V584H544zm192-432h-64.3c4.1-4.3 7.9-8.9 11.4-13.9 13.5-19.5 20.9-42.8 20.9-65.8 0-15-3.1-29.8-9.3-43.8-5.6-12.7-13.4-24.3-23.2-34.4-21.1-21.7-49.7-34.1-78.6-34.1-28.6 0-56 10.5-77.1 29.6-1.3 1.2-2.6 2.4-3.8 3.6-1.2-1.2-2.5-2.4-3.8-3.6-21.2-19.1-48.5-29.6-77.1-29.6-28.8 0-57.4 12.4-78.6 34.1-9.8 10.1-17.6 21.6-23.2 34.4-6.2 14.1-9.3 28.8-9.3 43.8 0 23 7.4 46.3 20.9 65.8 3.4 5 7.3 9.6 11.4 13.9H224v184h256V344h64v176h256V336h-64zm-256-32h-61.3c-20.9-5.4-34.7-27.7-34.7-47.7 0-25 22.6-48.3 47.1-48.3 26.3 0 48.9 20.3 48.9 44.1V304zm125.3 0H544v-51.9c0-23.9 22.6-44.1 48.9-44.1 24.5 0 47.1 23.3 47.1 48.3 0 20-13.8 42.3-34.7 47.7z" fill-rule="evenodd" clip-rule="evenodd"/></symbol><symbol id="grid" viewBox="0 0 1024 1024"><path d="M256 256h128v128H256zm192 0h128v128H448zm192 0h128v128H640zM256 448h128v128H256zm192 0h128v128H448zm192 0h128v128H640zM256 640h128v128H256zm192 0h128v128H448zm192 0h128v128H640z"/></symbol><symbol id="hamburger" viewBox="0 0 1024 1024"><path d="M224 304h576v66H224zm0 175h576v66H224zm0 175h576v66H224z"/></symbol><symbol id="ipad" viewBox="0 0 1024 1024"><path d="M705 224H321l-32 32v512l32 32h384l32-32V256l-32-32zM513.2 792c-13.3 0-24-10.7-24-24s10.7-24 24-24 24 10.7 24 24c.1 13.3-10.7 24-24 24zM689 736H337V288h352v448z"/><path d="M377 336h272v32H377zm0 64h272v32H377zm0 64h272v32H377zm0 64h272v32H377zm0 64h272v32H377zm-4 64h236v32H373z"/></symbol><symbol id="link" viewBox="0 0 1024 1024"><path d="M209 564l168-168 64 64-136 136 128 128 136-136 64 64-168 168-32 32-256-256zm640-128L681 604l-64-64 136-136-128-128-136 136-64-64 168-168 32-32 256 256z"/><path d="M433.047 660.024l-63.993-63.993 255.97-255.97 63.993 63.993z"/></symbol><symbol id="list" viewBox="0 0 1024 1024"><path d="M220 464h96v96h-96zm0 160h96v96h-96zm0-320h96v96h-96zm160 160h416v96H380zm0 160h416v96H380zm0-320h416v96H380z"/></symbol><symbol id="lock" viewBox="0 0 1024 1024"><path fill-rule="evenodd" clip-rule="evenodd" d="M752 400h-48v-45.9c0-104.7-82.8-192.2-186.3-194.1h-11.3C402.8 161.9 320 249.4 320 354.1V400h-48l-16 15.5v337l16 16.5h480l16-16.5v-337L752 400zm-352-45.3c0-62.4 50-114.5 112-114.5s112 51.1 112 113.5V400H400v-45.3z"/></symbol><symbol id="mail" viewBox="0 0 1024 1024"><path d="M225 407.7V704l16 16h544l16-16V407.7L513 594z"/><path d="M785 304H241l-16 16v32.3L513 534l288-181.7V320z"/></symbol><symbol id="minus" viewBox="0 0 1024 1024"><path d="M284 464h448v96H284z"/></symbol><symbol id="more" viewBox="0 0 1024 1024"><path d="M325.4 501.6c0 38.3-31 69.3-69.3 69.3s-69.3-31-69.3-69.3 31-69.3 69.3-69.3 69.3 31 69.3 69.3m256.7 0c0 38.3-31 69.3-69.3 69.3s-69.3-31-69.3-69.3 31-69.3 69.3-69.3c38.2 0 69.3 31 69.3 69.3m256.6 0c0 38.3-31 69.3-69.3 69.3s-69.3-31-69.3-69.3 31-69.3 69.3-69.3c38.2 0 69.3 31 69.3 69.3" fill-rule="evenodd" clip-rule="evenodd"/></symbol><symbol id="newspaper" viewBox="0 0 1024 1024"><path d="M291 369h352v32H291zm0 64h352v32H291zm200 64h152v32H491zm-200 0h168v160H291zm200 64h152v32H491zm0 64h112v32H491z"/><path d="M715 352v-64H219v400l64 64h448l64-64V352h-80zm0 368H299l-48-48V320h432v352l48 48h-16z"/></symbol><symbol id="notifications" viewBox="0 0 1024 1024"><path d="M512.2 769.9c33.8 0 62.5-21.7 73-51.9h-146c10.5 30.2 39.2 51.9 73 51.9zm168.1-247.2c-19.9-46.7-30.6-96.2-30.6-147.9 0-32.6-9.4-58.8-29.1-77.9-17.4-16.9-40.9-27.9-69.9-33 .8-3.1 1.2-6.4 1.2-9.8 0-22.1-17.9-40-40-40s-40 17.9-40 40c0 3.4.4 6.7 1.2 9.9-28.8 5.1-52 16.1-69.3 32.9-19.9 19.1-29.3 45.4-29.3 77.9 0 51.7-10.7 101.1-30.6 147.9-19.9 46.5-49.1 85.1-88 116.9 0 10.3 3.8 19.3 11.7 26.8 7.8 7.5 17 11.6 27.7 11.6H729c10.7 0 19.9-4.1 27.7-11.6 7.8-7.5 11.7-16.5 11.7-26.8-39-31.8-68.2-70.4-88.1-116.9z"/></symbol><symbol id="pause" viewBox="0 0 1024 1024"><path d="M352 320h112v384H352zm208 0h112v384H560z"/></symbol><symbol id="phone" viewBox="0 0 1024 1024"><path d="M717.7 611.8c-27.8-16-56.6-30.3-85-45.2-9.3-4.9-17.1-2.8-23.9 5.3-9.1 10.8-19 20.9-27.7 31.9-10.5 13.3-21.8 14.6-36.9 7-48.4-24.3-88.3-57.9-118.3-103.2-21.9-33.1-22.2-32.9 2.9-63.8 3.6-4.3 8.2-8.6 9.7-13.7 2.5-8.7 5.9-19.1 3.3-27-9.6-28.8-21-57-32.7-85.1-2.1-5.1-7.6-11.2-12.5-12.2-22-4.5-43.7-5.6-61.2 13-27.9 29.6-40.7 64.2-35.6 104.9 5.4 42.8 28.3 77.6 51.2 112.6 55.4 84.7 130.2 143.9 227.4 173.8 14.4 4.4 29.4 6.7 44.2 9.9l.4-1.6c7.9-.8 15.8-1.1 23.6-2.3 46-7 76.2-38.9 79.3-85 .4-6.2-3.3-16.4-8.2-19.3"/></symbol><symbol id="play" viewBox="0 0 1024 1024"><path d="M736 512L384 288v448z"/></symbol><symbol id="plus" viewBox="0 0 1024 1024"><path d="M736 464H560V288h-96v176H288v96h176v176h96V560h176z"/></symbol><symbol id="print" viewBox="0 0 1024 1024"><path d="M408 592h208v32H408zm0 64h128v32H408z"/><path d="M736 384V256H288v128h-32v256h80v128h289l63-64v-64h80V384h-32zm-368-96h288v92H368v-92zm240 448v-48h48l-48 48zm0-80h-32v80H368V560h288v96h-48z"/><circle fill="#FFF" cx="688" cy="456" r="24"/></symbol><symbol id="search" viewBox="0 0 1024 1024"><path d="M784 720L639.6 575.6C660.1 543.3 672 505.1 672 464c0-114.9-93.1-208-208-208s-208 93.1-208 208 93.1 208 208 208c41.1 0 79.3-11.9 111.6-32.4L720 784l64-64zM362.2 565.8C335 538.6 320 502.5 320 464s15-74.6 42.2-101.8C389.4 335 425.5 320 464 320s74.6 15 101.8 42.2C593 389.4 608 425.5 608 464s-15 74.6-42.2 101.8C538.6 593 502.5 608 464 608s-74.6-15-101.8-42.2z"/></symbol><symbol id="settings" viewBox="0 0 1024 1024"><path d="M703 507c0-1.4 0-2.9-.1-4.3l83-22.3-23.3-87.4-82.9 22.2c-9.4-17.3-21.5-33-35.6-46.6l42.8-74.2-78.4-45.3L566 323c-17.4-5.2-35.9-8-55-8h-3.6l-22-82-87.4 23.4 21.8 81.5c-17.7 9.5-33.7 21.8-47.5 36.2L299.5 332l-45.3 78.4 72.7 42c-5.1 17.3-7.9 35.6-7.9 54.6 0 1.6 0 3.2.1 4.8L238 533.6l23.4 87.4 81.1-21.7c9.7 17.7 22.1 33.6 36.6 47.4l-42.1 73 78.4 45.5 42.3-73c16.9 4 34.8 7.2 53.3 7.2 1.9 0 3.7-.2 5.6-.2v-.1l22 82 87.4-23.4-22.1-82.5c17.3-9.6 32.9-21.7 46.4-36l74.2 42.8 45.3-78.4-74.4-42.9c4.9-17.1 7.6-35.1 7.6-53.7zm-368.2-76.3zm30.2-48.4c-.2.2-.4.4-.6.7.2-.3.4-.5.6-.7zm-3.5 4.2c-.2.2-.4.5-.6.7.2-.2.4-.4.6-.7zm-3.6 4.7c-.1.1-.1.2-.2.2l.2-.2zm-6.7 9.4c-.1.1-.1.2-.2.3.1-.2.1-.3.2-.3zm-3 4.6c-.1.2-.2.4-.3.5.1-.2.2-.4.3-.5zm-3 5c0 .1-.1.1-.1.2 0-.1 0-.2.1-.2zm-8 15.2s0 .1-.1.1c0 0 0-.1.1-.1zm-17.8 93.4c0-.5-.1-.9-.1-1.4 0 .5 0 1 .1 1.4zm6.5 39.4c-.1-.4-.2-.9-.4-1.3.2.4.3.9.4 1.3zm-1.4-5.3c-.1-.5-.2-.9-.3-1.4.1.5.2 1 .3 1.4zm-1.3-5.6c-.1-.3-.1-.7-.2-1 .1.3.2.7.2 1zm-2.1-11.8c-.1-.5-.1-.9-.2-1.4.1.5.1 1 .2 1.4zm-.7-5.3c-.1-.6-.1-1.2-.2-1.7.1.5.1 1.1.2 1.7zm-.6-5.5c-.1-.6-.1-1.2-.2-1.8.1.6.2 1.2.2 1.8zm17.6 64.3c.1.1.1.3.2.4-.1-.1-.2-.2-.2-.4zm-10.3-26.5c.1.3.2.6.3.8-.1-.3-.2-.5-.3-.8zm3.8 11.2c.1.1.1.3.2.4-.1-.1-.1-.3-.2-.4zm1.9 5c.1.3.2.6.4.9-.1-.3-.2-.6-.4-.9zm2.2 5c.1.3.3.6.4.9-.2-.3-.3-.6-.4-.9zm300.8-222.6l-.2-.2.2.2zm-4.2-3.5c-.2-.1-.3-.2-.5-.4.2.2.4.3.5.4zM627 354c-.1 0-.1-.1-.2-.1.1 0 .2.1.2.1zm-14-9.7c-.1-.1-.2-.1-.3-.2.1.1.2.2.3.2zm-25.3-13.4zm20.4 10.5l-.1-.1s.1 0 .1.1zm-118.2-25.2h-.2.2zm-64.5 18.9c-.3.2-.6.3-.9.5.3-.2.6-.4.9-.5zm58.9-18.2c-.2 0-.3 0-.5.1.2-.1.3-.1.5-.1zm-5.8.9h-.2.2zm-16.7 3.6c-.2.1-.4.1-.6.2.2-.1.4-.2.6-.2zm-5.3 1.4l-.9.3c.4-.1.7-.2.9-.3zm-5.3 1.7c-.2.1-.5.1-.7.2.2 0 .4-.1.7-.2zm-15.9 6c-.3.1-.6.3-.9.4.2-.1.5-.2.9-.4zm-4.9 2.2c-.4.2-.8.4-1.1.5.3-.1.7-.3 1.1-.5zm-47.3 317.5l.5.5c-.1-.2-.3-.4-.5-.5zm4.2 3.6c.2.1.3.3.5.4-.2-.1-.3-.2-.5-.4zm13.6 10.5c.2.1.3.2.5.4-.1-.1-.3-.3-.5-.4zm4.5 3.1c.2.1.4.3.7.4-.2-.1-.4-.3-.7-.4zm5 3.2c.1 0 .2.1.2.1s-.1-.1-.2-.1zm41.3 19.1c.3.1.5.2.8.3-.3-.2-.5-.3-.8-.3zm-31.3-13.4c.1.1.3.1.4.2-.2-.1-.3-.1-.4-.2zm4.8 2.5c.3.1.5.3.8.4-.3-.2-.6-.3-.8-.4zm5.1 2.5l.6.3-.6-.3zm11 4.6zm5.1 1.9c.3.1.5.2.8.3-.3-.1-.6-.2-.8-.3zm75.7 10.9c.3 0 .7 0 1-.1-.3 0-.6.1-1 .1zm5.7-.4c.4 0 .7-.1 1.1-.1-.4 0-.8 0-1.1.1zm5.8-.6c.3 0 .5-.1.8-.1-.3 0-.5 0-.8.1zm49.9-12.9c.1 0 .2-.1.3-.1 0 0-.2.1-.3.1zm-32.5 10c.2 0 .4-.1.7-.1-.3 0-.5.1-.7.1zm5.4-1.2c.3-.1.5-.1.8-.2-.3.1-.5.1-.8.2zm5.7-1.5c.1 0 .2-.1.3-.1-.1.1-.2.1-.3.1zm16.3-5.3c.1 0 .2-.1.2-.1 0 .1-.1.1-.2.1zm11.8-100.6C569 607.3 540.9 619 511 619s-58-11.7-79.2-32.8S399 536.9 399 507s11.7-58 32.8-79.2C453 406.6 481.1 395 511 395s58 11.6 79.2 32.8C611.3 449 623 477.1 623 507c0 29.9-11.7 58-32.8 79.2zm112.1-95.8c0 .3 0 .5.1.8-.1-.3-.1-.6-.1-.8zm-6.1-34.2l.3 1.2-.3-1.2zm1.4 5.6c.1.3.2.6.2.9 0-.3-.1-.6-.2-.9zm2.5 11.8zm.9 5.4c0 .3.1.6.1 1 0-.4-.1-.7-.1-1zm.7 5.5c0 .4.1.7.1 1.1 0-.3-.1-.7-.1-1.1zm-19.2-63.9c-.1-.2-.2-.4-.3-.5.1.1.2.3.3.5zm12.5 31.5c-.1-.4-.2-.7-.3-1.1.1.4.2.8.3 1.1zm-1.8-5.7c0-.1-.1-.3-.1-.4 0 .1.1.2.1.4zm-3.9-10.6c-.1-.4-.3-.7-.4-1 .2.3.3.6.4 1zm-2-4.9c-.2-.4-.4-.9-.6-1.3.2.4.4.8.6 1.3zm-2.2-5c-.2-.4-.4-.8-.5-1.2.1.4.3.8.5 1.2zm-30.5 208.6c-.2.2-.4.5-.6.7.1-.2.3-.5.6-.7zm20-27c-.1.2-.2.4-.4.6.2-.2.3-.4.4-.6zm-2.9 4.6c-.2.3-.4.5-.5.8.1-.3.3-.5.5-.8zm-3.2 4.7c-.1.2-.3.4-.4.5.1-.1.3-.3.4-.5zm-7 9.4c-.1.2-.2.3-.4.5.2-.2.3-.4.4-.5zm-3.3 4.1c-.2.3-.5.6-.7.8.2-.3.4-.5.7-.8zm35.4-63.9c0-.1.1-.3.1-.4 0 .1 0 .3-.1.4zM682.7 593l.3-.6-.3.6zm2.4-5.1c.1-.2.2-.3.2-.5 0 .2-.1.4-.2.5zm6.7-16.2c0-.1.1-.1.1-.2 0 .1-.1.2-.1.2z"/></symbol><symbol id="share" viewBox="0 0 1024 1024"><path fill-rule="evenodd" clip-rule="evenodd" d="M643.1 581.5c-27.3 0-51.8 11.8-68.8 30.6l-166.2-82.4c1-5.4 1.5-11 1.5-16.7l-.1-3.5 172-90.5c16.4 14.6 38 23.5 61.6 23.5 51.3 0 92.9-41.7 92.9-93.2s-41.6-93.2-92.9-93.2c-51.3 0-92.8 41.8-92.8 93.2 0 3.8.2 7.6.7 11.4l-167 88.1c-16.9-17.8-40.7-28.9-67.1-28.9-51.3 0-92.9 41.7-92.9 93.2s41.6 93.2 92.9 93.2c21.6 0 41.5-7.4 57.2-19.9l176.2 87.3v1c0 51.5 41.6 93.2 92.8 93.2 51.3 0 92.9-41.7 92.9-93.2 0-51.4-41.6-93.2-92.9-93.2z"/></symbol><symbol id="speech-left" viewBox="0 0 1024 1024"><path d="M499.8 594.3c0 77.3-68 136-139.2 136-85 0-160.8-54.1-160.8-171.6 0-137.6 117.5-255 289.2-267.4l4.6 29.4c-108.2 17-167 71.1-167 137.6 85.1-15.4 173.2 35.6 173.2 136zm324.7 0c0 77.3-68 136-139.2 136-85 0-160.8-54.1-160.8-171.6 0-137.6 117.5-255 289.2-267.4l4.6 29.4c-108.2 17-167 71.1-167 137.6 85.1-15.4 173.2 35.6 173.2 136z"/></symbol><symbol id="speech-right" viewBox="0 0 1024 1024"><path d="M199.5 427.2c0-77.3 68.1-136 139.2-136 85.1 0 160.9 54.1 160.9 171.6 0 137.6-117.6 255.1-289.3 267.4l-4.6-29.4c108.3-17 167.1-71.1 167.1-137.6-85.1 15.5-173.3-35.5-173.3-136zm324.9 0c0-77.3 68.1-136 139.2-136 85.1 0 160.9 54.1 160.9 171.6 0 137.6-117.6 255.1-289.3 267.4l-4.6-29.4c108.3-17 167.1-71.1 167.1-137.6-85.1 15.5-173.3-35.5-173.3-136z"/></symbol><symbol id="speech" viewBox="0 0 1024 1024"><path d="M781 272H237l-16 16v384l16 16h128v160l192-160h224l16-16V288z"/></symbol><symbol id="stop" viewBox="0 0 1024 1024"><path d="M320 320h384v384H320z"/></symbol><symbol id="tick" viewBox="0 0 1024 1024"><path d="M384 768L192 576l64-64 128 128 352-352 64 64z"/></symbol><symbol id="user" viewBox="0 0 1024 1024"><path d="M513 195.938c-67.9 0-123.4 55.7-123.4 123.9s55.5 123.9 123.4 123.9 123.4-55.7 123.4-123.9-55.5-123.9-123.4-123.9zM512 468.5c-123.7 0-224 70.6-224 157.8V768l16.2 16H720l16-15V626.2c0-87.1-100.3-157.7-224-157.7z"/></symbol><symbol id="users" viewBox="0 0 1024 1024"><path fill="none" d="M796.9 582.3c-2.9-83.4-97.9-150.8-216-153.7-5.4 7.8-11.6 15.1-18.4 21.9 6.8-6.8 12.9-14.1 18.4-21.9 118.1 2.9 213.1 70.2 216 153.7zm-170.5-85.4c25.2 17.7 45.1 38.8 59.3 62.3 15.5 25.8 23.3 53.3 23.3 82 0-28.7-7.8-56.3-23.3-82.1-14.2-23.5-34.1-44.5-59.3-62.2z"/><path d="M562.5 219.1c15 15 26.8 32.6 35 52 8.6 20.2 12.9 41.7 12.9 63.7s-4.3 43.5-12.9 63.7c-.5 1.1-1 2.3-1.5 3.4 58-10.1 102.4-61.1 102.4-122.1 0-68.2-55.5-123.9-123.4-123.9-27.4 0-52.9 9.1-73.4 24.5 3 1.1 6 2.3 9 3.5 19.5 8.3 36.9 20.1 51.9 35.2zm18.4 209.5c-5.4 7.8-11.6 15-18.4 21.9-3.4 3.4-6.8 6.5-10.4 9.5 27.2 9 52.3 21.4 74.3 36.9 25.2 17.7 45.1 38.7 59.3 62.3 15.5 25.8 23.3 53.4 23.3 82.1V745h73l15-16V586.2c0-1.3 0-2.7-.1-4-2.9-83.4-97.9-150.7-216-153.6z"/><path fill="#FFF" d="M813.7 504.2c-14.2-23.6-34.1-44.6-59.3-62.3-22-15.5-47.1-27.9-74.3-36.9 3.6-3 7.1-6.1 10.4-9.5 15-15 26.8-32.5 35-52 8.6-20.2 12.9-41.6 12.9-63.7s-4.3-43.5-12.9-63.7c-8.2-19.5-20-37-35-52-15-15.1-32.5-26.9-51.9-35.2-20.2-8.6-41.6-13-63.6-13s-43.4 4.4-63.6 13c-19.4 8.3-36.9 20.1-51.9 35.2-2.3 2.3-4.4 4.6-6.5 7-2-.1-4-.1-6-.1-22 0-43.4 4.4-63.6 13-19.4 8.3-36.9 20.1-51.9 35.2-15 15-26.8 32.6-35 52-8.6 20.2-12.9 41.7-12.9 63.7s4.3 43.5 12.9 63.7c8.2 19.5 20 36.9 35 51.9 3 3 6.1 6.5 9.3 8.5-28.3 9-54.4 21.8-77.2 37.9-25.2 17.7-45.1 38.7-59.3 62.3-15.5 25.8-23.3 53.4-23.3 82.1v158.4l11.9 11.7 17.2 17 11.7 11.6h449.5l11.9-12.6 15-16 10.8-11.5V785h90.3l11.9-12.6 15-16 10.8-11.5V586.2c0-28.6-7.8-56.2-23.3-82zM575 155.9c67.9 0 123.4 55.7 123.4 123.9 0 61-44.4 112-102.4 122.1.5-1.1 1-2.3 1.5-3.4 8.6-20.2 12.9-41.7 12.9-63.7s-4.3-43.5-12.9-63.7c-8.2-19.5-20-37-35-52-15-15.1-32.5-26.9-51.9-35.2-3-1.3-6-2.4-9-3.5 20.5-15.4 46-24.5 73.4-24.5zM323.6 334.8c0-68.2 55.5-123.9 123.4-123.9s123.4 55.7 123.4 123.9S514.9 458.7 447 458.7c-67.9.1-123.4-55.7-123.4-123.9zM669 784l-15 16H238.2L221 783V641.2c0-87.1 100.3-157.8 224-157.8S669 554 669 641.2V784zm128-55l-15 16h-73V641.2c0-28.7-7.8-56.2-23.3-82-14.2-23.6-34.1-44.6-59.3-62.3-22-15.5-47.1-27.9-74.3-36.9 3.6-3 7.1-6.1 10.4-9.5 6.8-6.8 12.9-14.1 18.4-21.9 118.1 2.9 213.1 70.3 216 153.7 0 1.3.1 2.7.1 4V729z"/><path d="M447 458.8c67.9 0 123.4-55.7 123.4-123.9S514.9 211 447 211s-123.4 55.7-123.4 123.9c0 68.1 55.5 123.9 123.4 123.9zm-2 24.7c-123.7 0-224 70.6-224 157.8V783l17.2 17H654l15-16V641.2c0-87.1-100.3-157.7-224-157.7z"/></symbol><symbol id="warning" viewBox="0 0 1024 1024"><path d="M504.3 605.1C494.2 525 450.9 350.2 439 290.4c0-35 29.4-75.5 72.7-75.5 43.2 0 72.7 40.5 72.7 75.5-11 59.8-55.2 234.6-65.3 314.7h-14.8zm7.4 47.9c38.6 0 69 30.4 69 69 0 37.7-30.4 69-69 69s-69-31.3-69-69c-.1-38.7 30.3-69 69-69z"/></symbol></svg>